<svg width="72" height="73" fill="none" xmlns="http://www.w3.org/2000/svg"><circle cx="36" cy="36.336" r="35.5" fill="#DCB971" stroke="#FCFAF7"/><path d="M48.154 33.77c-.14-.319-.307-.673-.495-1.068-.82-1.735-2.06-4.354-2.788-8.052a31.715 31.715 0 01-.42-9.26.754.754 0 10-1.5-.148 33.234 33.234 0 00.439 9.7c.764 3.883 2.051 6.606 2.904 8.406.18.382.342.724.477 1.03 1.091 2.487 1.34 9.036.543 14.315-.518 2.228-1.277 4.624-2.255 7.123a.757.757 0 00.702 1.03.75.75 0 00.701-.48c1.008-2.577 1.79-5.053 2.325-7.358 0-.01 0-.018.003-.028 0-.01.005-.02.008-.03.867-5.71.58-12.377-.649-15.177l.005-.003zM29.632 23.587c.418-2.725.485-5.533.206-8.347a.754.754 0 10-1.5.149c.269 2.692.2 5.38-.197 7.984v.013c-.525 3.884-2.312 7.78-3.172 9.65-.13.288-.244.534-.332.733-2.509 5.714-1.94 13.316 1.687 22.593a.756.756 0 00.975.427.755.755 0 00.428-.978c-3.477-8.892-4.053-16.105-1.712-21.437.085-.193.193-.43.322-.709.887-1.935 2.735-5.963 3.293-10.063v-.013l.002-.002zm10.092 17.735a.755.755 0 00-1.044.224 9.131 9.131 0 01-2.305 2.43 7.318 7.318 0 01-1.237-1.04 7.313 7.313 0 01-1.01-1.355.753.753 0 00-1.031-.277.753.753 0 00-.277 1.031 8.724 8.724 0 001.222 1.637 8.863 8.863 0 001.596 1.322v10.798a.753.753 0 101.509 0V45.274a10.523 10.523 0 002.798-2.906.755.755 0 00-.224-1.043l.003-.003z" fill="#FCFAF7"/><path d="M41.967 31.324a2.653 2.653 0 00-.699-2.567 2.688 2.688 0 00-2.567-.699 2.683 2.683 0 00-4.548-.113c-.025.038-.042.075-.065.113a2.653 2.653 0 00-2.57.699 2.684 2.684 0 00-.698 2.567 2.683 2.683 0 00-.11 4.55c.034.023.075.04.112.063a2.69 2.69 0 00.7 2.572 2.657 2.657 0 002.569.699c.022.037.04.075.065.113a2.683 2.683 0 004.55-.116c.043.01.083.025.126.035a2.679 2.679 0 002.438-.731 2.657 2.657 0 00.7-2.572c.037-.023.077-.04.113-.063a2.68 2.68 0 00-.11-4.548l-.006-.002zm-.717 3.29a1.16 1.16 0 01-1.11.099l-.335-.144c.083-.296.13-.61.13-.932 0-.322-.047-.636-.13-.933l.334-.143c.151-.066.31-.098.468-.098.563 0 1.174.45 1.174 1.176 0 .402-.194.76-.528.98l-.003-.004zm-9.716 0a1.152 1.152 0 01-.528-.98c0-.726.608-1.176 1.174-1.176.158 0 .314.032.465.098l.407.176a3.45 3.45 0 00-.123.902c0 .312.045.614.123.903l-.407.176a1.16 1.16 0 01-1.111-.098zm2.904-.98c0-1.099.894-1.994 1.993-1.994 1.099 0 1.994.895 1.994 1.994a1.997 1.997 0 01-1.994 1.994 1.997 1.997 0 01-1.993-1.994zm5.761-3.808a1.157 1.157 0 01.302 1.128 2.67 2.67 0 00-.96.216l-.448.194a3.512 3.512 0 00-.435-.43l.194-.45c.133-.31.204-.63.216-.96.365-.096.8-.03 1.129.302h.002zm-3.808-1.58c.726 0 1.176.61 1.176 1.175 0 .158-.032.314-.098.465l-.156.362a3.504 3.504 0 00-.88-.116c-.331 0-.65.05-.955.136l-.163-.38a1.16 1.16 0 01.098-1.11 1.15 1.15 0 01.98-.529l-.002-.002zm-3.809 1.577c.221-.221.515-.345.825-.345.103 0 .203.016.304.043.013.327.085.651.219.96l.216.503a3.339 3.339 0 00-.397.403l-.508-.22a2.669 2.669 0 00-.96-.215c-.096-.365-.03-.8.301-1.13zm0 7.617a1.16 1.16 0 01-.301-1.131c.326-.013.65-.083.96-.216l.505-.219c.12.146.256.28.397.402l-.216.503c-.133.31-.206.636-.219.96a1.235 1.235 0 01-.304.043c-.309 0-.603-.123-.824-.344l.002.002zm3.809 1.577c-.402 0-.76-.194-.98-.528a1.16 1.16 0 01-.099-1.111l.164-.383c.304.086.623.136.955.136.086 0 .171-.008.254-.013l.191.48c.123.312.304.594.525.833a1.16 1.16 0 01-1.01.583v.003zM40.2 37.44a1.153 1.153 0 01-1.069.32 1.153 1.153 0 01-.855-.717l-.14-.357c.364-.203.686-.47.957-.787l.448.194c.31.133.633.2.96.216a1.163 1.163 0 01-.302 1.131z" fill="#FCFAF7"/></svg>