<svg width="73" height="73" fill="none" xmlns="http://www.w3.org/2000/svg"><circle cx="36.18" cy="36.547" r="35.5" fill="#FCFAF7" stroke="#BDA37E"/><path d="M48.334 33.981a39.988 39.988 0 00-.496-1.068c-.82-1.735-2.059-4.354-2.788-8.052a31.714 31.714 0 01-.42-9.26.754.754 0 10-1.5-.148 33.234 33.234 0 00.44 9.7c.764 3.883 2.051 6.606 2.903 8.406.181.382.342.724.478 1.03 1.091 2.487 1.34 9.036.543 14.315-.518 2.228-1.277 4.624-2.255 7.122a.757.757 0 00.701 1.031.75.75 0 00.702-.48c1.008-2.577 1.79-5.053 2.325-7.358 0-.01 0-.018.003-.028 0-.01.005-.02.007-.03.868-5.71.581-12.377-.648-15.177l.005-.003zM29.812 23.8c.417-2.725.485-5.534.206-8.347a.754.754 0 10-1.5.149 32 32 0 01-.197 7.984v.013c-.525 3.884-2.313 7.78-3.172 9.65-.131.287-.244.534-.332.732-2.51 5.715-1.941 13.317 1.687 22.593a.756.756 0 00.975.428.755.755 0 00.427-.978c-3.476-8.892-4.052-16.105-1.712-21.437.086-.193.194-.43.322-.709.888-1.936 2.735-5.963 3.294-10.063v-.013l.002-.002zm10.091 17.735a.755.755 0 00-1.043.224 9.14 9.14 0 01-2.305 2.43 7.318 7.318 0 01-1.237-1.04 7.313 7.313 0 01-1.01-1.355.753.753 0 00-1.032-.277.753.753 0 00-.276 1.031c.342.59.752 1.142 1.222 1.637a8.863 8.863 0 001.596 1.322v10.798a.753.753 0 101.509 0V45.487a10.537 10.537 0 002.798-2.906.755.755 0 00-.224-1.044l.002-.002z" fill="#BDA37E"/><path d="M42.147 31.539a2.653 2.653 0 00-.699-2.567 2.688 2.688 0 00-2.567-.699 2.678 2.678 0 00-4.548-.113c-.025.038-.043.075-.065.113a2.653 2.653 0 00-2.57.699A2.683 2.683 0 0031 31.539a2.683 2.683 0 00-.111 4.55c.035.023.075.04.113.063-.231.9.013 1.885.699 2.572a2.658 2.658 0 002.57.699c.022.037.04.075.065.113a2.683 2.683 0 004.55-.116c.043.01.083.025.126.035a2.679 2.679 0 002.438-.731 2.658 2.658 0 00.699-2.572c.038-.023.078-.04.113-.063a2.68 2.68 0 00-.11-4.548l-.005-.002zm-.717 3.29a1.16 1.16 0 01-1.111.099l-.335-.144a3.423 3.423 0 00.001-1.865l.334-.143c.15-.066.31-.099.467-.099.564 0 1.175.45 1.175 1.177 0 .402-.194.76-.528.98l-.003-.005zm-9.716 0a1.152 1.152 0 01-.528-.98c0-.727.608-1.177 1.174-1.177.158 0 .314.033.465.099l.407.175a3.46 3.46 0 00-.123.903c0 .312.045.613.123.903l-.407.175a1.16 1.16 0 01-1.112-.098zm2.903-.98c0-1.099.895-1.994 1.994-1.994 1.098 0 1.993.895 1.993 1.994a1.997 1.997 0 01-1.993 1.994 1.997 1.997 0 01-1.994-1.994zm5.762-3.809c.221.222.345.516.345.825 0 .103-.015.206-.043.304-.33.013-.651.083-.96.216l-.448.194a3.504 3.504 0 00-.435-.43l.194-.45a2.67 2.67 0 00.216-.96c.364-.096.8-.03 1.129.301h.002zm-3.808-1.578c.726 0 1.176.608 1.176 1.174 0 .158-.033.314-.098.465l-.156.362a3.503 3.503 0 00-.88-.116c-.332 0-.65.05-.955.136l-.163-.38a1.16 1.16 0 01.098-1.111 1.15 1.15 0 01.98-.528l-.002-.002zm-3.81 1.576a1.142 1.142 0 011.129-.302c.013.327.086.651.22.96l.215.503a3.34 3.34 0 00-.397.402l-.508-.218a2.664 2.664 0 00-.96-.216c-.095-.365-.03-.8.302-1.13zm0 7.617a1.16 1.16 0 01-.3-1.131 2.68 2.68 0 00.96-.216l.505-.22c.12.147.256.28.397.403l-.216.503c-.133.31-.206.636-.219.96a1.23 1.23 0 01-.304.043c-.31 0-.604-.123-.825-.344l.003.002zm3.81 1.576c-.403 0-.76-.193-.98-.528a1.16 1.16 0 01-.099-1.11l.163-.383c.305.086.624.136.956.136.085 0 .17-.008.254-.013l.19.48c.124.312.305.594.526.833a1.159 1.159 0 01-1.01.583v.002zm3.808-1.576a1.153 1.153 0 01-1.068.32 1.153 1.153 0 01-.855-.717l-.14-.357a3.54 3.54 0 00.957-.787l.447.194c.31.133.634.2.96.216.029.1.044.203.044.307 0 .309-.124.603-.345.824z" fill="#BDA37E"/></svg>