<svg width="73" height="73" fill="none" xmlns="http://www.w3.org/2000/svg"><circle cx="36.18" cy="36.484" r="35.5" fill="#FCFAF7" stroke="#BDA37E"/><path fill-rule="evenodd" clip-rule="evenodd" d="M32.497 39.468a1 1 0 11-2 .002 1 1 0 012-.002zm5 .996a1 1 0 11-2 .002 1 1 0 012-.002zm-3.995 5.003a1 1 0 10-.002-2 1 1 0 00.002 2zm5.998-2.005a1 1 0 11-2 .002 1 1 0 012-.002zm1.004 5a1 1 0 10-.002-2 1 1 0 00.002 2zm2.996-5.003a1 1 0 11-2 .002 1 1 0 012-.002zm-7.995 6.007a1 1 0 10-.002-2 1 1 0 00.002 2zm-4.002-1.997a1 1 0 11-2 .001 1 1 0 012-.001zm-3.002-2.998a1 1 0 10-.002-2 1 1 0 00.002 2z" fill="#BDA37E"/><path fill-rule="evenodd" clip-rule="evenodd" d="M36.016 18.484a1.5 1.5 0 011.5 1.5v15.5h2v-12.5a1.5 1.5 0 113 0V38.57c0 1.904 2.41 2.73 3.578 1.228l3.187-4.097a1.518 1.518 0 012.496 1.72l-7.204 11.863a10.814 10.814 0 01-9.243 5.2c-5.973 0-10.814-4.841-10.814-10.814V28.984a1.5 1.5 0 013 0v8.618h2V22.984a1.5 1.5 0 113 0v12.5h2v-15.5a1.5 1.5 0 011.5-1.5zm-3.497 1.339a3.5 3.5 0 016.993 0 3.5 3.5 0 015.004 3.162V38.57l3.186-4.097a3.518 3.518 0 015.784 3.986l-7.204 11.863a12.814 12.814 0 01-10.952 6.162c-7.077 0-12.814-5.737-12.814-12.814V28.984a3.5 3.5 0 015-3.163v-2.837a3.5 3.5 0 015.003-3.161z" fill="#BDA37E"/></svg>