<svg width="48" height="48" fill="none" xmlns="http://www.w3.org/2000/svg"><circle cx="24" cy="24" r="23.5" fill="#FCFAF7" stroke="#BDA37E"/><path d="M20.227 20.078v-2h1.333v2h2v1.334h-2v2h-1.333v-2h-2v-1.334h2z" fill="#BDA37E"/><path fill-rule="evenodd" clip-rule="evenodd" d="M11.555 16.744a2 2 0 012-2H28.22a2 2 0 012 2v4h2.48a2 2 0 011.357.53l3.52 3.251a2 2 0 01.644 1.47v5.416h-2.084a2.668 2.668 0 01-5.165 0h-6.168a2.668 2.668 0 01-5.165 0h-.835a2.668 2.668 0 01-5.165 0h-2.084V16.744zm22 11.334c-1.243 0-2.287.85-2.583 2h-.75v-3.334h6.666v3.334h-.75c-.297-1.15-1.34-2-2.583-2zm-.403-5.824l3.42 3.157h-6.35v-3.334H32.7c.168 0 .33.064.452.177zm-19.597-6.177a.667.667 0 00-.667.667v8.667h16v-8.667a.667.667 0 00-.667-.666H13.555zm8.666 12c1.243 0 2.287.85 2.583 2h4.084v-3.333h-16v3.334h.75a2.668 2.668 0 015.166 0h.835c.296-1.15 1.34-2 2.582-2zm-6 4a1.333 1.333 0 110-2.666 1.333 1.333 0 010 2.666zm7.334-1.333a1.333 1.333 0 11-2.667 0 1.333 1.333 0 012.667 0zm10 1.334a1.333 1.333 0 100-2.667 1.333 1.333 0 000 2.666z" fill="#BDA37E"/></svg>