<svg width="73" height="73" fill="none" xmlns="http://www.w3.org/2000/svg"><circle cx="36.18" cy="36.547" r="35.5" fill="#FCFAF7" stroke="#BDA37E"/><path d="M56.128 30.375l-1.61-1.433a6.308 6.308 0 01-2.113-4.708V17.54a3.56 3.56 0 00-3.556-3.556c-2.308 0-4.484.588-6.382 1.618-1.712-1.01-3.902-1.618-6.29-1.618-2.387 0-4.535.57-6.3 1.613a13.336 13.336 0 00-6.368-1.613 3.56 3.56 0 00-3.556 3.556v6.694c0 1.797-.77 3.513-2.114 4.708l-1.61 1.433a7.788 7.788 0 00-2.612 5.814v5.287a3.56 3.56 0 002.86 3.486c.28 2.42 2.064 4.294 4.217 4.294 2.348 0 4.259-2.227 4.259-4.965 0-2.739-1.911-4.963-4.26-4.963-2.098 0-3.841 1.777-4.192 4.108a2.077 2.077 0 01-1.402-1.96v-5.287c0-1.797.77-3.513 2.113-4.708l1.61-1.432a7.787 7.787 0 002.613-5.815V17.54c0-1.143.93-2.074 2.074-2.074 6.32 0 11.506 4.943 11.903 11.165-4.279-.259-7.642-2.657-7.642-5.57 0-.832.274-1.632.813-2.383a.74.74 0 00-.17-1.034.74.74 0 00-1.035.17c-.714.993-1.092 2.116-1.092 3.247 0 2.748 2.205 5.136 5.413 6.306a4.94 4.94 0 00-.487 2.14 4.969 4.969 0 004.223 4.904v23.215a1.371 1.371 0 01-1.334-1.37V37.155c0-.936-.496-1.815-1.328-2.35a6.364 6.364 0 01-2.05-2.149.742.742 0 00-1.281.743 7.856 7.856 0 002.53 2.652c.406.262.648.674.648 1.106V56.26a2.855 2.855 0 002.852 2.851h1.407a2.855 2.855 0 002.852-2.852v-19.1c0-.433.242-.845.647-1.107a7.856 7.856 0 002.53-2.652.742.742 0 00-1.28-.743 6.35 6.35 0 01-2.053 2.148c-.832.536-1.328 1.415-1.328 2.35v19.102c0 .743-.595 1.348-1.334 1.37V34.411a4.968 4.968 0 004.223-4.903.74.74 0 10-1.482 0 3.485 3.485 0 01-3.481 3.481 3.487 3.487 0 01-3.032-5.195c.955.22 1.975.341 3.032.341 5.454 0 9.891-3.175 9.891-7.077 0-1.698-.842-3.261-2.244-4.481a11.877 11.877 0 015.022-1.114c1.143 0 2.074.931 2.074 2.075v6.693c0 2.22.95 4.341 2.612 5.815l1.61 1.432a6.308 6.308 0 012.114 4.709v5.286c0 .909-.588 1.682-1.403 1.96-.348-2.33-2.093-4.108-4.192-4.108-2.348 0-4.26 2.227-4.26 4.963s1.912 4.966 4.26 4.966c2.153 0 3.933-1.872 4.217-4.294a3.564 3.564 0 002.86-3.487v-5.286a7.78 7.78 0 00-2.613-5.815l.007.003zM20.691 40.806c1.534 0 2.778 1.563 2.778 3.481 0 1.919-1.247 3.484-2.778 3.484-1.53 0-2.777-1.563-2.777-3.484 0-1.92 1.246-3.481 2.777-3.481zM31.326 16.51c1.415-.674 3.099-1.042 4.852-1.042 1.753 0 3.489.386 4.864 1.035a13.457 13.457 0 00-4.864 6.509 13.476 13.476 0 00-4.852-6.5v-.002zm13.262 4.55c0 2.915-3.363 5.312-7.642 5.571a11.934 11.934 0 015.5-9.294c1.332.99 2.142 2.294 2.142 3.724zm7.076 26.712c-1.533 0-2.778-1.563-2.778-3.484 0-1.92 1.247-3.481 2.778-3.481s2.778 1.563 2.778 3.481c0 1.919-1.247 3.484-2.778 3.484z" fill="#BDA37E"/></svg>