<svg width="73" height="73" fill="none" xmlns="http://www.w3.org/2000/svg"><circle cx="36.18" cy="36.484" r="35.5" fill="#FCFAF7" stroke="#BDA37E"/><path fill-rule="evenodd" clip-rule="evenodd" d="M47.36 36.39h6.75a3.32 3.32 0 100-6.64H37.184l2.286-.835c2.2-.805 2.834-3.615 1.192-5.287a3.223 3.223 0 00-3.398-.77L25.28 27.202A11.91 11.91 0 0017.43 38.4c0 6.578 5.332 11.91 11.91 11.91h11.064a3 3 0 003-3v-.64c0-.35-.06-.687-.171-1h.542a3 3 0 003-3v-.64c0-.584-.168-1.13-.457-1.59a2.996 2.996 0 001.212-2.41v-.64c0-.35-.06-.687-.17-1zm8.07-3.32a1.32 1.32 0 00-1.32-1.32H37.184c-2.236 0-2.787-3.11-.687-3.878l2.286-.835a1.223 1.223 0 00-.837-2.3l-11.984 4.346A9.91 9.91 0 0019.43 38.4c0 5.473 4.437 9.91 9.91 9.91h11.064a1 1 0 001-1v-.64a1 1 0 00-1-1h-3.736v-2h7.107a1 1 0 001-1v-.64a1 1 0 00-1-1h-4.828v-2h5.583a1 1 0 001-1v-.64a1 1 0 00-1-1h-5.583v-2h10.485a1.12 1.12 0 01-.002-.08c0-.828.895-1.5 2-1.5 1.104 0 2 .672 2 1.5 0 .027-.001.054-.003.08h.683a1.32 1.32 0 001.32-1.32z" fill="#BDA37E"/><path d="M54.43 42.447c0 1.6-1.32 2.858-3 2.858s-3-1.258-3-2.858 3-5.142 3-5.142 3 3.657 3 5.142z" fill="#BDA37E"/></svg>