<svg width="73" height="73" fill="none" xmlns="http://www.w3.org/2000/svg"><circle cx="36.18" cy="36.484" r="35.5" fill="#FCFAF7" stroke="#BDA37E"/><path fill-rule="evenodd" clip-rule="evenodd" d="M39.105 16.484c.967 0 1.866.217 2.667.675.685.391 1.462.93 2.037 1.735l-.013.009.012.015 2.331 3.022.821 1.095a9.414 9.414 0 01-.001 11.339l-4.508 5.819 6.949 8.944a2 2 0 01-.241 2.713l-4.066 3.661a2 2 0 01-2.912-.252l-5.79-7.383-5.845 7.451a2 2 0 01-2.781.36l-4.379-3.317a2 2 0 01-.368-2.825l7.314-9.359-4.504-5.714-.006-.008a9.414 9.414 0 01-.002-11.339l.002-.002.811-1.082 2.337-3.028c.035-.048.071-.095.108-.142 1.11-1.537 2.954-2.387 4.779-2.387h5.248zm1.675 2.411c.55.315 1.019.66 1.347 1.088l-.014.012.1.13a4.034 4.034 0 01-.022 4.791c-.934-.57-2.045-.922-3.177-.922h-5.248c-1.122 0-2.267.3-3.24.924a4.206 4.206 0 01-.736-2.367c0-.815.257-1.632.774-2.33l.115-.15.01-.015c.702-.982 1.925-1.572 3.168-1.572h5.248c.66 0 1.21.146 1.675.411zm-9.025 7.616l4.6 5.942 4.6-5.942c-.599-.325-1.278-.517-1.94-.517h-5.248c-.72 0-1.42.178-2.012.517zm9.422 12.06l-3.552-4.49 6.066-7.836a5.953 5.953 0 001.199-2.638l.475.633a7.415 7.415 0 01.003 8.922l-4.19 5.41zm-9.57 3.232l-7.013 8.973 4.378 3.317 6.146-7.836-3.511-4.454zM29.09 26.336a6.061 6.061 0 01-1.192-2.647l-.48.638-.002.004a7.414 7.414 0 00-.006 8.918l9.767 12.39 6.578 8.386 4.066-3.661-7.42-9.55-4.795-6.062-6.516-8.416z" fill="#BDA37E"/></svg>