<svg width="48" height="48" fill="none" xmlns="http://www.w3.org/2000/svg"><circle cx="24" cy="24" r="23.5" fill="#FCFAF7" stroke="#BDA37E"/><path fill-rule="evenodd" clip-rule="evenodd" d="M15.566 17.077c-.974 1.239-1.563 2.931-1.563 4.698a9.29 9.29 0 00.486 2.94h5.79l2.26-4.016 1.41 4.94 1.727-2.22h4.327v1.333h-3.674l-2.94 3.78-1.255-4.394-1.075 1.91h-9.723v-1.333h1.757a10.519 10.519 0 01-.424-2.94c0-2.05.681-4.036 1.848-5.521 1.17-1.49 2.856-2.502 4.84-2.502 2.335 0 4.112 1.309 5.312 3.156 1.2-1.847 2.977-3.156 5.313-3.156 1.983 0 3.67 1.012 4.84 2.502 1.166 1.485 1.847 3.471 1.847 5.521 0 4.388-3.029 8.053-5.895 10.554a32.782 32.782 0 01-5.662 3.943 9.186 9.186 0 01-.1.054l-.028.014-.007.003-.003.002-.305-.593-.29.6-.003-.001-.01-.005-.033-.016a17.348 17.348 0 01-.584-.305 29.506 29.506 0 01-1.596-.935c-1.3-.816-3.007-2.018-4.612-3.555a19.976 19.976 0 01-2.413-2.752.667.667 0 111.083-.778c.67.933 1.444 1.792 2.253 2.567 1.52 1.456 3.146 2.603 4.398 3.388A28.181 28.181 0 0024.66 35l.168-.094a31.448 31.448 0 005.069-3.581c2.8-2.445 5.438-5.769 5.438-9.55 0-1.766-.59-3.459-1.563-4.697-.97-1.235-2.295-1.993-3.791-1.993-2.069 0-3.673 1.348-4.714 3.468l-.599 1.219-.598-1.219c-1.041-2.12-2.646-3.468-4.714-3.468-1.497 0-2.821.758-3.791 1.992zm9.103 18.675l-.29.6.3.144.295-.151-.305-.593z" fill="#BDA37E"/></svg>