<svg width="73" height="73" fill="none" xmlns="http://www.w3.org/2000/svg"><circle cx="36.18" cy="36.547" r="35.5" fill="#FCFAF7" stroke="#BDA37E"/><path d="M25.65 45.662c-.448 0-.882-.141-1.25-.41a2.144 2.144 0 01-.864-1.405 2.156 2.156 0 011.776-2.475 2.156 2.156 0 012.467 1.784 2.156 2.156 0 01-1.777 2.475c-.115.02-.233.028-.349.028l-.003.003zm.006-2.66a.497.497 0 00-.492.58.5.5 0 00.571.414.499.499 0 00-.08-.994zm-.006 10.936c-.448 0-.882-.141-1.25-.409a2.164 2.164 0 01.913-3.884 2.154 2.154 0 012.466 1.785 2.156 2.156 0 01-1.777 2.475 2.12 2.12 0 01-.349.027l-.003.006zm-.074-2.655a.5.5 0 10.484.788.5.5 0 00-.484-.787zm6.197-5.62a2.155 2.155 0 01-2.12-1.812 2.162 2.162 0 011.776-2.478 2.119 2.119 0 011.6.378 2.164 2.164 0 01-1.257 3.911zm0-2.66c-.027 0-.055 0-.08.005a.5.5 0 00.16.989.5.5 0 00-.08-.994zm0 10.93a2.155 2.155 0 01-2.12-1.812 2.155 2.155 0 011.776-2.475 2.12 2.12 0 011.6.379 2.16 2.16 0 01.49 3.013 2.132 2.132 0 01-1.746.895zm0-2.66a.497.497 0 00-.404.207.498.498 0 10.896.213.5.5 0 00-.492-.42zm6.117-5.61a2.155 2.155 0 01-2.12-1.812 2.164 2.164 0 011.776-2.478 2.119 2.119 0 011.6.378c.465.337.773.837.867 1.406a2.144 2.144 0 01-.377 1.608 2.132 2.132 0 01-1.746.895v.003zm-.08-2.655a.502.502 0 00.16.989.497.497 0 00.412-.575.5.5 0 00-.572-.414zm.077 10.923a2.159 2.159 0 01-2.117-1.815 2.164 2.164 0 011.776-2.478 2.109 2.109 0 011.6.382c.465.337.773.837.864 1.406a2.156 2.156 0 01-2.125 2.502l.002.003zm-.074-2.654a.502.502 0 00.16.988.499.499 0 00.212-.9.505.505 0 00-.372-.089zm6.185 2.658a2.159 2.159 0 01-2.117-1.815c-.094-.569.04-1.14.376-1.607a2.132 2.132 0 011.4-.868 2.154 2.154 0 012.466 1.785 2.156 2.156 0 01-1.776 2.475 2.12 2.12 0 01-.35.027v.003zm.005-2.66c-.027 0-.052 0-.08.006a.499.499 0 00-.212.9.497.497 0 00.784-.486.5.5 0 00-.492-.42z" fill="#BDA37E"/><path d="M58.488 22.279l-1.73-3.008a1.247 1.247 0 00-1.712-.462l-.264.155-.996-1.732a1.649 1.649 0 00-1.424-.826h-6.424c-.434 0-.858.177-1.163.486l-1.108 1.114-1.108-1.114a1.638 1.638 0 00-1.166-.486H34.97c-.586 0-1.13.318-1.425.826l-.995 1.732-.264-.152a1.244 1.244 0 00-1.713.461l-1.73 3.011a1.263 1.263 0 00.46 1.721l1.954 1.136a1.226 1.226 0 00.952.124c.324-.088.594-.296.761-.588l1.73-3.011a1.263 1.263 0 00-.46-1.721l-.263-.152.99-1.73h6.423l1.45 1.456v.962h-.463a1.24 1.24 0 00-1.234 1.24v16.872h-6.935l.726-.82a1.456 1.456 0 000-1.928l-.908-1.022.908-1.023a1.456 1.456 0 000-1.928l-.908-1.022.66-.743c.325-.364.405-.89.207-1.337a1.237 1.237 0 00-1.13-.734H15.234c-.487 0-.93.287-1.13.734-.199.448-.119.973.206 1.337l.66.743-.908 1.025a1.452 1.452 0 000 1.925l.907 1.023-.91 1.024a1.452 1.452 0 000 1.926l.908 1.022-.908 1.022a1.452 1.452 0 000 1.925l.908 1.025-.663.746c-.324.364-.404.89-.206 1.337.198.447.643.734 1.13.734h4.603v9.71c0 .774.627 1.403 1.397 1.403h27.19c.77 0 1.397-.63 1.397-1.403v-1.98a.826.826 0 10-1.65 0v1.726H21.488V40.25h19.658v.194c0 .682.552 1.24 1.234 1.24h.462v1.475h-.162a1.39 1.39 0 00-1.386 1.392v2.265h-16.56a.826.826 0 00-.824.83c0 .458.369.828.825.828h16.903a1.37 1.37 0 001.042.483h1.977a1.39 1.39 0 001.386-1.392v-3.014a1.39 1.39 0 00-1.386-1.392h-.162v-1.475h.462a1.24 1.24 0 001.234-1.24v-.194h1.988v9.997a.826.826 0 101.65 0V39.994c0-.774-.627-1.404-1.397-1.404h-2.24V21.718a1.24 1.24 0 00-1.235-1.24h-.462v-.961l1.446-1.456h6.42l.996 1.73-.264.151a1.263 1.263 0 00-.459 1.72l1.73 3.012a1.254 1.254 0 001.713.461L58.035 24c.6-.348.805-1.119.459-1.721h-.006zm-26.75 1.224l-1.273-.738 1.334-2.323.635.367.633.368-1.334 2.323.006.003zM16.154 43.924l.173-.196a1.456 1.456 0 000-1.928l-.907-1.022.907-1.022a1.452 1.452 0 000-1.925l-.907-1.025.907-1.022a1.456 1.456 0 000-1.928l-.907-1.022.907-1.022a1.45 1.45 0 000-1.928l-.173-.194h16.694l-.174.196a1.452 1.452 0 000 1.926l.908 1.022-.908 1.022a1.456 1.456 0 000 1.928l.908 1.022-.908 1.022c-.195.221-.31.486-.349.76h-.855v-6.995c0-.638-.517-1.154-1.152-1.154h-11.64c-.635 0-1.152.52-1.152 1.154v1.887a.826.826 0 101.65 0v-1.387H29.82v6.492h-1.8a3.983 3.983 0 00.425-1.782c0-2.188-1.77-3.964-3.945-3.964-2.176 0-3.947 1.78-3.947 3.964 0 .641.157 1.257.438 1.807a1.401 1.401 0 00-1.155 1.378v1.522h-.657v-4.97a.826.826 0 10-1.65 0v5.47c0 .638.517 1.155 1.152 1.155h1.158v.751h-3.685v.008zm6.894-5.334a2.304 2.304 0 011.452-4.088 2.305 2.305 0 011.451 4.088h-2.909.006zm21.343 8.707h-1.449v-2.486h1.45v2.486zm.146-7.276h-1.738v-17.88h1.733v17.886l.005-.006zm11.057-16.518L54.26 21.18l.633-.368h.005l.633-.367 1.333 2.323-1.273.737.003-.002z" fill="#BDA37E"/></svg>