<svg width="48" height="48" fill="none" xmlns="http://www.w3.org/2000/svg"><circle cx="24" cy="24" r="23.5" fill="#FCFAF7" stroke="#BDA37E"/><path fill-rule="evenodd" clip-rule="evenodd" d="M19.087 14.493a2.514 2.514 0 00-3.555-.002l-.47.47a2.635 2.635 0 00-2.594.68 2.69 2.69 0 000 3.784l.555.56v7.104h-2v1.334h1.367a2.333 2.333 0 103.266 0h17.401a2.333 2.333 0 103.266 0h1.367v-1.334h-2.667v-2.075a2.641 2.641 0 002-2.57 2.634 2.634 0 00-2.622-2.644H20.43a.205.205 0 01-.146-.06l-.244-.246.245-.246a2.513 2.513 0 00.002-3.555l-1.2-1.2zm.014 4.055l.243-.243a1.18 1.18 0 000-1.669l-1.2-1.2a1.18 1.18 0 00-1.67-.001l-.233.233 2.86 2.88zm16.59 3.897a1.3 1.3 0 00-1.29-1.311H20.43c-.412 0-.804-.165-1.092-.455l-4.07-4.098a1.302 1.302 0 00-1.855 0c-.52.525-.52 1.38 0 1.905l5.235 5.27H34.4a1.3 1.3 0 001.29-1.311zm-17.817 2.422a.749.749 0 00.53.222H33.69v2H14.357v-5.762l3.517 3.54zm-2.85 5.222a1 1 0 11-2 0 1 1 0 012 0zm19.666 1a1 1 0 100-2 1 1 0 000 2z" fill="#BDA37E"/></svg>