<svg width="72" height="73" fill="none" xmlns="http://www.w3.org/2000/svg"><circle cx="36" cy="36.336" r="35.5" fill="#DCB971" stroke="#FCFAF7"/><path d="M38.199 31.226a.817.817 0 00-1.154 0 1.465 1.465 0 01-1.04.429 1.47 1.47 0 01-1.04-.429c-.37-.37-.851-.27-1.14.014-.287.287-.384.767-.013 1.136a3.082 3.082 0 002.19.903c.83 0 1.607-.321 2.19-.903a.81.81 0 000-1.15h.007z" fill="#FCFAF7"/><path d="M47.929 44.64l-2.61-1.321a10.807 10.807 0 001.56-5.608V24.039c0-5.993-4.884-10.87-10.886-10.87-2.14 0-4.194.616-5.968 1.78-1.458.806-3.055 3.012-3.055 3.012a10.812 10.812 0 00-1.86 6.078V37.71c0 1.984.539 3.923 1.563 5.61l-2.613 1.32a5.363 5.363 0 00-2.896 4.768v9.14c0 1.045 1.635 1.045 1.635 0v-9.14c0-1.4.773-2.673 2.014-3.322l3.306-1.651v8.526a2.374 2.374 0 00-1.572 2.24 2.391 2.391 0 004.781 0 2.38 2.38 0 00-1.574-2.243V43.64l.28-.134 5.186 15.275c.111.327.416.54.773.54a.8.8 0 00.773-.54l1.498-4.407a.756.756 0 00-.055-.649.837.837 0 00-.462-.364.842.842 0 00-.59.008.763.763 0 00-.44.482l-.724 2.129-2.183-6.425h4.368l-.32.937a.75.75 0 00.14.765c.2.228.534.34.83.282a.748.748 0 00.577-.524l2.573-7.503.254.125v5.081a2.969 2.969 0 00-2.168 2.864v6.177c0 .931.759 1.688 1.711 1.688a.815.815 0 00.816-.814.82.82 0 00-.836-.814.057.057 0 01-.057-.057v-4.53h2.705v4.587c0 .028-.023.057-.054.057a.816.816 0 00.054 1.628h.057a1.694 1.694 0 001.575-1.685v-6.237a2.97 2.97 0 00-2.168-2.864v-4.267c.667.336 2.63 1.298 3.303 1.628a3.737 3.737 0 012.017 3.322v9.14c0 1.046 1.635 1.046 1.635 0v-9.14c0-2.01-1.11-3.837-2.896-4.768l.003.006zM28.938 55.958a.757.757 0 01-.756-.754.757.757 0 011.512 0c0 .415-.34.754-.756.754zm9.81-8.027H33.26l-1.755-5.164.64-.322c.744-.379 1.634-1.079 1.634-2.249v-3.945a7.816 7.816 0 004.45 0v3.945c0 .903.542 1.657 1.615 2.238.163.088.397.208.662.344l-1.76 5.153h.003zm-7.103-14.795a6.109 6.109 0 01-1.808-4.352l.005-2.334c2.688-.268 4.981-2.078 6.205-4.885.896 1.804 2.67 4.013 6.134 4.933v2.286c0 3.396-2.77 6.157-6.177 6.157a6.129 6.129 0 01-4.359-1.805zM44.403 51.59v.02h-2.705c.015-.365.154-.71.4-.963a1.3 1.3 0 01.956-.404c.744 0 1.352.606 1.352 1.35l-.003-.003zm.841-13.878a9.17 9.17 0 01-1.403 4.888 321.395 321.395 0 01-3.215-1.6c-.505-.273-.762-.547-.762-.806V35.55a7.801 7.801 0 003.946-6.766v-2.932a.816.816 0 00-.654-.797c-3.646-.749-5.249-3.078-5.954-4.902a1.24 1.24 0 00-1.206-.797 1.25 1.25 0 00-1.176.842c-.593 1.74-2.14 4.66-5.8 4.66a.815.815 0 00-.815.814l-.006 3.112a7.8 7.8 0 003.945 6.766v4.643c0 .103 0 .419-.744.797-.457.234-2.716 1.35-3.255 1.617a9.182 9.182 0 01-1.41-4.893V24.04c0-1.736.488-3.413 1.401-4.876.057-.077.117-.174.18-.287.534-1 1.455-1.782 2.123-2.255a.932.932 0 00.156-.085 9.195 9.195 0 015.395-1.734c5.1 0 9.252 4.145 9.252 9.24v13.673l.002-.006z" fill="#FCFAF7"/></svg>