<svg width="73" height="73" fill="none" xmlns="http://www.w3.org/2000/svg"><circle cx="36.18" cy="36.547" r="35.5" fill="#FCFAF7" stroke="#BDA37E"/><path d="M38.378 31.435a.817.817 0 00-1.154 0 1.466 1.466 0 01-1.04.429 1.47 1.47 0 01-1.039-.43c-.37-.368-.852-.269-1.14.015-.287.287-.384.767-.014 1.136a3.082 3.082 0 002.19.903c.83 0 1.608-.321 2.192-.903a.81.81 0 000-1.15h.005z" fill="#BDA37E"/><path d="M48.109 44.853l-2.61-1.321a10.807 10.807 0 001.56-5.608V24.25c0-5.992-4.884-10.868-10.886-10.868-2.14 0-4.194.615-5.969 1.779-1.457.806-3.055 3.012-3.055 3.012a10.817 10.817 0 00-1.86 6.077v13.673c0 1.984.54 3.923 1.563 5.61l-2.613 1.319a5.363 5.363 0 00-2.895 4.768v9.14c0 1.045 1.634 1.045 1.634 0v-9.14c0-1.4.773-2.673 2.014-3.322l3.307-1.651v8.525a2.374 2.374 0 00-1.572 2.24 2.391 2.391 0 004.781 0 2.38 2.38 0 00-1.575-2.242v-9.318l.28-.133L35.4 58.995c.112.327.417.54.773.54a.8.8 0 00.774-.54l1.497-4.407a.756.756 0 00-.054-.649.837.837 0 00-.462-.364.842.842 0 00-.59.008.763.763 0 00-.44.482l-.724 2.129-2.183-6.425h4.368l-.32.937a.75.75 0 00.14.765c.2.228.534.339.83.282a.748.748 0 00.576-.524l2.574-7.504.254.126v5.081a2.969 2.969 0 00-2.169 2.864v6.177c0 .93.76 1.688 1.712 1.688.45 0 .816-.364.816-.814a.82.82 0 00-.836-.814.057.057 0 01-.057-.057v-4.53h2.705v4.587c0 .028-.023.057-.055.057a.816.816 0 00.055 1.628h.057a1.695 1.695 0 001.574-1.685v-6.237a2.97 2.97 0 00-2.168-2.864v-4.267c.668.336 2.63 1.298 3.304 1.628a3.737 3.737 0 012.017 3.322v9.14c0 1.046 1.634 1.046 1.634 0v-9.14c0-2.01-1.11-3.837-2.895-4.768l.003.006zM29.118 56.17a.757.757 0 01-.756-.754.757.757 0 011.512 0c0 .415-.34.754-.756.754zm9.81-8.027H33.44l-1.755-5.164.64-.322c.744-.379 1.634-1.079 1.634-2.249v-3.945a7.816 7.816 0 004.45 0v3.945c0 .903.542 1.657 1.615 2.238.162.088.396.207.662.344l-1.76 5.153h.002zm-7.103-14.795a6.109 6.109 0 01-1.809-4.352l.006-2.334c2.687-.268 4.98-2.079 6.205-4.885.896 1.804 2.67 4.013 6.133 4.933v2.286c0 3.396-2.77 6.157-6.176 6.157a6.129 6.129 0 01-4.36-1.805zM44.583 51.8v.02h-2.705a1.46 1.46 0 01.4-.962 1.3 1.3 0 01.955-.404c.745 0 1.352.606 1.352 1.35l-.002-.004zm.841-13.877c0 1.74-.485 3.425-1.404 4.888-.553-.274-2.924-1.444-3.215-1.6-.505-.274-.761-.547-.761-.806v-4.643a7.8 7.8 0 003.945-6.766v-2.932a.817.817 0 00-.653-.797c-3.646-.749-5.25-3.078-5.954-4.902a1.24 1.24 0 00-1.207-.797A1.25 1.25 0 0035 20.41c-.593 1.74-2.14 4.66-5.8 4.66a.815.815 0 00-.816.814l-.005 3.112a7.8 7.8 0 003.945 6.766v4.643c0 .103 0 .419-.744.797-.457.234-2.716 1.35-3.255 1.617a9.182 9.182 0 01-1.41-4.893V24.254c0-1.736.488-3.413 1.401-4.876.057-.077.117-.174.18-.288.533-.999 1.455-1.782 2.122-2.254a.939.939 0 00.157-.086 9.194 9.194 0 015.395-1.733c5.1 0 9.251 4.145 9.251 9.24V37.93l.003-.006z" fill="#BDA37E"/></svg>