<svg width="48" height="48" fill="none" xmlns="http://www.w3.org/2000/svg"><circle cx="24" cy="24" r="23.5" fill="#FCFAF7" stroke="#BDA37E"/><path d="M24.005 16.055a1.333 1.333 0 100-2.666 1.333 1.333 0 000 2.666z" fill="#BDA37E"/><path fill-rule="evenodd" clip-rule="evenodd" d="M17.33 33.421h.673v1.334h1.334a1.333 1.333 0 001.333 1.301h1.333c.726 0 1.316-.58 1.333-1.301h2.661v2.666h1.334v-2.666h2.672V33.42h.661a2.667 2.667 0 002.667-2.666V14.83a2.667 2.667 0 00-2.667-2.667h-4l-.755-.776a2.667 2.667 0 00-3.824 0l-.754.776h-4a2.667 2.667 0 00-2.667 2.667v15.924a2.667 2.667 0 002.667 2.666zm9.334-19.924c-.36 0-.705-.145-.956-.403l-.755-.777a1.333 1.333 0 00-1.912 0l-.754.777a1.333 1.333 0 01-.956.403h-4c-.737 0-1.334.597-1.334 1.334V27.4c.868-.013 1.689.012 2.467.04l.354.014.632.023a32.49 32.49 0 001.802.023c1.751-.037 3.361-.31 5.073-1.32 2.08-1.227 3.84-.859 5.056-.15.225.13.431.273.616.416v-2.724h-2.66v-1.334h2.66v-2h-2.66v-1.333h2.66v-2h-2.66v-1.333h2.66v-.892c0-.737-.597-1.334-1.333-1.334h-4zm-9.333 18.59a1.333 1.333 0 01-1.334-1.332v-2.02a43.41 43.41 0 012.418.04l.351.012c.85.033 1.691.065 2.514.047 1.895-.04 3.751-.342 5.723-1.505 1.604-.947 2.844-.649 3.707-.146a4.667 4.667 0 011.287 1.125v2.447c0 .736-.597 1.333-1.333 1.333H17.331z" fill="#BDA37E"/></svg>