<svg width="65" height="64" fill="none" xmlns="http://www.w3.org/2000/svg"><circle cx="32.75" cy="32" r="31.5" fill="#FCFAF7" stroke="#BDA37E"/><path d="M48.533 26.988a1.992 1.992 0 00-1.086-1.042l-.035-.008-13.603-6.086a2.374 2.374 0 00-1.923 0L18.32 25.944a1.994 1.994 0 00-.06 3.674l4.697 2.28c0 .017 0 .033.002.048v6.745c0 .237.114.461.304.603a16.16 16.16 0 009.574 3.162h.041a16.08 16.08 0 006.439-1.343v1.925a2.06 2.06 0 00-1.31 1.918v3.253c0 .415.34.752.758.752h2.616a.755.755 0 00.757-.752v-3.253a2.062 2.062 0 00-1.31-1.906v-2.685a15.62 15.62 0 001.661-1.071.752.752 0 00.302-.602v-6.734l.003-.051 4.711-2.285a1.995 1.995 0 001.024-2.631l.004-.003zm-7.7 11.615v-5.761l.447-.218v5.683a8.395 8.395 0 01-.447.296zm-1.31 6.351a.55.55 0 011.1 0v2.498h-1.101v-2.498h.002zm-6.275-17.567a.759.759 0 00-1.04.282.758.758 0 00.285 1.036l6.321 3.424-5.594 2.707a.853.853 0 01-.716 0L18.918 28.26a.544.544 0 01-.331-.465.557.557 0 01.358-.472l13.567-6.1a.865.865 0 01.676-.002l13.628 6.102a.548.548 0 01.352.462c0 .208-.13.397-.327.471l-6.476 3.148a2.158 2.158 0 00-.577-.496l-6.54-3.524v.004zm-8.773 5.235l7.382 3.571c.651.313 1.4.313 2.053 0l5.407-2.621v5.899a14.608 14.608 0 01-14.842-1.166v-5.683z" fill="#BDA37E"/></svg>