<svg width="73" height="73" fill="none" xmlns="http://www.w3.org/2000/svg"><circle cx="36.18" cy="36.547" r="35.5" fill="#FCFAF7" stroke="#BDA37E"/><path d="M28.409 29.695a.741.741 0 00-.68-1.316 2.157 2.157 0 01-2.9-.923.74.74 0 00-1.317.679 3.638 3.638 0 004.896 1.558v.002zm9.396 3.451a2.303 2.303 0 01-3.245 0 .74.74 0 00-1.047 1.047 3.769 3.769 0 002.67 1.102c.968 0 1.933-.368 2.669-1.102a.74.74 0 00-1.047-1.047zm10.715-6.008a.739.739 0 00-.997.318 2.159 2.159 0 01-2.904.921.741.741 0 00-.679 1.316 3.64 3.64 0 004.899-1.558.739.739 0 00-.319-.997zM30.776 39.361a2.157 2.157 0 01-2.9-.92.741.741 0 00-1.317.678 3.638 3.638 0 004.896 1.56.74.74 0 00-.679-1.315v-.003zm14.711-1.247a.739.739 0 00-.998.319 2.156 2.156 0 01-2.901.92.74.74 0 00-.68 1.317 3.638 3.638 0 004.896-1.56.739.739 0 00-.317-.998v.002z" fill="#BDA37E"/><path d="M54.39 25.489c-1.082-4.235-4.312-6.474-8.642-5.993-2.129.237-4.042 1.09-5.29 2.218v-2.815a2.698 2.698 0 001.956-2.59 2.697 2.697 0 00-2.696-2.692h-7.082a2.697 2.697 0 00-2.696 2.691 2.7 2.7 0 001.956 2.59v2.816c-1.247-1.129-3.16-1.98-5.29-2.218-4.33-.484-7.56 1.758-8.641 5.993-.68 2.662-1.526 5.973.6 12.43 2.11 6.471 6.457 10.335 11.627 10.335a5.9 5.9 0 001.701-.234v6.175a2.695 2.695 0 00-1.955 2.588 2.698 2.698 0 002.696 2.693h7.081a2.7 2.7 0 002.697-2.693 2.7 2.7 0 00-1.956-2.588V48.02c.482.143 1.04.234 1.701.234 3.346 0 6.336-1.573 8.647-4.55 3.59-4.623 5.097-12.284 3.58-18.218l.005.003zm-15.413-6.487v3.741h-5.6v-3.74h5.6zm-5.6 5.223h5.6v.249c-.064 2.163-1.783 2.486-2.8 2.486s-2.736-.323-2.797-2.486v-.25h-.003zm-1.955-7.917c0-.666.545-1.21 1.214-1.21h7.082c.669 0 1.215.544 1.215 1.21 0 .667-.546 1.213-1.215 1.213h-7.082a1.214 1.214 0 01-1.214-1.213zm1.955 37.783v-3.755h5.6v3.755h-5.6zm7.556 2.692c0 .669-.546 1.212-1.215 1.212h-7.082a1.212 1.212 0 110-2.422h7.08c.669 0 1.214.543 1.214 1.21h.003zm-1.956-7.929h-5.6v-1.53c.22-.144.422-.29.615-.428.686-.496 1.227-.889 2.18-.894.963.005 1.504.398 2.19.894.19.139.393.284.615.427v1.531zm10.662-6.059c-1.41 1.815-3.85 3.978-7.477 3.978-1.44 0-2.13-.499-2.93-1.077-.756-.548-1.615-1.168-3.06-1.173-1.434.008-2.291.627-3.05 1.173-.8.578-1.488 1.077-2.93 1.077-4.499 0-8.319-3.482-10.22-9.316-1.99-6.047-1.205-9.126-.573-11.6 1.27-4.976 5.348-5.077 7.042-4.887 3.074.341 5.415 2.153 5.452 3.546.082 2.901 2.358 3.928 4.28 3.928 1.92 0 4.2-1.03 4.28-3.928.04-1.393 2.38-3.202 5.453-3.546 1.693-.187 5.772-.089 7.041 4.887 1.413 5.526.018 12.651-3.316 16.94l.008-.002z" fill="#BDA37E"/></svg>