<svg width="73" height="73" fill="none" xmlns="http://www.w3.org/2000/svg"><circle cx="36.18" cy="36.547" r="35.5" fill="#FCFAF7" stroke="#BDA37E"/><path d="M51.021 21.517H49.78a.82.82 0 00-.818.822.82.82 0 00.818.822h1.241c2.39 0 4.335 1.954 4.335 4.355 0 1.55-.829 2.995-2.166 3.768l-.234.137-.483-.839.234-.137a3.397 3.397 0 001.684-2.932 3.38 3.38 0 00-3.37-3.385h-4.406a3.472 3.472 0 00-3.372 2.64c-.289 1.156-.845 2.36-1.991 4.291a10.631 10.631 0 00-1.269 3.289l-.974 4.758a8.27 8.27 0 00-.51-.146c.025-.183.046-.367.074-.548l.474-3.056s.003-.022.006-.032a14.28 14.28 0 011.781-5.468c.546-.962.922-1.727 1.182-2.406a5.093 5.093 0 01.965-1.603l.445-.5c.333-.37.494-.868.448-1.367a1.79 1.79 0 00-.704-1.252l-.576-.433a5.246 5.246 0 01-1.17-1.25 6.33 6.33 0 00-5.244-2.79 6.337 6.337 0 00-5.243 2.79 5.191 5.191 0 01-1.17 1.25l-.576.433a1.79 1.79 0 00-.704 1.252c-.05.496.114.995.447 1.368l.445.496c.412.46.736 1 .966 1.606.22.58.534 1.239.96 2.014a.815.815 0 001.113.32.822.822 0 00.32-1.117c-.388-.707-.672-1.297-.866-1.804a6.794 6.794 0 00-1.276-2.118l-.445-.496a.143.143 0 01-.035-.107.127.127 0 01.054-.096l.576-.433a6.818 6.818 0 001.541-1.642A4.7 4.7 0 0136.18 19.9c1.558 0 3.012.776 3.893 2.072a6.872 6.872 0 001.542 1.642l.575.433c.041.03.052.069.055.096 0 .027 0 .069-.033.104l-.447.499a6.792 6.792 0 00-1.277 2.118c-.227.6-.568 1.291-1.072 2.176a15.906 15.906 0 00-1.986 6.079l-.472 3.04c-.027.175-.047.353-.074.531a8.63 8.63 0 00-.704-.03c-.234 0-.472.01-.704.03-.024-.178-.046-.356-.073-.532l-.472-3.039a15.896 15.896 0 00-.917-3.804.817.817 0 00-1.056-.477.823.823 0 00-.474 1.06 14.283 14.283 0 01.829 3.457l.475 3.055c.027.179.049.362.073.543a8.315 8.315 0 00-.51.148l-.974-4.755a10.63 10.63 0 00-1.268-3.289c-1.146-1.932-1.703-3.135-1.992-4.291a3.47 3.47 0 00-3.372-2.637H21.34a3.38 3.38 0 00-3.37 3.385 3.4 3.4 0 001.684 2.932l.235.137-.483.839-.235-.137a4.368 4.368 0 01-2.166-3.768c0-2.401 1.945-4.355 4.335-4.355h5.25c1.311 0 2.49-.718 3.08-1.872a7.284 7.284 0 016.511-4.004 7.281 7.281 0 016.512 4.007 3.436 3.436 0 003.08 1.871h1.19a.82.82 0 00.818-.822.82.82 0 00-.818-.822h-1.19c-.684 0-1.32-.383-1.623-.978a8.908 8.908 0 00-7.969-4.9 8.908 8.908 0 00-7.969 4.9 1.827 1.827 0 01-1.623.978H21.34c-3.293 0-5.972 2.692-5.972 6a6.013 6.013 0 002.985 5.193l.545.315c.126 1.247.966 2.54 2.15 3.226.712.413 1.637.64 2.556.64.191 0 .382-.01.573-.03 1.288-.136 2.284-.71 2.8-1.608.954-1.663-.047-4.067-1.586-5.295l.137-.559a2.097 2.097 0 012.04-1.609h.14c.36 1.135.954 2.355 1.994 4.111.51.86.87 1.795 1.072 2.78l1.04 5.072a9.407 9.407 0 00-4.985 8.304c0 5.18 4.196 9.395 9.352 9.395 5.156 0 9.352-4.215 9.352-9.395a9.366 9.366 0 00-.777-3.755.817.817 0 00-1.078-.424.824.824 0 00-.423 1.082c.426.979.641 2.02.641 3.097 0 4.273-3.462 7.75-7.715 7.75s-7.715-3.477-7.715-7.75 3.462-7.75 7.715-7.75c2.155 0 4.229.915 5.688 2.513a.816.816 0 001.157.05.825.825 0 00.05-1.163 9.334 9.334 0 00-2.527-1.954l1.04-5.076a8.997 8.997 0 011.071-2.78c1.042-1.756 1.636-2.976 1.994-4.11h.139a2.1 2.1 0 012.04 1.608l.137.56a5.568 5.568 0 00-1.574 2.055c-.527 1.19-.53 2.34-.011 3.242.518.902 1.511 1.472 2.8 1.609.187.019.381.03.572.03.92 0 1.844-.228 2.556-.641 1.184-.685 2.024-1.98 2.15-3.226l.546-.315a6.016 6.016 0 002.984-5.194c0-3.308-2.679-5.999-5.972-5.999v-.002zM25.56 34.43c-.245.428-.812.718-1.555.798-.753.08-1.574-.074-2.138-.4-.742-.43-1.315-1.322-1.348-2.056l1.091-1.896c.65-.34 1.702-.286 2.445.145 1.11.644 2.057 2.45 1.506 3.412v-.003zm-1.623-5.424l-.043.176c-.974-.277-2.036-.228-2.879.153l-.545-.315a1.745 1.745 0 01-.865-1.507c0-.96.777-1.74 1.732-1.74h4.406c.442 0 .854.159 1.173.427a3.73 3.73 0 00-2.981 2.806h.002zM45.44 26.2a1.826 1.826 0 011.173-.427h4.406c.954 0 1.732.78 1.732 1.74a1.75 1.75 0 01-.865 1.507l-.546.315c-.843-.38-1.904-.43-2.878-.153l-.043-.175a3.73 3.73 0 00-2.982-2.807h.003zm5.052 8.625c-.565.326-1.383.48-2.139.4-.742-.08-1.31-.37-1.555-.798-.245-.427-.213-1.066.09-1.75.309-.697.849-1.333 1.413-1.662a2.915 2.915 0 011.424-.364c.377 0 .737.074 1.02.222l1.092 1.896c-.033.735-.606 1.626-1.348 2.056h.003z" fill="#BDA37E"/><path d="M36.18 53.813c-2.692 0-4.883-2.2-4.883-4.903 0-3.37 4.237-6.336 4.42-6.46a.81.81 0 01.927 0c.18.124 4.42 3.092 4.42 6.46 0 2.705-2.191 4.903-4.884 4.903zm0-9.663c-1.206.95-3.246 2.946-3.246 4.76a3.245 3.245 0 003.246 3.259 3.258 3.258 0 003.247-3.259c0-1.795-2.04-3.81-3.244-4.76h-.003z" fill="#BDA37E"/></svg>