<svg width="73" height="73" fill="none" xmlns="http://www.w3.org/2000/svg"><circle cx="36.18" cy="36.484" r="35.5" fill="#FCFAF7" stroke="#BDA37E"/><path fill-rule="evenodd" clip-rule="evenodd" d="M31.18 16.484a1 1 0 00-1 1v4a1 1 0 001 1h1v1.273a1.5 1.5 0 00-1 1.415v26.312a5 5 0 0010 0V25.172a1.5 1.5 0 00-1-1.415v-1.273h1a1 1 0 001-1v-4a1 1 0 00-1-1h-10zm2 9.102a1.5 1.5 0 001-1.414v-1.688h4v1.688a1.5 1.5 0 001 1.415v4.897h-6v-4.898zm6 11.884l-4.985-4.986H33.18v1.157l6 6V37.47zm-2.157-4.986l2.157 2.157V33.47l-.986-.986h-1.17zm2.157 9.986l-6-6v2.171l6 6V42.47zm0 7.171l-6-6V41.47l6 6v2.171zm-.126 2.704L33.18 46.47v2.171l5.041 5.042c.387-.36.679-.82.834-1.338zm-2.874 2.14a3 3 0 01-3-3v-.015l3.014 3.014h-.014zm-4-36v2h8v-2h-8z" fill="#BDA37E"/></svg>