<svg width="73" height="73" fill="none" xmlns="http://www.w3.org/2000/svg"><circle cx="36.18" cy="36.547" r="35.5" fill="#FCFAF7" stroke="#BDA37E"/><path d="M49.97 48.387l-7.366-2.6a2.126 2.126 0 01-.933-.667c2.232-.565 4.197-1.168 5.852-1.795a3.45 3.45 0 002.113-4.099c-.397-1.538-.597-3.4-.597-5.536v-7.13c0-7.094-5.77-12.865-12.864-12.865-7.094 0-12.865 5.77-12.865 12.864v7.131c0 2.136-.2 4-.597 5.536a3.45 3.45 0 002.113 4.099c1.655.627 3.62 1.23 5.852 1.795a2.1 2.1 0 01-.933.667l-7.366 2.6a5.027 5.027 0 00-3.348 4.733v5.53a.74.74 0 101.482 0v-5.53c0-.398.069-.785.195-1.148l3.291 2.822c.47.403.738.985.738 1.603v2.254a.74.74 0 101.482 0v-2.255a3.592 3.592 0 00-1.254-2.728l-3.48-2.98c.378-.398.85-.714 1.388-.904l5.262-1.857c2.212 2.704 4.53 4.467 6.111 5.48a3.585 3.585 0 003.86 0c1.582-1.015 3.898-2.778 6.11-5.477l5.262 1.857c.54.19 1.012.503 1.388.903l-3.48 2.98a3.591 3.591 0 00-1.254 2.729v2.254a.74.74 0 101.482 0V56.4c0-.617.27-1.203.738-1.602l3.292-2.823a3.5 3.5 0 01.195 1.149v5.53a.74.74 0 101.481 0v-5.53a5.027 5.027 0 00-3.348-4.734l-.003-.002zM47 41.94c-1.63.617-3.581 1.212-5.806 1.773V40.92c2.983-1.736 4.993-4.965 4.993-8.657v-2.247c.447.055.904.097 1.37.116v3.558c0 2.26.218 4.247.645 5.907a1.972 1.972 0 01-1.203 2.343zm-22.85-2.343c.427-1.657.644-3.645.644-5.907v-7.13c0-6.277 5.106-11.383 11.383-11.383 6.276 0 11.383 5.106 11.383 11.383v2.09c-8.341-.402-13.583-7.446-13.637-7.52a.741.741 0 00-1.198.872c.21.288 4.598 6.202 11.98 7.767v2.492c0 4.703-3.827 8.53-8.53 8.53-4.704 0-8.531-3.827-8.531-8.53v-1.709a4.26 4.26 0 011.78-3.46l2.42-1.728a26.551 26.551 0 003.165 2.87.74.74 0 001.04-.136.74.74 0 00-.136-1.04c-2.711-2.089-4.235-4.168-4.299-4.254a.74.74 0 10-1.198.872c.047.064.198.266.445.568l-2.296 1.639a5.742 5.742 0 00-2.4 4.664v1.709c0 3.691 2.01 6.92 4.992 8.657v2.792c-2.224-.56-4.175-1.155-5.802-1.773a1.97 1.97 0 01-1.203-2.343l-.002.008zm13.155 12.56a2.1 2.1 0 01-2.259 0 24.844 24.844 0 01-5.42-4.758l.613-.217a3.597 3.597 0 002.397-3.388v-2.168a9.965 9.965 0 003.538.647c1.245 0 2.438-.23 3.539-.647v2.168c0 1.521.963 2.882 2.397 3.388l.613.217a24.906 24.906 0 01-5.418 4.756v.002z" fill="#BDA37E"/></svg>