<svg width="72" height="73" fill="none" xmlns="http://www.w3.org/2000/svg"><circle cx="36" cy="36.336" r="35.5" fill="#DCB971" stroke="#FCFAF7"/><path d="M42.566 15.128c-4.76-.25-8.46 1.978-10.7 6.442-1.974 3.931-3.866 5.901-5.106 6.862l-.202.153a39.06 39.06 0 00-2.204 1.802.84.84 0 00-.172.151c-4.851 4.336-6.02 7.862-6.081 10.17-.086 3.24.633 6.339 2.08 8.963 1.705 3.094 4.303 5.363 7.718 6.741a16.4 16.4 0 006.11 1.15c1.899 0 3.782-.303 5.586-.895 4.053-1.336 7.304-3.993 9.165-7.482 3.8-7.13 5.131-10.222 5.15-16.901.013-3.79-1.185-8.01-3.198-11.29-2.224-3.624-5.119-5.708-8.146-5.866zm4.824 33.314c-1.67 3.136-4.608 5.523-8.276 6.733-3.533 1.163-7.405 1.084-10.63-.217-3.075-1.24-5.404-3.274-6.939-6.047-1.313-2.378-1.962-5.2-1.885-8.158.054-1.98 1.102-5.037 5.435-8.936.722-.015 1.333.096 1.589.215a5.048 5.048 0 01-.138.163c-.336.395-.962 1.126-.456 2.101.3.58.98.64 1.637.696.142.013.346.03.506.055-.022.042-.05.091-.088.155-.219.376-.624 1.074-.074 1.995.09.151.204.287.334.403-.346.26-.688.528-1.014.79-.302-.763-.783-1.632-1.48-1.948a1.44 1.44 0 00-1.287.047c-1.579.837-1.662 3.182-.226 6.792a1.994 1.994 0 001.849 1.255c.238 0 .471-.045.695-.129.893-.34 1.902-.65 2.703-.874-.405 1.091-.766 2.22-.884 3.02-.165 1.133.38 2.536 1.502 3.85 1.034 1.21 2.33 2.09 3.464 2.348.2.044.4.064.604.061 2.66 0 7.542-3.079 10.246-6.59 3.199-4.156 4.411-7.106 4.186-10.193a17.17 17.17 0 00-.496-3.056c-.194-.805-.302-1.247-.12-2.045.35-1.543-.256-4.296-2.065-6.358-1.049-1.197-2.878-2.555-5.647-2.274-5.02.511-7.952 3.867-7.886 6.81.042 1.802.636 3.909 1.029 5.121a6.027 6.027 0 00-2.043.637.774.774 0 00-.292.257 2.12 2.12 0 00-.346.871c-.297.151-.597.324-.899.51-.245.016-.535-.023-.59-.117-.05-.084-.023-.216.082-.398.184-.313.493-.849.292-1.567-.238-.852-1.213-.936-1.925-.998-.086-.007-.189-.015-.287-.027.052-.067.11-.136.155-.188.311-.363.955-1.116.338-2.017-.282-.412-.778-.652-1.313-.788.24-.19.489-.382.744-.58l.209-.16c1.99-1.541 3.857-4.032 5.548-7.398 1.849-3.67 4.82-5.595 8.625-5.595.199 0 .403 0 .609.017 2.465.129 4.979 1.998 6.904 5.121 1.87 3.04 2.978 6.948 2.968 10.46-.02 6.323-1.301 9.288-4.967 16.17v.005zM31.731 38.079a.738.738 0 00.688.232c.216-.027 1.24-.081 1.657 1.33.42 1.413 1.056 2.344 1.913 2.838-.074 1.684-.447 2.983-1.164 4.057a.788.788 0 00.213 1.086.778.778 0 001.08-.215c.833-1.25 1.285-2.706 1.407-4.53h.042c.33 0 .658-.04.98-.112 1.87-.4 6.194-2.437 6.378-2.523a.783.783 0 00.4-1.032.775.775 0 00-1.026-.403c-.012.005-.024.013-.037.017-.044.02-4.345 2.047-6.04 2.41-.434.094-.822.119-1.17.015a.581.581 0 00-.062-.02c-.582-.202-1.048-.78-1.419-2.032-.567-1.913-1.974-2.434-2.934-2.461-.199-.274-.213-.45-.179-.573 2.367-1.082 4.164.217 5.414 1.585-.263.242-.514.496-.752.763a.785.785 0 00.12 1.101c.31.25.76.225 1.04-.057 1.742-1.95 4.254-3.167 7.46-3.622a.783.783 0 00.683-.871.778.778 0 00-.867-.687c-.012 0-.022.003-.034.005-2.531.358-4.685 1.158-6.435 2.385-1.046-1.15-2.136-1.923-3.248-2.298a5.242 5.242 0 00-.584-.161c-.312-.881-1.105-3.314-1.145-5.234-.063-2.808 3.317-4.892 6.484-5.215 2.112-.215 3.516.837 4.324 1.753.947 1.076 2.07 3.405 1.714 4.97-.263 1.16-.091 1.87.125 2.766.238.916.39 1.854.454 2.797.196 2.657-.923 5.299-3.862 9.116-2.818 3.66-7.77 6.304-9.268 5.958-1.758-.405-3.98-3.02-3.771-4.442.268-1.832 2.16-5.985 2.183-6.027a.788.788 0 00-.39-1.04.78.78 0 00-1.035.393c-.031.07-.328.721-.702 1.617a39.072 39.072 0 00-3.972 1.227.424.424 0 01-.543-.242c-.977-2.461-1.188-4.372-.532-4.8.23.176.672.98.928 2.015a.78.78 0 001.257.418c1.117-.941 2.506-2.06 3.8-2.773a3.9 3.9 0 00.425.518l.002-.002z" fill="#FCFAF7"/></svg>