<svg width="73" height="73" fill="none" xmlns="http://www.w3.org/2000/svg"><circle cx="36.18" cy="36.547" r="35.5" fill="#FCFAF7" stroke="#BDA37E"/><path d="M42.745 15.34c-4.76-.25-8.46 1.977-10.699 6.441-1.974 3.931-3.867 5.901-5.107 6.862l-.2.153a39.104 39.104 0 00-2.206 1.802.84.84 0 00-.171.151c-4.852 4.336-6.02 7.862-6.082 10.17-.086 3.24.634 6.339 2.08 8.963 1.706 3.094 4.304 5.363 7.719 6.741a16.4 16.4 0 006.11 1.15c1.898 0 3.781-.303 5.586-.896 4.053-1.335 7.304-3.992 9.165-7.481 3.8-7.13 5.13-10.222 5.15-16.901.013-3.79-1.185-8.01-3.198-11.29-2.225-3.624-5.12-5.708-8.147-5.866zm4.825 33.313c-1.67 3.136-4.608 5.523-8.276 6.733-3.533 1.163-7.405 1.084-10.631-.217-3.074-1.24-5.404-3.274-6.938-6.047-1.314-2.378-1.962-5.2-1.886-8.158.054-1.98 1.103-5.037 5.436-8.936.722-.015 1.333.096 1.588.215a5.288 5.288 0 01-.137.163c-.336.395-.962 1.126-.457 2.101.3.58.98.64 1.638.696.142.013.346.03.506.055a2.64 2.64 0 01-.089.155c-.218.376-.623 1.074-.074 1.995.091.15.204.287.334.403-.346.259-.687.528-1.014.79-.302-.763-.783-1.632-1.48-1.948a1.439 1.439 0 00-1.286.047c-1.58.837-1.663 3.182-.226 6.792a1.994 1.994 0 001.848 1.255c.239 0 .472-.045.695-.129.894-.34 1.903-.65 2.703-.874-.405 1.092-.766 2.22-.884 3.02-.164 1.133.381 2.536 1.503 3.85 1.034 1.21 2.33 2.09 3.464 2.347.199.045.4.065.604.062 2.659 0 7.542-3.079 10.245-6.59 3.2-4.156 4.412-7.106 4.186-10.193a17.17 17.17 0 00-.496-3.056c-.194-.805-.302-1.247-.12-2.045.351-1.543-.255-4.296-2.065-6.358-1.048-1.197-2.877-2.555-5.647-2.274-5.02.511-7.952 3.867-7.885 6.81.041 1.802.636 3.909 1.028 5.12a6.025 6.025 0 00-2.042.638.773.773 0 00-.293.257c-.179.261-.297.56-.346.871-.297.151-.596.324-.898.509-.246.017-.535-.022-.59-.116-.05-.084-.023-.216.082-.398.184-.313.493-.849.292-1.568-.238-.851-1.213-.935-1.925-.997-.086-.007-.19-.015-.287-.027.051-.067.11-.136.154-.188.312-.363.955-1.116.34-2.017-.283-.412-.78-.652-1.314-.788.24-.19.488-.383.744-.58l.208-.16c1.991-1.541 3.857-4.033 5.549-7.398 1.849-3.67 4.82-5.595 8.625-5.595.199 0 .402 0 .608.017 2.465.129 4.98 1.998 6.904 5.121 1.871 3.04 2.978 6.948 2.968 10.46-.02 6.323-1.3 9.288-4.966 16.17v.005zM31.91 38.29a.737.737 0 00.688.232c.216-.027 1.24-.082 1.657 1.33.42 1.413 1.055 2.344 1.912 2.838-.073 1.684-.447 2.983-1.163 4.057a.788.788 0 00.213 1.086.778.778 0 001.08-.215c.833-1.25 1.284-2.706 1.407-4.53h.042c.329 0 .658-.04.98-.112 1.87-.4 6.194-2.437 6.378-2.523a.783.783 0 00.4-1.032.775.775 0 00-1.026-.403c-.012.005-.025.013-.037.017-.044.02-4.346 2.047-6.04 2.41-.434.094-.822.119-1.17.015a.582.582 0 00-.062-.02c-.582-.202-1.048-.78-1.42-2.032-.566-1.913-1.973-2.434-2.933-2.461-.199-.275-.214-.45-.18-.573 2.367-1.082 4.165.217 5.414 1.585a10.97 10.97 0 00-.75.763.785.785 0 00.12 1.101.776.776 0 001.038-.057c1.743-1.95 4.255-3.168 7.461-3.622a.783.783 0 00.682-.871.779.779 0 00-.866-.687c-.012 0-.022.003-.034.005-2.532.358-4.685 1.158-6.435 2.385-1.046-1.15-2.136-1.923-3.248-2.299a5.242 5.242 0 00-.585-.16c-.312-.882-1.105-3.314-1.144-5.235-.064-2.807 3.317-4.891 6.484-5.214 2.111-.215 3.516.837 4.323 1.753.948 1.076 2.07 3.405 1.714 4.97-.263 1.16-.09 1.87.125 2.765.239.916.39 1.855.455 2.798.196 2.657-.923 5.299-3.862 9.116-2.819 3.66-7.77 6.304-9.268 5.958-1.758-.405-3.98-3.02-3.771-4.442.267-1.832 2.16-5.985 2.182-6.027a.788.788 0 00-.39-1.04.78.78 0 00-1.034.393c-.032.07-.329.721-.702 1.617a39.098 39.098 0 00-3.972 1.227.424.424 0 01-.543-.242c-.977-2.461-1.188-4.372-.533-4.8.231.176.673.98.928 2.015a.78.78 0 001.257.418c1.117-.941 2.507-2.06 3.8-2.773a3.9 3.9 0 00.426.518l.002-.002z" fill="#BDA37E"/></svg>