<svg width="73" height="73" fill="none" xmlns="http://www.w3.org/2000/svg"><circle cx="36.18" cy="36.484" r="35.5" fill="#FCFAF7" stroke="#BDA37E"/><path d="M35.665 28.525c1.145-.599 1.515-1.252 1.515-1.707 0-.396-.274-.942-1.136-1.488l1.071-1.69c1.138.722 2.065 1.802 2.065 3.178 0 1.571-1.197 2.751-2.587 3.479-1.436.753-3.352 1.188-5.413 1.188-2.061 0-3.977-.435-5.414-1.188-1.39-.728-2.586-1.908-2.586-3.479 0-1.376.927-2.456 2.064-3.177l1.071 1.689c-.861.546-1.135 1.092-1.135 1.488 0 .454.37 1.108 1.514 1.707 1.097.575 2.68.96 4.486.96 1.804 0 3.389-.385 4.485-.96z" fill="#BDA37E"/><path fill-rule="evenodd" clip-rule="evenodd" d="M35.177 37.027c5.225-1.232 9.005-4.815 9.005-9.043 0-5.246-5.82-9.5-13-9.5s-13 4.254-13 9.5c0 2.976 1.872 5.633 4.803 7.374-4.475 2.662-6.512 7.517-4.552 10.912 1.982 3.432 7.297 4.073 11.873 1.43 4.434-2.559 6.546-7.261 4.87-10.673zm4.017-3.94c1.976-1.444 2.987-3.273 2.987-5.103 0-1.83-1.01-3.658-2.987-5.102-1.975-1.444-4.802-2.398-8.013-2.398-3.21 0-6.037.954-8.012 2.398-1.977 1.444-2.988 3.272-2.988 5.102 0 1.83 1.011 3.659 2.988 5.103 1.975 1.444 4.802 2.397 8.012 2.397 3.211 0 6.038-.953 8.013-2.397zM24.13 37.005c.371-.215.746-.402 1.121-.564 1.085.407 2.26.706 3.495.877l-.142 1.246c.646.074.98.321 1.125.57.163.284.2.791-.192 1.513-.384.705-1.112 1.461-2.123 2.045-1.012.584-2.031.836-2.833.816-.822-.02-1.242-.306-1.406-.59-.144-.25-.191-.663.068-1.259l-1.834-.797c-.419.962-.528 2.082.034 3.056.644 1.115 1.882 1.56 3.088 1.59 1.227.03 2.606-.347 3.883-1.084 1.276-.737 2.292-1.743 2.879-2.82.577-1.06.811-2.354.168-3.47a2.837 2.837 0 00-.517-.651l.236.001c.64 0 1.268-.033 1.883-.099a3.4 3.4 0 01.208.318c.605 1.049.667 2.455.003 4.01-.664 1.555-2.02 3.13-3.969 4.256-1.95 1.125-3.99 1.51-5.67 1.309-1.678-.203-2.865-.96-3.47-2.008-.606-1.048-.668-2.454-.004-4.01.665-1.554 2.02-3.13 3.969-4.255z" fill="#BDA37E"/><path d="M48.776 46.855c-.094.35-.457.761-1.289 1.006-.813.24-1.918.26-3.102-.057-1.185-.317-2.132-.888-2.716-1.502-.598-.628-.707-1.165-.613-1.516.082-.309.367-.657 1.006-.91l-.733-1.86c-1.012.398-1.906 1.136-2.205 2.253-.343 1.278.233 2.505 1.096 3.412.877.922 2.166 1.658 3.647 2.055 1.48.397 2.966.404 4.186.044 1.2-.354 2.313-1.13 2.655-2.407.3-1.117-.106-2.203-.783-3.054l-1.566 1.245c.428.538.5.982.417 1.29z" fill="#BDA37E"/><path fill-rule="evenodd" clip-rule="evenodd" d="M54.43 48.94c-1.072 3.998-6.262 6.082-11.593 4.653-5.33-1.428-8.784-5.827-7.712-9.826 1.071-3.998 6.261-6.081 11.592-4.653 5.331 1.429 8.784 5.828 7.713 9.826zm-1.932-.517c-.336 1.254-1.354 2.357-3.012 3.023-1.659.666-3.843.828-6.13.215-2.289-.613-4.099-1.846-5.203-3.252-1.103-1.406-1.433-2.87-1.096-4.124.336-1.255 1.353-2.357 3.011-3.023 1.66-.666 3.843-.829 6.131-.216 2.288.613 4.098 1.846 5.202 3.252 1.103 1.406 1.433 2.87 1.097 4.124zm-4.484-11.177c2.394.642 4.726-.294 5.207-2.09.482-1.797-1.07-3.773-3.465-4.415-2.395-.641-4.726.294-5.208 2.09-.48 1.797 1.07 3.773 3.465 4.415zm2.576-1.987c.503-.202.658-.467.7-.621.04-.154.039-.461-.296-.888-.335-.426-.935-.857-1.755-1.077-.82-.22-1.555-.147-2.06.055-.502.202-.657.468-.699.621-.04.154-.04.462.296.888.335.427.935.857 1.755 1.077.82.22 1.555.147 2.06-.055z" fill="#BDA37E"/></svg>