<svg width="73" height="73" fill="none" xmlns="http://www.w3.org/2000/svg"><circle cx="36.18" cy="36.484" r="35.5" fill="#FCFAF7" stroke="#BDA37E"/><path fill-rule="evenodd" clip-rule="evenodd" d="M34.703 16.484a1 1 0 100 2h1v3.033a14.937 14.937 0 00-8.876 3.677l-2.145-2.145.707-.707a1 1 0 00-1.414-1.414l-2.828 2.828a1 1 0 001.414 1.415l.707-.707 2.145 2.144a14.938 14.938 0 00-3.677 8.877h-3.033v-1a1 1 0 00-2 0v4a1 1 0 102 0v-1h3.033a14.937 14.937 0 003.677 8.875l-2.145 2.145-.707-.707a1 1 0 00-1.414 1.414l2.828 2.829a1 1 0 101.414-1.415l-.707-.707 2.145-2.144a14.937 14.937 0 008.876 3.677v3.032h-1a1 1 0 100 2h4a1 1 0 100-2h-1v-3.032a14.938 14.938 0 008.876-3.677l2.145 2.145-.707.707a1 1 0 001.414 1.414l2.828-2.829a1 1 0 10-1.414-1.414l-.707.707-2.145-2.145a14.938 14.938 0 003.677-8.875h3.033v1a1 1 0 102 0v-4a1 1 0 00-2 0v1H51.67a14.938 14.938 0 00-3.677-8.877l2.145-2.145.707.708a1 1 0 001.414-1.415l-2.828-2.828a1 1 0 00-1.414 1.414l.707.707-2.145 2.145a14.937 14.937 0 00-8.876-3.677v-3.033h1a1 1 0 100-2h-4zm-6.458 10.128a12.944 12.944 0 017.458-3.09v.962a1 1 0 102 0v-.962a12.944 12.944 0 017.458 3.09l-.68.68a1 1 0 001.414 1.414l.68-.68a12.943 12.943 0 013.09 7.459h-.962a1 1 0 000 2h.962a12.944 12.944 0 01-3.09 7.458l-.68-.68a1 1 0 00-1.414 1.414l.68.68a12.944 12.944 0 01-7.458 3.09v-.963a1 1 0 10-2 0v.962a12.943 12.943 0 01-7.458-3.09l.68-.68a1 1 0 00-1.414-1.413l-.68.68a12.944 12.944 0 01-3.09-7.458h.962a1 1 0 100-2h-.962a12.944 12.944 0 013.09-7.459l.68.68a1 1 0 001.414-1.414l-.68-.68z" fill="#BDA37E"/></svg>