<svg width="48" height="48" fill="none" xmlns="http://www.w3.org/2000/svg"><circle cx="24" cy="24" r="23.5" fill="#FCFAF7" stroke="#BDA37E"/><path d="M25.313 22.334l-1 3.333 1 1.334 1-1.334-1-3.333z" fill="#BDA37E"/><path fill-rule="evenodd" clip-rule="evenodd" d="M31.316 19.755a11.277 11.277 0 01-1.737-1.076c-1.03-.781-2.264-2.047-2.264-3.713 0-1.484 1.123-2.966 2.792-2.966.775 0 1.402.31 1.875.771A2.624 2.624 0 0133.857 12c1.669 0 2.791 1.482 2.791 2.966 0 1.615-1.24 2.882-2.259 3.668a12.025 12.025 0 01-1.74 1.111c.004 1.163.023 2.273.04 3.324.04 2.303.074 4.323-.066 5.99-.212 2.525-.838 4.552-2.71 5.648-1.84 1.079-4.56 1.484-6.813 1.21-1.131-.138-2.21-.453-3.026-.999-.595-.397-1.066-.93-1.287-1.6-1.385-.063-2.762-.316-3.852-.768-1.176-.488-2.287-1.334-2.287-2.657V16.748h.002a1.698 1.698 0 01-.002-.081c0-1.841 2.985-3.334 6.667-3.334s6.667 1.493 6.667 3.334c0 .027 0 .054-.002.081h.002v3.966a4.668 4.668 0 010 9.239c-.032 1.343-1.106 2.194-2.29 2.676-.98.398-2.187.619-3.42.684.133.178.313.344.542.496.58.388 1.434.661 2.447.784 2.034.248 4.445-.138 5.979-1.036 1.274-.747 1.85-2.17 2.055-4.61.134-1.601.101-3.508.063-5.758a238.985 238.985 0 01-.042-3.434zm-1.21-6.422c-.787 0-1.458.73-1.458 1.633 0 .996.766 1.914 1.737 2.651a9.96 9.96 0 001.59.977 10.799 10.799 0 001.6-1.015c.981-.759 1.74-1.676 1.74-2.614 0-.901-.67-1.632-1.458-1.632-.55 0-.986.306-1.292.857l-.583 1.052-.583-1.052c-.306-.551-.743-.857-1.292-.857zM19.317 20c2.18 0 4.116-.523 5.332-1.333v2.047a4.668 4.668 0 00-.001 9.239c-.03.518-.449 1.03-1.458 1.44-1.017.414-2.421.623-3.866.606-.206-.002-.41-.01-.614-.02V19.986c.2.01.402.014.606.014zm5.332-3.333c0 .143-.15.632-1.215 1.164-.985.493-2.439.836-4.118.836-1.679 0-3.133-.343-4.118-.836-1.064-.532-1.215-1.02-1.215-1.164 0-.144.15-.633 1.215-1.165.985-.492 2.44-.835 4.118-.835 1.679 0 3.133.343 4.118.835 1.065.533 1.215 1.021 1.215 1.165zm.667 12a3.333 3.333 0 100-6.667 3.333 3.333 0 000 6.667z" fill="#BDA37E"/><path d="M17.29 19.962c-1.671-.203-2.519-.774-3.376-1.31v11.454c.876 1.019 1.438 1.394 3.375 1.796v-11.94z" fill="#FCFAF7"/></svg>