<svg width="73" height="73" fill="none" xmlns="http://www.w3.org/2000/svg"><circle cx="36.18" cy="36.547" r="35.5" fill="#FCFAF7" stroke="#BDA37E"/><path d="M54.67 38.516c-.26-.197-.711-.37-1.19-.553-.536-.205-1.091-.417-1.41-.674l-.035-.027a99.668 99.668 0 01-7.061-6.279l-2.958-3.067c-.013-.014-.02-.03-.032-.044-4.593-5.089-7.109-9.489-7.477-13.084a1.868 1.868 0 00-1.862-1.686H24.27c-1.032 0-1.872.84-1.872 1.871v43.138c0 1.033.84 1.872 1.872 1.872h4.546l4.187.003 4.966-.003c1.032 0 1.871-.84 1.871-1.872v-4.064c1.077.136 3.074.242 5.265-.38 3.059-.87 7.081-3.353 8.869-10.25.066-.254.284-.58.536-.957.395-.593.842-1.262.948-1.995a2.076 2.076 0 00-.788-1.946v-.003zM44.717 52.1c-1.716.496-3.923.58-5.494.205l-3.99-.965a.808.808 0 00-.378 1.568l3.373.817v4.387a.26.26 0 01-.26.26h-5.35c-.037 0-.071.005-.108.01h-2.97c-.038-.005-.072-.01-.11-.01h-5.157a.26.26 0 01-.26-.26V14.973a.26.26 0 01.26-.26h8.375a.26.26 0 01.257.24c.392 3.85 2.938 8.435 7.555 13.63l-.015.015.336.348.008.007.005.005 2.081 2.158a.76.76 0 00.13.18c2.838 2.875 5.692 5.324 7.608 6.887-.587 2.01.096 4.254 1.645 5.4-1.324 4.585-3.86 7.45-7.539 8.516h-.002zm9.143-11.871c-.054.367-.37.846-.676 1.308-.1.15-.203.306-.297.457-.669-.704-.987-1.8-.832-2.867.314.141.667.277.958.388.311.118.603.23.677.284a.46.46 0 01.173.43h-.003z" fill="#BDA37E"/></svg>