<svg width="72" height="73" fill="none" xmlns="http://www.w3.org/2000/svg"><circle cx="36" cy="36.336" r="35.5" fill="#DCB971" stroke="#DCB971"/><path d="M42.181 33.054c.026-.321.04-.642.04-.966l-.003-.165a12.33 12.33 0 00-1.006-4.724l-.043-.088a2.644 2.644 0 00-2.591-1.505l-1.366.108c-.082.005-.167.008-.248.014-.326.02-.65.034-.978.034-.328 0-.653-.014-.978-.034-.083-.006-.167-.009-.25-.014l-1.364-.108a2.644 2.644 0 00-2.592 1.505 1.204 1.204 0 00-.043.088 12.177 12.177 0 00-.726 2.268 12.32 12.32 0 00-.28 2.457l-.003.164a12 12 0 00.04.966c.002.048.005.096.01.145 0 .025.006.05.01.076.087.897.27 1.789.556 2.66l.563 1.719.644 1.965a36.523 36.523 0 01.8 2.873c.051.222.099.44.147.662.042.196.082.394.119.593.042.219.082.438.118.656a26.562 26.562 0 01.192 1.27c.026.195.054.391.074.587.028.236.048.474.07.71.018.185.038.37.052.554.02.267.034.536.048.803.008.157.02.31.025.466.017.415.026.826.026 1.24v.032a2.598 2.598 0 002.589 2.601h.302a2.598 2.598 0 002.59-2.6v-.032c0-.415.008-.83.025-1.241.006-.156.017-.31.025-.466.014-.267.029-.536.048-.803.014-.185.034-.37.051-.554.023-.236.043-.474.071-.71a42.098 42.098 0 01.167-1.258c.03-.199.065-.397.099-.599.036-.218.076-.437.118-.656.037-.199.08-.395.12-.593.047-.222.095-.443.146-.662.045-.19.09-.38.139-.57.056-.23.118-.458.18-.685.048-.179.1-.36.15-.54.105-.36.212-.72.331-1.078l.644-1.965.563-1.718c.21-.633.359-1.28.464-1.934.042-.267.079-.537.101-.806.006-.049.006-.097.012-.145l.002.003zm-6.342 17.78a.77.77 0 01-.767-.769c0-.09-.005-.184-.005-.275 0-.352-.009-.704-.02-1.057-.008-.193-.02-.389-.031-.582-.014-.252-.026-.502-.045-.752-.017-.216-.04-.432-.06-.648-.022-.227-.042-.457-.068-.684-.025-.224-.056-.446-.084-.67-.029-.219-.06-.437-.09-.656-.035-.224-.074-.449-.11-.673a54.716 54.716 0 00-.117-.65 38.754 38.754 0 00-.28-1.323 23.015 23.015 0 00-.152-.636c-.057-.23-.119-.46-.181-.69a23.282 23.282 0 00-.167-.597c-.023-.073-.04-.15-.062-.224-.006-.02-.017-.037-.023-.057-.085-.28-.166-.565-.26-.843l-1.207-3.683a10.5 10.5 0 01.334-7.434.814.814 0 01.786-.494h.033l1.145.091.22.017c.456.037.914.054 1.372.054.458 0 .916-.017 1.37-.054l.221-.017 1.145-.09h.034a.814.814 0 01.785.493 10.501 10.501 0 01.334 7.434l-1.207 3.683c-.093.281-.175.562-.26.843-.008.02-.017.037-.023.057-.022.074-.04.15-.062.224-.056.2-.113.398-.167.597-.062.23-.124.46-.18.69a26.19 26.19 0 00-.153.636c-.051.218-.099.44-.147.661-.045.222-.09.44-.133.662-.042.216-.08.431-.116.65a26.179 26.179 0 00-.2 1.329c-.032.224-.06.446-.085.67-.026.227-.045.454-.068.684-.02.216-.043.432-.06.648-.02.25-.03.502-.045.752-.011.193-.025.386-.03.582-.015.353-.018.705-.02 1.057 0 .09-.006.184-.006.275a.77.77 0 01-.766.77h-.323z" fill="#FCFAF7"/><path d="M60.288 23.793c.003-.063.009-.128.011-.19 0-.074-.005-.151-.008-.225-.003-.062-.003-.122-.009-.184-.008-.077-.022-.157-.033-.233-.009-.057-.015-.114-.026-.17a3.983 3.983 0 00-.062-.248c-.014-.05-.023-.102-.04-.15-.028-.091-.065-.182-.099-.273-.014-.04-.025-.08-.042-.119a5.182 5.182 0 00-.158-.335l-.023-.048a4.2 4.2 0 00-.223-.375c-.62-.94-1.837-1.98-4.136-1.582-.067.012-.135.029-.2.043-.096.02-.192.037-.286.06-.037.008-.07.02-.107.028a7.771 7.771 0 00-.368.102 10.9 10.9 0 00-1.274.491l-.043.017-.05.026a16.63 16.63 0 00-1.018.517c-1.552.852-4.308 1.982-7.132 2.93-.116.04-.234.077-.35.116a5.608 5.608 0 00-2.024-1.993c-.088-.05-.178-.096-.266-.142-.017-.008-.03-.017-.048-.025-.062-.032-.13-.06-.192-.088l-.13-.06c-.057-.023-.113-.043-.17-.065-.053-.02-.107-.043-.16-.06a4.16 4.16 0 00-.179-.054l-.164-.051a2.394 2.394 0 00-.138-.031c-.071-.017-.139-.034-.21-.049a5.31 5.31 0 00-.85-.099c-.077-.003-.153-.008-.23-.008h-7.707c-.077 0-.153.005-.23.008a5.189 5.189 0 00-.85.1c-.07.014-.139.03-.21.048l-.138.031c-.056.014-.11.034-.164.051a4.16 4.16 0 00-.178.054l-.161.06c-.056.022-.116.04-.17.065-.045.017-.087.04-.13.06-.065.028-.13.056-.192.088-.017.008-.03.017-.048.025-.09.046-.178.091-.266.142l-.042.026a5.563 5.563 0 00-1.981 1.967 8.44 8.44 0 01-.35-.116c-2.825-.948-5.58-2.078-7.133-2.93a16.994 16.994 0 00-.997-.509c-.026-.01-.048-.022-.07-.034l-.043-.017a10.665 10.665 0 00-1.275-.49c-.093-.03-.19-.055-.283-.08-.065-.017-.127-.037-.192-.054-.093-.023-.19-.04-.285-.06-.068-.014-.133-.031-.201-.043-2.295-.394-3.516.642-4.136 1.582a4.214 4.214 0 00-.223.375l-.022.048c-.057.11-.114.222-.159.335-.017.04-.028.08-.042.12-.034.09-.07.181-.099.272-.014.051-.026.102-.04.15-.022.083-.045.165-.062.248-.011.056-.017.113-.025.17-.011.077-.026.153-.034.233-.006.06-.006.122-.009.184-.003.074-.01.148-.008.225 0 .062.005.127.011.19.003.074.006.148.014.219.006.065.02.13.031.195.012.069.017.134.031.202 0 .006 0 .009.003.014v.017c.023.105.054.21.082.313.009.03.014.06.023.09.314 1.006.984 1.934 1.962 2.71a2.428 2.428 0 00-.082.397c-.012.065-.02.128-.026.193-.005.046-.005.094-.008.14 0 .05-.006.101-.006.155v.165c0 .043.006.082.008.125l.018.193c.002.026.008.054.01.08a4.216 4.216 0 00.442 1.331c.037.068.073.137.113.205l.034.056c.06.097.121.194.186.287.037.054.077.108.116.162l.077.1c.053.068.107.136.166.201.017.017.031.037.048.054.164.188.345.364.537.534.006.006.012.008.014.014a7.053 7.053 0 001.654 1.056 6.788 6.788 0 002.168.577c.023.003.045.011.068.011.037.003.07 0 .104.006.051.003.1.003.15.005.08.003.159.01.235.01.042 0 .082 0 .121-.004h.026c1.006-.025 1.89-.31 2.57-.803l.025-.017c.107-.08.209-.165.305-.253l.042-.043c.085-.08.164-.164.238-.252.011-.015.022-.026.034-.04a3.58 3.58 0 00.215-.298c.017-.026.03-.051.045-.074a2.976 2.976 0 00.35-.812c.045-.162.082-.327.102-.494a3.72 3.72 0 00-.229-1.747c-.497-1.337-1.656-2.501-3.18-3.194-1.24-.565-2.58-.744-3.77-.508a5.118 5.118 0 00-.374.09 3.969 3.969 0 00-1.571.835c-.031-.025-.06-.054-.088-.08-.054-.047-.107-.093-.158-.141l-.077-.08c-.05-.05-.098-.102-.147-.153-.03-.034-.056-.068-.084-.102-.04-.046-.08-.091-.113-.137a1.458 1.458 0 01-.082-.116 3.45 3.45 0 01-.09-.128c-.029-.042-.052-.085-.077-.125a2.881 2.881 0 01-.074-.122 1.826 1.826 0 01-.062-.13c-.02-.04-.042-.083-.06-.122-.019-.043-.033-.088-.05-.131l-.045-.122a2.39 2.39 0 01-.037-.134 1.746 1.746 0 01-.031-.119 2.33 2.33 0 01-.023-.142.928.928 0 01-.014-.088c-.005-.048-.005-.096-.008-.148 0-.028-.003-.056-.003-.082 0-.051.003-.102.008-.153 0-.026 0-.051.003-.074.006-.057.017-.11.026-.168l.008-.06c.014-.062.031-.124.048-.19l.009-.034a2.79 2.79 0 01.079-.215v-.006a2.66 2.66 0 01.237-.437c.478-.727 1.213-.977 2.307-.79a7.172 7.172 0 011.487.455c.13.054.254.11.373.164a11.81 11.81 0 01.921.468c.006.004.014.01.02.012 1.73.946 4.452 2.067 7.358 3.033l.248.085-1.49 3.961a5.568 5.568 0 00-.172 3.399c.009.034.02.068.034.102l4.33 10.932a19.368 19.368 0 011.363 7.042l.014 2.47c.011 1.963 1.06 3.746 2.668 4.691.37.22.772.392 1.196.514.068.02.136.035.204.051.384.094.78.151 1.178.16h.04a5.31 5.31 0 001.179-.16c.067-.017.135-.03.203-.05a5.157 5.157 0 001.196-.514c1.608-.949 2.66-2.73 2.668-4.691l.014-2.47a19.366 19.366 0 011.363-7.043l4.33-10.932a.728.728 0 00.034-.102c.3-1.13.24-2.306-.172-3.399l-1.49-3.961.249-.085c2.905-.966 5.627-2.087 7.357-3.033l.02-.011a15.833 15.833 0 01.588-.31 12.329 12.329 0 01.707-.323c.458-.19.975-.367 1.486-.455 1.094-.19 1.83.063 2.307.79.096.145.175.29.237.437v.006c.032.07.057.145.08.216l.008.034c.02.062.037.125.048.19l.008.06c.012.056.02.11.026.167 0 .026 0 .051.003.074.003.05.008.102.008.153 0 .028-.003.057-.003.082a1.343 1.343 0 01-.022.236 2.33 2.33 0 01-.023.142c-.008.04-.02.08-.03.12a2.39 2.39 0 01-.038.133l-.045.122c-.017.043-.03.088-.05.13-.018.04-.04.083-.06.123l-.062.13c-.023.04-.048.083-.074.122-.025.043-.048.086-.076.125a3.45 3.45 0 01-.09.128l-.083.116c-.036.046-.076.091-.113.137-.028.034-.053.068-.084.102a4.162 4.162 0 01-.147.153c-.026.026-.048.054-.077.08-.05.048-.104.096-.158.142-.028.025-.056.054-.088.08-.426-.381-.963-.662-1.571-.835a5.118 5.118 0 00-.373-.091c-1.19-.239-2.53-.057-3.771.508-1.526.693-2.685 1.857-3.18 3.194a3.72 3.72 0 00-.229 1.747c.009.062.023.125.034.19.008.048.014.096.026.145.008.037.02.074.03.108.049.181.108.36.187.534.054.113.113.224.178.329.014.025.031.051.045.074.068.102.139.204.215.298.012.014.023.025.034.04.074.088.153.173.238.252l.042.043a3.278 3.278 0 00.33.27c.68.494 1.564.778 2.57.803h.026c.042 0 .081.003.121.003.076 0 .156-.006.235-.009.05 0 .099-.002.15-.005.036 0 .07 0 .104-.006.023 0 .045-.008.068-.011a6.808 6.808 0 003.822-1.636c.005-.005.01-.008.014-.014.192-.17.373-.346.537-.534.017-.017.03-.037.048-.054.056-.065.113-.133.166-.201l.077-.1a5.6 5.6 0 00.302-.448l.037-.057c.04-.068.076-.136.113-.205l.025-.05a4.23 4.23 0 00.416-1.281c.003-.026.009-.054.011-.08.009-.065.014-.128.017-.193l.009-.125c0-.054.003-.11 0-.165 0-.05 0-.102-.006-.156 0-.045-.005-.093-.008-.139a2.138 2.138 0 00-.026-.193c-.005-.034-.008-.068-.014-.102-.02-.1-.04-.199-.068-.295.978-.776 1.648-1.704 1.962-2.71.008-.028.014-.059.023-.09.03-.105.059-.207.082-.313v-.017c0-.005 0-.008.002-.014.014-.068.02-.133.031-.201.012-.066.023-.131.032-.196.008-.074.008-.148.014-.219l.025.006zM39.846 23.1c1.54 0 2.94.971 3.482 2.42l1.792 4.767c.269.715.314 1.485.13 2.226v.006l-4.307 10.878a21.175 21.175 0 00-1.493 7.709l-.014 2.47c-.008 1.607-1.054 3.03-2.544 3.456-.056.017-.116.026-.172.037a3.48 3.48 0 01-.73.1 3.724 3.724 0 01-.729-.1c-.056-.014-.116-.023-.172-.037-1.49-.429-2.536-1.849-2.544-3.456l-.014-2.47a21.175 21.175 0 00-1.493-7.71L26.731 32.52v-.006a3.723 3.723 0 01.13-2.226l1.792-4.768a3.745 3.745 0 013.482-2.42h7.711zm-22.698 7.817a4.844 4.844 0 01-.3-.221l-.064-.052a4.64 4.64 0 01-.52-.505c-.014-.017-.029-.031-.04-.048a3.526 3.526 0 01-.398-.588 3.114 3.114 0 01-.147-.327 2.471 2.471 0 01-.08-.255c-.002-.014-.008-.029-.01-.046a1.584 1.584 0 01-.024-.122l-.008-.06c-.006-.036-.008-.076-.011-.113v-.179c0-.06.008-.122.02-.179.005-.028.014-.06.02-.088.008-.03.01-.062.022-.093.017-.06.04-.12.068-.18.037-.076.079-.15.13-.22.011-.018.025-.032.037-.049a1.717 1.717 0 01.178-.196c.056-.051.116-.1.178-.145l.028-.02c.401-.27.958-.423 1.611-.423.158 0 .322.009.483.029h.017c.308.037.617.105.922.204.04.011.076.026.116.04.13.045.26.096.39.153.011.006.025.009.037.014 1.07.486 1.902 1.295 2.224 2.167.124.335.226.835.006 1.318a1.39 1.39 0 01-.144.24l-.034.043a1.63 1.63 0 01-.178.194c-.006.002-.009.008-.014.01a1.98 1.98 0 01-.557.342H21.1a2.79 2.79 0 01-.348.116 2.757 2.757 0 01-.432.08 4.27 4.27 0 01-.274.022c-.048 0-.094.003-.142.003-.09 0-.183 0-.28-.008a4.962 4.962 0 01-1.715-.435 5.19 5.19 0 01-.752-.42l-.009-.003zm35.22.858c-.093.005-.19.008-.28.008-.048 0-.096 0-.141-.003a2.898 2.898 0 01-.274-.023l-.08-.008a2.764 2.764 0 01-.7-.187h-.006a2.046 2.046 0 01-.557-.341c-.006-.003-.008-.009-.014-.012a1.43 1.43 0 01-.178-.193l-.034-.042a1.389 1.389 0 01-.144-.241c-.22-.483-.119-.983.005-1.318.323-.872 1.154-1.681 2.225-2.167.011-.005.025-.008.037-.014.127-.057.26-.108.39-.153l.116-.04c.305-.1.613-.167.921-.204h.017c.161-.017.322-.029.483-.029.65 0 1.207.15 1.611.423l.029.02c.065.046.124.094.178.145l.042.04c.048.048.093.102.136.156.011.017.025.031.037.048a1.309 1.309 0 01.198.401l.022.093c.006.032.017.06.02.088.008.06.017.12.02.18v.179c0 .039-.009.076-.012.113 0 .02-.005.04-.008.06a1.442 1.442 0 01-.023.121 2.472 2.472 0 01-.09.3c-.04.11-.088.214-.141.322a3.364 3.364 0 01-.404.596c-.015.018-.029.032-.04.049a4.201 4.201 0 01-.52.505l-.065.051a4.806 4.806 0 01-1.052.642c-.574.261-1.162.4-1.716.435h-.008z" fill="#FCFAF7"/></svg>