<svg width="73" height="73" fill="none" xmlns="http://www.w3.org/2000/svg"><circle cx="36.18" cy="36.547" r="35.5" fill="#FCFAF7" stroke="#BDA37E"/><path d="M42.361 33.26c.026-.32.04-.641.04-.965l-.003-.164a12.338 12.338 0 00-1.006-4.725 2.644 2.644 0 00-2.634-1.593l-1.366.108c-.082.005-.167.008-.249.014-.325.02-.65.034-.978.034-.328 0-.653-.014-.978-.034-.082-.006-.167-.009-.249-.014l-1.365-.108a2.644 2.644 0 00-2.592 1.505c-.014.028-.028.056-.042.088a12.202 12.202 0 00-.727 2.268 12.47 12.47 0 00-.28 2.457l-.002.164a12.22 12.22 0 00.05 1.11c0 .026.006.052.009.077.088.898.271 1.79.557 2.66l.562 1.719.645 1.965a33.563 33.563 0 01.48 1.619 30.854 30.854 0 01.467 1.916c.042.196.082.395.118.593a37.992 37.992 0 01.218 1.255c.034.225.065.446.093.67.026.196.054.392.074.588.028.236.048.474.07.71.017.185.037.37.051.554.02.267.034.536.049.803.008.157.02.31.025.466.017.415.025.826.025 1.24v.032a2.598 2.598 0 002.59 2.601h.302a2.598 2.598 0 002.59-2.6v-.032c0-.415.008-.83.025-1.241.005-.156.017-.31.025-.466.014-.267.028-.536.048-.803.014-.185.034-.37.051-.554.023-.236.042-.474.07-.71.023-.196.049-.392.074-.588.028-.224.06-.448.093-.67a49.87 49.87 0 01.218-1.255c.037-.199.08-.394.119-.593.048-.222.096-.443.147-.662a26.83 26.83 0 01.32-1.255 29.687 29.687 0 01.48-1.618l.644-1.965.563-1.718c.209-.633.359-1.28.463-1.934.043-.267.08-.537.102-.806.006-.049.006-.097.011-.145l.003.003zm-6.343 17.782a.77.77 0 01-.766-.77c0-.09-.006-.184-.006-.275 0-.352-.008-.705-.02-1.057a37.787 37.787 0 00-.03-.582c-.014-.252-.026-.502-.046-.752-.017-.216-.04-.432-.059-.648-.023-.227-.042-.457-.068-.684-.025-.224-.056-.446-.085-.67-.028-.219-.059-.437-.09-.656-.034-.224-.073-.449-.11-.673a52.743 52.743 0 00-.116-.65c-.042-.222-.088-.44-.133-.662-.048-.221-.096-.44-.147-.661a30.762 30.762 0 00-.334-1.326c-.053-.2-.107-.398-.166-.597-.023-.073-.04-.15-.063-.224-.005-.02-.016-.037-.022-.057-.085-.28-.167-.565-.26-.843l-1.207-3.683c-.8-2.44-.681-5.08.333-7.434a.813.813 0 01.786-.494h.034l1.145.091.22.017c.456.037.913.054 1.371.054.458 0 .916-.017 1.371-.054l.22-.017 1.145-.09h.034a.813.813 0 01.786.493 10.502 10.502 0 01.334 7.434l-1.207 3.683c-.093.281-.175.562-.26.843-.009.02-.017.037-.023.057-.023.074-.04.15-.062.224a47.867 47.867 0 00-.348 1.287 29.31 29.31 0 00-.152.636 33.55 33.55 0 00-.596 3.302c-.032.224-.06.446-.086.67-.025.227-.045.454-.067.684-.02.216-.043.432-.06.648-.02.25-.03.502-.045.752-.011.193-.025.387-.031.582-.014.352-.017.705-.02 1.057 0 .09-.006.184-.006.275a.77.77 0 01-.766.77h-.322z" fill="#BDA37E"/><path d="M60.468 24.002l.011-.19c0-.074-.006-.151-.008-.225-.003-.062-.003-.122-.009-.184-.008-.077-.023-.157-.034-.233-.008-.057-.014-.114-.025-.17-.017-.083-.04-.165-.062-.248-.014-.05-.023-.102-.04-.15-.028-.091-.065-.182-.099-.273-.014-.04-.025-.08-.042-.119a5.21 5.21 0 00-.159-.335l-.022-.048a4.224 4.224 0 00-.224-.375c-.619-.94-1.837-1.98-4.135-1.582-.068.012-.136.029-.2.043-.097.02-.193.037-.286.06-.037.008-.07.02-.107.028a7.738 7.738 0 00-.368.102c-.452.14-.882.312-1.275.491l-.042.017-.051.026a16.85 16.85 0 00-1.018.517c-1.551.852-4.307 1.982-7.131 2.93-.116.04-.235.077-.35.117a5.608 5.608 0 00-1.982-1.968l-.042-.026c-.088-.05-.178-.096-.266-.142l-.048-.025c-.062-.032-.13-.06-.192-.088l-.13-.06c-.057-.023-.113-.043-.17-.065-.054-.02-.107-.043-.161-.06a4.354 4.354 0 00-.178-.054l-.164-.051a2.442 2.442 0 00-.139-.031c-.07-.017-.138-.034-.209-.049a5.31 5.31 0 00-.85-.099c-.077-.003-.153-.008-.23-.008h-7.708c-.076 0-.152.005-.229.008a5.189 5.189 0 00-.85.1c-.071.014-.139.03-.21.048l-.138.031c-.057.014-.11.034-.164.051a3.65 3.65 0 00-.178.054l-.161.06c-.057.022-.116.04-.17.065-.045.017-.087.04-.13.06-.065.028-.13.056-.192.088l-.048.025c-.09.046-.178.091-.266.142l-.042.026a5.562 5.562 0 00-1.982 1.968 13.048 13.048 0 01-.35-.117c-2.824-.948-5.58-2.078-7.132-2.93a16.991 16.991 0 00-.998-.509.65.65 0 01-.07-.034 10.648 10.648 0 00-1.317-.508c-.094-.028-.19-.054-.283-.08-.065-.016-.127-.036-.192-.053-.094-.023-.19-.04-.286-.06-.068-.014-.133-.031-.2-.043-2.296-.394-3.517.642-4.136 1.582a4.214 4.214 0 00-.223.375l-.023.048c-.056.11-.113.222-.158.335-.017.04-.028.08-.042.12-.034.09-.071.181-.1.272-.014.051-.025.102-.039.15-.022.083-.045.165-.062.248-.011.056-.017.113-.026.17-.01.077-.025.153-.034.233-.005.06-.005.122-.008.184-.003.074-.011.148-.008.225 0 .062.005.127.01.19.004.074.007.148.015.219.006.065.02.13.031.195.011.069.017.134.031.202 0 .006 0 .009.003.014v.017c.023.105.054.21.082.313.008.03.014.06.023.09.313 1.006.983 1.934 1.961 2.71-.028.096-.05.195-.068.295l-.014.102c-.011.065-.02.128-.025.193-.006.045-.006.094-.009.14 0 .05-.005.101-.005.155v.165c0 .043.005.082.008.125l.017.193c.003.026.009.054.011.08.066.431.204.863.416 1.28l.025.051c.037.068.074.137.114.205.01.02.022.037.033.056a6.274 6.274 0 00.303.45l.076.099c.054.068.108.136.167.201.017.017.031.037.048.054.164.188.345.363.537.534.006.006.011.008.014.014a7.067 7.067 0 001.654 1.056 6.789 6.789 0 002.168.577c.022.003.045.011.068.011.036.003.07 0 .104.006.051.003.1.003.15.005.08.003.158.009.235.009.042 0 .082 0 .121-.003h.026c1.006-.025 1.89-.31 2.569-.803l.025-.017a3.81 3.81 0 00.348-.296c.085-.08.164-.164.238-.252.01-.015.022-.026.033-.04.077-.097.15-.196.215-.298l.046-.074a2.974 2.974 0 00.35-.812 3.25 3.25 0 00.102-.494 3.718 3.718 0 00-.23-1.747c-.497-1.337-1.656-2.501-3.18-3.194-1.24-.565-2.58-.744-3.77-.508a5.133 5.133 0 00-.373.09 3.968 3.968 0 00-1.572.835c-.03-.025-.059-.054-.087-.08-.054-.047-.108-.093-.159-.141l-.076-.08a7.029 7.029 0 01-.147-.153c-.03-.034-.056-.068-.085-.102a2.271 2.271 0 01-.113-.137 1.45 1.45 0 01-.082-.116c-.03-.043-.062-.085-.09-.128-.028-.042-.05-.085-.076-.125a2.994 2.994 0 01-.074-.122 1.825 1.825 0 01-.062-.13c-.02-.04-.042-.083-.06-.122-.02-.043-.033-.088-.05-.131-.014-.04-.031-.082-.046-.122a2.365 2.365 0 01-.036-.134 1.393 1.393 0 01-.054-.261.953.953 0 01-.014-.088c-.006-.048-.006-.096-.009-.148l-.002-.082c0-.051.002-.102.008-.153 0-.026 0-.051.003-.074.006-.057.017-.11.025-.168l.009-.06c.014-.062.03-.124.048-.19l.008-.034a2.79 2.79 0 01.08-.215V22.9c.062-.148.14-.292.237-.437.478-.727 1.213-.977 2.306-.79a7.175 7.175 0 011.487.455c.13.054.255.11.373.164a12.013 12.013 0 01.921.468l.02.012c1.73.946 4.453 2.067 7.358 3.033l.249.085-1.49 3.961a5.567 5.567 0 00-.172 3.399c.008.034.02.068.034.102l4.33 10.932a19.37 19.37 0 011.363 7.042l.014 2.47c.011 1.963 1.06 3.746 2.668 4.691.37.22.772.392 1.196.514.068.02.136.035.203.052.385.093.78.15 1.179.159h.04a5.304 5.304 0 001.178-.16c.068-.017.136-.03.204-.05a5.157 5.157 0 001.195-.515c1.609-.948 2.66-2.728 2.669-4.69l.014-2.47a19.365 19.365 0 011.362-7.043l4.33-10.932a.728.728 0 00.035-.102c.3-1.13.24-2.306-.173-3.399l-1.49-3.961.25-.085c2.905-.966 5.627-2.087 7.357-3.033l.02-.011.186-.102a11.916 11.916 0 01.735-.367c.119-.054.243-.11.373-.164.458-.19.976-.367 1.487-.455 1.094-.19 1.829.063 2.307.79.096.145.175.29.237.437v.006c.031.07.057.145.08.216l.008.034c.02.062.036.125.048.19l.008.06c.012.056.02.11.026.167 0 .026 0 .051.002.074.003.05.009.102.009.153 0 .028-.003.057-.003.082a1.343 1.343 0 01-.023.236c-.005.048-.014.094-.022.142-.009.04-.02.08-.031.12a2.364 2.364 0 01-.037.133l-.045.122c-.017.042-.031.088-.051.13-.017.04-.04.083-.06.123-.02.042-.039.085-.062.13-.022.04-.048.083-.073.122-.026.043-.048.086-.076.125a3.45 3.45 0 01-.09.128c-.03.04-.055.077-.083.116l-.113.137c-.028.034-.054.068-.085.102-.045.051-.096.102-.147.153-.025.026-.048.054-.076.08-.05.048-.105.096-.158.142-.029.025-.057.054-.088.08-.427-.381-.964-.662-1.572-.835a5.118 5.118 0 00-.373-.091c-1.19-.239-2.53-.057-3.77.508-1.527.693-2.686 1.857-3.18 3.194a3.719 3.719 0 00-.23 1.747c.01.062.023.125.035.19.008.048.014.096.025.145.009.037.02.074.031.108.048.181.108.36.187.534.053.113.113.224.178.329.014.025.031.05.045.074.068.102.139.204.215.298.011.014.023.025.034.04.073.088.152.173.237.252l.043.043c.096.09.198.173.305.253.008.005.017.01.025.017.679.494 1.563.778 2.57.803h.025c.043 0 .082.003.122.003.076 0 .155-.006.234-.008.051 0 .1-.003.15-.006.037 0 .07 0 .105-.006.022 0 .045-.008.068-.011a6.808 6.808 0 003.821-1.636c.006-.005.011-.008.014-.014.193-.17.373-.346.537-.534.017-.017.031-.037.048-.054a4.56 4.56 0 00.167-.201l.077-.1a6.271 6.271 0 00.302-.449.494.494 0 01.037-.056c.04-.068.076-.136.113-.205l.025-.05c.212-.418.35-.85.416-1.281l.011-.08c.008-.065.014-.128.017-.193l.009-.125c0-.054.002-.11 0-.165 0-.05 0-.102-.006-.156 0-.045-.006-.093-.009-.139a2.133 2.133 0 00-.025-.193c-.006-.034-.009-.068-.014-.102-.02-.1-.04-.199-.068-.295.978-.776 1.648-1.704 1.962-2.71.008-.028.014-.059.022-.09.031-.105.06-.207.082-.313v-.017c0-.005 0-.008.003-.014.014-.068.02-.133.031-.201.011-.066.023-.131.031-.196.009-.074.009-.148.014-.219l.026.006zm-20.442-.693c1.54 0 2.94.971 3.482 2.42l1.792 4.767c.269.715.314 1.485.13 2.226v.005l-4.307 10.879a21.176 21.176 0 00-1.493 7.709l-.014 2.47c-.009 1.607-1.054 3.03-2.544 3.456-.057.017-.116.026-.172.037a3.556 3.556 0 01-.73.1 3.723 3.723 0 01-.729-.1c-.056-.014-.116-.023-.172-.037-1.49-.429-2.536-1.849-2.544-3.456l-.014-2.47a21.174 21.174 0 00-1.493-7.71L26.91 32.729v-.006a3.723 3.723 0 01.13-2.226l1.792-4.768a3.745 3.745 0 013.483-2.42h7.711zm-22.698 7.817a4.843 4.843 0 01-.3-.221l-.064-.052a4.63 4.63 0 01-.52-.505c-.015-.017-.029-.031-.04-.048a3.532 3.532 0 01-.399-.588c0-.003-.003-.006-.005-.009a2.471 2.471 0 01-.22-.573c-.004-.014-.01-.029-.012-.046a1.521 1.521 0 01-.023-.122l-.008-.06c-.006-.036-.009-.076-.012-.113v-.179c0-.06.009-.122.02-.179l.02-.088c.008-.03.011-.062.023-.093a1.314 1.314 0 01.197-.4c.012-.018.026-.032.037-.049.043-.054.085-.105.136-.156.014-.014.028-.029.042-.04.057-.051.116-.1.178-.145l.029-.02c.401-.27.958-.423 1.61-.423.16 0 .323.009.484.029h.017c.308.037.616.105.922.204.04.012.076.026.115.04.13.045.26.096.39.153.012.006.026.009.037.014 1.072.486 1.903 1.295 2.225 2.167.124.335.226.835.005 1.318-.04.085-.087.164-.144.24-.011.015-.022.03-.034.043a1.63 1.63 0 01-.178.194c-.005.002-.008.008-.014.01a1.98 1.98 0 01-.557.342h-.005a2.772 2.772 0 01-.348.116 2.76 2.76 0 01-.353.071l-.08.009c-.09.01-.18.017-.274.022-.048 0-.093.003-.141.003-.09 0-.184 0-.28-.008a4.962 4.962 0 01-1.715-.435 5.2 5.2 0 01-.752-.42l-.009-.003zm35.22.858c-.094.005-.19.008-.28.008-.048 0-.096 0-.142-.003a2.866 2.866 0 01-.274-.023l-.079-.008a2.764 2.764 0 01-.373-.077 2.772 2.772 0 01-.328-.11h-.006a2.05 2.05 0 01-.556-.341c-.006-.003-.009-.009-.014-.011a1.423 1.423 0 01-.179-.194 1.389 1.389 0 01-.178-.284c-.22-.482-.118-.982.006-1.317.322-.872 1.153-1.681 2.225-2.167.01-.005.025-.008.036-.014a5.02 5.02 0 01.39-.153l.116-.04c.306-.1.614-.167.922-.204h.017a4.58 4.58 0 01.483-.029c.65 0 1.207.15 1.611.423l.029.02c.065.046.124.094.178.145l.042.04c.048.048.093.102.136.156.01.017.025.031.036.048.048.071.094.142.13.222.029.06.051.119.068.179.009.03.014.062.023.093.005.032.017.06.02.088.008.06.017.12.02.18v.179c0 .039-.01.076-.012.113 0 .02-.006.04-.008.06a1.521 1.521 0 01-.034.167 2.4 2.4 0 01-.08.255 3.179 3.179 0 01-.146.33c-.108.201-.24.4-.399.588-.014.017-.028.03-.04.048a4.208 4.208 0 01-.52.505l-.065.051a4.806 4.806 0 01-1.051.642c-.574.261-1.162.4-1.716.435h-.008z" fill="#BDA37E"/></svg>