<svg width="73" height="73" fill="none" xmlns="http://www.w3.org/2000/svg"><circle cx="36.18" cy="36.484" r="35.5" fill="#FCFAF7" stroke="#BDA37E"/><path fill-rule="evenodd" clip-rule="evenodd" d="M33.148 19.008l1.49-.848.98 1.698a3.025 3.025 0 013.55 1.352l4.522 7.777a2.977 2.977 0 01-1.095 4.085l-.848.487.677 1.308-2.674 1.363-.61-1.178-.666.383a3.023 3.023 0 01-4.111-1.102L31.44 29.31c-2.563 1.474-4.33 3.12-5.278 5.003-.798 1.584-1.06 3.425-.62 5.637a9.955 9.955 0 014.832-1.243c3.27 0 6.173 1.57 7.998 3.996l12.086-6.811.992 1.736-12.042 6.786a10.052 10.052 0 01.766 6.293h13.2a1 1 0 110 2H21.207a9.966 9.966 0 01-.832-4 9.976 9.976 0 013.404-7.516c-.762-2.927-.546-5.509.597-7.778 1.186-2.354 3.306-4.247 6.06-5.832l-.596-1.024a2.978 2.978 0 01.253-3.368l-1.061-1.838 1.508-.858-1.241-2.228 2.63-1.444 1.219 2.188zm8.807 10.974l-4.523-7.777a1.008 1.008 0 00-1.37-.367L31.94 24.2a.992.992 0 00-.365 1.362l4.523 7.777c.278.477.891.642 1.37.367l4.122-2.363a.992.992 0 00.365-1.361zm-3.831 20.724a8.022 8.022 0 00.251-2c0-1.18-.255-2.3-.714-3.308l-4.804 2.708-.992-1.736 4.746-2.675a8 8 0 00-13.984 7.012h15.497z" fill="#BDA37E"/></svg>