<svg width="73" height="73" fill="none" xmlns="http://www.w3.org/2000/svg"><circle cx="36.18" cy="36.547" r="35.5" fill="#FCFAF7" stroke="#BDA37E"/><path d="M54.65 20.049h-.17c-2.034 0-4.07.482-5.887 1.396l-1.283.643c-.4.2-.81.367-1.228.511-.825-.042-1.637-.626-2.656-1.363-1.685-1.218-3.786-2.736-7.254-2.736-3.469 0-5.57 1.518-7.254 2.736-1.02.737-1.831 1.318-2.657 1.363a10.335 10.335 0 01-1.227-.51l-1.284-.644a13.164 13.164 0 00-5.886-1.396h-.171c-3.438 0-6.232 2.81-6.232 6.26a4.712 4.712 0 003.965 4.652c.39 1.368 1.775 2.384 3.424 2.384 1.648 0 3.016-1.004 3.417-2.361 1.989-.218 3.545-1.304 4.595-2.325v3.32a9.36 9.36 0 001.41 4.94l-1.432 1.44a3.491 3.491 0 00-1.832-.52c-1.951 0-3.538 1.594-3.538 3.555a3.55 3.55 0 003.538 3.554 3.55 3.55 0 003.022-5.394l1.27-1.275a9.415 9.415 0 001.65 1.439.838.838 0 001.172-.226.85.85 0 00-.225-1.176 7.662 7.662 0 01-3.35-6.337v-7.01c1.202.39 2.078 1.585 2.078 3.002v1.667c0 2.364.846 4.64 2.44 6.59l2.264 2.762v7.042c0 .6-.486 1.089-1.081 1.089a1.087 1.087 0 01-1.081-1.09v-.758c.106-.429.244-.852.413-1.264a4.438 4.438 0 00.359-1.687c0-.27-.023-.547-.065-.815a.841.841 0 00-.966-.703.846.846 0 00-.699.97c.028.181.042.364.042.548 0 .322-.076.663-.23 1.04a10.691 10.691 0 00-.573 6.306l1.208 6.475a2.387 2.387 0 002.342 1.952h2.353a2.387 2.387 0 002.342-1.952l1.205-6.452a10.704 10.704 0 00-.567-6.328c-.155-.378-.23-.72-.23-1.041 0-.243.025-.485.075-.72.166-.77.795-1.444 1.685-1.802a7.003 7.003 0 004.398-6.531c0-.768-.123-1.524-.368-2.249-.235-.702-.365-1.495-.39-2.352 1.05 1.015 2.603 2.096 4.583 2.313.399 1.357 1.778 2.361 3.418 2.361 1.64 0 3.033-1.013 3.426-2.378a4.716 4.716 0 003.963-4.658c0-3.453-2.797-6.26-6.232-6.26l-.008.003zM25.007 43.256a1.86 1.86 0 01-1.854-1.862 1.86 1.86 0 011.854-1.862 1.86 1.86 0 011.853 1.862 1.86 1.86 0 01-1.853 1.862zm11.166-23.06c2.926 0 4.704 1.283 6.27 2.417.273.198.543.392.812.576-1.78.386-3.67.62-5.639.697a2.385 2.385 0 00-2.213-1.515 2.35 2.35 0 00-2.176 1.424 31.74 31.74 0 01-4.137-.609c.27-.183.54-.378.814-.576 1.568-1.134 3.345-2.417 6.272-2.417l-.003.002zm-1.466 4.564v-.02a.7.7 0 01.693-.677c.374 0 .697.314.697.7a.698.698 0 11-1.393 0v-.003h.003zm-15.86 6.892c-1.021 0-1.853-.66-1.853-1.475 0-.816.832-1.476 1.854-1.476 1.022 0 1.853.66 1.853 1.476 0 .815-.83 1.475-1.853 1.475zm3.39-2.372c-.432-1.31-1.788-2.268-3.39-2.268-1.6 0-2.937.944-3.38 2.237a3.02 3.02 0 01-2.32-2.94c0-2.52 2.039-4.568 4.547-4.568h.171c1.772 0 3.547.42 5.134 1.216l1.283.644c.823.412 1.688.72 2.581.928v1.526c-.447.655-2.12 2.86-4.623 3.222l-.002.003zm10.071.358v-1.667c0-.98-.28-1.888-.76-2.65.519.066 1.047.122 1.58.164a2.387 2.387 0 002.272 1.67c1.065 0 1.904-.66 2.239-1.577a36.722 36.722 0 003.156-.256 4.951 4.951 0 00-.76 2.649v1.438a3.974 3.974 0 00-.784-.078c-2.163 0-3.924 1.768-3.924 3.94a3.94 3.94 0 001.596 3.166l-.753.92-1.806-2.204c-1.345-1.642-2.058-3.549-2.058-5.512l.002-.003zm4.707 3.634a2.246 2.246 0 012.238-2.249 2.244 2.244 0 012.239 2.249 2.244 2.244 0 01-2.239 2.248 2.244 2.244 0 01-2.238-2.248zm-2.766 15.544a2.75 2.75 0 001.924-.787c.5.485 1.176.787 1.923.787.464 0 .899-.115 1.284-.319a9.18 9.18 0 01-.138.864l-.16.857H33.26l-.163-.877a9.567 9.567 0 01-.134-.844c.384.204.82.32 1.283.32h.003zm-.668 3.095h5.19l-.262 1.402h-4.665l-.26-1.402h-.003zm3.771 4.497h-2.353a.699.699 0 01-.685-.573l-.155-.83h4.033l-.155.83a.701.701 0 01-.685.573zm3.881-18.174c-1.412.567-2.423 1.696-2.707 3.019a5.112 5.112 0 00-.112 1.075c0 .538.12 1.108.36 1.687.168.411.305.832.41 1.258v.764c0 .601-.487 1.09-1.082 1.09a1.087 1.087 0 01-1.081-1.09v-7.044l1.513-1.848c.236.045.475.07.722.07 2.163 0 3.923-1.768 3.923-3.94a3.94 3.94 0 00-1.471-3.073c.011-.186.017-.375.017-.561v-1.667c0-1.414.879-2.613 2.078-3.002v3.363c0 1.176.166 2.262.491 3.233.186.547.278 1.122.278 1.704a5.321 5.321 0 01-3.339 4.96v.002zm14.963-8.898a.843.843 0 00-.842.846c0 .813-.832 1.476-1.854 1.476-1.022 0-1.853-.66-1.853-1.476 0-.815.831-1.475 1.853-1.475a.843.843 0 00.843-.846.843.843 0 00-.843-.847c-1.6 0-2.957.96-3.39 2.268-2.488-.363-4.175-2.57-4.622-3.221v-1.526a11.568 11.568 0 002.58-.929l1.284-.643a11.493 11.493 0 015.134-1.216h.171c2.508 0 4.547 2.048 4.547 4.568a3.016 3.016 0 01-3.008 3.021z" fill="#BDA37E"/></svg>