<svg width="73" height="73" fill="none" xmlns="http://www.w3.org/2000/svg"><circle cx="36.18" cy="36.547" r="35.5" fill="#FCFAF7" stroke="#BDA37E"/><path d="M33.996 33.231a.753.753 0 00-1.064.01 3.958 3.958 0 01-2.85 1.197c-2.2 0-3.99-1.79-3.99-3.99a.755.755 0 00-.753-.753.755.755 0 00-.753.753 5.508 5.508 0 004.652 5.43 2.651 2.651 0 01-2.543 1.948.754.754 0 00-.753.753c0 .415.338.753.753.753 2 0 3.738-1.469 4.079-3.432a5.43 5.43 0 003.234-1.605.746.746 0 00.215-.535.742.742 0 00-.227-.531v.002zm-2.558 7.309a5.501 5.501 0 00-5.496 5.453 5.586 5.586 0 00-.603-.034.755.755 0 00-.753.753c0 .415.338.753.753.753 2.2 0 3.99 1.79 3.99 3.99 0 .415.338.753.753.753a.755.755 0 00.753-.753 5.475 5.475 0 00-3.373-5.067 3.995 3.995 0 013.975-4.343.754.754 0 00.754-.753.754.754 0 00-.753-.753z" fill="#BDA37E"/><path d="M53.875 35.867c0-1.457-.56-2.822-1.583-3.857a5.49 5.49 0 00.227-1.562 5.503 5.503 0 00-4.31-5.366 4.142 4.142 0 00-2.25-5.21c-2.403-1.91-5.042-3.052-7.064-3.052a3.477 3.477 0 00-2.712 1.311 3.473 3.473 0 00-2.71-1.31c-2.023 0-4.662 1.14-7.065 3.051a4.142 4.142 0 00-2.25 5.21 5.506 5.506 0 00-4.31 5.366c0 .53.076 1.056.227 1.562a5.446 5.446 0 00-1.583 3.857c0 1.09.319 2.141.926 3.047a5.46 5.46 0 00-.926 3.052c0 1.96 1.05 3.775 2.746 4.755-.025.22-.035.445-.035.665a6.144 6.144 0 004.257 5.861 6.194 6.194 0 005.306 3.02 6.145 6.145 0 005.42-3.222 6.14 6.14 0 005.42 3.222c2.276 0 4.197-1.155 5.306-3.02a6.149 6.149 0 004.257-5.861c0-.223-.013-.445-.035-.665a5.498 5.498 0 002.746-4.755 5.447 5.447 0 00-.926-3.052 5.461 5.461 0 00.926-3.047h-.005zm-5.496 3.99a.755.755 0 00-.753.753c0 .415.338.754.753.754a5.49 5.49 0 003.518-1.28 3.992 3.992 0 01-1.904 5.526.748.748 0 00-.432.84 4.671 4.671 0 01-3.358 5.44.76.76 0 00-.471.377 4.66 4.66 0 01-4.131 2.499 4.672 4.672 0 01-4.667-4.667c0-.17-.007-.345-.022-.52a.745.745 0 00.022-.18V28.42c0-1.079.88-1.958 1.958-1.958a.755.755 0 00.753-.753.755.755 0 00-.753-.753c-.709 0-1.38.21-1.958.608v-5.275c0-1.079.88-1.958 1.958-1.958 1.175 0 2.657.494 4.195 1.393a4.193 4.193 0 00-2.501 2.146.74.74 0 00-.035.575c.067.19.203.343.383.43a.75.75 0 001.008-.349 2.618 2.618 0 012.37-1.486c.32 0 .635.057.92.166a.76.76 0 00.12.049 2.632 2.632 0 011.254 3.716 5.504 5.504 0 00-5.08 5.479.754.754 0 001.506 0c0-2.2 1.791-3.99 3.991-3.99s3.99 1.79 3.99 3.99a3.95 3.95 0 01-.294 1.496.753.753 0 00.215.862 3.98 3.98 0 011.435 3.062c0 2.2-1.79 3.99-3.99 3.99v-.003zm-15.66-11.442c0 .415.339.754.753.754a1.96 1.96 0 011.959 1.957v14.936a6.119 6.119 0 00-3.065-1.923.753.753 0 00-.393 1.452 4.668 4.668 0 013.455 4.5 4.672 4.672 0 01-4.667 4.668 4.662 4.662 0 01-4.13-2.5.754.754 0 00-.472-.377 4.67 4.67 0 01-3.358-5.44.76.76 0 00-.432-.839 3.992 3.992 0 01-1.904-5.526 5.477 5.477 0 003.518 1.28.754.754 0 00.754-.754.754.754 0 00-.753-.753c-2.2 0-3.99-1.79-3.99-3.99a3.98 3.98 0 011.434-3.062.752.752 0 00.215-.862 3.95 3.95 0 01-.294-1.496c0-2.2 1.79-3.99 3.99-3.99s3.99 1.79 3.99 3.99c0 .415.338.753.753.753a.755.755 0 00.753-.753 5.506 5.506 0 00-5.079-5.479 2.634 2.634 0 011.242-3.711.694.694 0 00.119-.047c.299-.114.612-.17.933-.17 1.017 0 1.926.57 2.37 1.486.09.18.243.316.433.383a.74.74 0 00.575-.035.759.759 0 00.383-.432.74.74 0 00-.035-.575 4.2 4.2 0 00-2.501-2.146c1.538-.899 3.017-1.392 4.195-1.392 1.079 0 1.958.879 1.958 1.958v7.985a3.426 3.426 0 00-1.958-.608.754.754 0 00-.753.753l.002.005z" fill="#BDA37E"/><path d="M47.021 37.147a2.654 2.654 0 01-2.543-1.949 5.508 5.508 0 004.652-5.43.755.755 0 00-.753-.752.755.755 0 00-.753.753c0 2.2-1.79 3.99-3.99 3.99a3.954 3.954 0 01-2.85-1.198.752.752 0 10-1.076 1.052 5.41 5.41 0 003.234 1.605 4.167 4.167 0 004.08 3.432.755.755 0 00.752-.753.755.755 0 00-.753-.753v.003zM44.985 44.6c-.195 0-.398.012-.603.034a5.501 5.501 0 00-5.496-5.454.755.755 0 00-.753.753c0 .415.338.753.753.753a3.995 3.995 0 013.975 4.343 5.475 5.475 0 00-3.373 5.067.754.754 0 001.506 0c0-2.2 1.79-3.99 3.99-3.99a.755.755 0 00.754-.754.755.755 0 00-.753-.753z" fill="#BDA37E"/></svg>