<svg width="73" height="73" fill="none" xmlns="http://www.w3.org/2000/svg"><circle cx="36.18" cy="36.547" r="35.5" fill="#FCFAF7" stroke="#BDA37E"/><g clip-path="url(#clip0_512_23463)" fill="#BDA37E"><path d="M29.387 21.299l.525-.436a1.42 1.42 0 00.18-2.016l-1.282-1.504a1.469 1.469 0 00-2.044-.177l-5.442 4.5-1.935-2.271a2.482 2.482 0 00-.024-2.335l2.469-3.047a.898.898 0 00-.144-1.27.929.929 0 00-1.288.142l-2.432 2.999a2.569 2.569 0 00-.851-.147c-1.407 0-2.552 1.128-2.552 2.514 0 1.387 1.145 2.515 2.552 2.515.32 0 .625-.06.906-.168l1.895 2.226-5.441 4.5a1.42 1.42 0 00-.18 2.016l1.282 1.504a1.46 1.46 0 001.114.511c.33 0 .659-.108.93-.334l.525-.436 1.401.987a1.886 1.886 0 002.283-.088l1.986-1.642c.65-.538.852-1.444.486-2.199l-.742-1.531.406-.334 1.4.987a1.886 1.886 0 002.284-.088l1.986-1.642c.65-.539.852-1.444.486-2.2l-.742-1.53.003-.006zm-12.986-3.044c0-.392.324-.71.72-.71.398 0 .721.318.721.71 0 .39-.323.71-.72.71a.716.716 0 01-.72-.71zM15.95 28.47l11.7-9.677.794.933-11.7 9.677-.794-.933zm6.708-.048s0 .03-.01.04l-1.986 1.642s-.028.012-.043 0l-1.016-.716 2.515-2.082.537 1.11.003.006zm5.807-4.77l-1.986 1.642s-.03.009-.043 0l-1.016-.713 2.514-2.082.537 1.11s0 .03-.009.04l.003.002zm29.693 5.519a1.397 1.397 0 00-.287-1.865l-1.336-1.1c-.037-.031-.074-.052-.113-.076l-2.375-1.964-.045-.049-1.575-1.296 1.895-2.223c.284.105.586.168.906.168 1.407 0 2.552-1.128 2.552-2.514 0-1.387-1.145-2.515-2.552-2.515a2.57 2.57 0 00-.851.147l-2.432-3a.928.928 0 00-1.288-.14.897.897 0 00-.144 1.269l2.47 3.047a2.467 2.467 0 00-.306 1.195c0 .433.104.797.28 1.14l-1.934 2.27-1.578-1.305c-.018-.015-.037-.024-.055-.036l-2.38-1.961c-.03-.033-.058-.066-.092-.093l-1.336-1.104a1.47 1.47 0 00-1.85-.012c-.076.06-.146.126-.21.201l-.586.692-.68.8a1.61 1.61 0 00-.169.244 1.418 1.418 0 00.339 1.79l.525.433-.733 1.516a1.818 1.818 0 00.486 2.199l1.986 1.642a1.886 1.886 0 002.283.087l1.401-.983.207.171.199.163-.742 1.531a1.818 1.818 0 00.486 2.199l1.986 1.642a1.886 1.886 0 002.283.087l1.4-.986.529.436c.271.226.601.334.93.334.141 0 .281-.027.419-.07.009 0 .015-.005.024-.008.076-.024.153-.051.223-.09.03-.015.058-.037.088-.052.05-.03.101-.057.147-.096.082-.063.159-.132.226-.213l.586-.692.68-.8a.99.99 0 00.113-.166v.006zm-2.179-.216l-.363.427-5.911-4.867-5.799-4.799.406-.48.375-.44 5.915 4.87 5.795 4.795-.418.494zm-.03-10.706c0 .39-.324.71-.72.71a.716.716 0 01-.72-.71c0-.392.323-.71.72-.71.396 0 .72.318.72.71zM45.91 25.288s-.03.009-.043 0l-1.986-1.643s-.016-.027-.01-.039l.532-1.098 2.517 2.073-1.013.713.003-.006zm5.817 4.813s-.03.009-.043 0L49.7 28.458s-.016-.027-.01-.039l.537-1.11 2.515 2.082-1.016.716.003-.006zm3.826 12.041h-.775v-2.78c0-.963-.794-1.745-1.77-1.745H19.349c-.977 0-1.77.782-1.77 1.745v2.78h-.775c-.742 0-1.343.592-1.343 1.323v2.722c0 .732.604 1.324 1.343 1.324H33.47v3.411c-1.804.66-3.092 2.365-3.092 4.368v3.454H21.37a.908.908 0 00-.915.902c0 .5.409.902.915.902h29.62a.908.908 0 00.916-.902c0-.5-.41-.902-.916-.902h-9.009V55.29c0-.598-.119-1.17-.33-1.696h2.262v.258c0 1.874 1.544 3.397 3.446 3.397 1.9 0 3.445-1.526 3.445-3.397v-6.34h4.752c.741 0 1.343-.593 1.343-1.325v-2.722c0-.73-.605-1.324-1.343-1.324h-.003zm-36.143-2.72h33.537v2.72h-33.54v-2.72h.003zm17.646 8.092v3.12H35.3v-3.12h1.755zm-4.85 11.233v-3.454c0-1.573 1.3-2.855 2.896-2.855h2.149c1.596 0 2.896 1.282 2.896 2.855v3.454h-7.94zm16.764-4.892c0 .879-.723 1.592-1.614 1.592a1.604 1.604 0 01-1.615-1.592v-.258c0-1-.824-1.808-1.834-1.808h-3.546a4.747 4.747 0 00-1.474-.864v-3.41H48.97v6.34zm6.095-8.146H17.31v-1.763h37.776v1.763h-.021z"/></g><defs><clipPath id="clip0_512_23463"><path fill="#fff" transform="translate(10.844 12.547)" d="M0 0h50.667v48H0z"/></clipPath></defs></svg>