<svg width="72" height="73" fill="none" xmlns="http://www.w3.org/2000/svg"><circle cx="36" cy="36.336" r="35.5" fill="#DCB971" stroke="#FCFAF7"/><g clip-path="url(#clip0_503_15746)" fill="#FCFAF7"><path d="M29.207 21.088l.525-.436a1.42 1.42 0 00.18-2.016l-1.281-1.504a1.469 1.469 0 00-2.045-.177l-5.442 4.5-1.934-2.271a2.466 2.466 0 00-.024-2.334l2.468-3.048a.898.898 0 00-.143-1.27.929.929 0 00-1.288.142l-2.432 3a2.567 2.567 0 00-.852-.148c-1.407 0-2.551 1.128-2.551 2.515 0 1.386 1.144 2.514 2.551 2.514.32 0 .626-.06.906-.168l1.896 2.226-5.442 4.5a1.42 1.42 0 00-.18 2.016l1.282 1.504a1.46 1.46 0 001.114.511c.33 0 .659-.108.93-.334l.526-.436 1.4.987a1.886 1.886 0 002.283-.088l1.987-1.642c.65-.538.851-1.444.485-2.199l-.742-1.531.406-.334 1.401.987a1.886 1.886 0 002.283-.088l1.987-1.642c.65-.539.851-1.444.485-2.199l-.742-1.531.003-.006zm-12.985-3.044c0-.392.323-.71.72-.71.397 0 .72.319.72.71 0 .39-.323.71-.72.71a.716.716 0 01-.72-.71zm-.452 10.215l11.7-9.677.794.933-11.7 9.677-.794-.933zm6.708-.048s0 .03-.01.04l-1.986 1.642s-.027.012-.043 0l-1.016-.716 2.515-2.082.537 1.11.003.006zm5.808-4.77l-1.987 1.642s-.03.009-.043 0l-1.016-.713 2.515-2.082.537 1.11s0 .03-.01.04l.004.002zm29.692 5.521a1.397 1.397 0 00-.287-1.865l-1.336-1.1c-.037-.031-.073-.052-.113-.076l-2.374-1.964c-.016-.015-.03-.034-.046-.049l-1.575-1.296 1.895-2.223c.284.105.586.168.907.168 1.407 0 2.551-1.128 2.551-2.514 0-1.387-1.144-2.515-2.551-2.515-.3 0-.586.054-.852.147l-2.432-3a.928.928 0 00-1.288-.14.897.897 0 00-.143 1.269l2.469 3.047a2.466 2.466 0 00-.306 1.195c0 .433.104.797.281 1.14l-1.935 2.27-1.578-1.305c-.018-.015-.036-.024-.054-.036l-2.38-1.961c-.031-.033-.059-.066-.092-.093l-1.337-1.105a1.47 1.47 0 00-1.85-.011c-.076.06-.146.126-.21.201l-.586.692-.68.8a1.61 1.61 0 00-.169.244 1.418 1.418 0 00.34 1.79l.524.433-.732 1.516a1.817 1.817 0 00.485 2.199l1.987 1.642a1.88 1.88 0 002.282.088l1.401-.984.208.171.198.163-.741 1.531a1.818 1.818 0 00.485 2.199l1.987 1.642a1.886 1.886 0 002.283.087l1.4-.986.528.436a1.405 1.405 0 001.349.264c.01 0 .015-.005.024-.008a1.17 1.17 0 00.223-.09c.03-.015.058-.037.089-.052.049-.03.1-.057.146-.096a1.34 1.34 0 00.226-.213l.586-.692.68-.8a.986.986 0 00.113-.166v.006zm-2.179-.216l-.363.427-5.911-4.867-5.799-4.799.406-.48.376-.44 5.914 4.87 5.796 4.795-.419.494zm-.03-10.706c0 .39-.324.71-.72.71a.716.716 0 01-.72-.71c0-.392.323-.71.72-.71.396 0 .72.318.72.71zM45.73 25.078s-.03.009-.042 0l-1.987-1.643s-.015-.027-.01-.039l.532-1.098 2.518 2.073-1.014.713.003-.006zm5.817 4.813s-.03.009-.043 0l-1.986-1.643s-.015-.027-.01-.039l.538-1.11 2.515 2.082-1.017.716.003-.006zm3.826 12.038h-.775v-2.78c0-.963-.794-1.745-1.77-1.745H19.169c-.976 0-1.77.782-1.77 1.745v2.78h-.775c-.741 0-1.343.592-1.343 1.323v2.723c0 .73.604 1.323 1.343 1.323H33.29v3.411c-1.803.66-3.091 2.365-3.091 4.368v3.454h-9.01a.908.908 0 00-.915.902c0 .5.409.903.916.903h29.62a.908.908 0 00.916-.903c0-.5-.409-.902-.915-.902H41.8v-3.454c0-.598-.118-1.17-.329-1.696h2.261v.258c0 1.874 1.545 3.397 3.446 3.397 1.901 0 3.445-1.526 3.445-3.397V47.3h4.752c.742 0 1.343-.593 1.343-1.324v-2.723c0-.73-.604-1.323-1.343-1.323h-.003zm-36.143-2.72h33.537v2.72h-33.54v-2.72h.003zm17.646 8.092v3.12h-1.755V47.3h1.755zm-4.85 11.233V55.08c0-1.573 1.3-2.854 2.897-2.854h2.148c1.596 0 2.897 1.281 2.897 2.854v3.454h-7.941zm16.764-4.892c0 .879-.723 1.592-1.614 1.592a1.604 1.604 0 01-1.614-1.592v-.258c0-.999-.825-1.808-1.835-1.808h-3.546a4.746 4.746 0 00-1.474-.864v-3.41H48.79v6.34zm6.095-8.146H17.13v-1.763h37.775v1.763h-.021z"/></g><defs><clipPath id="clip0_503_15746"><path fill="#fff" transform="translate(10.664 12.336)" d="M0 0h50.667v48H0z"/></clipPath></defs></svg>