<svg width="73" height="73" fill="none" xmlns="http://www.w3.org/2000/svg"><path d="M71.68 36.547c0 19.606-15.894 35.5-35.5 35.5S.68 56.153.68 36.547s15.894-35.5 35.5-35.5 35.5 15.894 35.5 35.5z" fill="#FCFAF7" stroke="#BDA37E"/><g clip-path="url(#clip0_486_11903)"><path d="M57.068 22.871c-3.311-3.31-8.27-4.424-12.652-2.932-.402-4.189-3.976-7.478-8.239-7.478h-.101a9.699 9.699 0 00-.648.031 3.754 3.754 0 00-3.063 2.104 1.855 1.855 0 00-2.145.393 8.372 8.372 0 00-2.27 5.007 12.552 12.552 0 00-2.663-.59v-.034c-2.768-.113-3.88.178-4.144.265a12.03 12.03 0 00-5.697 3.087 12.178 12.178 0 00-3.742 8.719 12.185 12.185 0 003.592 8.778l6.962 6.962a6.148 6.148 0 003.056 5l2.509 1.449a9.432 9.432 0 009.152 7.008c5.227 0 9.477-4.254 9.477-9.478 0-.104-.007-.207-.01-.311l3.466-3.465 7.162-7.162c4.783-4.783 4.783-12.567 0-17.35l-.002-.003zm-13.488-.426h.557a.66.66 0 01.66.66v.238c0 .902-.602 1.666-1.424 1.911l.207-2.812v.003zm-12.316-6.456a.392.392 0 01.291-.13c.07 0 .13.019.164.031.08.031.263.133.263.388a.722.722 0 101.446 0c0-1.21.935-2.239 2.128-2.345.178-.014.358-.024.537-.026 3.706-.05 6.81 2.928 6.913 6.627a.648.648 0 01-.535.655l-.963.164a8.235 8.235 0 01-8.18-3.48.721.721 0 00-1.276.16c-.608 1.667-1.49 3.028-2.625 4.048l-.055-.767c-.147-1.98.542-3.925 1.89-5.33l.002.005zm13.677 15.44a9.138 9.138 0 01-2.045 1.532h-2.14v-1.716a7.752 7.752 0 001.537-1.675 3.097 3.097 0 002.668 1.533h.303l-.325.325h.002zm-13.338-.184v1.716h-2.14a9.21 9.21 0 01-2.045-1.533l-.326-.325h.304c1.137 0 2.13-.617 2.668-1.533a7.76 7.76 0 001.537 1.675h.002zM30.29 23.25c.015-.013.034-.022.048-.037 1.06-.937 1.928-2.115 2.59-3.515a9.686 9.686 0 008.828 3.08l.356-.061-.298 4.06c-.208 2.817-3.875 4.962-5.632 4.962-1.757 0-5.424-2.145-5.632-4.962l-.26-3.527zm1.388 11.157c.757 0 1.374-.617 1.374-1.374v-.812c1.132.624 2.287.964 3.13.964s1.998-.34 3.13-.964v.812c0 .757.617 1.374 1.374 1.374h.588l-1.215 1.255a5.352 5.352 0 01-3.88 1.644 5.352 5.352 0 01-3.88-1.644l-1.214-1.255h.593zm-4.113-11.302c0-.297.197-.545.467-.63a1.4 1.4 0 00.824.977l.133 1.802a2 2 0 01-1.424-1.91v-.24zm-5.319 18.632v3.39L16.318 39.2a10.75 10.75 0 01-3.169-7.745 10.75 10.75 0 013.302-7.692 10.618 10.618 0 015.304-2.781.698.698 0 00.142-.043c.414-.075 1.32-.184 2.964-.135.022.004.043.01.065.012a11.11 11.11 0 012.27.453 2.106 2.106 0 00-1.075 1.834v.238a3.445 3.445 0 002.93 3.4v1.26c0 .911-.74 1.651-1.65 1.651h-1.639a.89.89 0 00-.824.552.89.89 0 00.193.974l1.27 1.27c.185.185.38.366.578.537-1.22.12-2.35.66-3.22 1.547a5.236 5.236 0 00-1.51 3.69v3.51l-.003.005zm3.788 9.194a4.695 4.695 0 01-2.342-4.058v-4.415h3.8v4.434c0 .301.162.583.427.737l6.063 3.5 3.398 1.956c.007.005.012.01.017.012l.853.492a.357.357 0 01.13.484 3.429 3.429 0 01-2.094 1.607 3.421 3.421 0 01-2.615-.344l-7.632-4.408-.005.003zm22.635-4.357l-2.46 2.46a9.48 9.48 0 00-1.342-3.118v-3.458h3.8v4.116h.002zm0-5.562h-3.8V38.86a.722.722 0 10-1.446 0v5.36a9.513 9.513 0 00-3.576-2.095.723.723 0 00-.438 1.379 8.1 8.1 0 014.145 3.05 8 8 0 011.45 4.605c0 4.43-3.602 8.032-8.032 8.032a7.991 7.991 0 01-7.18-4.424l3.154 1.822a4.856 4.856 0 003.71.489 4.865 4.865 0 002.974-2.28c.497-.86.2-1.964-.658-2.46l-.448-.258-3.378-1.947c-.01-.005-.017-.012-.027-.02l-6.178-3.566v-7.69a.722.722 0 10-1.446 0v2.153h-3.8v-2.79c0-1.007.387-1.956 1.096-2.677a3.792 3.792 0 012.723-1.142h1.566l2.189 2.26a6.789 6.789 0 004.918 2.085c1.87 0 3.617-.74 4.918-2.085l2.188-2.26h1.567c.248 0 .496.024.737.07h.022c.662.17 1.624.554 2.27 1.405a.815.815 0 00.045.077c.085.113.16.233.23.354l.043.082c.306.557.467 1.178.467 1.827v2.788l-.005.007zm7.374-1.815l-5.928 5.928v-6.904c0-.918-.236-1.802-.684-2.588-1.043-1.969-3.1-2.525-4.017-2.677.188-.164.37-.333.55-.508l1.27-1.27a.89.89 0 00.192-.974.892.892 0 00-.824-.552h-1.639c-.91 0-1.65-.742-1.65-1.65v-1.26a3.445 3.445 0 002.93-3.4v-.24c0-.814-.465-1.52-1.145-1.872 3.81-1.207 8.078-.21 10.945 2.658 4.22 4.22 4.22 11.087 0 15.307v.002z" fill="#BDA37E"/></g><defs><clipPath id="clip0_486_11903"><path fill="#fff" transform="translate(10.734 12.547)" d="M0 0h50.667v48H0z"/></clipPath></defs></svg>