<svg width="73" height="73" fill="none" xmlns="http://www.w3.org/2000/svg"><circle cx="36.18" cy="36.484" r="35.5" fill="#FCFAF7" stroke="#BDA37E"/><path fill-rule="evenodd" clip-rule="evenodd" d="M29.516 20.506a7.41 7.41 0 014.952 2.44l2.169-2.169 1.414 1.415-2.44 2.44c.488.99.762 2.103.762 3.281a9.68 9.68 0 002.174 6.126l2.261-2.262 1.415 1.415-2.262 2.26a9.674 9.674 0 006.126 2.175c.655 0 1.29.085 1.896.244l1.667-2.887 1.732 1-1.537 2.662a7.425 7.425 0 013.67 6.41c0 1.087-.233 2.12-.653 3.05l2.618 1.512-1 1.732-2.68-1.547a7.413 7.413 0 01-5.713 2.681c-.191 0-.381-.002-.571-.006v3.006h-2v-3.133a24.411 24.411 0 01-8.606-2.55l-1.528 2.647-1.732-1 1.518-2.63a24.693 24.693 0 01-5.312-4.431l-2.633 2.633-1.415-1.414 2.763-2.762a24.509 24.509 0 01-3.802-7.161l-2.995.802-.517-1.931 2.959-.793a24.633 24.633 0 01-.7-5.848c0-.681.091-1.34.263-1.967l-2.763-1.595 1-1.732 2.555 1.475a7.437 7.437 0 014.945-3.472v-3.138h2v3.022zm-.572 1.978a5.429 5.429 0 00-5.428 5.429c0 12.466 10.105 22.571 22.571 22.571a5.429 5.429 0 000-10.857c-6.47 0-11.714-5.244-11.714-11.714a5.429 5.429 0 00-5.429-5.429zm-.428 5a1 1 0 100 2 1 1 0 000-2zm-3 1a3 3 0 116 0 3 3 0 01-6 0zm11 14a1 1 0 112 0 1 1 0 01-2 0zm1-3a3 3 0 100 6 3 3 0 000-6zm-5-3a2 2 0 11-4 0 2 2 0 014 0zm13 10a2 2 0 100-4 2 2 0 000 4z" fill="#BDA37E"/></svg>