<svg width="48" height="48" fill="none" xmlns="http://www.w3.org/2000/svg"><circle cx="24" cy="24" r="23.5" fill="#FCFAF7" stroke="#BDA37E"/><path d="M24.234 25.562l1-3.334 1 3.334-1 1.333-1-1.333z" fill="#BDA37E"/><path fill-rule="evenodd" clip-rule="evenodd" d="M34.909 20.465a2.334 2.334 0 001.661-2.235v-4a2.333 2.333 0 00-4.666 0v4c0 1.059.705 1.953 1.671 2.238.006.75.015 1.466.024 2.15v.001c.033 2.434.06 4.463-.117 6.15-.252 2.387-.894 3.843-2.322 4.685-1.92 1.131-4.825 1.523-7.27 1.215-1.218-.153-2.26-.473-2.975-.91a2.715 2.715 0 01-.67-.553c1.215-.068 2.403-.288 3.368-.68 1.185-.483 2.259-1.333 2.29-2.677a4.668 4.668 0 000-9.239v-3.965h-.001l.002-.082c0-1.84-2.985-3.333-6.667-3.333s-6.667 1.492-6.667 3.333l.002.082h-.002V29.79c0 1.323 1.11 2.169 2.287 2.656 1.094.454 2.477.707 3.867.769.258.709.82 1.268 1.495 1.681.933.57 2.177.93 3.504 1.096 2.644.333 5.87-.066 8.114-1.39 1.977-1.164 2.704-3.158 2.97-5.694.187-1.77.158-3.922.125-6.402-.009-.658-.018-1.338-.023-2.041zm-.672-7.235a1 1 0 011 1v4a1 1 0 01-2 0v-4a1 1 0 011-1zm-9.667 3.333c0 .144-.15.632-1.215 1.165-.985.492-2.44.835-4.118.835-1.679 0-3.133-.343-4.118-.835-1.064-.533-1.215-1.021-1.215-1.165 0-.143.15-.632 1.215-1.164.985-.493 2.44-.836 4.118-.836 1.679 0 3.133.343 4.118.836 1.064.532 1.215 1.02 1.215 1.164zm0 2c-1.216.81-3.152 1.334-5.333 1.334-.204 0-.406-.005-.606-.014v11.992c.203.011.408.018.614.02 1.445.017 2.85-.191 3.866-.605 1.009-.41 1.428-.922 1.458-1.441a4.668 4.668 0 01.001-9.239v-2.046zm4 6.667a3.333 3.333 0 11-6.666 0 3.333 3.333 0 016.666 0z" fill="#BDA37E"/><path d="M17.07 19.796c-1.67-.203-2.518-.774-3.375-1.31V29.94c.876 1.019 1.439 1.394 3.375 1.796v-11.94z" fill="#FCFAF7"/></svg>