<svg width="48" height="48" fill="none" xmlns="http://www.w3.org/2000/svg"><circle cx="24" cy="24" r="23.5" fill="#FCFAF7" stroke="#BDA37E"/><path fill-rule="evenodd" clip-rule="evenodd" d="M25.268 30.91a2.66 2.66 0 011.457.432l1.21-21.766.667.037.665-.037 1.211 21.766a2.667 2.667 0 11-1.21 2.254l-.149-2.678h-1.035l-.15 2.678a2.667 2.667 0 11-2.666-2.686zm3.334-9.297l.443 7.971h-.887l.444-7.97zm0-2.014a.666.666 0 100-1.332.666.666 0 000 1.332zm-3.334 12.644a1.333 1.333 0 100 2.666 1.333 1.333 0 000-2.666zm5.334 1.333a1.333 1.333 0 112.666 0 1.333 1.333 0 01-2.666 0zM19.938 9.732l-1.01.606.343.572c-.343-.572-.344-.571-.344-.571l-.003.002-.005.003-.012.007a1.565 1.565 0 00-.137.097 3.657 3.657 0 00-.324.279c-.259.25-.592.63-.93 1.183-.677 1.108-1.361 2.882-1.535 5.622a1.91 1.91 0 001.119 1.86 1.662 1.662 0 00-.495 1.184v14a1.667 1.667 0 103.333 0v-14c0-.595-.312-1.118-.782-1.413.475-.365.782-.94.782-1.587V9.732zm-2.627 7.885c.158-2.476.755-4.017 1.294-4.93v4.89a.667.667 0 01-.667.666c-.379 0-.647-.302-.627-.626zm1.294 3.017v-.058a.333.333 0 00-.667 0v.724l.667-.666zm0 1.885v.781l-.667.667v-.781l.667-.667zm0 3.448v-.781l-.667.667v.78l.667-.666zm0 1.886v6.724a.333.333 0 01-.667 0v-6.058l.667-.666z" fill="#BDA37E"/></svg>