<svg width="73" height="73" fill="none" xmlns="http://www.w3.org/2000/svg"><circle cx="36.18" cy="36.547" r="35.5" fill="#FCFAF7" stroke="#BDA37E"/><path d="M35.604 20.61a1.76 1.76 0 001.435-.673c1.723.624 3.935 2 3.407 4.91-1.26 6.966-2.691 9.574-3.43 10.512a5.235 5.235 0 01-.444.489 1.536 1.536 0 00-1.067-.605 1.39 1.39 0 00-1.084.415c-.963.99-2.632 1.508-3.782 1.508-1.151 0-2.82-.518-3.783-1.508a1.382 1.382 0 00-1.084-.415c-.425.042-.81.262-1.067.602a5.48 5.48 0 01-.442-.486c-.74-.936-2.175-3.548-3.43-10.511-.525-2.911 1.69-4.287 3.413-4.909.35.43.879.677 1.435.672.365 0 .849-.136 1.333-.262a1.971 1.971 0 001.447-2.38 1.971 1.971 0 00-2.467-1.422l-.78.23a1.95 1.95 0 00-1.403 1.663c-.9.319-1.992.833-2.889 1.665-1.422 1.306-1.982 3.042-1.62 5.027 1.255 6.93 2.73 9.916 3.744 11.202.217.274.46.534.716.77-.518.665-.452 1.583.14 2.057 1.44 1.151 2.949 1.959 4.492 2.408v3.148c0 .768.696 1.393 1.464 1.393v2.454c0 .788.27 2.748 1.284 4.536 1.324 2.335 3.445 3.568 6.134 3.568 2.928 0 6.627-1.418 7.63-8.166.654-4.402 1.538-7.284 4.335-9.899 1.264-1.182 2.864-2.04 3.95-2.538.287.22.638.338.998.336.455.007.887-.183 1.19-.519A1.602 1.602 0 0053 33.734c-.215.245-.35.55-.388.877-1.197.543-2.987 1.494-4.44 2.854-3.13 2.928-4.105 6.057-4.809 10.81-.114.758-.375 2.533-1.289 4.096-1.074 1.845-2.644 2.741-4.8 2.741-2.155 0-3.73-.936-4.783-2.78-.884-1.558-1.079-3.247-1.079-3.766v-2.454c.768 0 1.465-.625 1.465-1.393v-3.148c1.543-.45 3.052-1.256 4.491-2.407.593-.474.6-1.447.143-2.052.262-.237.501-.496.721-.773 1.017-1.284 2.494-4.269 3.743-11.202.358-1.98-.2-3.719-1.617-5.025-.901-.832-1.992-1.35-2.894-1.664a1.954 1.954 0 00-1.4-1.664l-.778-.23a1.972 1.972 0 00-2.538 1.166 1.972 1.972 0 001.531 2.634c.519.128 1.025.254 1.331.264l-.005-.007zm-.75-2.57c.19.052.757.223.757.223a.418.418 0 01.314.498c0 .01-.005.02-.007.033-.092.338-.398.259-.5.232h-.011l-.766-.188a.416.416 0 01-.301-.496c.06-.264.222-.38.513-.301zm-7.91.297a.406.406 0 01-.298.494h-.003l-.765.187h-.01c-.103.027-.405.104-.499-.23a.417.417 0 01.28-.518c.007 0 .017-.005.024-.007 0 0 .566-.17.758-.223.257-.071.442.015.514.294v.003zM25.699 37.12a.27.27 0 01.378-.052c.005.002.007.007.012.01 1.328 1.133 3.237 1.654 4.548 1.654s3.222-.519 4.548-1.654a.27.27 0 01.38.03c.003.004.008.007.01.012l.531.703a.27.27 0 01-.052.378c-1.335 1.005-2.723 1.676-4.13 2a.78.78 0 00-.605.758v3.316a.27.27 0 01-.27.27h-.832a.268.268 0 01-.269-.27v-3.316a.777.777 0 00-.602-.758c-1.408-.324-2.795-.995-4.131-2a.27.27 0 01-.052-.378l.536-.703z" fill="#BDA37E"/><path d="M54.184 30.497a4.308 4.308 0 00-4.242 3.534.78.78 0 001.534.279 2.752 2.752 0 111.256 2.834.78.78 0 00-.824 1.324 4.313 4.313 0 102.276-7.976v.005z" fill="#BDA37E"/></svg>