<svg width="73" height="73" fill="none" xmlns="http://www.w3.org/2000/svg"><circle cx="36.18" cy="36.547" r="35.5" fill="#FCFAF7" stroke="#BDA37E"/><path d="M56.416 54.077H15.938a2.174 2.174 0 01-2.172-2.173V21.196c0-1.199.973-2.173 2.172-2.173h40.478c1.199 0 2.172.974 2.172 2.173v30.708a2.174 2.174 0 01-2.172 2.173zm-40.478-33.5a.619.619 0 00-.619.619v30.708c0 .342.277.62.619.62h40.478a.619.619 0 00.619-.62V21.196a.619.619 0 00-.62-.619H15.939z" fill="#BDA37E"/><path d="M52.693 43.18l-12.39-18.584a.772.772 0 00-1.077-.215 5.468 5.468 0 01-3.052.924 5.489 5.489 0 01-3.053-.924.786.786 0 00-.583-.116.784.784 0 00-.494.331l-12.39 18.583a.776.776 0 00.215 1.077 29.262 29.262 0 0016.305 4.938 29.248 29.248 0 0016.304-4.938.776.776 0 00.215-1.077zm-16.52 4.46a27.693 27.693 0 01-14.789-4.254l.689-1.03a26.484 26.484 0 006.333 2.895.777.777 0 00.456-1.486 24.88 24.88 0 01-5.925-2.701l4.565-6.846a16.96 16.96 0 003.01 1.437.772.772 0 00.992-.469.774.774 0 00-.47-.992 14.997 14.997 0 01-2.67-1.266l1.85-2.773c.84.487 1.734.867 2.666 1.134a.77.77 0 00.96-.53.776.776 0 00-.533-.961 10.233 10.233 0 01-2.229-.94l1.854-2.781c1 .518 2.108.79 3.244.79a7.038 7.038 0 003.245-.79l4.57 6.856c-.492.296-1 .562-1.523.8a4.966 4.966 0 00-1.338-2.446 4.273 4.273 0 00-6.033 0 4.273 4.273 0 00-1.24 3.28 2.167 2.167 0 00-1.75 2.157 2.903 2.903 0 00-.915-.15h-1.47a2.15 2.15 0 00-1.536.637 2.16 2.16 0 00-.637 1.535c0 .58.225 1.127.637 1.536a2.16 2.16 0 001.535.637h.41l.067.202a4.248 4.248 0 004.748 2.863c3.522-.585 6.388-3.917 7.3-6.758a7.45 7.45 0 00.352-1.861 16.872 16.872 0 002.255-1.137l1.851 2.778a20.243 20.243 0 01-3.524 1.717.778.778 0 00.539 1.458 21.416 21.416 0 003.847-1.88l1.85 2.77a24.947 24.947 0 01-13.24 3.786c-1.525 0-3.052-.137-4.536-.41a.776.776 0 10-.28 1.528c1.577.29 3.198.435 4.816.435 5.018 0 9.878-1.4 14.102-4.047l.688 1.031a27.694 27.694 0 01-14.79 4.254l-.002-.008zm-3.73-8.622l.404 1.21a1.49 1.49 0 001.641.994c.774-.13 1.58-.5 2.346-1.075l.044.018a.778.778 0 00.611-1.43l-3.454-1.48a.61.61 0 01-.331-.34.617.617 0 01.818-.8l3.454 1.482a.777.777 0 10.611-1.43l-3.133-1.34a2.707 2.707 0 01.735-2.453 2.72 2.72 0 013.838 0c1.027 1.028 1.294 2.62.735 4.368-.782 2.434-3.268 5.233-6.074 5.7a2.706 2.706 0 01-3.02-1.824l-.243-.733a.777.777 0 00-.735-.53h-.969a.615.615 0 01-.619-.62.615.615 0 01.62-.618h1.47c.567 0 1.07.363 1.25.901zm1.618-.06l1.03.443a3.26 3.26 0 01-.792.277l-.238-.717v-.002z" fill="#BDA37E"/></svg>