<svg width="73" height="73" fill="none" xmlns="http://www.w3.org/2000/svg"><circle cx="36.18" cy="36.547" r="35.5" fill="#FCFAF7" stroke="#BDA37E"/><path d="M53.19 19.438H27.373a.804.804 0 00-.803.802v16.306c0 .442.36.803.803.803H53.19c.442 0 .803-.36.803-.803V20.24a.804.804 0 00-.803-.802zm-.802 16.306H28.175V21.042h24.213v14.702zM19.377 24.85a.774.774 0 01-.287-.054 5.313 5.313 0 00-3.812 0 .802.802 0 11-.575-1.499 6.908 6.908 0 014.963 0 .802.802 0 01-.287 1.553h-.002zm-.985 2.537a.777.777 0 01-.286-.054c-.6-.23-1.262-.23-1.86 0a.802.802 0 11-.575-1.499 4.19 4.19 0 013.01 0 .802.802 0 01-.286 1.553h-.003z" fill="#BDA37E"/><path d="M53.297 40.067a3.414 3.414 0 003.41-3.41V20.129a3.414 3.414 0 00-3.41-3.41h-26.04a3.414 3.414 0 00-3.41 3.41v16.526a3.414 3.414 0 003.41 3.41h10.86v1.113h-3.275c-1.192 0-2.16.97-2.16 2.16v.556H26.01c-1.192 0-2.16.97-2.16 2.16v2.72c0 1.147.901 2.085 2.032 2.155a3.956 3.956 0 01-3.948 3.837c-2.141 0-3.953-1.773-3.953-3.953v-8.865a2.161 2.161 0 001.358-2.005v-5.041c0-.218.116-.418.284-.487a2.845 2.845 0 001.75-2.778c-.079-1.508-1.375-2.689-2.953-2.689h-2.486c-1.576 0-2.874 1.18-2.953 2.69a2.845 2.845 0 001.75 2.777c.168.07.284.27.284.486v5.04c0 .909.563 1.686 1.358 2.005v8.867a5.565 5.565 0 005.558 5.558 5.538 5.538 0 005.556-5.435H54.54c1.193 0 2.16-.97 2.16-2.16v-2.719c0-1.193-.97-2.16-2.16-2.16h-6.67v-.556c0-1.193-.97-2.16-2.161-2.16h-3.274v-1.114h10.862zm-36.674-.124v-1.916h1.113v1.916a.556.556 0 01-1.11 0h-.003zm-1.275-7.01c-.483-.2-.79-.686-.76-1.21.035-.644.64-1.167 1.348-1.167h2.487c.71 0 1.316.523 1.348 1.168a1.242 1.242 0 01-.76 1.21c-.776.32-1.275 1.093-1.275 1.968v1.52h-1.113v-1.52c0-.875-.502-1.647-1.275-1.968zM47.875 46.06v-.556h6.672c.306 0 .556.25.556.556v2.718c0 .306-.25.556-.556.556H26.013a.556.556 0 01-.556-.556V46.06c0-.307.25-.556.556-.556h6.671v.556c0 1.192.97 2.16 2.16 2.16h10.87c1.193 0 2.16-.97 2.16-2.16zm-2.16-3.275c.306 0 .556.25.556.556v2.718c0 .307-.25.556-.556.556h-10.87a.556.556 0 01-.555-.556v-2.718c0-.306.25-.556.556-.556h10.869zm-5.993-1.604v-1.114h1.114v1.114H39.72zm-12.464-2.719c-.995 0-1.805-.81-1.805-1.805V20.129c0-.995.81-1.805 1.805-1.805h26.04c.995 0 1.805.81 1.805 1.805v16.526c0 .995-.81 1.804-1.805 1.804h-26.04v.003z" fill="#BDA37E"/><path d="M40.965 45.503h-1.358a.804.804 0 01-.802-.802c0-.442.36-.803.802-.803h1.358a.803.803 0 010 1.605zm3.391 0h-.678a.804.804 0 01-.803-.802c0-.442.36-.803.803-.803h.678a.803.803 0 010 1.605zm-7.468 0h-.68a.804.804 0 01-.802-.802c0-.442.36-.803.803-.803h.679a.803.803 0 010 1.605zm11.6-14.402l-1.462-2.192c-.012-.025-.022-.047-.037-.072-.015-.022-.032-.04-.05-.06l-4.103-6.155a.79.79 0 00-.511-.34.79.79 0 00-.603.12c-.854.57-2.02.57-2.876 0a.806.806 0 00-1.114.22l-5.651 8.48a.8.8 0 00.222 1.11 14.318 14.318 0 007.983 2.42 14.32 14.32 0 007.982-2.42.803.803 0 00.222-1.11h-.002zm-8.205 1.926c-2.267 0-4.467-.593-6.41-1.723l.617-.926c.509.291 1.037.543 1.58.753a.803.803 0 00.578-1.499 10.2 10.2 0 01-1.266-.597l2.136-3.203a6.245 6.245 0 002.763.645.805.805 0 00.802-.803.804.804 0 00-.802-.802 4.62 4.62 0 01-1.862-.393l.244-.366a4.248 4.248 0 003.237 0l1.766 2.65a7.342 7.342 0 01-5.222.595.803.803 0 10-.4 1.555 8.948 8.948 0 002.239.282c1.504 0 2.97-.378 4.279-1.089l.622.931a9.988 9.988 0 01-2.284.928 10.172 10.172 0 01-3.51.304.803.803 0 00-.142 1.598 11.873 11.873 0 004.067-.354 11.434 11.434 0 002.758-1.14l.617.926a12.707 12.707 0 01-6.41 1.723l.003.005z" fill="#BDA37E"/></svg>