<svg width="72" height="73" fill="none" xmlns="http://www.w3.org/2000/svg"><circle cx="36" cy="36.336" r="35.5" fill="#DCB971" stroke="#FCFAF7"/><path d="M56.236 53.864H15.758a2.174 2.174 0 01-2.172-2.172v-30.71c0-1.198.973-2.171 2.172-2.171h40.478c1.199 0 2.172.973 2.172 2.172V51.69a2.174 2.174 0 01-2.172 2.173zm-40.478-33.5a.619.619 0 00-.618.619V51.69c0 .342.276.62.618.62h40.478a.619.619 0 00.619-.62V20.983a.619.619 0 00-.619-.619H15.758z" fill="#FCFAF7"/><path d="M52.514 42.966l-12.39-18.583a.772.772 0 00-1.077-.215 5.468 5.468 0 01-3.053.925 5.489 5.489 0 01-3.053-.925.786.786 0 00-.582-.116.784.784 0 00-.495.331l-12.39 18.583a.776.776 0 00.216 1.077 29.262 29.262 0 0016.304 4.938A29.248 29.248 0 0052.3 44.043a.776.776 0 00.215-1.077zm-16.52 4.462a27.694 27.694 0 01-14.79-4.255l.689-1.03a26.484 26.484 0 006.333 2.895.777.777 0 00.456-1.486 24.886 24.886 0 01-5.924-2.701l4.565-6.846a16.96 16.96 0 003.008 1.437.772.772 0 00.992-.469.773.773 0 00-.469-.992 14.997 14.997 0 01-2.67-1.266l1.85-2.773a11.74 11.74 0 002.667 1.134.77.77 0 00.96-.53.776.776 0 00-.533-.961 10.228 10.228 0 01-2.23-.94l1.854-2.78c1 .517 2.108.789 3.245.789a7.04 7.04 0 003.244-.79l4.57 6.857c-.492.295-1 .561-1.522.8a4.965 4.965 0 00-1.34-2.447 4.273 4.273 0 00-6.032 0 4.273 4.273 0 00-1.24 3.28 2.167 2.167 0 00-1.75 2.157 2.903 2.903 0 00-.915-.15h-1.47a2.15 2.15 0 00-1.536.637 2.16 2.16 0 00-.637 1.535c0 .58.226 1.127.637 1.536.41.409.956.637 1.536.637h.409l.067.202a4.248 4.248 0 004.749 2.863c3.521-.585 6.387-3.917 7.299-6.758a7.445 7.445 0 00.352-1.861 16.872 16.872 0 002.255-1.137l1.852 2.778A20.245 20.245 0 0143 38.51a.778.778 0 00.538 1.458 21.416 21.416 0 003.848-1.88l1.849 2.77a24.947 24.947 0 01-13.24 3.786 25.15 25.15 0 01-4.536-.41.776.776 0 10-.28 1.529c1.578.29 3.198.435 4.817.435a26.48 26.48 0 0014.1-4.047l.69 1.03a27.694 27.694 0 01-14.79 4.254l-.003-.008zm-3.731-8.623l.404 1.21a1.49 1.49 0 001.642.994c.774-.13 1.579-.5 2.345-1.075l.044.018a.778.778 0 00.611-1.43l-3.454-1.48a.61.61 0 01-.331-.34.618.618 0 01.818-.8l3.454 1.482a.777.777 0 10.611-1.43l-3.133-1.34a2.707 2.707 0 01.736-2.453 2.72 2.72 0 013.837 0c1.028 1.028 1.294 2.62.735 4.368-.782 2.434-3.267 5.233-6.074 5.7a2.707 2.707 0 01-3.02-1.824l-.243-.732a.777.777 0 00-.735-.531h-.968a.615.615 0 01-.62-.619.615.615 0 01.62-.619h1.47c.567 0 1.07.363 1.251.901zm1.618-.06l1.03.444a3.263 3.263 0 01-.791.276l-.239-.717v-.002z" fill="#FCFAF7"/></svg>