<svg width="72" height="73" fill="none" xmlns="http://www.w3.org/2000/svg"><circle cx="36" cy="36.336" r="35.5" fill="#DCB971" stroke="#FCFAF7"/><path d="M53.01 19.229H27.193a.804.804 0 00-.802.802v16.306c0 .442.36.803.802.803H53.01c.442 0 .803-.36.803-.803V20.031a.804.804 0 00-.803-.802zm-.802 16.306H27.996V20.834h24.212v14.7zM19.197 24.64a.776.776 0 01-.287-.055 5.313 5.313 0 00-3.812 0 .802.802 0 11-.575-1.499 6.908 6.908 0 014.963 0 .802.802 0 01-.287 1.553h-.002zm-.984 2.538a.776.776 0 01-.287-.054c-.6-.23-1.262-.23-1.86 0a.802.802 0 11-.575-1.499 4.19 4.19 0 013.01 0 .802.802 0 01-.286 1.553h-.002z" fill="#FCFAF7"/><path d="M53.117 39.858a3.414 3.414 0 003.41-3.41V19.92a3.414 3.414 0 00-3.41-3.41h-26.04a3.414 3.414 0 00-3.41 3.41v16.526a3.414 3.414 0 003.41 3.41h10.86v1.113h-3.274c-1.193 0-2.16.97-2.16 2.16v.556H25.83c-1.193 0-2.16.97-2.16 2.16v2.72c0 1.147.9 2.086 2.031 2.155a3.955 3.955 0 01-3.948 3.837c-2.14 0-3.953-1.773-3.953-3.953v-8.865a2.161 2.161 0 001.358-2.005v-5.041c0-.218.116-.418.284-.487a2.845 2.845 0 001.75-2.778c-.079-1.508-1.375-2.689-2.953-2.689h-2.486c-1.575 0-2.874 1.18-2.953 2.69a2.845 2.845 0 001.75 2.777c.168.07.284.27.284.486v5.04c0 .909.563 1.686 1.358 2.005v8.867a5.565 5.565 0 005.558 5.558 5.538 5.538 0 005.556-5.435H54.36c1.193 0 2.16-.97 2.16-2.16v-2.719c0-1.193-.97-2.16-2.16-2.16h-6.67v-.556c0-1.193-.97-2.16-2.16-2.16h-3.275v-1.114h10.862zm-36.674-.123v-1.917h1.113v1.916a.556.556 0 01-1.11 0h-.003zm-1.274-7.01c-.484-.2-.79-.687-.76-1.21.034-.645.639-1.168 1.348-1.168h2.486c.711 0 1.316.523 1.348 1.168a1.243 1.243 0 01-.76 1.21c-.776.32-1.274 1.093-1.274 1.968v1.52h-1.114v-1.52c0-.875-.501-1.647-1.274-1.968zM47.695 45.85v-.555h6.671c.306 0 .556.25.556.555v2.719c0 .306-.25.556-.556.556H25.833a.556.556 0 01-.555-.556V45.85c0-.306.249-.555.555-.555h6.672v.555c0 1.193.97 2.161 2.16 2.161h10.87c1.192 0 2.16-.97 2.16-2.16zm-2.16-3.274c.305 0 .555.25.555.556v2.718c0 .307-.25.556-.556.556H34.665a.556.556 0 01-.555-.556v-2.718c0-.306.249-.556.555-.556h10.869zm-5.993-1.605v-1.113h1.113v1.114h-1.113zm-12.465-2.718c-.995 0-1.805-.81-1.805-1.805V19.92c0-.995.81-1.805 1.806-1.805h26.039c.995 0 1.805.81 1.805 1.805v16.526c0 .995-.81 1.805-1.805 1.805h-26.04v.002z" fill="#FCFAF7"/><path d="M40.785 45.292h-1.357a.804.804 0 01-.803-.802c0-.442.36-.803.803-.803h1.358a.803.803 0 01-.001 1.605zm3.392 0h-.68a.804.804 0 01-.802-.802c0-.442.36-.803.803-.803h.679a.803.803 0 010 1.605zm-7.469 0h-.679a.804.804 0 01-.802-.802c0-.442.36-.803.802-.803h.679c.442 0 .803.361.803.803a.804.804 0 01-.803.802zm11.6-14.402l-1.462-2.192c-.012-.025-.022-.047-.036-.072-.015-.022-.033-.04-.05-.06l-4.104-6.155a.79.79 0 00-.51-.34.789.789 0 00-.603.12c-.855.57-2.02.57-2.877 0a.805.805 0 00-1.114.22l-5.651 8.48a.8.8 0 00.222 1.11 14.318 14.318 0 007.983 2.42c2.854 0 5.612-.837 7.983-2.42a.803.803 0 00.222-1.11h-.003zm-8.205 1.926a12.71 12.71 0 01-6.41-1.723l.618-.926a11.57 11.57 0 001.58.753.799.799 0 001.037-.46.803.803 0 00-.46-1.039 10.28 10.28 0 01-1.266-.597l2.136-3.203a6.246 6.246 0 002.763.645c.442 0 .802-.36.802-.803a.804.804 0 00-.802-.802 4.62 4.62 0 01-1.862-.393l.245-.365a4.248 4.248 0 003.237 0l1.765 2.649a7.343 7.343 0 01-5.222.595.803.803 0 10-.4 1.556 8.948 8.948 0 002.24.281 8.95 8.95 0 004.278-1.089l.623.931a9.995 9.995 0 01-2.284.928c-1.134.304-2.339.408-3.511.304a.802.802 0 00-.141 1.598c.34.03.689.044 1.034.044 1.03 0 2.05-.133 3.032-.397.968-.26 1.892-.642 2.758-1.141l.618.926a12.707 12.707 0 01-6.41 1.723l.002.005z" fill="#FCFAF7"/></svg>