<svg width="73" height="73" fill="none" xmlns="http://www.w3.org/2000/svg"><circle cx="36.18" cy="36.484" r="35.5" fill="#FCFAF7" stroke="#BDA37E"/><path fill-rule="evenodd" clip-rule="evenodd" d="M38.102 17.94c3.608 3.952 13.083 15.167 13.083 23.999 0 8.033-6.472 14.545-14.456 14.545-7.983 0-14.456-6.512-14.456-14.545 0-8.832 9.475-20.047 13.083-23.998a52.584 52.584 0 011.373-1.457s.524.528 1.373 1.457zm-1.373 1.464a80.6 80.6 0 015.607 6.889c1.763 2.438 3.494 5.168 4.779 7.914 1.293 2.766 2.07 5.416 2.07 7.732 0 6.94-5.588 12.545-12.456 12.545-6.867 0-12.456-5.605-12.456-12.545 0-2.316.777-4.966 2.07-7.732 1.285-2.746 3.016-5.476 4.78-7.915a80.626 80.626 0 015.606-6.888z" fill="#BDA37E"/><path fill-rule="evenodd" clip-rule="evenodd" d="M43.606 44.785a1.482 1.482 0 00-2.062.267l-.202.26c-2.354 3.024-6.97 3.024-9.324 0l-.203-.26a1.482 1.482 0 00-2.061-.267 1.44 1.44 0 00-.27 2.037l.203.26c3.53 4.536 10.455 4.536 13.985 0l.203-.26a1.44 1.44 0 00-.27-2.037z" fill="#BDA37E"/></svg>