<svg width="73" height="73" fill="none" xmlns="http://www.w3.org/2000/svg"><circle cx="36.18" cy="36.547" r="35.5" fill="#FCFAF7" stroke="#BDA37E"/><path d="M25 52.412c.43 0 .785-.336.81-.766.003-.056.227-3.496 1.75-6.43.171 7.258 2.704 10.934 7.949 11.532.464.054.93.081 1.395.081 3.83 0 7.575-1.817 10.234-5.025 3.383-4.074 5.245-9.286 5.245-14.674 0-7.343-3.47-14.244-9.284-18.459-4.802-3.486-11.415-3.15-15.723.797-2.284 2.094-3.349 4.941-3.349 8.959 0 1.232.484 2.456 1.1 4.01.505 1.279 1.118 2.864 1.597 4.827-3.645 2.484-7.494 6.772-6.623 14.43a.81.81 0 00.805.718H25zm3.096-14.114c.015-.01.03-.017.043-.027 1.293-.825 2.553-1.432 3.525-1.899.69-.328 1.186-.565 1.494-.797a4.782 4.782 0 001.882-3.445c.096-1.336-.4-2.622-1.403-3.622a.81.81 0 00-1.145 1.146c.849.85.975 1.75.93 2.358-.064.879-.535 1.745-1.23 2.261-.182.136-.688.378-1.226.635-.76.363-1.736.83-2.788 1.44-.482-1.828-1.062-3.3-1.54-4.514-.551-1.39-.986-2.489-.986-3.412 0-3.578.872-5.973 2.822-7.76 3.741-3.43 9.492-3.717 13.674-.682 5.393 3.91 8.613 10.32 8.613 17.145 0 5.01-1.731 9.855-4.872 13.64-2.632 3.173-6.444 4.807-10.195 4.368-3.04-.346-6.528-1.874-6.528-10.704 0-.501-.013-.973-.027-1.44.945-.962 2.155-1.666 3.706-1.844a.811.811 0 10-.185-1.612c-6.647.758-8.104 8.706-8.4 11.254h-2.613c-.494-6.694 3.091-10.34 6.447-12.491l.002.002z" fill="#BDA37E"/></svg>