<svg width="73" height="72" fill="none" xmlns="http://www.w3.org/2000/svg"><circle cx="36.25" cy="36" r="35.5" fill="#FCFAF7" stroke="#BDA37E"/><path fill-rule="evenodd" clip-rule="evenodd" d="M32.567 38.984a1 1 0 11-2 .001 1 1 0 012-.001zm5 .995a1 1 0 11-2 .002 1 1 0 012-.002zm-3.995 5.004a1 1 0 10-.002-2 1 1 0 00.002 2zm5.998-2.005a1 1 0 11-2 .002 1 1 0 012-.002zm1.004 5a1 1 0 10-.001-2.001 1 1 0 00.001 2zm2.996-5.003a1 1 0 11-2 .001 1 1 0 012-.001zm-7.995 6.006a1 1 0 10-.002-2 1 1 0 00.002 2zm-4.001-1.997a1 1 0 11-2 .002 1 1 0 012-.002zm-3.003-2.997a1 1 0 10-.001-2 1 1 0 00.001 2z" fill="#BDA37E"/><path fill-rule="evenodd" clip-rule="evenodd" d="M36.086 18a1.5 1.5 0 011.5 1.5V35h2V22.5a1.5 1.5 0 013 0v15.586c0 1.904 2.41 2.73 3.579 1.227l3.186-4.097a1.518 1.518 0 012.496 1.72L44.643 48.8A10.814 10.814 0 0135.4 54c-5.973 0-10.814-4.842-10.814-10.814V28.5a1.5 1.5 0 013 0v8.618h2V22.5a1.5 1.5 0 013 0V35h2V19.5a1.5 1.5 0 011.5-1.5zm-3.496 1.339a3.5 3.5 0 016.992 0 3.5 3.5 0 015.004 3.161v15.586l3.186-4.097a3.518 3.518 0 015.785 3.986l-7.204 11.862A12.814 12.814 0 0135.4 56c-7.077 0-12.814-5.737-12.814-12.814V28.5a3.5 3.5 0 015-3.163V22.5a3.5 3.5 0 015.004-3.161z" fill="#BDA37E"/></svg>