<svg width="73" height="72" fill="none" xmlns="http://www.w3.org/2000/svg"><circle cx="36.25" cy="36" r="35.5" fill="#FCFAF7" stroke="#BDA37E"/><path fill-rule="evenodd" clip-rule="evenodd" d="M47.43 35.906h6.75a3.32 3.32 0 100-6.64H37.254l2.286-.836c2.201-.805 2.835-3.615 1.192-5.286a3.223 3.223 0 00-3.398-.771L25.35 26.719a11.91 11.91 0 00-7.85 11.197c0 6.578 5.332 11.91 11.91 11.91h11.064a3 3 0 003-3v-.64c0-.35-.06-.687-.17-1h.54a3 3 0 003-3v-.64a2.98 2.98 0 00-.455-1.59 2.996 2.996 0 001.212-2.41v-.64c0-.35-.06-.687-.171-1zm8.07-3.32a1.32 1.32 0 00-1.32-1.32H37.254c-2.235 0-2.786-3.11-.687-3.878l2.286-.836a1.223 1.223 0 00-.837-2.299L26.032 28.6a9.91 9.91 0 00-6.532 9.317c0 5.473 4.437 9.91 9.91 9.91h11.064a1 1 0 001-1v-.64a1 1 0 00-1-1h-3.736v-2h7.107a1 1 0 001-1v-.64a1 1 0 00-1-1h-4.827v-2H44.6a1 1 0 001-1v-.64a1 1 0 00-1-1h-5.583v-2h10.485a1.12 1.12 0 01-.003-.08c0-.828.895-1.5 2-1.5s2 .672 2 1.5c0 .027 0 .054-.003.08h.683a1.32 1.32 0 001.32-1.32z" fill="#BDA37E"/><path d="M54.5 41.963c0 1.6-1.32 2.857-3 2.857s-3-1.257-3-2.857c0-1.6 3-5.143 3-5.143s3 3.657 3 5.143z" fill="#BDA37E"/></svg>