<svg width="73" height="72" fill="none" xmlns="http://www.w3.org/2000/svg"><circle cx="36.25" cy="36" r="35.5" fill="#FCFAF7" stroke="#BDA37E"/><path fill-rule="evenodd" clip-rule="evenodd" d="M39.175 16c.968 0 1.866.217 2.667.675.685.39 1.462.93 2.037 1.734l-.012.01.011.014 2.332 3.023.82 1.094a9.414 9.414 0 010 11.34l-4.509 5.818 6.95 8.944a2 2 0 01-.242 2.713l-4.066 3.662a2 2 0 01-2.912-.252l-5.79-7.383-5.845 7.451a2 2 0 01-2.781.36l-4.379-3.317a2 2 0 01-.368-2.826l7.314-9.358-4.504-5.714-.006-.008a9.414 9.414 0 01-.002-11.339l.002-.002.811-1.082 2.337-3.029c.035-.047.072-.094.109-.141C30.259 16.85 32.103 16 33.927 16h5.248zm1.675 2.411c.551.315 1.02.66 1.348 1.088l-.015.011.1.13a4.034 4.034 0 01-.022 4.792c-.934-.57-2.045-.923-3.177-.923h-5.247c-1.123 0-2.267.3-3.241.924a4.206 4.206 0 01-.735-2.366c0-.815.256-1.632.773-2.331l.115-.15.011-.014C31.461 18.59 32.684 18 33.927 18h5.248c.66 0 1.21.145 1.675.411zm-9.025 7.616l4.6 5.942 4.6-5.942c-.598-.325-1.278-.518-1.94-.518h-5.248c-.72 0-1.42.179-2.012.518zm9.423 12.06l-3.553-4.49 6.066-7.836a5.953 5.953 0 001.2-2.638l.474.633a7.415 7.415 0 01.003 8.921l-4.19 5.41zm-9.571 3.231l-7.013 8.974 4.379 3.317 6.145-7.836-3.511-4.455zM29.16 25.852a6.061 6.061 0 01-1.192-2.648l-.479.639-.003.004a7.414 7.414 0 00-.005 8.918l9.766 12.39 6.578 8.386 4.066-3.662-7.42-9.55-4.795-6.06-6.516-8.417z" fill="#BDA37E"/></svg>