<svg width="73" height="72" fill="none" xmlns="http://www.w3.org/2000/svg"><circle cx="36.25" cy="36" r="35.5" fill="#FCFAF7" stroke="#BDA37E"/><path fill-rule="evenodd" clip-rule="evenodd" d="M31.25 16a1 1 0 00-1 1v4a1 1 0 001 1h1v1.273a1.5 1.5 0 00-1 1.415V51a5 5 0 0010 0V24.687a1.5 1.5 0 00-1-1.414V22h1a1 1 0 001-1v-4a1 1 0 00-1-1h-10zm2 9.102a1.5 1.5 0 001-1.415V22h4v1.688a1.5 1.5 0 001 1.414V30h-6v-4.898zm6 11.883L34.265 32H33.25v1.157l6 6v-2.172zM37.094 32l2.156 2.157v-1.172L38.265 32h-1.171zm2.156 9.985l-6-6v2.172l6 6v-2.172zm0 7.172l-6-6v-2.172l6 6v2.172zm-.125 2.703l-5.875-5.875v2.172l5.041 5.041c.387-.359.679-.819.834-1.338zM36.25 54a3 3 0 01-3-3v-.015L36.265 54h-.015zm-4-36v2h8v-2h-8z" fill="#BDA37E"/></svg>