<svg width="73" height="72" fill="none" xmlns="http://www.w3.org/2000/svg"><circle cx="36.25" cy="36" r="35.5" fill="#FCFAF7" stroke="#BDA37E"/><path fill-rule="evenodd" clip-rule="evenodd" d="M19.385 29.831c-.49-.787-.24-1.676.56-2.404.39-.355.843-.592 1.233-.683.4-.093.602-.011.683.054 1.807 1.448 2.976 1.823 3.995 1.912.29.026.509.033.687.038.445.014.638.02 1.047.283l1.08-1.684c-.914-.585-1.734-.603-2.298-.615-.128-.003-.242-.005-.342-.014-.533-.047-1.338-.214-2.918-1.48-.724-.58-1.63-.618-2.387-.442-.766.178-1.518.598-2.125 1.151-1.195 1.088-2.113 3.016-.912 4.943a17.34 17.34 0 001.946 2.541c.09-.171.208-.328.352-.466.363-.35.851-.542 1.403-.587a15.638 15.638 0 01-2.004-2.547zm6.2 7.959c-.095-.43-.403-1.015-.992-1.557-.588-.543-1.215-.82-1.674-.9-.254-.045-.388-.024-.446-.007-.017.055-.036.182.017.42.095.431.403 1.015.992 1.558.589.543 1.215.82 1.674.9.254.044.388.024.446.006.017-.055.036-.181-.017-.42zm.002.455s.001-.004.005-.009l-.005.009zm.042-.045l.009-.005-.009.005zm-3.14-2.908l-.006.008a.04.04 0 01.005-.008zm-.043.044a.04.04 0 01-.009.005l.009-.005zm4.634 4.237c1.102-1.063.634-3.18-1.047-4.728-1.68-1.55-3.936-1.944-5.038-.881-1.102 1.062-.634 3.179 1.047 4.728 1.68 1.549 3.936 1.943 5.038.88zm27.798-9.742c.491-.787.24-1.676-.56-2.404-.39-.355-.843-.592-1.233-.683-.4-.093-.602-.011-.683.054-1.806 1.448-2.976 1.823-3.995 1.912-.29.026-.508.033-.687.038-.445.014-.638.02-1.047.283l-1.08-1.684c.914-.585 1.734-.603 2.298-.615.128-.003.242-.005.342-.014.533-.047 1.339-.214 2.918-1.48.724-.58 1.63-.618 2.387-.442.766.178 1.518.598 2.126 1.151 1.194 1.088 2.113 3.016.911 4.943a17.441 17.441 0 01-1.986 2.584 1.864 1.864 0 00-.374-.51c-.35-.337-.818-.528-1.346-.58a15.667 15.667 0 002.009-2.553zm-6.255 7.959c.095-.43.403-1.015.992-1.557.588-.543 1.215-.82 1.673-.9.255-.045.39-.024.447-.007.017.055.036.182-.017.42-.095.431-.403 1.015-.992 1.558-.589.543-1.215.82-1.674.9-.254.044-.388.024-.446.006-.017-.055-.036-.181.017-.42zm-.002.455s-.001-.004-.005-.009l.005.009zm-.042-.045l-.009-.005.009.005zm3.14-2.908l.006.008a.036.036 0 00-.005-.008zm.043.044a.04.04 0 00.009.005l-.009-.005zm-4.634 4.237c-1.102-1.063-.634-3.18 1.047-4.728 1.68-1.55 3.936-1.944 5.038-.881 1.102 1.062.634 3.179-1.047 4.728-1.68 1.549-3.936 1.943-5.038.88zm-15.341-5.658c.433.953.983 1.73 1.39 2.14.745.749 1.09 1.952 1.293 3.123.213 1.224.308 2.674.386 4.127l.044.86c.06 1.19.12 2.369.228 3.48.096.984.226 1.87.411 2.615.13-.112.27-.232.39-.325.132-.1.292-.214.47-.305.167-.086.426-.192.736-.192.317 0 .577.11.751.205.179.098.335.22.459.325l.122.11c.121-.67.189-1.438.224-2.286.036-.892.036-1.815.036-2.763 0-.472 0-.95.004-1.435.013-1.422.066-2.87.3-4.15.232-1.266.664-2.505 1.543-3.39.597-.6 1.264-1.48 1.768-2.459.51-.987.808-1.986.781-2.841-.025-.8-.33-1.494-1.124-2.029-.85-.573-2.349-1.022-4.864-1.022-2.5 0-3.981.485-4.827 1.096-.802.58-1.132 1.345-1.178 2.22-.047.915.223 1.943.657 2.896zm-.65-6.738c1.323-.956 3.286-1.474 5.998-1.474 2.698 0 4.66.472 5.982 1.364 1.38.93 1.962 2.247 2.005 3.624.042 1.324-.41 2.67-1.003 3.82a12.34 12.34 0 01-2.127 2.954c-.46.462-.79 1.228-.994 2.339-.2 1.098-.254 2.398-.267 3.808-.004.443-.004.9-.004 1.361 0 .973 0 1.968-.038 2.9-.057 1.379-.2 2.751-.594 3.9-.074.217-.23.543-.575.754a1.23 1.23 0 01-1.044.106 1.845 1.845 0 01-.543-.307 4.497 4.497 0 01-.354-.317 18.57 18.57 0 01-.216-.215c-.092-.093-.17-.172-.25-.245a7.43 7.43 0 00-.305.259c-.084.073-.177.155-.292.252-.197.165-.56.468-.973.587-.243.07-.61.107-.981-.09a1.387 1.387 0 01-.64-.758c-.425-1.133-.646-2.534-.785-3.961-.112-1.162-.175-2.4-.236-3.592l-.043-.835c-.077-1.46-.169-2.8-.358-3.891-.2-1.146-.472-1.785-.74-2.055-.607-.61-1.283-1.598-1.794-2.722-.511-1.124-.902-2.482-.833-3.827.072-1.384.637-2.751 2.004-3.739zm5.789 24.22a.025.025 0 01-.002 0h.002z" fill="#BDA37E"/></svg>