<svg width="73" height="72" fill="none" xmlns="http://www.w3.org/2000/svg"><circle cx="36.25" cy="36" r="35.5" fill="#FCFAF7" stroke="#BDA37E"/><path d="M35.736 28.04c1.144-.598 1.514-1.252 1.514-1.706 0-.397-.274-.942-1.136-1.489l1.072-1.689c1.137.722 2.064 1.802 2.064 3.178 0 1.571-1.197 2.75-2.586 3.479C35.227 30.565 33.31 31 31.25 31c-2.061 0-3.977-.436-5.414-1.188-1.39-.728-2.586-1.908-2.586-3.479 0-1.376.927-2.456 2.064-3.178l1.072 1.69c-.862.546-1.136 1.091-1.136 1.488 0 .454.37 1.108 1.514 1.707 1.097.574 2.681.96 4.486.96 1.805 0 3.39-.386 4.486-.96z" fill="#BDA37E"/><path fill-rule="evenodd" clip-rule="evenodd" d="M35.247 36.543c5.225-1.232 9.005-4.815 9.005-9.043 0-5.247-5.82-9.5-13-9.5s-13 4.253-13 9.5c0 2.976 1.872 5.632 4.803 7.374-4.474 2.662-6.512 7.517-4.552 10.912 1.982 3.432 7.298 4.072 11.874 1.43 4.433-2.56 6.546-7.261 4.87-10.673zm4.017-3.94c1.977-1.445 2.988-3.273 2.988-5.103 0-1.83-1.011-3.658-2.988-5.103C37.29 20.954 34.463 20 31.252 20c-3.211 0-6.037.954-8.013 2.397-1.976 1.445-2.987 3.273-2.987 5.103 0 1.83 1.01 3.658 2.987 5.103C25.215 34.046 28.041 35 31.252 35c3.21 0 6.037-.954 8.012-2.397zM24.201 36.52c.372-.214.746-.402 1.121-.563a16.36 16.36 0 003.496.877l-.142 1.246c.645.073.98.32 1.124.57.163.284.201.79-.192 1.513-.384.704-1.112 1.461-2.123 2.045-1.011.584-2.03.836-2.833.816-.822-.02-1.242-.307-1.405-.59-.145-.25-.192-.663.067-1.26l-1.834-.797c-.418.963-.528 2.083.035 3.057.643 1.115 1.881 1.56 3.087 1.59 1.227.03 2.606-.347 3.883-1.084 1.277-.737 2.293-1.743 2.88-2.82.576-1.06.81-2.355.167-3.47a2.837 2.837 0 00-.517-.651l.237.001c.64 0 1.268-.034 1.882-.099a3.4 3.4 0 01.208.318c.606 1.048.667 2.454.003 4.01-.664 1.555-2.019 3.13-3.968 4.255-1.95 1.126-3.991 1.511-5.67 1.31-1.68-.203-2.866-.96-3.471-2.008-.606-1.049-.668-2.455-.003-4.01.664-1.555 2.019-3.13 3.968-4.256z" fill="#BDA37E"/><path d="M48.847 46.37c-.094.351-.458.762-1.29 1.007-.812.24-1.918.26-3.102-.057-1.185-.318-2.132-.888-2.716-1.502-.597-.628-.707-1.165-.613-1.516.083-.31.367-.658 1.007-.91l-.733-1.86c-1.012.398-1.907 1.135-2.206 2.252-.342 1.279.233 2.505 1.096 3.413.877.921 2.166 1.658 3.647 2.055 1.481.396 2.966.403 4.186.043 1.201-.354 2.313-1.128 2.656-2.407.299-1.117-.107-2.203-.784-3.054L48.43 45.08c.428.539.5.983.417 1.292z" fill="#BDA37E"/><path fill-rule="evenodd" clip-rule="evenodd" d="M54.5 48.456c-1.071 3.998-6.261 6.081-11.592 4.653-5.331-1.429-8.784-5.828-7.713-9.826 1.071-3.998 6.261-6.081 11.592-4.653 5.331 1.428 8.784 5.828 7.713 9.826zm-1.932-.518c-.336 1.255-1.353 2.358-3.012 3.023-1.659.666-3.843.829-6.13.216-2.288-.613-4.099-1.846-5.202-3.252-1.104-1.406-1.433-2.87-1.097-4.124.336-1.255 1.353-2.358 3.012-3.023 1.659-.666 3.843-.83 6.13-.216 2.289.613 4.099 1.846 5.202 3.252 1.104 1.406 1.434 2.87 1.097 4.124zm-4.484-11.176c2.395.641 4.726-.294 5.208-2.09.481-1.797-1.07-3.773-3.465-4.415-2.395-.642-4.727.294-5.208 2.09-.481 1.797 1.07 3.773 3.465 4.415zm2.576-1.987c.503-.202.659-.468.7-.621.041-.154.04-.462-.295-.888-.335-.427-.936-.858-1.756-1.077-.82-.22-1.555-.147-2.059.055-.503.202-.658.467-.7.621-.04.154-.039.461.296.887.335.427.936.858 1.755 1.078.82.22 1.556.147 2.06-.055z" fill="#BDA37E"/></svg>