<svg width="73" height="72" fill="none" xmlns="http://www.w3.org/2000/svg"><circle cx="36.25" cy="36" r="35.5" fill="#FCFAF7" stroke="#BDA37E"/><path fill-rule="evenodd" clip-rule="evenodd" d="M34.773 16a1 1 0 100 2h1v3.033a14.937 14.937 0 00-8.876 3.677l-2.144-2.145.707-.707a1 1 0 00-1.415-1.414l-2.828 2.828a1 1 0 001.414 1.414l.707-.707 2.145 2.145A14.938 14.938 0 0021.806 35h-3.033v-1a1 1 0 00-2 0v4a1 1 0 002 0v-1h3.033a14.937 14.937 0 003.677 8.876l-2.145 2.145-.707-.707a1 1 0 00-1.414 1.414l2.828 2.828a1 1 0 101.415-1.414l-.707-.707 2.144-2.145a14.937 14.937 0 008.876 3.677V54h-1a1 1 0 100 2h4a1 1 0 100-2h-1v-3.033a14.938 14.938 0 008.876-3.677l2.145 2.145-.707.707a1 1 0 001.414 1.414l2.829-2.828a1 1 0 10-1.414-1.414l-.708.707-2.144-2.145A14.938 14.938 0 0051.74 37h3.032v1a1 1 0 102 0v-4a1 1 0 00-2 0v1H51.74a14.938 14.938 0 00-3.677-8.876l2.144-2.145.708.707a1 1 0 001.414-1.414L49.5 20.444a1 1 0 00-1.414 1.414l.707.707-2.145 2.145a14.937 14.937 0 00-8.876-3.677V18h1a1 1 0 100-2h-4zm-6.458 10.128a12.944 12.944 0 017.458-3.09V24a1 1 0 102 0v-.962a12.944 12.944 0 017.458 3.09l-.68.68a1 1 0 001.415 1.414l.68-.68A12.943 12.943 0 0149.736 35h-.963a1 1 0 000 2h.962a12.944 12.944 0 01-3.09 7.458l-.68-.68a1 1 0 00-1.413 1.415l.68.68a12.944 12.944 0 01-7.459 3.09V48a1 1 0 10-2 0v.962a12.943 12.943 0 01-7.458-3.09l.68-.68a1 1 0 00-1.414-1.414l-.68.68A12.944 12.944 0 0123.81 37h.962a1 1 0 100-2h-.962a12.944 12.944 0 013.09-7.458l.68.68a1 1 0 001.414-1.414l-.68-.68z" fill="#BDA37E"/></svg>