<svg width="73" height="72" fill="none" xmlns="http://www.w3.org/2000/svg"><circle cx="36.25" cy="36" r="35.5" fill="#FCFAF7" stroke="#BDA37E"/><path fill-rule="evenodd" clip-rule="evenodd" d="M33.218 18.523l1.49-.848.98 1.7a3.025 3.025 0 013.55 1.35l4.522 7.778a2.977 2.977 0 01-1.094 4.085l-.849.486.677 1.309-2.674 1.362-.609-1.177-.667.382a3.023 3.023 0 01-4.111-1.101l-2.922-5.024c-2.563 1.474-4.33 3.12-5.278 5.002-.798 1.584-1.06 3.426-.619 5.637a9.955 9.955 0 014.831-1.242c3.27 0 6.173 1.57 7.998 3.996l12.086-6.812.993 1.737-12.042 6.786a10.052 10.052 0 01.766 6.293h13.2a1 1 0 110 2h-32.17a9.966 9.966 0 01-.832-4 9.976 9.976 0 013.404-7.516c-.762-2.928-.545-5.51.598-7.779 1.185-2.353 3.306-4.246 6.059-5.831l-.596-1.024a2.978 2.978 0 01.253-3.368l-1.061-1.838 1.508-.859-1.241-2.227 2.63-1.444 1.219 2.188zm8.807 10.974l-4.523-7.777a1.008 1.008 0 00-1.37-.367l-4.122 2.363a.992.992 0 00-.364 1.361l4.522 7.777c.278.478.891.642 1.37.367l4.122-2.362a.992.992 0 00.365-1.362zm-3.831 20.725a8.022 8.022 0 00.251-2c0-1.18-.255-2.3-.714-3.308l-4.803 2.707-.993-1.736 4.746-2.675a8 8 0 00-13.985 7.012h15.498z" fill="#BDA37E"/></svg>