<svg width="73" height="72" fill="none" xmlns="http://www.w3.org/2000/svg"><circle cx="36.25" cy="36" r="35.5" fill="#FCFAF7" stroke="#BDA37E"/><path fill-rule="evenodd" clip-rule="evenodd" d="M29.586 20.022a7.41 7.41 0 014.952 2.44l2.17-2.169 1.413 1.414-2.44 2.44c.488.99.762 2.104.762 3.282a9.67 9.67 0 002.175 6.125l2.26-2.261 1.415 1.414-2.261 2.261a9.674 9.674 0 006.125 2.175c.656 0 1.29.085 1.896.244L49.72 34.5l1.732 1-1.537 2.662a7.425 7.425 0 013.67 6.41c0 1.087-.233 2.12-.653 3.05l2.618 1.512-1 1.732-2.679-1.547A7.413 7.413 0 0146.157 52c-.19 0-.381-.002-.571-.007V55h-2v-3.133a24.411 24.411 0 01-8.606-2.55l-1.528 2.647-1.732-1 1.518-2.63a24.693 24.693 0 01-5.312-4.431l-2.633 2.633-1.414-1.415 2.762-2.762a24.509 24.509 0 01-3.801-7.16L19.845 36l-.518-1.932 2.959-.793a24.633 24.633 0 01-.7-5.847c0-.681.092-1.34.263-1.967l-2.763-1.596 1-1.732 2.556 1.476a7.436 7.436 0 014.944-3.473V17h2v3.022zM29.015 22a5.429 5.429 0 00-5.43 5.429C23.586 39.894 33.692 50 46.158 50a5.429 5.429 0 000-10.857c-6.47 0-11.714-5.245-11.714-11.714A5.429 5.429 0 0029.015 22zm-.43 5a1 1 0 100 2 1 1 0 000-2zm-3 1a3 3 0 116 0 3 3 0 01-6 0zm11 14a1 1 0 112 0 1 1 0 01-2 0zm1-3a3 3 0 100 6 3 3 0 000-6zm-5-3a2 2 0 11-3.999 0 2 2 0 014 0zm13 10a2 2 0 10.001-4 2 2 0 000 4z" fill="#BDA37E"/></svg>