<svg width="73" height="72" fill="none" xmlns="http://www.w3.org/2000/svg"><circle cx="36.25" cy="36" r="35.5" fill="#FCFAF7" stroke="#BDA37E"/><path fill-rule="evenodd" clip-rule="evenodd" d="M38.172 17.456c3.608 3.951 13.083 15.167 13.083 23.999C51.255 49.488 44.783 56 36.8 56s-14.455-6.512-14.455-14.545c0-8.832 9.475-20.048 13.083-23.998A52.584 52.584 0 0136.8 16s.524.527 1.372 1.456zM36.8 18.92a80.624 80.624 0 015.607 6.889c1.762 2.439 3.494 5.168 4.778 7.914 1.294 2.767 2.07 5.417 2.07 7.733C49.255 48.395 43.667 54 36.8 54s-12.455-5.605-12.455-12.545c0-2.316.776-4.966 2.07-7.733 1.284-2.746 3.016-5.475 4.779-7.914a80.653 80.653 0 015.607-6.889z" fill="#BDA37E"/><path fill-rule="evenodd" clip-rule="evenodd" d="M43.676 44.301a1.482 1.482 0 00-2.062.266l-.202.26c-2.354 3.025-6.97 3.025-9.324 0l-.202-.26a1.482 1.482 0 00-2.062-.266 1.44 1.44 0 00-.27 2.036l.203.26c3.531 4.537 10.455 4.537 13.986 0l.202-.26a1.44 1.44 0 00-.27-2.036z" fill="#BDA37E"/></svg>