<svg width="59" height="95" fill="none" xmlns="http://www.w3.org/2000/svg"><path fill-rule="evenodd" clip-rule="evenodd" d="M19.92 28.688c.771.562-1.383.699-1.419.29-.024-.283 1.25-.414 1.42-.29zm.383 1.655c.56.608-1.397.542-1.288-.003.065-.328 1.197-.098 1.288.003zm.361 1.173c.374.531-.375.303-.385.473-.018.287 1.051.303.564.851-.357.4-1.553-.725-1.084.328.156.349-.181.31.215.572.362.238.597-.4.651-.41.305-.046.182-.1.558.2 1.189.951-.526.316-.809.632-.335.376.69 2.408.827 3.042.034.157.174.976-.002 1.065-.371.188-.516-.53-.643-1.066-.292-1.228-.627-2.66-1.22-3.875-.084-.17-.971-1.437-.357-1.584.344-.084.105.414.384.592.017.01.516.025.564-.213.03-.153-1.057-.392-.721-.627.36-.25 1.332-.155 1.457.023l.001-.003zm-1.733-4.174c.223.407-1.088.497-.98-.039.055-.27.856-.19.98.039zm-1.537-2.365c.242.02.081.555-.023.582-.322.083-.338-.608.023-.582zm-3.564-6.673c.008.016.674 1.075.113.94-.409-.099-.557-.808-1.018-1.417-.45-.592-1.088-.853-.979-1.103.343-.772 1.62 1.06 1.882 1.579l.003.001zm2.795 8.683c.673 1.028-2.423-.094-2.307-.355.17-.385.716.205 1.105.155.348-.047-.017-.284.394-.231.11.013.75.344.81.43l-.002.001zm1.586 4.636c.56.65-.667.177-1.066.159-.398-.02-.813.236-.954.034-.424-.605.86-.26 1.11-.257.3.004.676-.208.91.064zM12.834 18.44c.557.639-1.298.543-1.192.04.086-.413 1.123-.12 1.192-.04zm.459 1.213c.515.505-1.302.648-1.333.094-.017-.367 1.226-.199 1.333-.094zm-1.395-2.416c.277.04.076.66-.163.635-.219-.023-.264-.697.163-.635zm5.607 17.844c.022.091.327.401.047.556-.33.18-1.408-1.593-.941-1.853.325-.183.794.904.892 1.3l.002-.003zM10.47 20.067c.158.135.493.516.299.788-.464.654-1.093-1.472-.298-.788zm5.327 15.825c.414.584-1.107.63-1.252.31-.28-.622 1.005-.656 1.252-.31zM9.195 19.24c.618.89-1.67-.064-1.565-.307.143-.322 1.45.142 1.565.307zm.274 1.369c.611.912-1.947-.371-1.84-.612.124-.28 1.735.453 1.84.612zm-1.222-2.81c.567.79-1.149.152-.821-.262.196-.25.78.202.82.262zm1.205 4.046c.296.724-.817-.268-1.185-.37-.232-.064-.96-.143-.428-.492.364-.24 1.506.601 1.614.863v-.001zm-2.378-5.238c-.09-.14.093.54-.272.349-.264-.14-.018-.814.272-.349zm5.333 14.35c.438.331-.375.706-.596.552-.325-.222.234-.827.596-.552zm-1.374-3.002c.15.12.267.2.136.358-.45.545-.676-.791-.136-.358zm.647 1.72c.355.162-.12.601-.315.447-.185-.15.037-.573.316-.447zM6.74 19.35c-.042-.021.589 1.543.34 1.752-.513.435-.94-2.03-.34-1.752zm3.612 13.201c.546.73-1.376.243-1.316-.075.087-.449 1.218-.057 1.316.075zm-1.547-2.607c.21.164-.17.595-.341.374-.16-.208.008-.635.341-.374zm.318 1.27c.366.146-.056.628-.217.49-.208-.175-.084-.61.217-.49z" fill="#81736A"/><path fill-rule="evenodd" clip-rule="evenodd" d="M29.195 67.567c-2.404-6.684-5.553-12.872-8.75-19.357-1.011-2.048-2.058-4.237-3.292-5.956-.25-.347-.73-.975-1.077-1.148-.518-.256-1.277-.022-1.821-.13-2.2-.443-4.103-1.907-5.79-3.621-1.678-1.7-2.577-4.332-3.522-6.768-.57-1.467-.677-3.295-.884-4.903-.386-2.985-.236-4.991.412-7.44.605-2.285 1.816-4.724 5.236-4.681 1.174.015 3.763.808 4.743 1.479 1.285.88 2.422 2.528 3.687 4.007 1.31 1.535 2.598 3.206 3.422 4.598.741 1.248 1.27 2.684 1.77 3.832 1.323 3.06 1.612 6.23.863 8.265-.59 1.608-2.192 2.558-2.43 4.438-.317 2.502 1.586 7.31 2.623 9.73.746 1.74 1.8 3.724 2.654 5.543 1.011 2.154 1.606 4.108 2.448 6.275.363.937.597 2.077 1.362 3.824.19.434 1.035 2.27 1.453 3.214.378.852.015-.628-.07-1.038-.701-3.394-1.392-6.58-1.49-9.501-.075-2.245.151-3.928.184-6.124.01-.674-.292-1.758.153-1.941.78-.319 1.837 3.105 2.21 4.155 1.11 3.12 1.997 5.91 2.046 9.048.033 2.255-.108 3.965-.505 5.919-.13.65-.115 1.318-.207 1.797-.131.674-.635 1.499-.521 2.243.187 1.259 1.088 2.726 1.654 3.957 1.637 3.567 3.466 8.071 3.773 11.504.072.808-.054 1.94-.998 2.26-1.987.676-2.328-1.964-2.748-3.871-.271-1.23-.688-1.968-1.075-3.276-.75-2.535-1.374-5.539-2.365-8.189-.304-.814-.628-2.107-1.231-3.055-.25-.386-1.081-.768-1.331-.969-2.052-1.632-3.666-4.514-5.438-6.945-1.15-1.576-1.748-3.048-2.491-5.113-1.018-2.824.982-.792 1.792.06 1.063 1.114 1.633 1.934 2.629 3.341 1.075 1.52 1.972 2.402 2.922 4.541v-.004zm-6.707-40.179c-.664-.146-.344 1.068-.549 1.107-.411.08-.464-.681-.627-1.236-.42-1.434-1.355-3.563-1.756-4.655-.164-.452-.765-2.213-1.26-2.06-.333.102-.118 1.138-.06 1.332.228.769.696 1.522 1.005 2.24.919 2.13 1.381 4.197 2.042 6.264.537 1.68 1.034 4.002 1.311 5.396.016.082.183.97.21.984.168.078.517-.651.498-.597.247-.758-.173-2.945-.597-4.358-.061-.204-.61-1.81-.075-1.69.4.09.898 3.801 1.29 3.848.06.006.088-1.19.084-.849.011-.702-.198-3.563-.8-4.035-.424-.334-1.035.247-1.202-.199-.134-.364.928-.557.977-.615.097-.123-.04-.075-.054-.144-.046-.223-.24-.69-.437-.735v.002zm-.721-.628s.388-.283.412-.4c.092-.444-1.461-3.05-1.832-3.154.561.646.779 3.258 1.42 3.556v-.002zm.207.331c.038.288.762-.084.394-.231.17.066-.425-.008-.394.232zm9.519 33.554c.18.301 1.217.786 1.721 1.148.214.153 1.763 1.333 1.24 1.577-.35.165-2.426-2.59-2.956-2.073-.187.18.076.59.138 1.01.137.9.183 2.71.57 3.22.072.091.622.233.56.198-.065-.036 2.347 1.86 1.568 2.027-.271.056-.459-.532-.702-.798-.218-.236-.681-.534-.914-.718-.501-.39-.362.264-.066.68.15.21.39.148.612.34.22.193.985 1.315 1.2 1.265.108-.024.343-1.151.348-1.85.01-1.264.188-2.32.134-3.487-.035-.781-.34-2.164-.615-3.121-.62-2.173-1.416-4.377-2.051-6.506-.369-1.232-.876-3.32-.949-1.443a58.98 58.98 0 00-.002 4.257c.017.638-.193 1.203-.191 1.627 0 .506.225 1.195.257 1.54.01.105-.123.745.097 1.11v-.003zM4.562 20.828c-.017.34.18.889.205 1.397.013.245-.152.693-.083.85.154.34.619.242.897.887.084.189-.092.695.158.841.223.133.918-.489 1.295-.408.232.052.414.442.55.61-.107-.131.558.693.58.681-.024.012-.312-3.444.004-.41-.114-1.106.09-3.445 1.519-2.376.242.181.745 1.288.737.458-.007-.865 1.01-.92 1.522-.657.132.067.42.56.526.537.321-.067.255-1.485.331-1.68.132-.343.688-.986.813-1.045.238-.112.506-.195.937.136.194.149.208.508.429.493.113-.007.685-1.056.786-1.115 1.256-.738 1.35.922 1.808.951.18.013.418-.984.38-1.126a1.164 1.164 0 01-.195-.09c-.56-.803-1.657-2.37-2.218-2.68-.023.268.292.687.085.869-.425.374-.509-.602-.605-.754-.308-.48-1.449-1.523-1.673-1.66-.4-.243-.65.035-.681-.314-.01-.106.252-.347.297-.275-.108-.165-1.546-.607-1.602-.622-.13-.034-.312.04-.477.016-1.132-.165.384.246.385.592.002.5-.801-.015-1.035-.18-.14-.1-.939-.932-1.141-.47-.042.095.328.366.274.307.464.526 1.483 2.168 1.823 2.912.437.956.033 1.516-.385.472-.234-.581-1.291-2.725-1.93-3.198-.236-.174-1.492-.626-1.555-.066.004-.043.21.15.221.16.184.173.445.72.591.923.241.335 1.252 1.936 1.27 2.302.051 1.078-.825-.307-1.04-.835-.253-.623-.507-1.4-.942-1.854-.545-.573-.828-.288-.942.274-.06.29.101 1.954-.029 2.057-.097.076-.529-.02-.504-.056-.064.087-.267 1.74-.24 2.139.055.857.61 1.515.063 1.449-.237-.028-.464-.698-.529-1.191-.128-.97.285-2.254.208-2.861-.437.717-.828 2.298-.892 3.61h.004zm12.646.454c-.87-.91-1.768-.585-1.567.756.102.668 1.455 3.62 1.319 3.92-.28.618-.912-.13-.938-.136-.018-.005-.04.232-.228.25-.175.017-1.947-.464-1.895-.757.082-.445 2.019.361 2.087.194.081-.2-.293-.946-.378-1.003-.117-.079-.091.204-.087.197-.27.408-1.886-.465-2.084-.193-.037.049.178 1.03.1.698.109.472.635 2.383.904 2.604.239.196 1.368-.083 1.836-.04.201.018.496.185.63.172.17-.016.363-.327.59-.14.124.1.633 2.156-.044 1.162-.286-.417-.636-.56-1.461-.674-.675-.093-1.847-.237-1.144.596.097.114.751.296 1.16.298.215.003.45-.187.66-.169.623.057 1.816 1.152.897.888-.22-.062-2.325-.649-2.475-.373.004-.006.212.556.411.663-.018-.01.272-.16.422-.16.648.007 2.228.306 2.248.623.026.421-.89.031-1.22-.03-.081-.016-1.349-.223-1.412-.12-.206.33.924 1.717.394 1.897-.307.107-.507-.758-.644-1.066-.44-.989-1.686-4.529-2.242-5.946-.372-.948-.566-1.63-1.12-2.114-1.35-1.18-1.023 1.177-.77 2.012.648 2.136 1.287 3.575 1.945 5.157.156.373.285.654.53 1.19.386.84 2.05 3.136 1.66 3.546-.17.178-1.432.073-1.458-.022-.092-.346.459-.46.692-.507.772-.159-.427-.494-.427-.494-.363-.075-1.08.175-.99-.279.095-.476.897.092 1.039-.23.014-.034-.312-.494-.356-.52-.336-.194-1.29.242-1.413-.121-.191-.56 1.11-.257 1.153-.354.033-.073-.214-.398-.313-.618-1.054-2.32-1.424-3.61-2.248-5.533-.394-.921-1.26-3.576-1.957-3.268-.266.119-.394 1.767-.299 2.404.16 1.087.455 2.598.847 3.528.15.35.384.584.494.875.009.026.326 1.095.095 1.111-.3.021-.81-1.146-.947-1.441-.54-1.16-1.682-5.421-2.806-4.667-.614.41.184 2.831.479 3.83.295.999.648 1.829.998 2.648.594 1.383 1.972 4.24 2.514 4.531.186.1.774.12.77.12.217.032 1.743.303 1.777.229.152-.345-1.479-1.045-1.527-1.06-.556-.173-1.48-.096-1.31-.487.21-.476 2.024.45 2.085.192-.023.105-.126-.605-.465-.803-.292-.176-.088.185-.395.23-.392.056-1.756-.538-1.658-.766.205-.463 1.67.511 1.721.084.07-.556-1.648-2.288-.918-2.434.225-.044.396.442.428.493.95 1.535 1.733 3.242 2.515 4.531.232.384 1.053 1.043.46 1.217-.144.043-.667-.61-.622-.583-.222-.146-2.477-.68-2.502-.445-.007.07.408.96.644 1.066-.04-.017.182-.147.422-.16.38-.02 1.221.112 1.872.274.326.08 1.178.443.987.691-.283.365-.893-.252-1.258-.343-.145-.037-1.737-.18-1.749-.156-.1.226.477.633.482.636.212.108.63-.028.812.02.207.055 2.12.898 1.888 1.168-.232.27-2.1-1.088-2.274-.695-.028.063.487.538.427.494.99.74 3.215 1.018 4.502.834 1.072-.153 2.776-.923 3.608-1.528.806-.587 1.338-1.131 1.258-1.785-.468-3.797-2.17-8.855-3.686-12.763-.221-.567-.791-2.333-1.471-3.046h-.004zM32.79 67.926c.085.402.178 1.046.247 1.297.194.726.323 2.67.604 2.882.336.255.622-3.041.631-3.02-.174-.485-1.715-2.23-1.483-1.159zM14.25 21.338c-.219-.012-.558.445-.528.526.074.19 1.278-.05 1.17.538-.098.53-.994-.47-1.527.006-.51.455.316.48.429.493.326.038.598.203.892.236.855.09.345-.756.019-1.234-.091-.133-.26-.554-.456-.565zm-1.01 2.018c-.09.1.023.805.087.866.04.04.184-.15.184-.15.248-.087.562.196.867.164.106-.012.25-.151.353-.134-.018-.003.595.497.752.288.207-.277-.305-.673-.216-.573-.138-.156-1.79-.723-2.027-.46zm21.07 52.015c-.245-.607-.795-2.493-1.152-2.838-.095-.092-1.875-.139-1.46-.677.245-.318 1.117.525 1.27.174.014-.025-.169-.45-.377-1.003-.91-2.409-2.257-5.333-3.155-7.727-.66-1.76-1.14-3.593-1.875-5.183-.466-1.006-1.068-1.878-1.433-2.73-.151-.355-.183-.806-.379-1.005-.086-.088-.397-.027-.503-.055-.547-.137-.387-.153-.965-.208-.829-.08-.294.306.07 1.038.377.759 1.256 2.7 1.523 3.188 1.393 2.525 3.165 6.953 4.107 9.82.262.797.889 2.916 1.257 3.125-.114-.064 1.336-.572 1.22.03-.078.398-1.07.066-1.14.185-.104.178.384 1.291.58 1.744 1.17 2.73 2.02 5.238 2.847 7.761.276.85.377 2.147.734 2.586.094.115.422.143.655.244.214.09 2.09.65 1.72 1.15-.115.156-1.03-.356-1.114-.397-.076-.036-1.035-.597-1.143-.468-.064.079.191.882.158.84-.093-.113.8.192.795.192.291.087.642.1.965.209.263.088.726.53.85.333.065-.102-.319-1.238-.4-1.486-.361-1.101-.794-1.976-1.042-2.552a280.334 280.334 0 01-2.617-6.295l.004.005zM20.57 40.225c-.086.048-.29-.153-.532-.128-.46.05-1.458.675-2.254.853-.262.059-.924-.15-.995.131-.046.18.867 1.006.855.987.194.297.245.621.448.975 1.203 2.093 2.712 4.775 3.92 7.192.24.477 1.194 3.348 1.687 3.618.007.004.474-.248.394-.231.025-.005 2.075.626 1.182-.284-.08-.082-1.091-.369-1.311-.487-1.016-.547.983-.113.997-.131.15-.234-.421-1.07-.502-1.119-.042-.025-.728.018-.98-.04-.215-.049-.906-.182-.877-.406.084-.695 2.127.934 1.463-.389-.91-1.81-1.689-3.998-2.206-5.63-.177-.56-.313-1.75-.587-1.987.058.05-.172.192-.255.18-.095-.017-.336-.284-.541-.37-.421-.177-1.877-.317-1.913-.587-.05-.378 1.517.007 1.89.105.12.03.73.471.825.26.186-.418-1.56-.766-1.49-.745-.314-.092-1.674-.496-1.376-.87.077-.095 1.134.314 1.355.387.213.07 1.21.611 1.424.361.171-.2-.339-2.321-.22-2.29-.29-.074-.4.642-.4.642l-.002.003zm17.68 46.014c-.37-.106-1.652-.636-2.118-.917-.512-.313-.398.492.016.894 0 .003.293-.08.379-.062.309.063 1.496.549 1.797.711.63.342.167-.575.064-.68-.015-.013-.12.061-.14.053l.002.001zm-.782.706c-.351-.153-1.794-.661-1.04.23.134.158 1.087.321 1.38.46.286.135 1.37.895.715-.025-.257-.363-.91-.602-1.057-.665h.002zM37.704 88c-.277-.145-1.57-.677-.871.247.241.32 2.381 1.434 1.76.398-.126-.208-.684-.539-.888-.644V88zm-.67.99c-.006.135 1.691 1.085 1.432.603-.116-.218-1.425-.823-1.433-.603zm.35.93c-.046.42 1.05.634.92.306-.098-.248-.904-.443-.92-.305zM29.68 68.858c.129.192-.216-.383-.445-.323.012-.004-.395 1.545-.413 1.466.1.454 1.116 1.051 1.245 1.166.145.127-.093.058.204.33.697.639 0-1.07-.133-1.423-.163-.426-.288-.964-.458-1.218v.002zm-1.326-1.38c-.938-1.242-1.66-2.65-2.866-4.4-.625-.907-1.84-2.708-2.683-3.486-.595-.55-.429-.184-.19.563.225.707.687 2.149 1.08 2.864.2.366.926 1.673 1.223 1.748.038.01.412-.619.66-.169.206.372-.37.233-.412.4-.006.022.713 1.276 1.107 1.874.668 1.008 1.607 2.314 2.04 2.42-.12-.027.505-.15.448-.088-.05.057.009-.818.01-.822.135-.253.3.24.158-.223-.09-.293-.434-.49-.58-.681h.005zM10.197 36.62c-.604-.925-1.48-2.122-1.892-2.884-.2-.365-.333-1.254-.665-1.55-.235-.21-.26.15-.545.044-.178-.065-.189-.253-.402-.42-1.164-.922.436 2.092.815 2.8.777 1.449 1.659 2.23 2.62 3.102.582.529 1.412 1.41 1.33.969-.082-.452-.852-1.437-1.259-2.06l-.002-.001zM4.853 24.155c-.087 1.337-.202-.212-.127.95.01.147.189.371.216.572.074.503-.11.797.07 1.038.13.175.689.037.779.36.148.528-.834.416-.776.294-.31.643 1.23 1.39 1.3 1.31.012-.016-.096-.471-.093-.457-.143-.789-.516-2.116-.665-2.613 0-.002-.323-1.391-.663-1.548-.097-.046-.035-.043-.043.099l.002-.005zm1.325 5.226c-.225-.175-1.447-1.103-.713.024.149.23 1.983 1.397 1.005.11-.08-.105-.544-.332-.293-.135l.001.001zm-.432.982c-.046.33 1.917 1.873 1.4.943-.17-.307-1.357-1.27-1.4-.943z" fill="#81736A"/><path fill-rule="evenodd" clip-rule="evenodd" d="M48.51 1.848c-.782-.3-1.247.922-1.382 2.05-.141 1.174.015 1.353-.377.26-.214-.595-1.024-2.682-1.829-1.485-.011.014-.26.61-.305.63-.265.108-.393-.79-1.047-.795-.43-.006-.674.333-.854.693-.11.218-.19 1.242-.342 1.275-.009.004-.54-1.26-.746-1.334-.79-.28-1.32.327-1.488.66-.218.428-.117 1.548-.45 1.638-.403.11-1.233-3.3-2.401-2.623-.458.265-.43 2.325-.527 3.021-.142 1.025-.068 1.275-.468.254-.218-.56-.638-2.207-.953-2.545-.147-.157-.623-.377-.8-.322-.637.202-.29 2.753-.64 1.815-.265-.703-1.316-3.116-1.992-1.863-.318.59-.05 1.002-.377.259-.68-1.544-2.007-.865-2.15 1.088-.025.363.178.81.128 1.022-.05.213-.563.49-.682.887-.382 1.278-.367 4.278-.214 5.718.154 1.481.659 3.789 1.006 4.952.206.687-1.048-1.402-1.379-1.368-.552.057-.586 1.006-.554 1.91.088 2.758.465 5.994 3.196 6.455.297.05 2.45-.102.891.326-.092.026-.53.143-.552.155-.395.175-1.403 1.354-1.62 1.392-.28.048-.36-.555-.805-.229-.893.66.653 2.402 1.135 2.555.915.291 1.773-.194 2.47-.33.766-.149 1.358-.057 1.923-.266 1.143-.423.478.308.212 1.119-.07.217-.514.998-.515 1.175-.012.665.709 1.191 1.115 1.263 1.325.226 2.469-1.35 3.031-2.334.492-.864.66.415.746 1.335.235 2.505.084 5.25.014 8.224-.011.58.232 1.427.249 2.139.016.648-.103 1.372-.108 2.028-.037 3.624.147 7.28.196 9.9.01.604.244 3.064-.236 1.002-.468-2.015-1.723-4.183-2.034-6.115-.13-.817-.024-1.573-.138-2.502-.027-.213-.1-1.91-.526-2.062-.832-.295-1.164 2.222-1.244 2.892-.61 5.077 1.192 9.427 2.178 13.61.066.28.428.767.58 1.045.108.196.208.543.408.854.32.496.623.264.778.78.204.695-.078 2.326-.183 3.408-.291 2.995-.226 5.383-.248 8.025-.025 2.8-.055 6.175.723 8.54.175.533.589 1.578.892 1.99.154.207.936 1.03 1.213 1.08.114.02 1.546-.44 1.569-.47.259-.314-.118-1.76-.143-2.408-.169-4.467-.728-9.565-.772-14.459-.015-1.661-.082-3.742.167-4.794.19-.81.676-.89.884-1.248.129-.222.08-.495.22-.727.9-1.485 2.125-2.5 2.858-4.19.48-1.103.897-2.353 1.372-3.528 1.063-2.654 2.368-6.007 1.91-10.249-.266-2.478-1.057-1.136-2.008.171-1.25 1.717-2.138 2.968-3.093 5.193-.813 1.893-1.281 3.47-1.84 5.54-.407 1.505-.356-.721-.379-1.407-.22-6.747.968-14.48.782-21.396-.026-.882.02-3.471.51-2.743.536.795 1.155 2.325.976 3.84-.038.311-.459.848-.155 1.195.695.784 3.495-2.632 3.726-3.405.1-.34.082-.99.069-1.293-.007-.155-.351-.625-.13-.93.111-.157.816.766 1.127.984 1.268.895 2.855.684 4.59.8.818.055 1.172.385 1.546-.01.459-.49.12-1.738-.165-2.043-.183-.195-1.403-.515-1.871-.653-.682-.203.619-.507.758-.607 1.105-.781.849-1.937 1.43-2.975.317-.586 1.769-.862 1.795-1.48.045-.996-2.538-1.287-3.489-1.018-.232.067-1.348.638-.805-.227 1.221-1.952 2.328-4.575 3.113-7.226.293-.992.551-2.728.638-3.477.127-1.069-.033-2.593.017-3.696.017-.353.301-.9.24-1.095-.082-.266-.793-.669-.963-.7-.183-.03-1.079.243-1.101.22-.323-.322.377-1.182-.194-1.487-.541-.29-1.796 1.307-2.096 1.827-.24.417-.219-.71-.963-.697-.735.012-.892 1.835-1.275 1.78-.226-.034-.17-.882-.375-1.497-.27-.814-1.03-2.524-1.4-2.662l.002-.004zm.923 3.098c.126.458.667 2.647.31 2.697-.081.01-.46-1.005-.756-1.15-.23-.112-1.458.001-1.369.112-.13-.156.05-1.93.148-2.765.11-.944.21-1.295.522-1.266.393.039.968 1.72 1.145 2.372zm3.368 1.569c-.378-.43 1.084-2.924 1.404-2.421.504.804-1.153 2.702-1.404 2.421zm-8.563.464c-.031.184-.334 1.006-.417.995-.036-.002-.144-.757-.14-.746-.358-.928-1.166.089-1.263-.16-.163-.417.628-1.986.877-2.817.167-.561.016-.792.487-.622.59.215.613 2.428.456 3.352V6.98zm.775-2.636c-.292-.403.698-.665.84-.418.252.444-.674.647-.84.418zm-5.589 2.564c-.002.354-.12.819-.315.815.182.005-2.309-6.015-.066-.466-.145-.357-.62-.996-.852-1.063-.107-.029-.705.202-.822.05-.036-.05.127-2.212.133-2.488.006-.276.123-.077.187-.083.541-.042 1.74 2.676 1.733 3.235h.002zm1.825-1.841c.23.49.874.053.514.58-.202.298-1.996-.305-1.307.669.31.44 1.25-.208 1.45.077.164.236-.25 1.734-.285 1.926-.268 1.474-.675-.841-.685-.775.096-.606.627.146.576-.617-.046-.713-1.112.28-1.359-.073-.146-.202.415-3.074.963-2.719.222.142-.06.524.13.931h.003zM30.866 3.862c.213.338.823 1.012.12 1.117-.455.068-.74 1.137-.96.966-.091-.074-.093-1.16-.012-1.478.173-.701.694-.792.68-.795.11.025.119.112.17.192l.002-.002zm24.346 1.672c-.522.402-1.002 1.482-1.209 2.246-.108.396-.02.686-.135.824-.2.24-.504-.031-.562.342-.034.21.777.566.392 1.128.032-.048-1.608.135-1.554.196-.066-.075.293-1.555.47-2.01.453-1.15 1.377-1.67 2.037-2.383.16-.175.873-1.253.945-.69-.009-.071-.388.355-.381.35l-.003-.003zm-22.037-.715c-.131.434-.891-.036-.846.508.036.44 1.452.127 1.238.62.013-.033-.661.18-.551.155-1.459.35-.727-1.868-.517-2.247-.003.008 0 .093-.005.092.102-.01.764.592.681.87v.002zm18.258 1.713c-.328-.09-.57.078-.633-.033-.04-.067.37-.948.421-1.086-.116.314.023-.428.207-.45.483-.06.261.715.313.94.132.586.675 1.55.34 2.146-.13-.61.08-1.311-.646-1.514l-.002-.003zm-6.579-.997c-.156-.302 1.335-.713 1.399-.664.583.448-1.143 1.157-1.399.664zm-9.938-.992c.018.031 1.978 3.82.788 3.923.013 0-1.002-1.194-1.022-1.255-.232-.702.084-2.868.153-2.858.122.015.03.103.081.19zm21.15 2.052c.07 1.495-.456 2.94-.598 4.401-.042.432-.007.77-.064 1.2-.205 1.487-1.1 2.593-1.285 3.626-.048.256.167.641.037 1.019-.742 2.148-1.976 3.393-3.079 4.919-.449.617-.785 1.314-1.28 1.873-1.629 1.828-4.867 2.942-8.3 2.326a78.835 78.835 0 01-3.684-.75c-.506-.117-1.74-.61-2.135-.852-.754-.464-3.253-2.539-3.093-3.308.08-.384.874-.463 1.217-.675.2-.121.108-.433.293-.354.417.184-.229.903.404.946.786.05.145-1.608.017-2.034-.585-1.918-1.177-5.891-1.16-7.177.012-.807.157-3.356.55-3.482.31-.1 1.198.818 1.47 1.374.622 1.258.375 2.983.477 4.645.115 1.829.474 4.398.672 6.134.06.515-.02 2.008.32 2.514.72 1.07.496-.658.492-.715-.183-2.322-.59-5.084-.773-7.617-.058-.81-.342-2.126.28-1.833.067.034-.133 1.59.331.573.155-.34 1.118-1.048.71-1.349-.33-.24-.909.67-.926.322-.017-.333 1.684-1.478 1.004-1.795-.377-.175-.962.8-1.145 1.047-.693.926-.433-.431-.228-.844.085-.17 2.008-1.55 1.55-1.856-.43-.289-1.655 1.74-1.979 1.371-.032-.036.05-.559.32-.907.057-.073 1.964-1.076 1.53-1.398-.446-.326-1.44.876-1.485.567-.088-.59.543-.591.773-.883.285-.359-.188-.7.492-.712.816-.013.945 2.702.911 3.374-.087 1.667.049 4.77.007 6.654-.012.59-.223 1.072.027 1.204.397.21.717-.696.663-.52.187-.607-.084-2.833-.126-4.44-.027-1.115-.242-3.178-.054-4.069.063-.305.611-1.338.89-1.339.264.002.837 1.282.735 1.517-.114.266-.595-.02-.568.434.02.329.534.29.608.492.621 1.718-1.536.976-1.463 1.863.062.72.966-.224 1.456-.015.545.232.777-.612.99-1.517.225-.955 1.164-4.224 1.386-2.143.07.67.093 1.991.034 2.772-.075.966.015 1.465.133 2.594.105 1.017.425 4.746.09 5.089.035-.035-.262-.2-.262-.2-.475-.062-2.328.61-1.424 1.127.241.138 1.435-.82 1.751-.46.14.16-.455.572-.392.532-.277.182-2.005.785-2.122.625-.136-.19.32-4.038.357-4.971.012-.339.19-.944.155-1.195-.185-1.213-.502-.299-.908-.048-.362.226-1.572.02-1.216.673.241.447.614-.045.82-.047.273 0 .97-.073.613.402-.242.324-1.7-.226-1.303.576.276.564.816-.245 1.167.249.147.204-.05 2.727-.066 2.955-.087 1.297-.565 2.584-.488 4.04.021.396.654 2.903 1.226 2.558.588-.351-.513-.844-.197-1.395.286-.501 1.494.134 2.098-.167.639-.315.947-3.976 1.01-5.303.159-3.335-.877-6.271-.241-9.068.102-.455.354-2.1.741-1.993.14.038.21 1.234.446 1.87.42 1.148 1.06 2.923 1.147 4.035.233 2.984-.343 4.228-.894 6.516-.118.49-.794 2.81-.047 2.582.162-.048.513-1.294.647-1.905.244-1.103.55-2.089.7-2.92.084-.47.06-1.002.155-1.193-.038.078 2.339-1.886 1.015-1.98-.288-.02-.476 1.073-.776.883-.505-.321.654-1.309.613-1.261.228-.258 1.006-1.108.343-1.278-.426-.104-.403.895-.855.693-.469-.208 1.757-1.765 1.204-2.153-.448-.316-1.098 1.198-1.322.946-.248-.28.193-1.024.138-.917.017-.033 1.33-1.233 1.423-1.126.215.242-.047 2.625-.061 2.862-.087 1.414-.148 2.845-.328 4.418-.148 1.303-.894 3.3-1.138 4.28-.194.782.072 1.366.515.58.488-.861.926-2.583 1.187-3.538.643-2.341.145-6.113.525-8.103.053-.284.412-1.11.743-1.994.15-.403.633-1.934 1.005-1.795.223.085.285 1.378.278 1.587-.036 1.36-.214 2.226-.382 3.767-.137 1.254-.458 3.168-.268 3.312.648.496.38-.719.694-1.073.238-.27 1.352-.425 1.384-.388.148.167-.386 1.428-.45 1.638-.206.663-.54 2.388.112 1.298 1.34-2.237 1.325-5.991 1.833-8.771.095-.522.96-3.072 1.42-2.788.165.102.222.537.232.751v.009zm-9.45.047c.079-.074-.275-.125-.359-.112-.383.064-1.328.581-1.177-.063.093-.392 1.441-.584 1.569-.471.038.034.319.31-.035.644l.003.002zM31.719 8.339c.09.489.603 1.298.455 1.688-.156.412-.645-.059-.478.434.125.365.558-.063.72.131.159.192.14 1.325.255 2.048.143.93.59 2.601.384 2.977-.084.155-2.47 1.22-1.352 1.498.22.055.66-.425.658-.425.574-.406 1.121-.519.893.326-.074.269-2.423 1.482-1.553 1.857.137.059 2.354-2.056 1.854-.733-.156.417-2.594 1.466-1.362 1.683.431.077 1.068-1.312 1.515-1.12-.075-.034.524.793.206 1.212-.006.01-.549-.09-.448-.117-.402.104-.801.858-1.221.766-.07-.016-.67-.7-.832-1.43-.31-1.382-.48-3.395-.711-5.399a35.226 35.226 0 01-.17-3.61c.021-1.16.59-2.656.655-3.756.019-.353-.22-.875.12-.546.376.361.205 1.417.41 2.516h.002zm14.655 1.156c-.022.566.134 1.145-.116.453-.127-.356-1.072-2.1-.677-2.623.03-.04.705.033.911-.044.11-.042.129-.343.283-.17.336.382-.368 1.53-.401 2.381v.003zM32.23 7.259c-.349-.392 1.563-.737 1.59-.84.097.248-1.54.899-1.59.84zm15.701 1.95c-.836.67.11-2.04.72-1.532.731.607-.482 1.344-.72 1.532zm-18.336-.243c.039 1.06.311 3.069.401 4.365.102 1.44-.457-.696-.497-.858-.187-.714-.276-5.803.118-5.63.398.174-.05 1.388-.022 2.123zm3.787-1.183a76.2 76.2 0 01-.722 1.624c.011 0-.432-1.274-.379-1.407.113-.279 1.148-.493 1.202-.396.023.04-.087.156-.101.18v-.001zm14.227 2.33c.278-.434 1.258-.893 1.315-.76.158.38-2.365 2.421-1.315.76zm4.29 1.34c-.351-.397 1.387-1.016 1.674-.744.737.7-1.649.771-1.675.744zm-.151 1.1c-.278-.315 1.577-1.024 1.68-.835.402.732-1.472 1.07-1.68.835zm-.173 1.563c-.552-.626 1.322-1.46 1.598-1.023.53.838-1.52 1.111-1.598 1.023zm-22.884 3.211c.166.24 1.24 1.192 1.29 1.363.085.285-.57.596-.039.736.03.01.552-.354.564-.339.123.154-.04.594-.13.732-.616.939-1.023.228-.961.966.041.462.65-.104.83-.235.506-.368 1.082-.393.891.327-.043.166-1.944.91-1.07 1.327.637.304.57-1.002 1.403-.757.125.037.383.37.337.48-.059.146-.866.032-.633-.033.101-.027-.517.37-.672.704-.05.106.014.355-.02.369-.234.078-.78-.213-.805-.23-.552-.363-1.08-1.722-1.123-2.83-.027-.718.168-1.507.023-2.126-.056-.236-.512-.712-.055-.648.112.014.121.12.17.194zm12.872 3.924c-.053.006-.49.364-.556.249-.187-.326 2.42-1.139 2.504-.976.488.918-1.703.688-1.948.727zm14.59.687c.013-.087-.782.436-.653.335-1.218.967-.709 3.123-2.197 3.67-1.013.371.267-1.441-.438-1.965-.133-.098-.081.404-.382.349.03.006-.076-.28-.076-.283-.438-.496-.547.664-.7 1.166-.255.85-.911 1.774-.748.422.085-.706.983-1.3.456-1.731-.246-.201-.22.314-.382.348-.242.052-.359-.313-.534-.214-.239.136-.342.524-.497.805.004-.008-.416.904-.412.902.308-.152-.532.227-.719-.131-.1-.191.487-.523.577-.615.646-.66 1.194-1.726 1.748-2.126.108-.077.468.029.638-.057.425-.215.591-.856 1.061-1.146.514-.316 1.428-.425 2.02-.354.337.04 1.315.044 1.238.619v.006zm-13.023.597c-.16.11-.856-.087-1.178-.063-.654.052-.997.43-1.1.22-.309-.628 2.347-1.138 2.499-.883-.076-.125.058.538-.221.726zm-10.32 1.018c-.088.056-2.063-.48-2.063-.48.018.053 1.415-.738 1.307-.668.108-.07-.022-.03.091.005.343.102.815 1.05.665 1.143zm9.455-.14c-.264.055-1.252.424-1.293.393-.118-.084-.095-.43.03-.55-.076.073.276.124.357.109.459-.08.815-.477 1.374-.203.635.31.043.15-.468.251zm8.15 2.192c-.805 1.643.084-1.328.31-.722.053.139-.122.341-.31.722zM34.63 26.888c-.293.224-3.47.933-3.586.825-.115-.108.627-1.312-.118-1.21-.474.066.052.98-.337 1.186-.194.1-1.327-.516-1.218-.992.035-.15.459-.174.556-.246.38-.28.628-.893 1.061-1.147 1.046-.609 2.257-.235 3.201-.381.31-.048.283-.322.648-.244 1.142.247.448 1.704-.21 2.209h.003zm17.57-.723c-.26.135-.228-.412-.069-.373-.03.173.09.208.07.373zm-2.137.902c.2.044.464-.093.731-.053.306.044.734.34 1.157.431 1.121.244 2.354.212 2.687.697-.122-.175.2.589.145.655-.122.15-2.998-.063-3.085-.072-1.144-.156-2.477-1.109-3.087-1.735.129.132-.638-.706-.414-.763.534-.136 1.243.7 1.862.84h.004zm-13.306-.897c-.277.653 1.022.305.973.512-.085.36-1.888.649-2.022.445-.17-.255.41-1.548.904-1.615.169-.023.86.43 1.142.71-.433-.158-.82-.47-.997-.054v.002zm10.378 1.294c.023-.064-.46.157-.465.159-.46.4-1.374 1.399-1.97 1.188-.366-.13-.182-.56-.49-1.044-.197-.31-.971-.529-.676-.96-.012.019 1.317-.292 1.736-.184.199.05.273.324.438.3.259-.036.42-.843 1.11-.4.173.108.428.616.315.94h.002zm-5.32-.747c.178.275-.5.677-.291.356-.234.363-.564 1.14-.623 1.444-.122.65.598 3.312.45 3.442-.104.094-1.172-.613-.622-.219-.845-.606-1.215-2.565-1.593-4.151-.091-.372-.488-.976-.3-1.217.168-.218.396.043.543.03.075-.008 2.357.192 2.436.313v.002zm.681.868c-.125 3.86-.267 7.769-.483 10.696-.037.495.228.952-.162 1.378.115-.126-.244-.294-.259-.292.14-.008-1.455.937-1.603 1.117-.394.466-.49-.538-.32-.851.1-.18.134.162.45.117.384-.053 2.15-1.794 1.471-2.047-.291-.108-.374.477-.768.79-.27.215-.251-.032-.552.157-.62.384-.717 1.296-.731.054-.004-.489-.016-2.357.138-2.58.036-.05.945.027.63.127.16-.05 1.62-1.635.731-1.81-.037-.008-1.25 1.482-1.349 1.407-.213-.173-.042-.591-.04-.926.006-.736-.195-3.243.092-3.412-.204.12 1.323 1.183 1.3 1.178 1.624.434.928-1.434.756-2.27-.145-.708-.36-1.214-.268-1.77.06-.367.633-1.44.886-1.247.161.126.082.089.081.19v-.006zm-5.308.733c-.431.206-1.912-.135-1.901-.102-.15-.459 2.127-.905 2.31-.707.1.11-.026.629-.41.81zm10.146.543c.058-.077-.268-.148-.357-.112-.062.025-1.902 1.559-2.073 1.368-.554-.632 2.395-1.99 2.381-2 .07.041.267.442.052.742l-.003.002zm-12.38.448c-.29-.556 2.014-.57 2.03-.54.212.459-1.889.804-2.03.54zm12.019 1.197c-.071.05-.36-.064-.544-.029-.397.076-1.729.802-1.197.306.456-.43 2.063-1.546 2.162-1.364.04.073-.13.88-.421 1.087zm-1.734 1.85c-.716-.506.951-1.434 1.145-1.05.08.165-1.05 1.115-1.145 1.05zm-3.322 7.768c-.612 5.492-.81 12.882-.609 18.173.078 2.034.803 4.319.347 5.376-.194.456-.69.17-.672.705.013.391.458.165.608.492.213.465-.103 2.239-.081 3.231.026 1.172.485 3.157.07 3.794.04-.063-1.42.272-.543-.03-.225.08-.712.673-.959.964-.136.162-.929 1.024-.15 1.102.537.053 1.286-2.172 1.724-1.663.522.606-.403.987-.608 1.17-.344.306-.957 1.292-1.266 1.595-.464.457-.415-1.527-.436-2.057-.01-.327.065-.761.065-1.198.01-2.612-.27-6.924.12-9.048.063-.342.297-.42.306-.631.012-.222-.212-.48-.232-.751-.05-.718.127-1.739.148-2.765.027-1.303.148-2.757.217-4.053.154-2.762-.376-5.941-.352-8.706.005-.605-.043-1.605.099-1.844.11-.184.11.166.448.117.379-.053 1.532-1.294 1.352-1.498-.433-.487-1.608 1.277-1.866.918.021.029-.03-.533.034-.644-.033.054 2.553-1.371 1.547-1.766-.107-.042-1.379 1.125-1.508 1.03.076.057-.166-.817-.036-1.02.053-.083.302.187.539.122.575-.161 1.432-1.694 1.704-1.295.017.024-.008.152-.01.185v-.005zm6.933 2.866c.466 3.907-.465 7.032-1.817 10.16-1.11 2.571-2.069 4.936-3.44 6.563-.016.016-.953 1.065-.965 1.056-.137-.135-.047-3.376.027-3.88.521-3.636 2.212-8.4 3.868-11.158.48-.802 1.913-3.22 2.246-2.931.012.011.08.175.081.19zm-12.927 3.93c.053.434.514.683.584.953.116.445.023.913-.251 1.282-.735.991-.564-.21-.581-1.048-.01-.534-.203-3.32.257-3.128.629.26-.036 1.74-.01 1.94h.001zm-.142 4.333c-.473-.533.98-2.017 1.098-1.88.36.411-1.024 1.966-1.098 1.88zm.445 1.872s-.282-.67-.219-1.029c.025-.139.884-1.561 1-1.702.07-.087.268.107.266.107.85.531-.877 2.694-1.047 2.624zm.232.75c.114-.788 1.31-1.562 1.267-1.594.59.422-1.6 3.942-1.267 1.595zm1.96.752c-.044.22-.36.719-.508.99-.11.197-.455.973-.598.985-.311.026-.54-.573-.495-.951.027-.219 1.465-2.343 1.487-2.322.273.224.096 1.379.113 1.3v-.002zm-.907 3.37c-.32-.195.645-2.097 1.05-2.624.054-.073.118-.12.18.01.142.3-1.037 2.732-1.23 2.613zm1.483-.57c.057.313.227.52.238.662.028.39-.037 2.714-.244 2.852-.26.172-.506-.73-.425-.578-.153-.288-.825-1.214-.832-1.43-.01-.223 1.074-2.137 1.199-2.061.353.22.048.488.061.558l.003-.002zm2.43 17.411c-.25.305-.661 1.274-.9 1.522-.166.175-.9.533-.935.503.093.08-.168-.713-.037-1.019.039-.087.326.017.458-.066.41-.268 1.403-2.422 1.744-2.034.346.396-.17.891-.33 1.092v.002zm-.286 1.927c-.197.224-.837 1.263-.99 1.517-.764 1.259-.546-.153-.429-.488-.012.036.446-.315.473-.344.246-.265 1.519-2.195 1.653-2.038.51.593-.41 1.008-.707 1.348v.005zm.083 1.85c-.425.52-.651.786-.884 1.249-.344.675-.714.046-.52-.49-.04.11.598-.296.56-.247.329-.405 1.226-2.804 1.57-2.224.398.665-.535 1.48-.726 1.715v-.003zm.837 1.34c-.155.558-1.169 1.137-1.246 1.228-.08.095-.048.256-.11.363-.321.56-.616-.117-.513-.582.031-.143.185-.01.377-.257.257-.331 1.148-2.37 1.388-2.143.209.195.114 1.362.106 1.39l-.002.002zm-.394 2.29c-.362.49-.515 1.061-.778.976.062.019-.312-.567-.23-.844-.035.124.453-.237.469-.253.51-.569.856-1.475 1.064-1.237.45.51-.36 1.13-.527 1.356l.002.003zm.726 1.702c-.159.231-.918.104-.997-.053-.231-.475.922-1.072.788-1.16.16.107.347 1.013.21 1.213z" fill="#81736A"/></svg>