<svg width="361" height="447" fill="none" xmlns="http://www.w3.org/2000/svg"><mask id="a" style="mask-type:alpha" maskUnits="userSpaceOnUse" x="0" y="0" width="361" height="447"><path transform="matrix(-1 0 0 1 360.844 0)" fill="#D9D9D9" d="M0 0h360v447H0z"/></mask><g mask="url(#a)" fill-rule="evenodd" clip-rule="evenodd" fill="#81736A"><path d="M193.284 134.234c1.828.86-.96 1.525-2.278 1.691-6.568.833-12.185 2.465-18.915 3.428-.375.054-2.289.768-2.246-.223.032-.765 3.066-1.144 3.126-1.15 1.179-.221 2.944-.221 3.304-.314a230.77 230.77 0 0110.908-2.482c2.068-.423 4.217-.353 5.71-.714.023-.002.395-.234.389-.232l.002-.004zm-34.045-21.875c1.066-.122-1.105 2.457-1.541 2.406-1.132-.136 1.176-2.364 1.541-2.406zm26.275 27.384c2.601 1.088-4.337 2.284-4.674 1.706-.526-.905 3.874-2.043 4.674-1.706zm-19.493-11.974c1.348.52-1.868 2.917-2.534 1.862-.531-.846 2.08-2.034 2.534-1.862zm-5.188-.052c1.865.462-1.588 2.368-1.958 2.207-1.375-.598.965-2.455 1.958-2.207zm10.087 12.517c.917-.094.573 1.075.076.986-.636-.112-.667-.929-.076-.986zm-2.555.343c.56.16 2.134.794 1.745 1.447-.464.777-4.321-2.182-1.745-1.447zm25.056 22.456c.679.374 2.899 1.337 1.403 2.033-.505.232-1.454-.959-1.746-1.113-3.96-2.12-11.746-3.593-16.754-4.535.108.021-2.037.186-2.055-.629-.031-1.324 3.029-.326 4.486-.099 3.202.488 5.975 1.287 9.685 2.534 1.725.579 3.329.899 4.985 1.811l-.004-.002zm-4.513 4.075c.405.276 1.021.211.218 1.181-.915 1.107-5.618-.647-7.666-.97-.423-.069-7.643-.231-7.191-1.712.23-.75 2.41-.062 3.372.063 2.925.377 8.318 1.668 10.681 1.588.192-.005.351-.307.586-.15zm-47.351-26.015c2.561 1.669-5.7 4.982-2.899.761.497-.744 1.882-1.428 2.899-.761zm-.998 4.45c1.893.363-1.104 4.061-1.916 1.969-.412-1.063 1.615-2.026 1.916-1.969zm2.55 1.894c1.499-.458-1.152 2.566-1.058 1.134.059-.962.805-1.056 1.058-1.134zm3.687 5.049c2.158-.898-1.132 3.132-.669.728.085-.425.54-.674.669-.728zm46.437 32.267c2.134 2.241-2.123-.045-3.78-.577-3.556-1.142-8.191-2.276-12.126-4.333-2.387-1.247-4.523-2.083-6.188-3.682-.842-.806.098-.616-.218-1.184.103.187-.893-.46-1.041-.665-.449-.628-2.229-4.159-1.457-4.589.62-.345 2.2 2.93 2.519 3.696.007.017-.017.821.393 1.295 1.126 1.317 3.509 2.232 5.03 3.208 1.505.966 3.598 1.799 5.389 2.648 4.209 2.004 8.9 1.463 11.488 4.188l-.009-.005z"/><path d="M176.288 174.318c.921.283-.489 1.201-.766.598-.149-.324.059-.812.766-.598zm-34.425-19.829c2.318-.751-1.78 3.132-.649.499.078-.176.544-.46.649-.499zm3.232 1.699c.173-.006.738.587.1.97-.555.334-1.168-.915-.1-.97zm1.984 3.656c2.297.816-.73 4.011-1.965 3.419-1.987-.956-.015-4.124 1.965-3.419zm-4.985-1.685s.624.416.333.78c-.701.882-1.468-.715-.333-.78zm35.142 23.151c.357.257 1.096.042.916.837-.271 1.23-4.005-.763-5.855-1.472-3.589-1.378-6.475-2.161-9.878-4.29-1.14-.71-3.362-2.308-3.793-3.176.3.602-.628-1.058.051-1.224.61-.146 3.241 2.56 3.393 2.668 3.338 2.363 5.839 3.118 9.131 4.313 2.119.776 4.48 1.218 6.033 2.337l.002.007z"/><path d="M140.69 158.609c1.992.77-.644 1.495-1.061.166-.268-.84.546-.364 1.061-.166zm2.36 3.81c2.946 1.564-2.687 3.834-3.731 2.256-.259-.392.236-1.943.76-2.382.617-.509 2.196-.286 2.968.129l.003-.003zm-2.025 1.576c.109.368 2.025-.205 1.324-.482-.348-.134-1.54-.265-1.324.482zm-8.9-4.689c1.311.106-.568 1.626-.6.332-.009-.39.323-.354.6-.332zm-5.395 1.336c2.31.761-2.209 2.396-1.652.705.254-.768.568-1.061 1.652-.705zm23.305 15.595c.832.042.436.995-.04.99-.426-.001-.816-1.032.04-.99zm2.983 1.987c.758.001.461 1.013.036 1.022-.48.012-.884-1.022-.036-1.022zm-13.967-6.051c.848-.008 1.366 5.523 1.663 6.733.987 4.031 2.431 8.7 3.321 12.726.968 4.382 2.171 7.554 1.795 12.491.008-.047.474 1.998-.556 1.618-.597-.219-.294-2.217-.293-2.159-.461-9.15-3.687-17.952-5.91-26.958-.116-.465-1.468-4.441-.02-4.451zm40.055 28.427c3.647 1.075-4.055 2.804-4.273 1.781-.249-1.174 4.221-1.604 3.845-1.522.261-.056.104-.354.428-.259zm-16.952-6.352c.4-.007 1.226 1.365 1.941 1.949 1.503 1.237 4.158 2.851 5.118 3.502.24.164 3.443 1.55 2.811 2.51-.377.571-6.811-3.609-8.41-4.884-.785-.629-3.303-3.057-1.467-3.076l.007-.001zm-23.179-7.034c1.114-.264.51 4.136.579 4.973.286 3.682.732 8.366 1.388 12.516-.079-.486.714.807-.048 1.182-1.49.731-1.75-8.286-1.821-8.914-.316-3.016-1.35-6.903-.595-9.343.11-.361.319-.369.494-.41l.003-.004zm-11.056-1.975c1.183-.12 2.405 3.029 1.162 2.903-.364-.034-2.429-2.781-1.162-2.903zm-1.1 3.952c1.134-.199 1.492 2.456.46 2.343-1.239-.137-.946-2.257-.46-2.343zm20.174 17.02c.955-.242.698 3.648.335 5.694-.281 1.568-1.086 5.288-1.838 5.059-1.06-.32.175-2.189.595-3.854.575-2.283.111-5.125.399-6.472.076-.366.356-.385.509-.427zm-35.824-14.963c.683-.029.699 3.607-.704 3.049-1.193-.474-.394-2.998.704-3.049zm12.793 16.899c1.014-.167 1.102 6.23.521 6.175-.611-.054-1.988-5.928-.521-6.175zm5.912 55.256c2.234 1.285-.836 1.112-1.674 1.429-.593.229-3.703 2.761-4.413 2.181-1.794-1.477 6-3.438 1.577-3.242-.727.033-.927.547-2.677 1.04-.99.279-2.453.093-3.687.643-1.33.598-3.486 1.808-5.111 2.481-1.883.783-.502-1.143.667-1.821.992-.575 1.336-.204 1.75-.383 1.419-.618 2.596-1.647 4.123-2.114 1.452-.439 5.499-1.948 6.964-1.049.175.111.371.779.485.811.765.202 1.034-.531 1.996.024zm-1.736 5.904c.989.054.172 1.23.801 1.709.572.438 1.418-.221 1.668.347.472 1.068-1.304 1.858-1.693 1.795-1.256-.191-2.524-3.946-.776-3.851zm-3.268 1.821c.986-.136 1.991 3.909.715 3.818-1.179-.087-1.452-3.712-.715-3.818z"/><path d="M118.639 267.667c2.534.43-2.391 3.074-2.25 3.135-1.324-.552 1.189-3.316 2.25-3.135zm4.416 5.512c.395-.086 2.322 2.812 2.137 3.5-.223.839-2.465 2.141-2.866 1.916-1.183-.66.413-1.043.63-2.273.298-1.654-1.254-2.868.099-3.143zm3.555 6.488c2.276.254-1.453 3.139-2.059 1.991-.522-.984 1.756-2.025 2.059-1.991zm3.432 4.696c1.399-.359-.697 2.463-1.029 1.35-.173-.595.695-1.266 1.029-1.35zm1.757 2.85c1.176-.105 3.297 2.849 2.421 3.424-.766.504-3.295-3.346-2.421-3.424zm-30.042-15.883c1.821-.303 1.652 2.753-.009 1.971-.991-.467-.36-1.91.009-1.971zm19.617 19.242c.098.008.472-.033.648.217 1.469 2.081-3.679-.556-.648-.217zm-2.27.694c1.017.052 1.091 2.35.173 2.306-.82-.043-1.473-2.371-.173-2.306zm-18.224-7.95c1.299-.562-.166 2.553-.775 1.514-.145-.241.084-1.216.775-1.514zm8.854 10.17c1.506.703-7.842 7.537-9.913 10.45-.174.241-3.13 4.993-4.106 4.325-1.285-.87 1.194-2.47 1.66-3.012 2.416-2.794 5.351-6.124 8.033-8.776 1.053-1.037 3.336-3.456 4.329-2.991l-.003.004zm-7.784 13.249c1.555.492-2.47 3.927-3.041 2.688-.368-.801 2.555-2.839 3.041-2.688zm-11.691 2.741c.427.089.807.148.932.594.538 1.91-3.283-1.091-.932-.594zm26.64 21.822c.341-.093.658.031.602.384-.19 1.219-1.825-.047-.602-.384zm-2.976-1.173c1.237-.055-.429 5.478-1.405 4.958-.803-.426.765-4.927 1.405-4.958zm-28.03-18.045c.662-.087 2.315 4.562 1.293 5.143-1.514.877-2.19-5.024-1.293-5.143zm-24.887-5.79c1.245-.361-.793 2.849-1.568 4.385-3.74 7.441-5.775 14.376-9.334 21.933-1.546 3.284-2.18 6.709-3.132 8.766-1.57 3.383-3.965 6.887-5.26 9.371-2.058 3.964-4.154 7.88-6.746 12.081-.7 1.138-2.214 4.38-3.136 4.117-.865-.242 1.092-2.853 1.142-2.941 3.04-5.316 6.311-10.804 9.353-16.542 1.171-2.208 2.568-4.433 3.474-6.582 1.008-2.398 1.445-5.081 2.64-7.617 4.17-8.819 5.83-18.056 12.16-26.734.198-.273.179-.171.396-.239l.01.002zm9.19 7.002c.981.167-.23 1.441-.709.566-.209-.391.397-.618.709-.566zm27.721 19.996c1.06-.245.01 1.02-.305 1.903-.358 1.009-.35 2.425-.876 3.872-.646 1.778-2.457 5.74-3.069 5.502-.696-.275 1.356-4.339 1.62-5.026.885-2.334.97-3.735 1.516-4.863.254-.53.848-1.323 1.114-1.388zm-28.931-12.871c1.577-.517-.684 2.396-.988 1.288-.152-.564.645-1.174.988-1.288zm19.923 14.698c.484-.184 1.123 2.315.197 3.102-1.262 1.073-1.165-2.727-.197-3.102zm4.113 2.201c1.38.097.387 1.106-.083 2.32-.64 1.633-1.436 5.712-1.938 5.647-1.204-.157.6-8.07 2.021-7.967zm-42.71-17.988c.765.206-.347 1.34-.772.582-.26-.464.261-.727.772-.582zm25.691 23.817c.737.017 2.707 4.463 1.464 4.4-.795-.038-2.843-4.436-1.464-4.4zm-46.96 13.079c.844.09.388 1.037-.055 1.007-.448-.029-.755-1.092.055-1.007zm-2.949 2.965c.175-.009.738.587.1.97-.55.333-1.167-.918-.1-.97zm14.102 15.155c1.16.069-.496 1.419-.712.426-.099-.452.45-.44.712-.426zm-17.221-11.069c1.638.152 2.152 2.969 1.144 2.872-.58-.054-2.459-2.995-1.144-2.872zm5.091 5.961c1.261-.245-2.454 5.41-3.077 5.059-.64-.367 2.702-4.987 3.077-5.059zm-8.346-3.034c1.91-.467 2.557 6.374 1.62 6.601-.977.237-1.862-6.539-1.62-6.601zm17.29 11.101c.492-.077 1.332.601.996 1.498-.84 2.24-2.73-1.249-.996-1.498zm-20.256-9.072c1.34-.353.786 2.18 1.127 3.823.143.689 1.67 5.871-.37 4.673.215.125-1.691-8.246-.757-8.496zm-3.719-1.993c.834.041.433.994-.038.989-.43.002-.817-1.035.038-.989zm.747 3.912c1.145-.675.67 5.858.916 6.679.059.192.69.5.721.71.105.689-.11 3.421-.386 3.559-1.465.727-1.326-4.23-1.342-4.911-.068-2.402-.505-3.529-.26-5.496.004-.068.285-.506.347-.543l.004.002zm-2.897 3.905c.65-.143 2.401 8.656 1.255 8.905-1.055.232-1.043-2.749-1.157-3.986-.122-1.274-.771-4.774-.096-4.923l-.002.004zm-2.131 3.13c.868-.502.57 1.939.843 3.788.196 1.304.792 2.769.793 3.499-.002.822-.36 2.683-1.197 2.236-.587-.31-.082-1.202-.088-2.052-.023-2.471-1.196-4.788-.696-6.932.016-.077.271-.492.342-.534l.003-.005zm-2.899 3.031c1.152-.224.577 1.983.864 3.519.166.895 1.802 4.896.27 5.192-.792.151-.872-2.469-1.164-4.163-.206-1.181-.924-4.351.032-4.541l-.002-.007zm-1.862 2.991c1.317-.306 1.244 7.657-.42 6.736-.357-.199-.154-6.114-.094-6.315.113-.372.333-.378.517-.425l-.003.004zm-3.031 4.938c.81-.092.976 3.601-.443 3.182-.948-.275-.311-3.097.443-3.182zm4.301 7.142c.205.045 1.701 1.173.674 1.386-.755.155-2.235-1.741-.674-1.386zm7.477 5.98c.322-.249.876.124.768.49-.258.91-1.622.162-.768-.49zm-4.62 3.039c1.148.074-.13 1.337-.593.622-.265-.411.202-.646.593-.622zm-4.419 4.948c-1.135.927-1.768-1.292-1.053-1.893.666-.562 2.174.971 1.053 1.893zM126.399 85.636c.816.481 2.211 3.124-.494 1.89-1.127-.513-3.417-1.748-2.68-2.541.694-.743 2.641.33 3.177.646l-.003.005zm30.067 23.557c2.359.59-1.145 1.641-2.043 2.296-1.061.776-1.494 2.355-2.333 1.87-1.324-.765 3.286-4.435 4.371-4.169l.005.003zm1.426 1.194c1.531-.652-.433 2.646-.842 1.314-.15-.48.394-1.124.842-1.314zm-1.996 2.297c1.824 1.509-2.405.698-1.19-.409.055-.051.741.037 1.19.409zm-1.932 1.962c.706.517 1.021-.043 1.007.642-.037 1.805-4.028-.058-4.004-.749.036-1.159 2.429-.315 2.997.107zm-20.183-11.16c2.198-.894-1.125 3.106-.676.73.058-.309.562-.687.676-.73zm-.015 3.668c.916-.341.393 1.832-.243 1.886-1.006.093.145-1.853.243-1.886zm-16.861-6.986c1.24-.092 1.297 3.855.859 3.888-.939.069-1.867-3.813-.859-3.888zm16.678 11.583c2.106 1.655-3.662.904-3.652-.219.007-.96 3.119-.203 3.652.219zm-11.69-7.606c.937-.331-.076 4.086-.53 4.243-.549.197-.457-3.891.53-4.243zm-19.054-11.043c1.406-.207 2.22 8.232 1.813 8.163-.385-.066-2.695-8.033-1.813-8.163zm-7.165-3.668c1.833-.826 1.728 3.286-.166 1.7-.334-.277-.401-1.444.166-1.7zm37.221 24.529c3.885 2.143-4.689 1.3-4.591.507.112-.918 3.791-.944 4.591-.507zm-15.825-6.768c.683-.144-.157 3.854-.208 6.25-.045 2.055.653 5.33-.663 4.985-.944-.252-.333-4.38-.347-5.382-.021-1.334-.361-5.528 1.218-5.853zM73.004 84.264c1.036-.208 2.414 3.54 3.117 4.863.543 1.025 2.373 3.94 1.52 3.845-.622-.065-5.057-7.68-5.139-8.316-.044-.331.437-.383.504-.396l-.002.004zm-7.766.987c-.384-.092 1.93 1.141.696 1.405-.811.18-2.14-1.76-.696-1.405zm1.699 2.983c.916-.286.107 1.844-.48 1.833-.658-.013-.276-1.595.48-1.833zm36.85 25.939c.718-.459 1.19 2.2.678 2.519-.345.219-1.443-2.032-.678-2.519zM67.809 92.212c1.156-.216 1.448 2.187.592 2.351-.949.178-1.214-2.234-.592-2.35zm67.022 43.653c3.588.573-2.057 5.275-2.707 2.281-.242-1.114 2.183-2.364 2.707-2.281zm2.186 2.551c1.691-.002 2.293 2.448 1.213 2.597-1.105.153-2.884-2.591-1.213-2.597zM70.943 96.367c1.397-.597-.491 2.725-.853 1.331-.16-.621.418-1.146.853-1.331zm3.122 3.143c3.72 1.527-3.868 1.894-3.732.949.155-1.121 3.443-1.069 3.732-.95zm3.347 3.413c.732.262 1.813.371 1.205 1.457-.282.508-5.328-.446-5.329-.865-.001-.905 3.877-.421 3.723-.385.248-.057.08-.32.4-.207zm31.381 23.427c1.152-.634.325 1.547-.246 1.695-.67.17-.573-1.245.246-1.695zm13.258 8.086c.9.552 2.162 1.129 3.045 1.942 1.105 1.015 1.647 2.613 2.865 3.721 2.863 2.619 12.573 7.308 6.292 10.651-1.746.926-4.357.071-6.82-1.267-3.261-1.763-9.387-5.863-10.693-8.242-.49-.889-.464-2.33-.907-3.421-.839-2.082-2.049-3.612.447-5.168 1.428-.891 3.533.407 5.771 1.784zm-5.572-.233c-1.07.792.257 2.824.614 2.763-.249.041.161-.651.261-.781.78-1.01 1.869-1.23.738-1.901-.34-.2-1.702-.021-1.613-.081zm4.119 5.475c-1.387.357-.149-.445-1.074-.923-.748-.389-1.376.669-1.399-.416-.011-.461 1.816-2.549 1.788-2.418.267-1.104-1.757 1.673-1.802 1.7 2.341-1.107-1.535.501-.955-.371-2.04 3.072 8.033 9.395 10.689 10.85 1.89 1.033 6.728 2.334 6.849.1.042-.788-1.245-.273-1.631-.802-.22-.301.713-.687.416-1.397-.174-.416-1.787-.951-2.648-1.45-.869-.504-1.974-1.12-2.876-1.834-.717-.568.492-.994-.904-.815-.954.124-1.341 4.078-2.606 3.321-1.798-1.08 2.163-3.237 2.032-3.92-.174-.92-.885-.375-1.278.133-.632.822-1.329 2.085-2.139 1.479-1.383-1.025 2.08-2.552 1.708-3.416-.936-2.182-2.287 2.815-3.585 1.51-.892-.895 1.371-2.157 1.77-3.138-1.172-.631-1.142 1.505-2.356 1.817l.001-.01zm-.581-1.319c.793-2.342 2.289-1.599 0 0zm-14.92-14.168c.34.019.603 1.021-.094 1.002a.505.505 0 01.094-1.002zm5.177 5.331c.347.094.708-.036.885.564.585 1.958-3.259-1.21-.885-.564zm-3.305.936c1.929-.641-1.475 3.011-.827.753.172-.594.465-.632.827-.753z"/><path d="M132.039 146.357c.501.018 1.113.392 1.197.763.374 1.668-3.025-.826-1.197-.763zm-30.116-17.893c2.255-.609-1.99 3.075-.688.501.224-.444.47-.441.688-.501zm28.09 17.909c.459-.062 1.076.419 1.127.498 1.075 1.742-3.215-.224-1.127-.498zm-3.129-2.14c.933-.183.662 1.298-.08.924-.456-.231-.4-.832.08-.924zm-24.86-13.973c1.078.044.229 1.207-.211.906-.283-.196-.56-.936.211-.906zm4.181 4.063c1.017.229 1.359 1.566.624 1.413-.754-.156-2.047-1.735-.624-1.413zm-8.19-3.935c1.449-.498-.736 2.647-.969 1.258-.107-.623.549-1.109.969-1.258zm4.268 4.177c3.609 1.986-1.971 5.791-4.089 3.164-1.357-1.686 1.395-4.646 4.089-3.164zm-2.079 2.041c-.125-.04-.597-.668-.626-.641-2.157 2.339 4.799.907 2.121-.092-.729-.274-1.01.89-1.496.726l.001.007zm6.154 1.816c1.527.356.579 2.369-.438 1.979-.909-.347-1.026-2.322.438-1.979zm22.47 15.984c1.664-.746-.388 2.677-.806 1.259-.05-.177.161-.966.806-1.259zm-17.88-11.105c1.2-.285-.006 1.743-.562 1.729-.606-.018-.234-1.541.562-1.729zm-8.396-3.663c.324-.016 1.634.683 1.537 1.246-.196 1.175-2.948 2.904-3.734 1.852-.751-.999.888-3.047 2.197-3.098zm14.937 9.413c2.075 1.203-2.716 4.369-3.484 3.703-.745-.645.577-3.309 1.574-3.844.31-.168 1.862.11 1.91.141zm-1.909 2.283c.104.048 1.55-1.001 1.053-.947-.4.041-1.396.785-1.053.947zm-53.956-35.29c.736.489 1.62.113 1.045 1.251-.598 1.185-8.088-2.726-3-1.912.579.089 1.306.227 1.955.661zm46.534 30.248c.968.07-.093 1.501-.591.621-.28-.497.205-.65.591-.621zm-55.653-34.537c.452.259 1.387.242 1.214 1.023-.22 1.018-3.047-.506-3.944-.777-.873-.267-2.693-.64-4.438-1.098-.792-.205-4.8-1.301-3.04-2.188.43-.219.422.287 1.607.775 2.675 1.104 6.009.769 8.601 2.265zm21.442 14.428c.891-.193 1.864 3.578.709 3.828-.607.132-2.06-3.539-.709-3.828zm34.328 22.092s1.702 1.178.67 1.418c-.702.164-2.254-1.789-.67-1.418zm15.648 9.953c.896-.156.606 1.406-.196.884-.439-.289-.259-.806.196-.884zm-55.347-34.414c1.637 1.41-1.168-.119-2.337-.51-1.853-.62-.34-1.025.762-.495a7.25 7.25 0 011.575 1.005zm1.583 2.393c.181-.011 1.922 3.015.636 3.662-1.13.568-2.47-3.556-.636-3.662zm-3.191-.963c1.756.001.68 4.254-1.144 2.634-.39-.348.506-2.635 1.144-2.634zm-7.084-3.782c2.249 1.796-1.68.584-2.568.23-6.154-2.443-11.785-5.934-17.398-9.487-.41-.261-3.387-1.81-2.092-2.402.666-.307 4.253 2.462 4.932 2.876 2.464 1.496 5.674 4.174 8.593 5.479 1.939.867 6.14 1.39 8.533 3.304zm33.034 21.822c.671-.052 1.579.843 1.342 1.213-.485.758-2.588-1.116-1.342-1.213zM63.14 125.425c.53.081 1.067.312 1.128.72.245 1.664-3.163-1.019-1.129-.72zm-4.503-1.88c2.593 1.26-2.009 1.054-1.04-.15.304-.383.438-.142 1.04.15zm41.602 26.774c1.113.218-.727 1.479-.724.358.001-.486.402-.422.724-.358zm-47.252-30.004c.34-.003 1.136.357 1.232.786.408 1.727-2.9-.764-1.232-.786zm-1.845.021c1.214-.065-.6 1.837-1.012 1.581-.558-.35.41-1.548 1.012-1.581zM86.97 143.13c.42-.061 3.28 3.132 2.147 3.586-.514.205-3.605-3.376-2.148-3.586zm-5.965-.177c2.204 1.117-4.857 2.192-5.609 2.354-7.45 1.596-15.062 3.637-21.318 5.434-1.478.426-3.13-.125-.864-1.29 1.515-.772 3.526-.789 5.5-1.436 6.999-2.288 15.318-3.63 21.83-5.107.186-.044.228-.075.457.043l.004.002zm.971 1.397c1.411-.262 4.355 4.564 2.222 4.522-1.093-.021-.124-.738-.726-1.658-.462-.708-3.268-2.536-1.492-2.862l-.004-.002zm14.586 10.443c1.943 2.122-4.348 1.002-3.377-.763.42-.772 2.805.138 3.377.763zm-16.725-8.656c.712-.391 3.528 4.588 1.38 4.297.117.017-2.572-3.643-1.38-4.297zm15.444 11.158c.173.179.956.088.488.846-.522.835-5.013-.81-4.791-1.725.293-1.206 3.426-.003 4.3.884l.003-.005zm11.138 9.146c1.293.79 1.399-.073 1.406.896.014 2.659-4.844-.674-3.258-1.787.426-.295.967.353 1.852.891zm-30.461-19.143c1.494-.312 2.17 4.583.04 3.335-.673-.396-.005.168.089-.888.058-.692-1.463-2.165-.13-2.447zm17.186 11.706c.34.234 1.508.22 1.358 1.113-.155.931-6.782-1.731-6.545-2.695.264-1.063 4.238.925 5.187 1.582zm8.461 5.615c1.723.114-1.412 2.813-2.49 4.288-1.16 1.59-1.984 3.696-3.191 5.799-4.102 7.146-7.507 12.206-10.282 18.905-1.241 3.002-1.033 4.834-2.087 7.726-.198.555-.331 1.866-.928 1.858-2.088-.038.517-4.191.675-4.714.344-1.165.504-3.363.97-4.765.466-1.402 1.312-2.533 1.856-3.715.54-1.177.686-2.44 1.152-3.424 1.65-3.469 4.482-7.036 6.605-10.722 2.375-4.116 3.93-8.36 7.313-11.009.242-.189.122-.248.41-.231l-.003.004zm1.373 3.67c.703.089 4.754 2.727 3.6 2.969-.772.163-5.299-3.186-3.6-2.969zm-31.145-20.088c1.178-.23 1.604 2.83.147 2.248-.678-.271-.73-2.131-.147-2.248zm10.182 12.988c.252-.203 4.375 1.342 4.392 1.342-.19-.002 1.58-.122 1.566-.948 0 .08-3.767-2.038-3.05-1.945-.43-.053-5.24 2.254-5.924 2.538-2.02.829-3.824 2.408-5.746 3.378-4.095 2.064-8.162 5.599-11.026 8.267.29-.27-2.77 3.794-3.453 2.411-.126-.256 1.767-2.471 2.546-3.234 5.316-5.189 12.184-9.378 18.839-12.266 2.7-1.167 3.251-2.262 5.26-1.504.83.315 5.565 1.07 5.188 2.338-.209.718-1.198.224-1.396.324-1.084.534-2.897 3.748-4.572 2.668-.428-.272.676-.993.663-1.035.08.26-4.697-1.213-3.277-2.333l-.01-.001zm20.713 10.02c.103.066 2.068 1.139.832 1.683.093-.04-3.722-1.968-2.875-2.602.223-.164 1.293.415 2.043.919zM68.5 149.571c2.112.362-.505 2.844-1.353 1.153-.454-.896.944-1.225 1.353-1.153zm-4.888.199c.817.495.216 1.273-.71 1.542-.22.062-.866-.681-.686-.66-.293-.036-3.828.622-2.66-.587.678-.697 1.157.276 2.367.178 1.31-.103-.163-1.597 1.691-.477l-.002.004zm38.823 25.126c-.021-.013.352-.059.467.059.86.904-3.944 9.784-4.914 11.632-1.199 2.279-2.672 4.173-3.934 6.54-.43.811-2.462 3.845-3.139 2.524.008.016 1.424-2.576 1.663-2.986 2.566-4.469 3.633-5.626 6.135-10.375.742-1.408 2.992-5.088 2.854-6.038.061.423-2.502-2.163-2.16-2.568.379-.444 2.168.408 3.026 1.216l.002-.004zm-33.671-21.531c2.321.458-3.352 1.726-3.478 1.166-.142-.643 3.468-1.167 3.478-1.166z"/><path d="M85.964 166.919c-.396.215-.67-.278-1.465-.654-1.127-.537-5.236-1.019-5.15-1.893.086-.882 6.334-.239 7.084 1.454.024.048-.245.976-.465 1.095l-.004-.002zm25.161 15.26c-.222-.012.805.501.086.978-.582.388-1.14-1.033-.086-.978zm-29.281-14.99c3.507 2.474-6.333-.648-5.923-1.744.206-.554 5.278 1.291 5.923 1.744zm16.331 10.052c.157.037 1.59.891.907 1.485-.484.417-2.397-1.833-.907-1.485zm10.301 8.462c2.537.183-.853 2.245-1.305 1.132-.319-.786.136-1.21 1.305-1.132zm-3.319-1.395c1.99-.276-4.389 11.281-2.217 4.304.287-.918.799-4.107 2.217-4.304zm-24.411-15.304c.152.142.744-.089.667.425-.233 1.575-3.206-.422-4.214-.76-1.528-.513-4.084-.425-3.773-1.443.164-.538 2.756-.186 2.713-.196 1.498.38 3.787 1.197 4.611 1.977l-.004-.003zm27.179 20.325c1.402 1.234-2.958 1.549-2.94.111.008-.851 2.705-.317 2.94-.111zm-13.821-9.013c1.413.094-.632 1.556-.589.329.015-.394.294-.349.589-.329zm-46.248-29.018c1.846.799-4.098 3.668-3.975 1.856.056-.868 3.694-1.977 3.975-1.856zm28.303 19.009c2.315 1.549-.805.565-1.45.746-1.815.518-4.986 4.264-7.632 6.603-3.352 2.961-5.332 4.474-7.762 6.04-.555.361-2.932 1.632-3.482.885-.851-1.146 1.746-1.394 2.276-1.654 3.704-1.826 7.444-5.271 11.25-8.836.99-.932 3.538-3.172 3.532-3.243-.024-.964-1.994-.489-1.508-1.442.314-.615 4.392.64 4.774.895l.002.006zm32.168 21.914c2.606 1.858-5.038 1.556-4.947.095.039-.596 4.293-.562 4.947-.095zm-2.292 2.838c3.689 1.912-5.568 1.783-4.548.059.127-.215 4.011-.339 4.548-.059zm-6.016 3.206c1.342-.242-.283 3.825-.877 5.46-1.702 4.693-2.38 6.746-3.166 10.257-.038.173-.12 2.5-1.126 2.168-.87-.284-.005-3.71.11-4.262.618-2.953 1.735-5.948 2.775-8.824.426-1.191 1.159-4.6 2.287-4.803l-.003.004zm-11.96.217c2.816-.21-1.058 4.704-1.901 4.364-1.066-.429.823-4.285 1.9-4.364zm-31.436-19.73c2.268.04-1.287 2.56-2.096 3.658-.093.126-1.29 3.38-2.132 1.368-.31-.744 3.695-5.036 4.224-5.028l.004.002zm17.314 27.706c1.73-.347 1.228 2.277.208 2.031-.99-.238-1.465-1.776-.208-2.031zM52.643 236.66s-.096.133-.1.156c-.007.036.078 2.618-.726 2.589-1.75-.066-.356-4.609.826-2.745zm-5.403 7.751c1.492.157.817 2.152-.036 2.082-1.026-.081-1.528-2.242.037-2.082zm-2.187 4.974c1.399-.39-.678 2.362-1.048 1.354-.217-.585.726-1.265 1.048-1.354zm-4.897 5.88c.79.222 1.709 1.477.597 1.438-.517-.02-1.883-1.8-.597-1.438zm-1.482 5.289c.956.328.323 2.087-.589 1.899-1.175-.25-1.333-2.561.589-1.899zm-5.18 5.093c2.597.287-1.407 2.952-1.343.686.029-.832.763-.753 1.343-.686zm-15.42 27.53c.436.055.443 1.155-.04 1.095-.449-.059-.782-1.201.04-1.095zm-2.979 4.121c1.015-.103-.187 1.658-.689 1.739-.487.082-.402-1.633.689-1.739zm-3.29 6c1.343-.671-.14 2.837-.703 1.444-.028-.068.087-1.135.703-1.444zm-3.904 5.931c.784-.184.626 1.057.159 1.011-.583-.056-.836-.854-.159-1.011zm-4.105 6.257c2.16-.897-1.135 3.13-.669.728.085-.425.538-.67.669-.728zM1.22 321.34c1.175.114.933 2.532-.155 2.147-.925-.328-1.216-2.28.154-2.147zm24.574 23.812c1.403-.268 2.1 4.872 1.294 5.234-.984.444-1.934-5.11-1.294-5.234zm-3.42.195c2.16.437-2.94 3.429-4.415 4.478-1.343.946-2.463 2.243-4.038 3.069 6.879-3.599-.851 1.188-1.452.25-.322-.507 3.852-3.704 4.489-4.189 2.28-1.722 3.957-2.67 5.014-3.387.228-.157.117-.277.4-.218l.002-.003zm.46 4.05c1.622-.782-.462 2.886-.766 1.197-.085-.454.369-1.004.766-1.197zm-3.448 4.185c2.298.218-.412 2.568-1.023 2.501-1.807-.186-.17-2.617 1.023-2.501zm-7.603 6.706c1.577-.234 1.456 2.336.474 2.232-1.167-.117-1.038-2.153-.474-2.232zm1.945 7.98c1.603.27-2.07 3.738-3.123 4.875-1.913 2.066-3.974 5.914-6.443 7.25-1.825.988-.011-1.374.525-2.033 2.44-2.964 6.729-8.39 8.643-9.875.225-.172.129-.267.4-.221l-.002.004zm-4.497 2.045c.96.158-.319 1.382-.706.57-.237-.49.338-.629.706-.57zm-3.263 2.977c1.221-.118.218 1.524-.414.645-.214-.293-.036-.605.414-.645zm-2.614 3.117c.385.077 1.148.637.958 1.004-.513 1.001-3.13-1.435-.958-1.004zm-3.569 1.78c.704-.354 2.356 2.232 1.707 2.772-.962.79-2.543-2.356-1.707-2.772zm-4.99 4.047c.133-.035.285-.124.452.031 1.53 1.448 3.652 7.985 2.25 8.348-1.019.266-.634-2.032-1.08-3.508-.414-1.371-2.588-4.625-1.619-4.875l-.003.004zm110.969-239.445c3.182.582-.9 4.793-2.376 2.943-1.045-1.309 1.492-3.107 2.376-2.943zm14.286 11.072c2.846.934-1.356 3.974-2.426 3.1-1.379-1.128.828-3.621 2.426-3.1z"/><path d="M159.813 138.607c.268-.419 4.454-2.165 6.191-2.85 6.951-2.724 14.59-4.566 22.694-3.983 1.978.143 6.5-1.037 8.003.007 0 0 1.024 1.164 1.051 1.396.054.562-.974.928-1.104 1.725-.089.545.786 1.012.544 1.805-.73 2.389-4.792 4.508-6.765 5.64-2.446 1.402-5.055 2.093-7.325 3.097-2.576 1.144-5.128 1.923-7.449 2.537-5.202 1.375-10.31 2.232-15.793 2.311-.742.015-7.689-.17-8.213 1.074-.543 1.299 1.524 2.1 1.975 2.229.942.272 2.252-.215 2.779-.169 9.348.74 25.587 2.152 37.743 5.856 1.974.601 7.214 3.062 7.924 5.053.06.163-.242.873-.033 1.193.628.951 1.778.544 1.675 1.556-.071.659-1.5.729-1.735 1.567-.337 1.198 1.233.19.372 1.695-.717 1.251-5.906 1.898-7.116 2.017-6.19.615-12.555-.895-21.488-4.718-5.561-2.377-10.868-5.636-16.657-7.71-1.545-.554-5.258-2.371-4.708.153.175.815 5.593 1.131 7.009 1.558 8.892 2.656 15.414 10.838 25.327 16.149 4.764 2.549 7.913 2.219 11.919 2.986.738.141 4.413.964 4.798 1.601.948 1.575-.842.74-.635 2.506.2 1.733 1.675.591 1.625 2.006-.042 1.296-2.802 2.214-3.475 2.398-8.854 2.384-21.031-.359-31.732-6.149-5.459-2.953-11.714-7.741-15.032-11.769-.812-.983-3.708-4.969-1.844-1.664.815 1.445 2.326 3.452 3.093 4.645 1.482 2.307 2.945 4.698 4.313 6.149 3.211 3.415 5.908 5.429 10.068 7.39 5.114 2.409 9.985 6.173 12.838 9.882 1.212 1.579 2.597 4.941 2.393 6.871-.144 1.395-1.005 4.517-1.772 5.424-.364.426-2.298 1.321-2.532 1.297.138.014-3.321-1.358-3.084-1.241-2.944-1.451-5.25-3.517-7.361-5.181-2.749-2.161-6.012-3.061-9.169-4.632-1.917-.955-3.771-2.461-5.401-3.688-1.298-.975-3.134-3.961-2.461-1.08 1.101 4.719 1.503 10.536.625 15.696-.33 1.951-.894 4.69-2.044 6.221-.448.593-1.063.633-1.797 1.283-.832.74-1.438 2.493-2.454 2.316-.158-.027-.741-.614-.861-.549-.545.283-1.376 2.369-2.346 2.148-1.184-.267-1.423-5.685-1.707-6.428-.709-1.877-2.477-3.73-3.587-6.901-.526-1.499-1.293-4.445-1.818-6.255-.651-2.242-2.076 3.976-2.403 5.266-1.151 4.532-1.734 7.099-2.517 11.509-.298 1.705-.727 4.739-1.541 5.815-.446.59-.812.311-1.575.936-.451.377-.639 1.432-1.163 1.444-1.043.027-2.83-2.435-2.943-2.603-2.052-3.181-2.837-8.312-3.696-12.797-.885-4.622-1.858-8.131-1.716-13.232.177-6.191 3.061-15.112 6.461-22.59.917-2.025 3.575-6.981 3.21-7.668-.042-.077-1.694-.995-2.115-.86-.743.23-.97 4.755-1.261 5.75-.609 2.102-1.557 4.369-2.262 6.569-1.97 6.121-5.264 12.788-8.161 19.56-1.303 3.044-4.5 6.238-6.356 9.543-1.276 2.268-2.854 4.581-4.983 7.02-.936 1.071-3.491 3.998-4.688 4.291-.905.217-1.558-.88-2.902-.392-.901.327-.932 1.375-1.797 1.283-1.11-.118-2.371-6.171-2.3-7.777.197-4.346 2.454-9.233 4.112-14.373.867-2.681-2.217 1.691-2.849 2.553-2.232 3.043-5.088 7.202-7.449 8.603-.413.247-2.104.842-2.485.843-.063 0-1.803-.434-2.054-.583-.31-.18-1.74-1.949-1.912-1.945-.845.017-3.09 4.141-4.27 5.533-5.946 6.991-12.422 15.056-18.144 23.397-3.5 5.111-7.226 10.362-10.443 15.925-5.867 10.145-14.427 23.35-20.993 34.683-5.47 9.426-10.114 19.58-15.933 29.419-9.195 15.552-18.039 30.892-24.869 46.789-.761 1.773-1.953 4.015-2.56 5.892-.7 2.164 1.451-1.044 2.013-1.628 4.808-5.037 10.397-9.798 15.766-13.257 2.757-1.772 6.126-4.288 9.303-6.938 3.278-2.745 7.03-4.768 9.126-7.051 4.403-4.802 9.784-6.687 14.494-11.64 2.105-2.216 3.746-4.682 5.78-6.761 3.643-3.703 7.942-7.227 11.777-11.188 3.794-3.914 7.092-9.409 11.384-10.957.186-.068 2.87-.78 3.347-.294.434.447-.257 5.244-.506 6.475-1.608 7.805-6.85 14.556-9.289 23.216-.526 1.866-1.013 4.149-1.476 6.094-1.037 4.338-1.172 10.454-2.219 15.586-.032.156-1.511 3.883-1.005 4.217.398.264 2.29-1.61 2.186-1.518 3.451-3.105 6.71-6.457 9.763-9.56 1.274-1.299 3.533-3.524 3.78-4.388.236-.82-1.189-3.686-1.335-4.733-.62-4.566.472-8.937 1.334-14.204.96-5.89 1.727-10.684 4.92-16.774 1.26-2.403 1.715-7.656 2.69-7.993 2.584-.889 3.151 6.724 3.147 7.59-.007 5.386-1.137 14.278-2.812 20.303-.825 2.969-1.59 4.127-1.81 6.614-.236 2.698 1.775-1.62 2.507-2.771 4.04-6.378 6.655-12.428 9.364-18.792 1.076-2.52 2.368-5.033 2.82-7.429.54-2.856-.613-6.173-.456-9.517.263-5.74 2.533-11.277 7.133-16.822 7.757-9.348 17.238-14.333 26.951-16.323 1.814-.37 4.77-.612 6.406-.528 3.037.154 8.484 3.072 11.644 6.453.727.776 1.034 2.379 1.43 3.823.551 2.009.822 3.118 1.176 5.363.133.846.651 1.71.603 2.087-.049.394-.758 1.271-.932 1.835-.444 1.464-.366 3.193-.878 4.779-3.151 9.8-10.608 17.415-18.544 22.898-3.79 2.616-8.252 5.094-11.806 6.312-2.732.937-6.518 1.394-9.292.873-1.001-.19-2.05-1.012-3.026-.959-1.744.102-5.156 2.977-7.456 5.205-6.018 5.826-9.626 12.213-15.096 19.019-1.592 1.981-4.293 4.435-1.581 3.61 1.7-.521 2.38-1.041 4.17-1.96 1.495-.766 4.591-1.838 5.688-2.444 3.201-1.767 4.725-3.331 8.537-4.998 4.461-1.945 14.472-4.152 19.851-4.094.689.003 1.612.404 2.62.451 2.517.135 6.957-.688 8.411.511.527.427.933 2.042.622 2.82-.925 2.293-7.703 5.625-9.253 6.487-9.133 5.06-18.715 11.281-29.26 11.208-1.034-.007-2.318-.224-3.468-.271-1.167-.046-2.396-.013-3.295-.16-.746-.118-3.375-.546-4.045-.882-1.264-.63-2.903-3.321-4.477-2.855-1.233.366-3.737 4.24-5.012 5.549-3.58 3.669-6.552 6.626-9.918 10.183-1.738 1.836-3.84 3.249-5.02 4.81-1.808 2.389-2.607 5.557-3.783 7.792-5.733 10.944-13.986 17.808-21.36 24.257-3.786 3.317-7.486 6.774-11.47 9.198-1.935 1.178-4.058 2.066-5.957 3.244-5.233 3.229-10.867 6.173-16.662 7.829-1.657.47-3.708.706-5.656 1.251-1.839.507-3.807 1.296-5.48 1.358-1.179.043-2.582-.483-3.81-.489-1.539-.005-3.022.513-4.364.378-.879-.089-2.088-.565-3.588-.835-.6-.109-3.14-.872-3.422-.723-1.436.764-1.73 5.048-2.04 6.223-.585 2.197-1.65 4.373-2.22 6.114-1.122 3.433-2.1 7.412-3.32 11.241-2.87 9.003-4.246 15.048-5.992 23.371-1.393 6.636-2.931 11.784-3.076 18.438-.052 2.498.455 7.276-.684 9.029-1.98 3.038-6.869 1.834-8.722-1.913-.95-1.927-.277-3.535.115-6.236.414-2.869.391-5.136 1.38-8.591 1.813-6.374 2.554-13.278 4.238-19.882 3.269-12.833 6.01-23.852 10.162-37.462.631-2.066 2.894-6.678 2.646-7.54-.33-1.158-3.449-2.602-4.775-3.533-6.193-4.329-10.643-8.289-12.687-13.917-1.842-5.084-3.021-11.283-3.537-16.826-.44-4.679.764-9.534 1.722-14.439.607-3.08.327-6.708 1.743-10.3 1.356-3.436 3.717-6.459 5.774-10.158 2.797-5.014 5.126-10.066 9.09-15.324 1.056-1.403 2.55-2.221 3.276-3.983.418-1.016.113-2.373.277-3.461 1.233-8.167 3.854-16.75 6.69-25.604.496-1.545 1.557-3.875 1.33-4.735-.503-1.949-4.222-3.492-6.225-5.428-1.009-.966-3.852-6.064-4.404-7.903-.56-1.878-.667-5.288-.586-7.416.043-1.068-.41-3.212-.41-3.903-.004-1.604.355-4.689.507-6.476.138-1.597.445-6.077 1.763-6.161.892-.056 2.796 7.65 3.163 8.326.995 1.872 2.475 3.502 3.562 5.426 2.539 4.519 3.796 10.24 4.48 15.732.403 3.207 1.461-2.076 2.134-4.473 1.349-4.797 4.027-12.866 2.422-16.664-.295-.699-1.259-1.478-1.86-2.4-.507-.784-.735-1.854-1.294-2.522-1.482-1.802-2.851-2.437-3.546-4.69-.652-2.107-.76-9.11-.212-11.79 1.257-6.15 5.05-13.065 9.764-19.026 1.636-2.077 3.915-4.545 5.681-5.842 1.067-.79 2.681-1.088 4.055-1.79.664-.337 1.758-1.523 2.577-1.756.762-.217 1.668.281 3.183.334 1.541.046 2.694-1.126 3.565-.644-.056-.036 1.073 2.176 1.357 2.805 1.117 2.489 2.145 6.612 2.656 8.736 1.437 5.972 1.446 10.642.65 17.171-.557 4.598-2.664 11.403-5.543 16.615-1.852 3.353-4.928 5.773-7.259 6.783-1.366.593-2.784.274-3.784.986-1.826 1.293-4.682 6.23-5.915 8.854-.744 1.586 1.901-.887 2.137-1.06 3.868-2.817 9.102-4.411 14.587-6.485 1.526-.576 3.274-1.658 4.177-1.218 2.37 1.136.844 4.119-.804 5.797-2.615 2.668-6.021 3.373-9.765 6.155-3.513 2.606-6.278 6.739-9.147 8.978-2.473 1.93-5.232 2.475-6.513 4.103-1.084 1.375-1.617 4.837-2.25 7.304-1.064 4.157-1.238 7.882-1.94 12.121-.147.894-.814 2.795-.891 4.039-.169 2.707 1.328-.452 2.8-2.096 1.387-1.555 6.427-8.521 8.029-7.994 1.488.501 1.797 5.827 1.67 7.619-.219 3.14-1.14 5.889-1.438 8.31-.772 6.226-1.216 10.772-1.918 16.259-.662 5.151-1.536 10.58-.786 16.006.547 3.98 1.721 9.637 1.288 14.661-.244 2.772 3.215-4.515 3.59-5.235 5.582-10.582 11.35-21.333 17.512-33.026 8.833-16.748 20.115-33.001 29.921-50.127 7.494-13.09 17.072-28.177 25.37-41.124 5.023-7.845 10.751-15.593 17.323-24.402 3.358-4.498 8.535-9.289 10.59-13.886.698-1.569.97-3.49 1.667-5.252 3.566-9.064 8.699-19.302 15.785-28.056 1.333-1.647 3.664-3.736 5.352-5.326 1.519-1.426 5.121-4.021 5.413-5.043-.049.173-.285-2.071-.887-2.024-.44.031-.963 1.264-1.941 2.649-3.518 4.997-8.27 8.511-12.502 11.94-1.429 1.16-2.978 1.835-4.262 2.866-4.216 3.395-9.204 8.182-13.644 11.456-2.355 1.739-4.747 3.136-6.95 4.796-2.72 2.044-7.145 5.436-10.28 5.826-1.06.13-4.203.31-4.6-.017-.984-.82.451-1.874-.1-2.492-.45-.502-1.95.726-2.729-.281-.531-.685-.084-2.8.437-4.091 3.338-8.267 12.296-16.702 18.07-21.015 3.794-2.835 9.903-5.812 13.834-7.204 1.765-.622 3.5-.771 5.025-1.409 2.854-1.188 6.635-2.488 9.807-3.944.233-.107 4.324-1.845 4.605-2.647.149-.427-1.68-3.664-2.453-3.749-.837-.092-1.993 1.935-2.565 2.49-.462.448-1.133 1.07-2.012 1.628-5.656 3.589-12.238 6.127-19.132 9.409a88.802 88.802 0 01-9.803 3.947c-5.15 1.727-9.665 2.349-15.232 2.187-3.929-.117-8.71-1.321-12.937-2.91-1.178-.445-2.724-1.237-3.1-1.977-.43-.835.266-.159.366-1.706.034-.557-.55-1.134-.482-1.522.047-.26.77-.593.947-1.099.305-.883-.382-.652.033-1.193.483-.622 2.594-1.943 3.867-2.63 1.704-.916 3.876-1.455 5.862-2.334 1.893-.83 3.937-1.393 5.924-2.05 7.844-2.597 15.778-4.529 23.955-6.334 6.171-1.365 10.234-2.043 16.193-2.545.408-.035 3.829.007 4.082-.308.368-.469-.232-3.49-.524-3.733-.48-.403-3.782.034-5.166.105-5.18.271-10.13-.733-15.752-1.543-6.503-.941-16.52-5.478-22.402-8.213-4.598-2.137-8.886-4.269-11.949-7.862-.931-1.088-2.373-2.467-3.195-3.734-.746-1.163-1.839-4.929-1.233-5.644 1.05-1.242 1 .439 1.818.189.331-.101.017-.726.494-1.143.07-.064 2.286-.869 2.481-.846 1.244.14 2.795 1.435 3.947 1.789 3.347 1.017 6.569.342 9.775.649 2.929.279 6.622 1.312 9.973 2.234 6.545 1.796 13.406 4.843 20.106 9.903 2.706 2.044 6.53 5.026 10.745 7.095 2.364 1.161 2.156-.515.873-2.116-.738-.919-1.818-1.403-2.879-2.323-8.797-7.612-22.585-16.409-26.252-26.453-1.018-2.777-2.122-6.046-2.888-9.127-.748-3.02-1.827-6.488-1.869-9.204-.005-.47.112-1.91.354-2.447.338-.75 1.231-.974 1.558-1.68.275-.58-.378-1.438-.038-2.208.282-.643.941-.07 1.352-.597.406-.518-.388-1.563.416-2.163.935-.698 5.035.736 5.928 1.351 4.187 2.885 6.656 9.407 8.527 13.205 1.066 2.161 1.79 4.501 2.847 6.916.986 2.24 2.628 4.406 4.264 6.606 4.98 6.693 9.866 12.221 13.64 19.62.41.801 2.788 6.431 3.64 6.446 2.662.058-.138-3.106-.756-4.124-1.937-3.182-2.056-3.865-3.307-6.966-1.592-3.961-2.618-7.202-3.56-11.496-1.439-6.564-2.999-12.955-3.481-19.941-.179-2.554-1.373-9.013-.092-11.226.472-.817.952-.556 1.682-1.112.258-.199.215-.646.552-.862.303-.199.91-.26.846-.187.49-.579.017-1.55.82-1.662 1.272-.17 3.831 2.953 4.854 4.553 3.059 4.776 5.309 11.517 6.082 16.26 1.545 9.48 2.239 16.657 2.977 26.422.09 1.215.512 3.061.813 4.406.12.513.513 3.964 1.493 4.106.781.118.7-2.209.7-2.226.094-2.414-.474-4.705-.196-7.655.38-4.002.766-6.968 1.103-11.196.198-2.54-.017-5.276.37-7.776.359-2.313 1.183-4.574 1.467-6.833.282-2.237-.029-4.558.333-6.585.287-1.599.945-4.618 2.625-5.612.165-.1 1.977-.227 1.871-.266.831.314 1.03 1.979 1.451 1.896 1.013-.2-.293-2.19.982-2.285.896-.07 3.561 3.337 3.756 3.609.516.726.973 1.784 1.469 2.639 2.938 5.09 3.145 12.276 2.386 19.004-.569 5.022-.73 9.107-3.642 15.16-.644 1.332-1.433 2.883-2.465 4.982-.863 1.754-3.663 6.154-.754 5.348.738-.205 1.808-3.399 1.978-3.841.786-2.086 1.279-3.706 1.945-5.313 1.255-3.013 2.67-7.95 3.725-10.739 2.136-5.646 6.069-11.371 9.471-16.301.885-1.285 1.869-3.29 3.165-3.81.398-.16.706.519 1.71.359.479-.075.898-.88 1.29-.88.242.001.929.904 1.097.943.614.13 1.129-1.135 1.978-.44.73.595.026 3.676-.186 5.22-.266 1.868-.837 3.813-1.211 5.3-.245.967-.143 2.57-.494 3.81-.431 1.513-1.304 3.186-1.904 4.858-2.209 6.167-5.825 12.361-10.621 18.478-1.816 2.321-4.993 4.21-5.058 6.002.006-.212 1.909 3.13 3.006 2.887.773-.171 3.428-7.841 4.426-9.559.584-1.018 1.611-2.435 2.382-3.339 2.046-2.406 5.695-5.306 9.126-7.05 1.122-.573 2.699-.725 3.834-1.443 1.533-.969 5.71-4.95 7.432-6.673 1.681-1.686 3.134-3.823 4.704-3.554 1.218.204.045.806.873 1.283.508.296 1.18-1.143 1.819.19.697 1.46 1.059-.716 2.213-.048.834.487.502 3.209.298 4.077-.546 2.331-1.723 5.001-2.325 6.286a106.207 106.207 0 01-2.687 5.329c-3.089 5.691-7.568 9.054-11.591 12.033-1.681 1.243-3.734 2.572-6.224 4.043-1.047.615-6.033 2.946-6.291 3.757-.058.179 1.191 3.489 2.568 3.578 1.222.076 3.514-4.432 4.832-5.658 4.682-4.345 9.414-7.048 15.354-11.091 3.928-2.671 7.612-6.041 10.871-7.879 1.677-.945 4.77-2.429 5.297-2.206.656.277.458.905.936 1.567.125.176 1.126 1.217 1.162 1.223.749.166 1.45-.999 2.086-.61 1.077.664-1.754 6.865-2.96 8.792-4.18 6.668-15.643 12.382-20.49 16.073-.125.096-.245.382-.331.515l-.029.038zm-20.651-30.649c-.121.251-1.266 3.261-2.111 2.535-.516-.443.401-1.362.429-1.423 3.428-7.371 7.087-14.173 8.136-21.034.467-3.067-.685.068-1.562 1.677-2.789 5.133-5.104 8.775-6.978 12.789-.221.478-.021 2.228-.931 1.835-.436-.187-.258-1.067-.247-1.128.259-2.087 2.891-6.197 4.817-9.798 1.105-2.07 2.91-5.782 4.18-7.287.668-.795 2.072-2.855.474-1.883-.724.44-1.405.007-1.867.268-.792.448-3.366 4.175-4.052 5.185-.735 1.086-1.523 2.155-2.489 3.514-3.763 5.255-7.497 16.85-8.993 20.487-.841 2.04-1.118 2.153-.746 2.679.099.137 5.755 1.162 4.357 2.291-.741.599-4.231-1.841-4.796-1.606-.617.265-.731 2.178-.696 2.229.43.711 4.13-.391 3.653 1.115-.245.763-1.81.258-2.606.279-1.805.046-2.583.385-2.248 1.234.401 1.021 3.966-.19 4.217.986.253 1.154-2.567.457-3.17.407 3.982.344-1.238-.227-1.134.248.208.933.932.413 1.488.705 2.315 1.22 1.595.829 3.332-1.031 1.301-1.395 2.936-2.452 3.116-3.353.07-.347-.91-.092-1.035-.659-.184-.873 3.124-6.259 3.895-4.559.227.496-1.814 2.594-2.098 3.276.616-1.492-.468 1.324-.147 1.364.223.023 3.461-4.307 4.159-5.361 2.565-3.845 5.189-8.704 6.367-12.208 2.044-6.096 3.462-11.4 3.617-16.635-1.118 7.129-4.489 14.978-8.332 22.855l.001.007zm26.463-5.706c-.48-.278-.105-1.554-.434-1.979-.255-.327-1.229-.994-1.55-.989-.711.013-1.041.988-2.176 2.256-1.552 1.74-5.027 4.103-5.746 5.563.071-.147.1.932.185.844-.57.562-2.142.882-3.096 1.425-1.072.611-2.125 1.591-2.973 1.986-2.114.99-4.233.978-6.081 2.676-3.136 2.887-7.971 10.267-9.006 13.681-.08.267-.441 2.761.446 2.713.763-.041 2.694-3.763 3.042-4.37 1.853-3.21 7.233-10.408 10.238-11.442 3.728-1.278-1.71 2.342-1.594 2.87.137.609 1.235.657 1.834.925 1.818.819 2.265 1.626 3.199 1.07 2.667-1.596-3.982-1.955-3.018-3.627.652-1.133 3.495 1.395 4.576 1.948 2.088 1.07 1.194.897-.416 2.163-4.292 3.363-7.232 5.926-11.014 9.246-.572.503-2.686 3.15-3.537 2.114-.783-.948 1.548-1.612 1.95-1.912 1.655-1.237 1.925-1.996 4.801-4.468 1.155-.989 2.543-2.022 3.748-3.195 1.486-1.452 1.211-1.333-.95-2.307-.691-.311-4.333-1.504-3.846.702.127.581 3.423-.359 3.368 1.178-.024.773-3.557.347-3.8.249-1.318-.545-1.917 1.382-3.071 2.9-1.903 2.502-6.839 9.217-2.444 9.12.317-.008 2.164-1.077 3.207-1.598 5.686-2.832 13.646-7.84 18.104-12.737 2.634-2.9 5.106-7.866 6.5-10.91.896-1.948 2.787-6.752 1.578-7.006-.861-.18-.897 1.55-2.029.891l.005.02zm-43.155-25.82c.253 1.41.33 6.595.392 9.233.041 1.672-.509 2.496.495 2.256.432-.099 3.493 1.638 3.668 1.852-.161-.2 1.235 1.65-.02 1.927-.956.208-2.881-2.904-4.309-2.747-.581.066 2.319 3.038.078 1.02.204.187 1.012-.093 1.192.034 1.092.775 3.862 2.763 3.472 3.672-.706 1.643-4.607-3.812-4.588-2.682.017.993 4.367 4.657 4.96 4.377-.21.099.375-1.94.462-2.616.529-3.942-.35-9.291-2.046-12.716-.661-1.324-2.427-5.384-3.782-5.084-.898.199-.078.892.026 1.475zm-6.208 2.114c-.291 1.659-.056 4.152-.337 6.583-.267 2.338-1.265 4.63-1.578 7.006-.181 1.388-.086 2.976-.202 4.485-.247 3.122-.624 6.127-.687 9.032-.038 1.627-.408 3.144-.485 4.548-.145 2.529.323 4.933.413 7.306.038.897-.193 2.674.227 3.055.485.446 2.139.201 2.733.284.451.066 2.793.765 2.964.676 1.748-.871 2.737-6.523 2.992-7.319.942-2.968 2.947-5.674 3.874-8.697.633-2.059.844-4.364 1.022-6.146.04-.417.445-2.077.416-2.164-.323-.841-4.771-4.018-5.009-3.92.019-.004.085 1.859.087 1.758-.036.72.345 5.429-.816 5.064-.952-.301-.071-2.65-.057-2.948.368-6.49.133-11.735-.551-18.078-.085-.78-.171-4.648-.714-1.914-.974 4.867-1.301 9.14-1.976 13.312-.103.638-.508 4.795-1.335 4.732-.691-.054-.134-2.961-.211-2.318.283-2.249.34-3.188.532-5.001.189-1.792 2.635-13.482 1.176-13.578-1.507-.098-2.34 3.468-2.477 4.249l-.001-.007zm61.822 34.561c-7.203 3.924-15.045 9.677-21.988 14.63-2.388 1.701-5.165 3.567-7.222 5.592-.935.919-4.359 4.876-4.381 5.707-.002.056 1.659 2.164 1.971 2.227-.08-.017 2.484-1.117 2.701-1.189 2.517-.858 3.6-1.602 6.067-3.417 2.634-1.935 3.056-2.398 5.21-3.964 2.338-1.704 1.721.189.09 1.754-1.461 1.395-2.861 1.705-4.658 3.102-2.606 2.032-3.134 2.433-6.071 3.414-.129.043-2.691.589-2.47 1.581.251 1.113 3.3.532 4.316.079 2.665-1.178 5.881-4.507 8.006-6.063 3.202-2.344 6.362-4.001 9.031-6.141 3.413-2.743 7.895-6.093 10.251-10.702.538-1.053 1.988-3.794 1.005-4.217-.68-.292-1.271.949-1.908 1.456-2.091 1.68-4.414 3.218-5.771 4.089-1.547.989-3.757 2.677-5.836 3.808.228-.126-1.992 1.153-1.98.435.025-1.403 2.643-2.037 3.698-2.738 2.849-1.906 5.073-3.387 7.454-5.2 1.365-1.042 4.984-3.904 2.872-4.484-.276-.074-.16.108-.391.238l.004.003zM97.235 68.843c.58 1.193.833 3.136 1.568 5.13 1.631 4.44 3.594 9.646 3.613 14.442.013 3.158-.731-.063-1.047-1.394-1.161-4.916-2.187-8.635-3.82-13.364-.416-1.202-1.04-4.664-2.59-5.05-1.772-.438-1.895 2.02-1.987 3.102-.31 3.592.36 7.078.756 10.19.094.764-.181 1.831-.074 2.382.32 1.651 1.636-.74 1.88.472.178.874-1.318 1.191-1.45 1.504-.139.349.496 4.555.907 6.162.349 1.369.808 1.661 2.252 2.168 1.197.417 1.852.687 1.698-.375-.502-3.475-1.417-8.315-1.956-10.962-.65-3.19-1.884-6.842-1.943-10.222-.033-1.683.81-1.475 1.022-.08.185 1.224-.153.93-.086 1.648.31 3.074 2.741 11.507 3.107 14.85.562 5.187 1.807 10.822 2.838 15.649.2.945.224 1.953.446 2.713.052.175 1.663 2.53.104 2.495-.693-.016-.208-1.517-1.234-2.245-.877-.622-.355-.073-1.083-.203-4.063-.74 1.189 2.03 1.171 1.961.24.988-1.665 1.067-1.467.767-.883 1.282 3.799 8.988 5.401 9.754.585.282 2.906.236 3.343-.297.625-.754-.987-7.286-1.193-9.505-1.109-12.135-1.596-24.957-6.322-35.597-.921-2.068-1.22-4.575-3.81-6.554-.154-.122-.33-.138-.456-.048-.051.036.37.43.408.505l.004.002zm97.388 64.28c-5.643.345-9.855-.649-16.452.683-4.084.823-9.566 2.202-13.608 4.193-2.429 1.198-1.755.872.215 2.321.847.625 2.992 2.81 3.631 3.042 1.337.489 5.016-.933 6.502-1.438 4.036-1.37-.807 1.658-1.777 2.022-.932.348-2.596.501-4.131.765-1.426.243-3 .663-4.131.765-.855.079-1.91-.134-2.386-.063-1.689.245-4.133 2.069-6.819 2.694-.593.138-4.956.931-4.946-.237.009-.97 4.395-1 5.088-1.125 3.346-.613-.445-.891-1.629-2.009-.445-.42.209-.866-.527-1.063-.077-.02-2.113.617-2.091.608-2.788.821-1.524 1.071-.968 3.026.557 1.938-.137 2.313 2.017 1.774 1.967-.494 4.146-.16 6.296-.356 10.361-.957 20.044-2.874 29.549-7.868 2.034-1.069 4.902-2.271 5.993-4.435.355-.704-.449-.405-.026-1.474.683-1.721 1.589-.985.652-1.77-.103-.088-.352-.054-.458-.047l.006-.008zM83.655 102.186c-.388-.758-1.684-2.736-1.938-3.42-.473-1.272.579-1.311 1.134-.248 1.451 2.781 3.068 5.844 5.154 8.626 1.616 2.16 7.03 7.37 6.704 9.614-.33 2.259-1.394 1.007-2.029.892-.736-.135-3.473-.014-2.654.736 1.967 1.798 3.542 3.421 4.911 4.833 1.762 1.81 2.011 1.686 3.702.658 2.319-1.398 1.459-1.81.374-4.374a53.548 53.548 0 00-5.4-9.754c-4.878-6.985-9.968-12.444-13.628-18.886-1.173-2.064-1.827-4.382-2.962-6.745a131.652 131.652 0 00-3.352-6.507c-1.167-2.117-2.19-4.647-4.375-6.432-.734-.599-3.948-2.398-4.577-1.948-.563.401.265 2.2.557 2.54-.172-.201.812-.25 1.022-.081.487.39 1.393 2.818 2.231 4.095.266.408 2.753 3.98 1.95 4.154-.714.158-1.928-2.585-2.326-3.185-.917-1.368-1.981-2.353-2.503-3.292-.735-1.332.161-1.225-1.093-.941-.33.073-.61-.622-.972-.376-.818.55.306.842-.478 1.88-.526.697-1.314.501-1.682 1.112-.748 1.248.165 4.168.437 5.374.916 4.068 2.118 8.07 3.402 12.122 1.49 4.73 3.983 7.442 7.529 11.354.42.461.694 1.271 1.393 1.615.357.177 3.347.414 4.094.426.378.002 3.608-.747 2.287.97-.42.549-4.821-.839-4.881.043-.003.049 1.652 1.66 2.19 1.884.822.337 4.118-.285 4.992-.216 1.17.094.238-.671-.078-1.02-.795-.893-2.458-2.759-2.784-3.233-2.675-3.862-5.107-6.724-7.859-10.839.089.136-1.817-1.828-.953-2.31.804-.44 2.362 3.05 2.268 2.905 4.49 6.988 12.693 16.122 19.52 21.428-2.193-4.105-7.098-9.099-9.327-13.471v.017zm14.428-5.855c-1.104-.357-1.813-1.49-2.458-1.085.198-.123.525 2.996.446 2.713.378 1.393.634.648 1.314.594.809-.057 1.44 1.214 2.008 1.037.875-.277-.207-3.282-.635-3.56.097.061-.556.337-.675.301zm63.286 43.263c-.115.074-3.966 1.943-3.932 2.35.067.808 3.5 2.47 4.42 2.574-.366-.04 1.531-.249 1.52-.489-.042-1.457-3.915-1.634-3.174-2.994.409-.755 5.661 3.184 5.734 3.168 2.915-.496-2.329-2.614-3.537-3.952-.403-.45-.081-.846-.64-.896-.027 0-.364.216-.395.236l.004.003zm.589 16.887c1.513.364 5.15.822 5.706 1.698.903 1.416-4.129-.034-4.94-.238-1.336-.331-7.485-2.214-3.232.123 3.439 1.892 6.599 4.049 10.729 6.359 2.695 1.503 5.824 2.045 8.744 3.391 3.13 1.445 7.7 3.57 10.9 3.063.63-.098 1.155-.705 1.634-.656.748.08 1.108 1.183 1.772.642.502-.412-.823-2.629.4-2.9 1.006-.226.848 2.686 1.641 2.749 2.082.159.186-3.592 1.233-3.827.898-.199 1.242 2.982 1.591 3.199.121.077 1.38.148 1.583-.205.39-.653-1.972-2.897-.693-3.841 1.396-1.028 1.057 2.042 1.675 1.556.782-.619-.34-1.028-.479-1.519-.293-1.021.281-1.404-.494-2.256-.58-.636-1.645-1.151-2.585-1.649-3.056-1.613-7.132-2.572-10.505-3.299-10.055-2.16-21.503-3.473-30.438-3.626 1.456.667 3.398.68 5.755 1.241l.003-.005zM96.722 99.589c-.793.504 2.32 4.107 3.472 3.672.879-.336-.645-2.392-.494-2.256-.016-.01-2.837-1.502-2.978-1.416zm1.262 3.715c-.78.252.036 2.617.508 2.997.558.447 2.243.534 2.559.173.378-.439-.918-2.089-.714-1.913-.43-.372-2.485-1.21-2.35-1.254l-.003-.003zm56.81 40.11c.183 1.211 5.231 2.291 5.252 1.646.012-.355-2.023-1.029-2.927-1.866-.448-.416-.097-.664-.751-.723.075.008-1.676.271-1.571.939l-.003.004zm-46.295-20.536c-4.038.479-8.97 1.203-11.6 5.229-3.415 5.217-2.148 7.568.092 11.226.924 1.514 1.552 3.509 2.87 4.991 1.645 1.843 3.711 2.212 5.402 3.688.639.561 1.208 1.656 1.86 2.4 2.063 2.366 4.82 4.623 7.67 6.593.947.655 2.566 1.137 3.384 1.914.775.738.515 1.747 1.465 2.636.483.45 1.286.559 1.834.926 1.248.841 2.17 2.013 3.567 2.762 1.146.611 2.699.745 3.715 1.398 1.803 1.161 1.619 1.43 3.496 1.741 2.323.392 2.997.26 4.943.241 1.085-.012 2.272.411 3.186.329 2.596-.228 5.462-1.55 6.996-2.581 2.849-1.917 2.373-2.476 3.359-5.626.153-.487 1.093-1.857 1.089-2.461.002-.368-.893-.989-.998-1.851-.144-1.192.603-1.908.462-2.616-.171-.858-1.297-1.837-1.641-2.743-.658-1.753-.228-3.459-1.049-4.799-.483-.786-1.603-1.783-2.379-2.732-.781-.958-1.514-2.072-2.264-2.902-.964-1.062-2.39-1.739-3.285-2.821-.676-.822-.868-1.966-1.576-2.463-.79-.555-2.247-.44-3.199-1.069-.82-.545-1.328-1.681-2.14-2.335-1.935-1.557-4.472-3.147-6.674-4.738-.98-.71-2.078-1.183-3.039-1.693-6.646-3.551-10.164-3.264-15.546-2.626v-.018zm-24.585-12.764c-.644.332-1.049-.028-2.56-.174-.46-.044-2.477-.223-2.497.11-.004.059 1.997 2.017 2.71 2.215.22.062.338-.21.956-.36.845-.204 2.516-.121 3.236-.121 2.509-.012-1.797-2.117-1.802-2.119.108.017.116.368-.048.457l.005-.008zm110.355 72.065c-5.354-.866-11.377-3.027-17.682-7.632-1.255-.919-4.456-4.27-2.912-1.13 1.416 2.889-2.082.454-2.007-1.036.058-1.126.912.072.379-.972-.545-1.062-4.639-4.161-5.355-4.141-.541.013 1.52 4.09 1.159 4.626-.245.366-1.656.488-2.148.327-.716-.229-1.675-1.289-2.821-2.042-3.004-1.967-7.882-3.897-8.996-4.522-1.619-.907-2.315-2.441-3.137-.786-.677 1.367.042 2.042.854 3.218 5.051 7.317 15.981 14.371 24.54 16.616 5.057 1.33 10.272 2.555 14.524 2.707.517.018 6.755.176 7.533-.781.83-1.013-.222-1.752.184-2.555.451-.898 1.931.023.836-.925-1.83-1.587-3.841-.792-4.955-.975l.004.003zM87.432 113.333c-.054.005-7.441-.875-3.392.754.753.304 5.163-.119 5.166-.106.094-.864-1.846-1.023-1.381-.88-.294-.091-.16.205-.391.238l-.002-.006zm2.424 2.272c.252-.004-4.043-.797-4.032-.142.002.148 1.576 1.577 2.301 1.711-.126-.024.735-.758.726-.752.294-.096.876.093 1.36.141 2.043.202 1.293-.759.038-1.19-.027-.012-.337.233-.395.236l.002-.004zm74.242 52.676c-1.376 1.12-2.943-4.055-2.969-4.077-1.009-1.001-3.178-1.289-4.798-1.602-.46-.088-4.43-.804-4.552-.473-.29.808 2.294 2.246 3.117 2.714 1.802 1.029 4.355 1.886 5.265 2.386 1.856 1.025 6.644 4.52 6.127 2.936-.46-1.416-1.537-5.002-2.874-4.987-1.789.023 1.762 2.225.681 3.107l.003-.004zm-72.147-40.417c-5.63-3.108-11.313-8.394-16.945-11.049-.827-.391-2.007-.576-3.196-1.067-3.907-1.612-7.66-4.056-11.221-5.208-3.043-.987-6.506-.415-10.006-1.041-3.81-.682-7.28-1.225-10.195-1.887-1.353-.306-2.188-.861-2.511-.631-1.085.773.956 1.393-.24 2.277-.913.665-1.802-1.082-2.448-.347-.568.647 1.48 2.622 2.045 3.244 1.699 1.872 3.434 5.015 6.367 6.732 3.13 1.832 7.48 3.577 11.738 5.544 6.197 2.861 10.76 4.892 16.289 6.017 1.3.262 5.819 1.009 6.085.725.158-.167-1.617-4.283-.187-4.251.275.005 1.446 2.171 1.419 3.09-.008.216-.464 1.185-.494 1.143-.026-.039 2.352.683 2.622.457 1.003-.858-2.382-4.657-.377-5.097.804-.174.748 1.419.952 2.304.022.099.48 3.04.335 2.886.864.953 5.063.215 5.965.16 1.005-.063 9.058-.143 3.88-1.896-.36-.121-3.7-1.263-3.826-1.225-.76.231-.11 1.837-1.105 1.725-.922-.1-.341-2.017-1.011-2.591-.038-.03-1.572-.548-1.6-.532-.746.449 1.998 4.559-.154 4.032-.832-.207-1.324-4.867-1.569-5.131-.48-.516-2.326-.848-3.084-1.24-4.015-2.072-7.852-4.456-10.892-5.731.675.283-2.096-.207-1.724-1.099.129-.298.802-.118 1.022-.08 3.65.631 8.988 4.533 12.491 6.262 3.48 1.72 9.518 3.759 11.318 4.305.4.119.458.463 1.488.705 1.896.449 1.32-.555 1.183-.704-.294-.312-2.246-.717-2.4-.804l-.014.003zm51.798 42.253c-.488.965.75 4.053 1.456 5.297 1.793 3.141 6.582 9.645 8.674 11.841 1.706 1.791 2.241 1.451 3.456 2.936 2.342 2.86-2.79-.707-3.777-1.682-2.295-2.269-3.263-4.237-4.597-6.086-2.41-3.347-5.551-7.075-6.371-10.134.067.241.296-1.809-.256-1.866-1.173-.118-.256 2.913-.354 2.447.976 4.612 3.032 8.317 5.047 12.201.835 1.61 1.291 3.739 2.133 5.002 1.171 1.757 3.58 4.105 5.553 5.726 3.604 2.962 6.925 3.797 10.262 5.573 3.494 1.859 7.027 5.524 10.572 6.984-.404-.166 2.691.791 2.398.798.427-.012.482-1.265 1.056-1.268.377-.004 1.015.903 1.208.77.075-.054 1.282-3.206 1.183-3.37-.717-1.218-4.087 2.591-4.803 1.062-.531-1.127 4.509-2.436 4.716-2.821.664-1.205-1.756-5.732-3.167-5.662.147-.008-.75 1.366-.49 1.146-.377.322-5.16 1.38-5.1.391.081-1.383 5.014-.531 5.183-2.035.139-1.227-.321-.136-.92-.83-1.007-1.164-1.066-.408-2.387-.064-1.566.409-1.559.107-2.795-.567-2.333-1.272-6.77-2.666-10.03-5.182-.972-.75-2.559-2.318-3.695-3.325-1.578-1.404.022.87-1.847-1.667-1.257-1.703-.777-1.806-.43-1.976.644-.315 1.24 1.171 1.501 1.445-.688-.722 5.678 5.249 7.781 6.42 1.27.708 2.526 1.82 4.008 2.073.14.021 3.06-.909 2.923-1.535-.048-.218-2.006-1.393-2.239-1.428-.211-.033-1.211.856-1.289.88-1.047.343-2.342.141-2.449-.347-.284-1.31 2.23-.666 2.077-1.348.043.198-2.413-1.306-3.262-1.353-1.259-.071-.795 1.144-1.978.441-.25-.149.145-.828-.136-1.301-.627-1.058-2.622-1.326-3.211-1.804-.586-.476-1.379-2.258-2.206-2.621-.534-.238-1.17.242-1.535-.252-.303-.403.291-1.216.19-1.819-.23-1.43-2.849-3.848-4.139-6.039-1.264-2.145-3.173-6.716-4.045-6.948-.832-.224-3.603 1.34-3.884 1.893l.015.004zm-49.73-31.465c-2.999.307-6.472.028-9.133.243-2.736.225-5.97 1.176-9.22 1.895-7.625 1.687-15.668 3.629-22.889 5.8-1.644.495-2.863 1.301-4.447 2.022-.875.401-2.39.393-3.112.688-2.166.894-4.8 2.988-6.682 3.996-1.206.644-2.898.955-2.75 1.646.09.426 2.683 1.523 3.496 1.74 4.225 1.151 14.155.123 17.533-.476 1.28-.228 1.2-.635 2.197-.783-.006.001 2.362-.367 2.338.52-.006.24-1.696.797-2.308.957-6.01 1.547-13.722 1.998-19.908 1.146-.907-.124-2.42-.657-3.183-.333-2.482 1.051 2.246 2.08 3.508 2.482 3.758 1.198 6.145 1.704 9.004 1.853 1.573.084 3.1.518 4.551.473 1.36-.041 3.103-.79 4.806-1.066 5.453-.882 9.123-2.496 14.5-4.833 4.313-1.875 9.419-3.959 13.96-6.641 1.394-.82 4.538-2.214 4.605-2.647.108-.664-3.774-3.298-1.95-4.154.836-.393 2.739 3.578 3.016 3.624.222.034 1.866-1.346 2.407-1.864 1.626-1.556 3.294-3.619 1.397-4.448-.287-.127-3.686 1.258-4.292 1.388-.482.107-2.401.359-3.562.64-.276.068-3.402 1.088-3.405.013-.004-1.5 5.4-1.596 6.834-1.958.932-.234 3.85-1.381 3.142-1.878-.116-.085-.346-.061-.457-.047l.004.002zm42.54 32.464c-.737.716-.396 2.948-.379 4.372.025 1.786-.339 3.319-.201 4.485.248 2.092 1.125 3.52 1.238 5.646.107 2.003-.164 4.038-.458 6.018-.279 1.888-1.223 4.186-1.136 6.317.009.216.401.631.531 1.066.402 1.374.016 3.738.434 5.378.429 1.669 1.284 3.468 2.087 5.455.729 1.81 2.174 3.565 2.931 5.268.57 1.272.714 4.819 1.506 4.848.622.021.837-1.43 1.278-1.614 1.263-.529.694.794 1.707.362.53-.224-.1-.614.49-1.146.626-.56 1.811-.667 2.14-1.065.681-.825 1.679-4.898 1.652-5.988-.176-6.473.083-11.313-2.423-17.813-1.101-2.858-2.086-5.774-3.335-8.437-1.294-2.771-2.758-5.628-3.786-8.485-.584-1.621-.722-4.603-1.222-4.91-.529-.326-2.714-.102-3.059.234l.005.009zm35.726 23.023c-1.708 1.629 2.627 1.431 2.621.457-.006-.725-2.187-1.587-2.127-1.601.103-.019-.368 1.026-.494 1.144zm-72.954-38.016c1.51-1.658 7.088-6.834 2.473-7.65-.72-.124-2.058 1.248-2.75 1.646-1.036.599-2.725.81-2.468 1.587.147.452 2.18.21 1.896 1.209-.616 2.149-3.289-1.637-2.526-1.367-.459-.161-4.93 1.8-5.751 2.161-2.126.937-3.448 1.887-5.624 2.724-1.996.77-3.85.966-5.812 1.878-1.553.724-4.38 1.179-5.924 2.05-.426.24-.716.888-1.34 1.331-1.462 1.042-3.307 1.994-4.542 2.931-.788.593-1.307 1.465-2.173 2.258-4.138 3.796-8.357 6.956-11.92 12.555-.913 1.426-3.758 6.479-3.16 7.211.511.627 2.091-.981 2.952-.058.67.716-.514 1.908-.247 2.271.075.104 2.403.471 3.187.336 1.634-.292 4.798-2.525 6.744-3.712 2.54-1.558 4.569-3.21 6.497-4.841 5.606-4.733 12.196-8.832 17.185-13.567.05-.042.061-.131.11-.173 4.334-3.332 9.259-6.434 13.2-10.764l-.007-.016zm34.781 14.653c-.985.58.393 3.025.474 4.183.035-.755.699-4.882-.474-4.183zm-26.346-16.072c-2.375 1.805-4.479 3.726-6.485 5.574-7.116 6.55-13.855 17.631-18.197 26.517-.358.737-1.09 2.427-1.583 3.605-1.763 4.249-3.424 11.083-3.136 14.751.11 1.397 1.01 3.985 1.666 4.217.406.145.78-.837 1.287-.876 1.092-.093 1.916 1.011 2.684.741.83-.294 3.178-2.961 4.122-4.17.969-1.238 1.653-2.81 2.65-4.138 1.57-2.097 3.426-3.825 4.333-5.25 5.308-8.315 8.554-18.156 12.809-26.065.765-1.425 2.475-3.501 2.366-4.075-.1-.552-1.137-.243-1.077-.205-.535-.341-3.045-2.027-2.375-2.728.949-.995 3.351 2.187 4.057 1.616 1.419-1.144-3.537-1.994-1.875-3.137.937-.639 3.186 2.526 3.64.381.253-1.2-3.083-.967-2.428-2.274.532-1.052 3.388 1.121 3.813.484.482-.708-.086-.548-1.22-1.504-1.672-1.418-2.087-1.274-3.294-.16-1.1 1.018-3.774 4.795-4.691 4.295-.723-.393 2.141-3.413 3.154-4.543.701-.784 2.122-1.693 2.061-2.084-.116-.749-1.336-1.085-1.724-1.099-.237-.01-.362-.027-.564.128l.007-.001zm2.018 17.311c1.782-2.252 4.825-4.63 6.298-6.425.496-.598 2.155-2.939 2.098-3.276-.158-.957-2.326-1.716-2.696-1.475-3.267 2.127-5.8 10.42-8.49 14.01 1.503-.25 1.642-1.387 2.79-2.834zm16.796 2.941c-2.854 5.863-6.027 14.36-7.054 21.241-1.09 7.306.156 13.179 1.602 19.475.304 1.34 1.029 3.317 1.506 4.847.388 1.245 1.543 4.78 2.244 4.829.52.037.109-1.11.709-1.488 1.211-.766 1.166.879 2.102.126.997-.795.959-4.473 1.359-6.664.464-2.575 1.249-5.093 1.747-6.898.539-1.949.958-4.462 1.636-6.725 1.333-4.445 1.623-8.396 1.875-12.401.121-1.863.186-3.859.127-5.502-.111-3.254-.526-8.529-1.617-10.74-.07-.147-2.338-2.591-1.922-2.683-.945.209-1.989 6.505-.568 6.191 1.301-.288-1.004-3.568.795-3.136 1.178.286.803 3.979.718 5.315-.234 3.704-.334 6.818-.832 10.393-.302 2.162-.548 4.689-1.07 6.603-.156.571-.97 3.082-1.892 2.193-.655-.633.64-2.026.7-2.226.473-1.696 2.411-11.894 1.135-12.39-1.117-.434-.236-.854-.478-1.519-.282-.764-1.518-1.439-1.502-1.446-.515.114-1.565 4.002-1.788 4.688-1.588 4.905-2.645 9.77-2.76 13.782-.022.673.377 1.608.322 2.146.032-.326-.245 2.091-.932 1.835-.622-.233-.392-5.692-.149-8.108.618-6.012 3.631-11.973 5.299-17.747.406-1.415.525-2.911.831-4.327.274-1.278 1.66-4.372.77-4.611-1.035-.279-2.398 3.868-2.918 4.938l.005.009zm-8.617-8.894c-2.322 2.855-5.776 5.743-8.632 9.307-3.889 4.851-7.208 10.538-9.484 15.561-3.552 7.858-7.266 15.931-7.701 23.013-.03.48-.013 7.068 1.381 4.28.742-1.485.887-.632 1.731-1.569 1.486-1.646 3.494-6.465 5.18-8.841.402-.566 1.92-2.316 1.768-2.76-.388-1.103-4.024.244-3.653-1.114.493-1.814 2.42.391 4.085-.312.57-.244 1.657-1.145 1.384-1.79-.277-.648-4.845.854-4.394-1.1.243-1.042 4.581.339 5.496-.621.196-.209.48-1.334.432-1.427-.378-.666-5.163 1.066-4.724-.583.08-.295 2.64-.944 3.957-.876.372.022 1.19.453 1.43.424 1.118-.116.842-2.023 1.521-.489.173.394-1.466 3.361-1.69 3.78-1.217 2.3-4.709 6.752-6.735 10.516-.673 1.256-.987 2.542-1.471 3.431-.759 1.406-2.598 3.048-2.551 3.231-.003-.013 1.781.937 1.838.928.725-.167 3.563-3.908 4.612-5.316 1.465-1.959 2.487-4.174 3.977-6.208 1.961-2.682 4.053-5.178 5.374-7.258 5.564-8.732 9.08-18.339 11.495-26.661.085-.292 1.369-5.811.964-6.427-.977-1.485-2.287-.857-2.507-.628-1.432 1.447-3.981 4.231-4.901 5.375-1.951 2.445-4.512 6.39-7.118 8.087-2.461 1.603.687-2.427 1.862-3.67 2.61-2.756 4.867-5.544 7.119-8.086 1.215-1.376 3.886-4.235 1.631-4.061-.906.069-1.009 1.036-1.666 1.848l-.01.016zm12.576 17.49c1.104-.244-.757-4.37-1.603-3.934-1.171.599 1.555 3.948 1.603 3.934zm-55.325 20.083c.05.31 1.003.293.75.723-.394.668-1.466.023-1.476.029.019-.011-3.213 3.052-3.606 4.498-.065.242.462 1.367.478 1.519.12 1.087-.084.503.025 1.475.28 2.476.546.892 2.029-.892 1.47-1.763 3.483-3.357 3.832-4.842.154-.673-.129-5.155-.092-5.16-.978.165-1.94 2.633-1.938 2.646l-.002.004zm-6.636 9.609c.034.725-.416 3.65.346 3.62 1.587-.061 1.338-6.666.79-6.538-1.428.337-1.153 2.572-1.136 2.918zm-2.523 2.034c-.927 1.174-.607 2.87-.436 4.091-.138-1.007-.049 1.138.247 1.128.241-.005 1.157-1.311 1.277-1.614.165-.417.089-5.079-.203-4.987-.129.043-.56.971-.882 1.378l-.003.004zm-2.842 9.361c1.42-.314 1.213-6.632.79-6.538-2.143.478-.922 6.567-.79 6.538zm64.779 37.904c-.26-.081-.525-.624-.751-.722-1.089-.468-4.199-.261-6.076.012-2.309.338-5.161 1.419-7.4 2.08-1.447.428-2.93.6-3.788.984-2.41 1.079-1.576 1.406-1.752 3.496-.063.737-.68 2.018-.635 2.506.044.419 1.32 1.171 1.233 2.245-.01.14-.711.845-.487 1.141.689.916 2.437-.369 3.81.489 1.312.82.664 2.46 1.432 3.829.06.101.788-.07 1.083.203.475.445.132.884.137 1.302.025 2.263.416.589 2.118.862.478.078 1.936.554 2.354 1.257.182.309-.502 1.173-.256 1.533.492.728 1.076.125 1.834.926.929.984-.286 2.235.446 2.713.603.396 2.046-.92 2.312-.954.498-.069 1.598.002 1.992.299 1.209.902-.098 2.321.334 2.886.801 1.044 2.613-.581 3.533.55 1.127 1.383-1.553 2-1.252 3.089.163.586 1.767-.564 2.386.063.116.12.042 2.041.152 2.038.426-.018 4.399-5.894 4.48-6.614.029-.249-3.043-4.563-.755-4.125.506.096.575 2.387 1.407 2.355.157-.007.815-1.698.82-1.661-.005-.054-2.771-2.828-1.481-3.373.77-.326 1.417 1.658 1.955 1.49.227-.071.374-1.469.321-1.253.627-2.449-.212-.351-1.332-1.338.322.285-.944-1.112.429-1.423.771-.177 1.133 1.233 1.155 1.225.546-.304.346-2.356.478-1.88-.189-.671-1.192-.255-.871-1.287.251-.817.862.044 1.349-.593.472-.613-.248-5.997-1.085-3.609-.419 1.203-3.696 9.799-5.053 9.404-1.427-.41.446-2.768.131-2.101 1.725-3.666 3.256-6.101 3.924-9.153.859-3.918-1.875 1.262-2.741 2.383-.491.635-5.121 6.155-5.758 4.829-.355-.737 2.427-2.867 2.946-3.466.559-.643 2.322-2.969 2.886-3.744.736-1.017 2.644-3.518.919-2.569-1.256.686-1.082 1.637-1.966 1.175-1.831-.957 2.462-2.754 2.444-3.055-.039-.717-1.995-1.312-1.612-1.272-.134-.012-.409.789-.552.862-1.496.777-2.055-.351-2.717.453-.01.016 1.034.67.42 1.238-.939.865-1.145-.85-1.377-.878-1.121-.153-3.78 2.112-4.935 3.163-.783.71-5.549 5.371-6.219 4.779-.735-.65 1.986-3.313 2.934-4.201 2.617-2.456 7.721-5.654 10.847-5.947 2.171-.211-3.125-2.719-3.114-2.718-.264-.1-.655.19-1.021.081l-.015-.004zm-68.258-38.908c.044-.159.529 1.006.531 1.065.04.893-.592 2.022-.573 2.789.049 1.978 1.79.199 2.185-1.517.052-.223-.41-.795-.42-1.239-.017-.805.737-3.576-.009-3.404-.628.15-1.637 2.026-1.714 2.306zm-3.706 5.405c.01-.061.577.612.577.612.088.306.212 2.246.273 2.603.258 1.492 1.14-.221 1.513-1.22.613-1.658-.002-5 .617-6.649-.39 1.771-2.608 2.559-2.98 4.654zm-2.209 3.449c1.29.368-.059 4.961.928 4.235 1.392-1.031.947-4.844.911-5.973-.044-1.561-2.148 1.104-2.576 1.756-.493.752-.738 1.833-1.2 2.634-.648 1.119-1.722 1.972-2.444 3.055-1.8 2.705-3.514 5.947-5.284 9.012-4.428 7.657-9.683 15.854-14.674 23.663-2.364 3.701-4.582 8.138-6.49 11.648-3.538 6.516-7.899 12.253-12.414 19.764a967.526 967.526 0 00-8.647 14.642c-2.439 4.199-6.632 9.799-6.71 11.991-.004.184.637.672.872 1.287.239.601.569 2.388.684 3.103-.238-1.479-.407 1.273.248 1.135.245-.054 1.694-2.211 1.706-3.044.005-.496-.674-.055-1.035-.66-.203-.339.054-1.616-.104-2.494-.2-1.156-1.279-2.218-.037-2.209 1.633.009.765 4.454 1.996 3.701.467-.286 1.718-3.903 2.514-5.439 5.17-10.021 11.793-20.449 18.401-31.006 1.963-3.135 3.476-6.914 5.213-10.034 4.174-7.501 8.737-14.846 12.892-21.644 2.08-3.406 5.552-9.244 8.045-13.323 1.347-2.2 7.182-8.398 7.255-10.185.012-.276-.992-.099-1.155-1.224-.151-1.022.658-4.517 1.112-4.393l-.007.002zm52.197 35.954c-.417.261-1.348-.605-1.599-.532-.701.2-3.824 2.385-4.249 3.606-.223.641.842 3.556 1.088 3.605.952.187 1.366-1.717 2.617-2.944.493-.486 2.017-.422 2.907-2.272.618-1.275-.102-2.284-.21-2.319-.071-.022-.461.807-.553.862l-.001-.006zm-17.904 27.192c.143-.17-.908.312-.85.185-.408.868-.192 6.72 1.077 2.871 1.069-3.228 4.23-7.261 6.12-9.938.828-1.168 3.541-5.856 4.469-3.948.413.842-1.344 1.628-1.327 2.071.015.304 1.706.94 1.567 1.725-.44 2.466-2.005-1.165-2.178-1.151-.163.015-2.197 2.447-2.098 3.276-.01-.091 1.389.744 1.145.486.58.619 1.126 2.466.9 2.758-1.499 1.95-1.956-3.216-2.33-3.181.413-.033-1.889 1.462-1.938 2.645.004-.111 3.174 1.632 2.38 2.731-1.164 1.596-2.338-2.654-2.82-2.042-1.012 1.296 2.518 3.133 1.1 4.345-1.497 1.276-.747-2.604-2.032-2.51-1.333.098-2.731 6.327-2.72 6.522.019.432 1.176 2.645 1.467 2.632.64-.024.88-2.134.874-2.116 2.86-5.785 6.813-9.036 11.269-14.178 3.194-3.695 6.989-6.042 8.69-9.026.315-.553 1.029-3.049.737-3.417-.383-.482-2.143-.56-2.671 0-.087.092.295.54.186.851-.64 1.787-1.01-.202-1.707-.363 0 0-4.079 1.332-4.027 3.26.006.265 1.188.491.7 1.173-.977 1.385-1.208-.583-1.599-.531-.92.117-.979 2.343-2.139 1.064-1.064-1.172 3.594-5.062 4.493-5.873.81-.733 3.346-4.064 1.138-2.918-2.563 1.328-8.53 7.862-11.434 11.406-.683.836-1.445 1.406-1.777 2.022-.348.641-2.083 3.881-2.833 3.29-.829-.654 1.257-1.9 1.468-3.434.18-1.298-1.117-2.108-1.063-2.13-.555.22-1.253 2.027-1.814 3.213-.948 1.994-1.509 3.94-1.405 7.116 1.542-4.629 3.527-1.876.982 1.114zm24.532-15.193c-3.288 2.478-6.903 6.431-10.425 10.592-2.913 3.443-6.182 6.545-7.892 9.296-.782 1.255-1.327 1.531-2.05 2.818-.222.392-1.57 3.249-.194 1.817 3.94-4.087 5.235-6.995 9.168-10.905 2.29-2.274 4.001-4.724 5.672-6.58 1.264-1.407 3.508-2.582 4.531-3.665 1.118-1.188 2.499-3.434 1.578-3.607-.263-.049-.168.068-.395.236l.007-.002zm-.581 5.458c-.613.346-1.147.153-1.525.486-.446.396-.568 1.073-1.104 1.724-1.049 1.284-2.77 2.785-4.237 4.341a62.2 62.2 0 01-2.676 2.663c-3.048 2.856-5.937 5.923-8.017 8.728-.422.571-2.558 3.481-2.536 3.96.013.423 1.361 1.124 2.014 1.778 1.258 1.251 2.336 2.676 4.308 2.748 1.138.038 4.921-2.265 5.222-3.231.3-.955-1.958-3.194-.94-4.968.114-.206 1.177-.555 1.462-.77 2.066-1.56 5.006-5.292 7.132-7.346 1.326-1.283 2.431-2.91 3.954-4.278.34-.31 6.134-4.69 4.038-5.925-1.006-.59-3.915 3.014-4.752 4.012-.291.348-2.237 3.652-3.096 1.425-.266-.692 6.8-6.882 5.531-7.884-.926-.733-2.868 1.45-4.778 2.537zm6.721 4.285c-.767.657-2.752 2.586-2.791 2.834-.02.111.787.427.862.549.175.276.74 3.139.067 3.686-1.053.855-1.006-1.095-1.109-1.678-.465-2.719-2.254-.687-2.251 1.238.001.557.407.498.594 1.349.151.703-.393 2.428.652 1.63 2.494-1.911 5.387-5.542 7.245-7.524 1.156-1.237 3.866-3.283 1.909-4.122-.543-.233-3.776.821-5.182 2.035l.004.003zm-20-13.479c-.633-1.845.08 1.017.074 1.018 1.547-.007.834-5.216-.203-4.987-2.262.504-.016 3.548.129 3.969zm26.79 15.379c-2.588 1.755-6.585 5.403-9.447 8.305-4.792 4.86-8.16 7.258-13.253 11.217-1.536 1.194-.131 1.188.64.896.278-.106 1.318-1.083 1.509-1.222 2.971-2.152 6.467-4.485 8.842-6.988 2.733-2.877 4.134-4.418 6.802-6.83 1.613-1.457 5.952-4.291 6.092-5.342.03-.225-.681-.168-.63-.158-.232-.046-.372-.005-.565.128l.01-.006zm1.871 3.134c-.517.17-1.391.402-1.525.486-1.516.951-.125 1.736-.808 2.396-.626.605-2.726-.507-3.158 1.141-.078.291.632.5.751.723.318.6-.383 1.447.478 1.519.424.038 5.583-5.298 6.018-6.359.153-.38-.271-.162-.346-.221-.237-.179-.895.15-1.414.313l.004.002zm-30.648-15.41c.911-.015.39-4.682-.534-4.471-1.952.446-.312 4.482.534 4.471zm-3.421-.723c-.153.867 1.238 2.98 1.245 2.978 1.411-.309.184-4.484-.471-4.187-.145.066-.725.945-.775 1.209zm-116.463-61.388c-.413.451-1.912 2.543-1.876 2.929.004.031 1.33 1.024 1.504 1.442.206.511-.508 1.803-.242 2.273.477.849 2.053.992 2.365 1.991.576 1.854.472.273 1.869-.261.724-.281 2.864.22 3.59.831.192.162.544 1.152.702 1.179.989.148 2.037-1.851 3.27-1.314.256.113.707 1.126 1.155 1.224.26.053 1.12-.597 1.351-.596 2.938 0 1.357 3.203 2.627 3.859.093.049 1.05-.851 1.633-.655 1.283.432.876 2.244 1.199 3.431.698-6.074-.895-12.078-2.753-17.297-.109-.291-.554-2.969-.815-1.002-.142 1.062-.866 7.647-2.72 6.522-.715-.433.36-.889.647-1.772.46-1.409.353-3.464.486-4.548-.544.76-.616 1.112-.994 1.551-2.073 2.441-.827-1.48.169-3.291.718-1.307.75-2.348-.483-1.522.996-.67-.482.788-.771 1.205-1.206 1.722-2.363 7.328-3.582 5.972-.628-.701 2.94-7.352 2.646-7.539-1.376-.889-5.015 7.033-6.125 6.535-1.572-.707 2.175-5.274 2.624-5.612-2.308.531-5.277 2.077-7.47 4.464l-.006.001zM92.4 284.779c1.628-.045.503-4.548-.19-4.246-1.428.627-.38 4.269.19 4.246zm28.725 18.803c1.676.11.359-3.34-.397-3.169-1.716.386-.559 3.104.397 3.169zm-8.658-1.639c.242.047 1.496-1.009 1.512-1.22.028-.442-.865-.172-1.145-.487-.501-.563.006-2.356-.508-2.996-.044.829-.359 4.606.141 4.703zm5.697 4.359c1.729.319 1.563-3.503.388-3.634-2.208-.245-1.538 3.429-.388 3.634zm-8.5-2.259c1.823.572 1.291-4.919.707-4.894-2.091.096-1.009 4.798-.707 4.894zm.157 5.44c-1.714 1.375-3.702 2.627-1.389 1.787 1.155-.422 3.045-.964 3.727-1.267 1.441-.647 4.396-2.287 4.653-3.105.207-.651-.783-2.053-1.34-2.068-1.303-.037-4.296 3.564-5.651 4.653zm-2.5-3.296c1.147.095.805-4.356.375-4.375-1.547-.073-.364 4.376-.375 4.375zM-9.325 247.354c-.312.743-.805 4.48-1.913 4.12-1.009-.32.13-1.983.515-3.071 1.607-4.598 4.613-9.389 5.254-13.888.548-3.839-1.863 1.014-1.855 1.002-1.406 2.797-2.312 6.47-3.623 9.827-.361.927-.346 1.992-1.03 2.742-.497.546-.936.328-1.29.88-.62.967-.633 2.468-1.286 4.275-.175.485-1.388 4.319-2.382 3.339-.654-.644.903-1.313.526-2.337-.188-.511-1.776.099-1.55-.988.182-.894 2.277-.642 2.86-1.819-.187.373.239-1.063.031-1.19-.621-.384-1.241 2.018-2.417 1.126-1.395-1.053 2.696-2.446 3.18-3.068 2.964-3.824-3.445.402-4.037-.145-.436-.408.226-3.318 1.317-2.809.961.448-.417 1.714 1.146.487 1.117-.877 2.33-.274 2.936-.795.263-.224.394-1.173.648-1.772.711-1.669 3.006-6.209 3.75-9.264.446-1.849-.07-4.266-.645-4.298-.547-.031-2.665 1.7-2.786 2.837-.036.312.844.85.59 1.346-.081.17-2.2 1.565-2.766.909-1.038-1.212 3.078-5.311 1.59-6.272-.713-.454-2.901 1.856-3.083 2.166-.246.41-.17 1.106-.367 1.706-.836 2.554-2.54 5.798-3.544 8.181-1.192 2.826-3.443 8.28-3.662 11.022-.044.574.27 1.058.2 1.581-.132 1.022-1.68 4.899-.175 5.96.168.118 2.194.054 2.1.13.386-.321.367-2.053.464-2.62.134-.749.319-1.959.465-2.621.07-.34.598-5.644 2.072-4.75.173.111-.535 3.829-.658 4.437-.411 1.997-.567 4.02-.878 4.78-.146.361-.772.666-.728.756.004.003 1.768 1.099 2.634 1.191 2.852.31 6.455-3.226 8.336-6.578 3.418-6.082 5.153-14.049 4.907-17.509-.808 3.662-2.676 5.835-4.854 10.989l.008.005zm114.128 60.87s1.401-.594 1.62-1.396c.023-.071-.645-.348-.689-.439-.379-.86.694-2.349-.383-2.429-1.795-.129-1.83 4.105-.548 4.264zm-130.424-83.159c.548-.122.685-2.673-.388-2.432-1.641.366-.072 2.53.388 2.432zm-4.386 30.71c.317-.07.208-1.972.196-1.821.248-3.042.693-4.075 1.661-8.65.408-1.93 1.197-6.818 2.5-6.179.58.29.054 2.156-.233 3.012-.636 1.914-1.15 3.494-1.38 5.191-.34 2.49-.047 1.145 1.06 2.135.487.435 1.116 3.384.694 3.84-.925 1.011-1.25-1.58-1.22-1.504-1.408-3.468-1.907 1.622-1.874 2.925.034 1.4.279 2.646.681 3.107.27.314 2.296 1.543 2.912 1.13.377-.253-.04-2.187-.038-2.208.035-1.391.962-6.026.729-6.822-.152-.516-.506.126-.973-.376-.277-.302-1.265-3.054-1.023-3.325 1.631-1.848 1.833 4.443 2.696 1.475.454-1.577.213-.466-.594-1.349-.32-.351-.213-1.27-.436-1.975-.335-1.115-1.407-2.673.073-2.381.445.084 1.27 3.419 1.76 3.307.186-.041 1.245-2.572 1.145-2.919-.145-.473-.837.261-1.364-.138-.245-.184-.978-2.785-.792-2.934.5-.401 1.058.226 1.488.705.234.263.347 1.521.764 1.463.116-.022.927-1.889.931-1.834-.008-.085-1.04-.358-1.145-.487-.197-.25-1.298-3.659-1.259-3.719.119-.186 1.453-.737 2.338.52-.044-.056-.009 2.52.38 2.433.384-.084.588-1.492.759-1.945.595-1.55 2.471-5.665 2.377-6.74-.255-2.807-2.58-1.504-3.578-.097-1.312 1.853-3.206 8.317-3.995 8.132-1.739-.411.934-4.415 1.747-6.898.757-2.315.654-6.608-1.591-3.2-.998 1.514-1.415 3.626-2.23 5.376-1.85 3.979-2.628 5.599-3.97 9.607-.216.639-.29 3.986-1.067 3.933-1.11-.073.205-3.047-.677-3.105-1.288-.078-1.072-2.425-1.686-2.289-.225.049-.483 2.87-.453 3.354.12 1.762 1.387 5.378 1.94 6.826.082.217 1.34 4.735 2.747 4.424zm1.826-30.884c-.602.223-1.538 2.004-1.48 2.693-.042-.503 1.095-.011.847-.191.908.663.74 4.318 2.177 1.143.31-.687 1.257-2.325.903-3.305-.696 2.672-1.703-.626-2.448-.347l.001.007zm-4.341 7.911c.11.553 2.737 3.243 2.5 3.296 1.317-.295-.155-2.947-.287-3.343-1.415-4.068.289-3.062 1.35-.592.062.141-.21 1.08.36.961 1.37-.307-1.352-5.327-1.458-5.304-.535.118-2.72 3.769-2.465 4.982zm117.64 76.222c-.412 1.059-.969 2.583-1.632 4.061-.933 2.095-2.684 4.36-2.622 5.608.036.67.919.541 1.097.944.129.286-.405 3.368.286 3.343-.158.007 1.178-.645 1.496-1.963.169-.681-2.47-6.166-.093-5.16.142.062.567 3.959 1.317 4 .796.042 1.108-1.234 1.673-1.85 1.102-1.198 2.282-1.581.978-2.288.286.155-1.44-5.066.08-5.049.778.007.784 2.247.78 2.193.003.047.007 2.343.383 2.429.56.136 2.456-2.366 2.96-2.726.915-.659 1.89-.128.256-1.533-1.397-1.203-5.128-6.277-5.224-6.242-.79.296-1.467 3.53-1.74 4.23l.005.003zm27.117 20.933c-.601.655-.566 2.823-.783 3.87-.191.917-1.514 4.232-.28 3.465 1.433-.891 3.219-1.653 4.501-2.476 1.586-1.025 6.699-3.616 3.939-5.018-1.344-.681-6.78-.499-7.375.155l-.002.004zm-39.304-29.186c-2.327 6.308-4.536 10.279-5.892 16.399-.203.909-1.29 7.547-.654 7.839.555.258 2.184-1.223 1.57-.939.736-.342 1.395-.858 1.758-.088.83 1.75-3.07 1.146-4.044 2.517-.211.302-.19 2.591-.008 2.668.729.305 1.96-2.512 2.988-1.256.647.804-3.096 2.514-3.514 3.592-.295.761.308 1.883.263 1.865-.171-.052 3.207-2.041 3.475-2.398.965-1.268 1.61-5.657 2.3-7.753.913-2.789 1.693-4.936 2.016-7.698.308-2.607.18-5.072.324-7.324.187-3.001.933-5.379.15-7.433-.111-.287-.434-.368-.515-.329-.057.026-.2.286-.222.347l.005-.009zM-32.845 234.06c-.407.086-1.743 4.314-1.32 5.469.154.415.706-.05 1.146.486.654.803.104 2.937.9 2.758.415-.092.286-.714.378-.973.145-.412.49-1.032.49-1.146.004-1.325-3.246-4.112-1.208-4.169 1.527-.047-.148.984 1.501 1.445-.166-.503-1.257-4.013-1.885-3.874l-.002.004zm141.202 95.133c-.76.037-6.289.586-6.736 1.044-.232.238-.064 1.259-.194 1.817-.655 2.749-1.53 4.886-2.584 7.823-.545 1.525-1.847 4.843-2.354 4.809-1.172-.072 1.596-5.661 2.033-6.954.254-.752.756-2.668 1.014-3.479.326-1.012 1.822-3.809.387-3.64-1.052.129-6.367 1.343-6.723 1.785-.545.673-.036 1.526-.37 1.71-.813.446-.343-.633-1.488-.705-1.142-.075-4.99 2.283-5.062 2.6-.023.099.749.398.92.831.087.209.497 4.545.145 4.706-1.333.619-1.464-4.338-1.444-4.564.138-1.518-1.388-.391-1.694.378-.595 1.488 2.86 5.637.499 5.658-1.479.016-.5-4.745-1.68-4.958-2.222-.39 1.008 5.715-.052 6.52-1.316 1-1.34-4.752-2.417-4.939-.26-.047-1.354.68-1.506 1.218-.141.495 3.095 5.049.755 4.125-1.293-.513-.935-3.366-2.28-3.639-.475-.098-2.606 1.148-3.377 1.484-.386.169-3.553 1.333-3.55 1.38-.005.008 2.375 2.048 2.706 2.213.457.235 2.179.68 3.306.894 4.24.819 12.173.623 17.018-.805 3.723-1.093 4.553-2.425 6.236-6.708a35.51 35.51 0 001.393-4.451c.113-.434.315-4.379 1.521-3.888.634.257-1.416 7.018-1.516 7.289-.362 1.035-2.309 4.543-1.726 4.971.415.299 1.322-.842 1.067-.533.675-.807 1.751-3.531 2.027-4.298.162-.458 1.304-7.872 2.703-7.258.154.07-.345 2.168-.301 1.993-.514 1.998-1.309 5.355-1.811 6.618-.787 1.973-.991 2.246.478 1.52 1.589-.781 1.556-2.004 2.428-3.792.435-.891 1.517-7.884 2.992-7.319.398.158-.701 3.344-1.053 4.674-.177.682-1.693 4.396-1.332 4.735.147.133 2.518-1.107 2.861-1.819 0 0-.458-.871-.421-1.239.086-.779.848-2.421 1.13-3.649.571-2.512 1.138-3.354.321-3.92-.02-.013-1.231-.291-2.275-.237l.006-.001zm-67.046-6.331c-9.81 10.262-20 17.662-29.98 24.833-1.436 1.03-2.753 2.324-4.246 3.602-2.472 2.106-5.663 4.265-8.682 6.357-4.078 2.825-8.772 6.437-12.811 10.529-1.167 1.185-3.82 4.068-3.722 4.669.062.363 1.43 1.115 1.85 1.662.704.92 1.39 3.355 2.507.628.24-.585-.058-1.529-.556-2.539-.308-.628-1.858-2.155-1.014-2.588.796-.411 1.48 1.098 1.843 1.664 1.367 2.097.627 2.624 2.791.565 2.005-1.899 3.783-3.71 5.416-5.047.886-.729 3.967-3.565 5.54-4.48 1.72-1.003 2.583-.18 1.488.705-2.695 2.18-4.556 3.28-7.836 6.171-6.336 5.589-11.614 11.678-16.858 19.121-1.164 1.658-2.373 3.378-3.202 5-.264.519-.58 2.74-1.376 2.522-.911-.252-.061-1.969.073-2.382.31-.989.437-1.452 1.312-2.801 1.267-1.961 5.53-6.387 5.705-7.774.079-.619-.888-1.377-1.107-1.681.36.501-1.266-1.273-1.004-1.849.56-1.203 2.015.723 2.527 1.367 2.076 2.629.703-4.534-1.102-4.346-1.053.112-1.727 3.263-1.975 3.837-1.946 4.57-3.477 9.024-4.606 12.123-1.664 4.573-3.655 9.54-5.473 14.231-.888 2.288-.81 2.451.603 2.087 3.268-.844 5.446-1.43 8.3-2.726.58-.259 3.28-1.375 3.316-1.767.006-.098-3.524-2.928-2.454-3.749.748-.573 3.128 2.386 3.225 2.544.07.113.113 1.02-.095.91 1.021.549 5.107-1.828 5.75-2.161 2.165-1.094 4.335-1.543 5.862-2.334 1.997-1.037 4.432-2.52 7.14-3.948 4.771-2.519 9.236-6.577 13.968-9.309 2.62-1.513 5.084-2.546 7.137-3.944 7.963-5.42 16.04-12.986 23.656-19.882 1.147-1.039 2.877-2.234 3.348-2.961.313-.481.219-1.449.527-2.337 1.438-4.149 2.048-7.528 2.579-11.225 1.046-7.327 2.326-14.319 5.391-22.063 2.688-6.791 7.428-13.546 7.138-19.485-.037-.801-.525-.181-.737.018-.373.352-7.273 7.149-8.237 9.07-.308.615.001 1.3-.363 1.709-.259.289-1.076.086-1.416.317-1.107.736-5.017 6.664-5.095 7.193-.03.214 1.314 2.739 1.185 2.702-.143-.052 1.11-.927 1.243-.428.466 1.778-3.804 4.833-6.035 8.29-.289.451-.378 1.467-.654 1.773-.5.561-1.205.378-1.57.939-.491.766-.248 2.033-.525 2.333-.412.458-.86-.412-1.636.659-.701.971.12 1.308-.693 2.225-.1.112-1.113.329-1.24.423-.045.034-.434.286-.396.236-5.579 6.958-12.028 13.167-19.793 19.917-4.382 3.805-9.146 8.286-13.74 12.359-1.83 1.626-4.406 3.32-4.694 4.293-.303 1.039 1.014 2.985 1.492 4.107.286.67 1.89 4.354.13 3.969-.663-.144-.564-2.141-.73-2.65-.226-.694-1.831-4.226-2.124-4.265-.787-.099-.244.338-.719.75-1.072.94-5.243 3.716-5.526 5.221 0 0 .74 1.998 1.01 2.584.97 2.117 1.837 2.914 2.307 5.12.139.65.617 2.64-.525 2.333-.633-.172-.684-3.217-.745-3.387-.275-.793-.872-1.526-1.527-2.92-.202-.429-1.063-3.06-1.421-3.085-.57-.04-2.765 2.618-3.072 2.893-1.117 1.018-2.697 1.81-3.12 3.356-.171.623.896 2.807 1.666 4.217.182.327 2.944 3.931 1.666 4.217-.47.104-1.806-2.422-2.391-3.465-.75-1.335-1.356-3.594-2.28-3.638-.613-.027-2.54 1.865-2.614 2.947-.066 1.007 4.89 5.126 2.71 5.615-1.558.351-1.91-4.481-3.657-4.517-1.135-.025-3.041 4.518-4.073 3.713-.65-.5.73-2.275 1.64-3.323 4.632-5.337 8.994-9.394 13.433-13.775 5.463-5.386 10.715-9.726 16.813-15.263 5.412-4.908 11.043-9.858 16.813-15.263 1.696-1.586 5.168-4.093 5.635-5.39.254-.706-2.536-6.542-1.488-6.77 1.612-.357 1.34 5.61 2.713 5.61.077.004 1.502-1.283 1.666-1.848.138-.446-1.571-4.985-1.74-5.235.04.054-1.201-.834-1.155-1.224.121-1.137 4.526-4.19 5.808-5.28 5.545-4.726 8.518-8.244 12.966-14.56 3.927-5.582 8.482-10.242 11.155-14.008-4.993 5.379-12.047 12.009-17.226 17.422l.013.015zm-54.908-51.04c-1.402 1.33-.877-2.421-1.64-2.743-.173-.076-1.651.576-1.856 1.002-.367.759 1.114 3.945 1.323 3.999.236.065 2.947-1.883 3.646-2.283 1.476-.853 2.897-1.45 3.71-2.004.497-.342 4.383-3.629 3.26-4.719.03.018-3.383 1.264-3.83 1.439-1.334.516-3.255 1.204-3.537 2.114.494-1.603 1.469 2.656-.256 1.533-.846-.539-.256-.344-.201-1.581-1.427 1.741.493 2.187-.623 3.24l.004.003zm92.637 52.756c1.012-.694.818 1.265 1.6.532 1.07-1.008.254-1.239.02-1.928-.088-.26.121-4.156-.73-2.65-1.297 2.3-4.627 9.182-6.203 11.581-1.91 2.902-4.528 6.238-6.987 9.386-2.556 3.283-5.715 6.302-8.519 9.139-8.192 8.293-17.508 15.977-25.973 23.501-8.583 7.629-17.443 14.06-26.728 19.376-1.395.796-5.443 3.123-5.504 3.289-.024.064.73.215.8.265.883.649-.237 1.256-.772 1.205-1.054-.099-.29-1.115-.988-1.113-.824.003-2.395 1.526-4.605 2.648-1.621.822-4.474 1.806-4.782 2.534-.159.381.882.943.025 1.475-.986.619-.732-1.761-2.164-.41-.91.855.62 2.052-.811 2.4-1.256.305-.39-1.543-1.11-1.684.06.01-1.191.699-1.068.533-.459.627.329 2.656.45 2.716.02.013 2.018-.637 3.16-1.146 4.872-2.17 8.658-4.433 13.22-6.625 10.446-5.011 19.01-12.494 29.09-20.787 6.631-5.457 13-10.515 18.84-16.154 6.417-6.202 12.072-12.827 18.145-19.998 1.52-1.799 5.822-6.876 6.65-8.868.284-.675-.152-.959.258-1.537.583-.831 2.214-1.244 2.454-2.317.086-.365-1.097-.784-.479-1.519.658-.789.607.602 1.534.252 1.139-.432 1.623-2.427 1.876-2.93-.873 1.231-2.058-.257-.698-1.177v.011zm-106.915-63.8c-.819.437.51 2.923.508 2.996.018.522-.506 1.153-.645 1.768-.267 1.118-.335 2.595-.612 3.985-.303 1.509-.932 2.889-1.287 4.275-.232.93-.008 2.032-.233 3.012-.555 2.477-1.671 5.301-2.583 7.823-1.166 3.246-1.16 6.779-1.99 9.172-.565 1.626-2.08 3.673-1.853 4.408.267.857 1.534-.094 1.095.937-.495 1.171-1.604-.178-1.857 1.005-.217 1.003 2.027 1.35 1.01 2.585-.438.533-1.597-.536-1.597-.536-1.269.644-.137 2.489.224 3.06.715 1.142 1.174 1.957 1.43.423.642-3.88 1.802-8.718 2.609-12.414.369-1.683 1.256-3.387 1.338-4.736.034-.585-.456-.864-.31-1.412.514-1.971 2.582-5.589 3.048-7.034.063-.187-.031-1.058.194-1.817 1.008-3.38 3.855-9.65 6.795-13.638 1.516-2.057 1.172-1.511-.215-2.321-.186-.108-4.902-1.634-5.08-1.542l.011.001zm8.346 15.762c-1.493-.351-.532-4.595-1.224-4.906-1.273-.579-3.139 2.873-4.3 4.057-1.224 1.256-3.723 3.936-3.248 5.453-.145-.456 1.072-.293.96-.358.645.393-.014 2.714 1.246 2.979.537.109 2.731-2.016 2.849-2.553.077-.36-.686-.506-.751-.723-.258-.846-.023-2.523-.175-3.516.697 4.552-.842-1.706.083-1.644 1.129.079 1.2 5.209 1.852 5.068 1.011-.224-.05-1.428-.15-2.042-.23-1.401-.757-5.272.19-5.219.607.036.493 2.091.619 2.824.598 3.519.603 2.529 2.902.392 1.032-.965 1.929-.808 1.388-1.788-.614-1.112-.384-4.075-1.206-4.173-2.983-.353 1.28 6.688-1.025 6.144l-.01.005zm-22.978.647c.135.001.74-2.581 1.73-1.569 1.002 1.03-1.499 2.324-1.644 3.32 0 .028.569 1.6.94 1.57 1.098-.094 1.15-3.982 2.44-3.057.321.233-1.418 4.622-1.054 4.673.992.133 1.774-4.39 2.853-2.55.5.847-2.772 4.275-1.398 4.448.88.113 1.024-3.28 2.285-2.424.889.595-.08 1.038-.811 2.399-.386.718.384 3.173 1.245 2.979.218-.048.453-3.451.456-3.359-.008-5.866-2.131-13.478-4.934-18.443-.93-1.638-2.453-3.227-3.154-4.922-.245-.599-1.572-6.506-1.986-2.963-.355 3.042-.511 7.102-.17 9.357.367 2.429 1.366 3.968 2.001 7.103.162.818.064 3.434 1.197 3.435l.004.003zm107.544 57.886c-1.048 2.566 4.556-1.986 2.796-2.099-.034.001-2.56 1.518-2.796 2.099zm.388 2.432c-.633 1.997 2.213-.808 1.114-.987-.328-.055-.998.601-1.114.987zm-20.693-7.854c.303-.012 2.312-2.76 2.33-2.878.019-.125-1.646-2.883-1.408-2.351-.083-.189.114-.143-.173-.11-2.301.28-1.455 5.37-.751 5.343l.002-.004zm-73.696-47.472c.173-.394-1.454 3.403-.952 3.762.258.182 2.176-1.37 2.299-1.694.183-.491-.77-2.818-.903-2.761-.12.054-.39.563-.444.693zm69.723 47.611c-.089.403 1.572 2.795 1.353 2.809 1.413-.081 1.61-4.551.488-4.552-.329.001-1.738 1.253-1.841 1.743zm-1.52 3.888c.284.794.19 1.738.655 1.632 1.586-.351.714-4.612-.367-4.359-1.517.349-.495 2.164-.293 2.724l.004.003zm-1.925 3.386c.785 3.395 2.075-4.312.041-3.855-1.465.331-.192 3.214-.041 3.855zm-3.986-.595c.118-.486.472.919.531 1.065.412 1.057.014.031.417 1.236.102.309.82 2.481 1.125 2.414 2.037-.455.648-6.317-.34-6.288-.1.004-1.617 1.091-1.734 1.566l.001.007zm-3.126 2.614c-.098.392 1.063 2.386 1.187 2.698.362.94 1.017 2.838 1.354 2.809.15-.012 1.27-1.256 1.5-1.961.427-1.304-1.632-5.227-1.745-5.237-.315-.03-2.161 1.153-2.292 1.694l-.004-.003zm-60.995 45.607c1.573-4.757 2.572-9.346 2.7-14.06.117-4.345.184-8.7.051-12.592-.113-3.472-.905-7.512-.984-10.586-.147-6.03 1.032-10.669 1.847-17.281.415-3.384.304-7.098.931-11.3.654-4.384 1.504-6.412 1.348-10.064-.091-2.248-.704-.46-.894.644-.364 2.135-.467 4.333-.915 5.971-2.326 8.634-4.764 15.336-6.436 24.064-.739 3.881-.66 9.151-1.516 13.355.134-.669.03 1.875-.647 1.772-.398-.06.036-2.57.021-1.927.094-3.963.353-9.592 1.112-13.857 1.348-7.578 5.15-17.649 6.703-24.864.557-2.578 1.18-5.722 1.047-8.071-.1-1.794-2.722 3.178-4.006 4.732-1.889 2.302-4.241 3.77-4.39 4.968-.108.851 1.21.21.413 1.24-.477.621-1.334-.147-1.975.437-.898.818.663.815-.585 2.056-.322.317-1.82-.531-2.198.784-.18.617 1.628 3.267 1.872 3.134 1.092-.581 2.165-3.505 2.807-4.764.28-.554 1.244-2.924 1.641-3.324 2.46-2.425-.292 3.724-.88 4.784-3.563 6.484-8.44 13.912-11.113 19.618-.065.146-.498 2.327-.98 2.292-1.414-.113 2.259-7.105 2.188-7.587-.041-.299-.898-.289-.973-.377-.471-.556-.51-5.426-1.913-5.344-1.882.105-.296 3.561.079 4.419.203.453.815 1.331 1.063 2.13.046.149.937 2.283-.243 2.274-.698-.008-.683-1.253-.763-1.457-.264-.685-2.258-6.683-3.57-2.758-.322.964 1.019 2.828 1.604 3.933.568 1.071 2.021 3.548.975 3.783-.866.191-1.2-1.589-1.814-2.853-.543-1.136-2.232-5.078-2.804-1.306-.107.681 1.782 3.928 2.005 4.439.274.617 2.628 4.53.993 4.515-.797-.004-1.484-3.217-1.712-3.765-.095-.214-1.614-3.934-1.887-3.87-.542.12-.817 1.754-.818 1.657-.002.118.853 1.776 1.118 2.416.397.939 3.986 7.466 1.832 6.995-.666-.146-.67-2.124-.903-2.76-.143-.398-2.58-5.35-2.652-5.334-.258.057-1.713 2.914-1.929 3.383-.93 2.08-1.633 4.605-2.657 6.806-2.33 5.011-3.714 10.632-4.636 16.712-.885 5.836-1.269 11.181-.246 14.409.228.724 1.92 2.881 1.308 3.262-.211.127-1.17-.519-1.253-.31-.188.453.86 3.634 1.162 4.622 1.19 3.897 2.93 8.53 6.285 11.775 2.322 2.253 7.392 5.156 10.35 7.331.47.345 1.222 1.279 1.612 1.272-.1.005 2.749-2.327 2.848-2.553.24-.534-.18-1.869-.26-1.868-.504.025-2.845 4.626-3.368 2.221-.122-.554 2.255-2.573 1.78-2.019 1.183-1.385.803-2.325 2.362-1.411.851.503.918 3.525.362 4.356-.785 1.174-2.543.66-2.691 1.927-.043.359.88.964.982 1.114 1.223 1.694.581.802 1.858-1.005 1.09-1.535 2.772-4.701 2.955-6.128.147-1.115-.232-.205-.356-.959-.145-.853.318-1.647.194-1.817-.534-.715-2.62-.904-2.853-.849-.82.209-.44.882-1.065.53-.643-.36-1.136-4.328-1.41-5.751-2.412-12.569-2.473-27.191-.448-40.596 1.643-10.88 5.943-22.801 10.781-34.64 1.36-3.326 1.389-1.549.263 1.865-3.292 9.975-6.996 18.423-8.897 29.042-1.08 6.007-2.07 11.261-2.363 16.953-.108 2.081-.444 5.334-.237 5.682.206.335 1.233.315 1.6.531.871.517 5.517 4.33 5.37 4.878-.413 1.512-4.709-2.538-5.627-3.344 1.06.931-.62-.901-.92-.831-.257.057-.362 1.727-.363 1.709.348 1.158 2.914 2.721 4.38 3.769 1.137.81 4.753 3.133 3.08 3.904-.586.268-1.787-1.486-2.363-1.994-.477-.424-4.022-3.717-4.886-3.36-.356.148.362 2.49.619 2.823.79 1.026 7.514 4.667 6.29 5.708-.95.812-6.288-5.525-6.253-3.499.057 3.293 1.69 2.672 4.692 5.176.446.375 1.813 1.916.952 2.304-.775.351-4.381-3.758-5.17-3.297-.337.199-.218 1.553.152 2.038.419.551 7.282 3.86 4.8 5.007-.7.325-3.222-3.433-4.252-3.205-.512.116.033 2.205.038 2.215.216.273 4.375 2.607 4.704 2.511.36-.111.396-2.647.255-1.54.81-6.491 1.838-11.3 1.733-17.104-.01-.852.005-3.674.316-4.656 1.063-3.351 1.163-.018 1.044 1.398-.578 6.889-.036 12.268-1.188 18.91 1.657-2.853 2.893-6.979 3.799-9.721l-.014.003zm-8.412-78.932c.193-.808-.595 1.442-.539 1.602.307.849 3.015 2.172 2.708 2.209.294-.034.582-1.501.305-1.99.237.418-.833.212-1.021.081-.689-.484-.718-2.688-1.41-2.351-.104.047-.03.383-.046.453l.003-.004zm33.608 31.631c-1.461 1.406-1.142-3.741-1.822-3.591.062-.017-1.35 2.125-1.481 2.693-.101.441.264 2.093.321 2.146.497.481.883-.254 1.084.203.382.89-.046 3.613-1.423 2.974-.589-.268-.32-3.478-1.026-3.321-.126.027-.928 1.644-.984 2.289-.125 1.515 1.182 3.307 1.212 4.172.066 1.988 1.462-.555 2.348-2.152.522-.938 4.048-6.435 4.01-7.395-.04-.901-.888.006-1.314-.595-.252-.359.285-.658.256-1.533-.045-1.373-.838-2.923-1.076-2.871-1.978.441.825 6.087-.102 6.977l-.003.004zm-34.757-26.048c.325.626 2.869 1.71 2.754 1.756 1.619-.676-1.815-4.188-2.234-4.092-.033.008-.9 1.611-.52 2.336zm1.963 4.894c.974-.219-1.332-3.55-2.218-3.354-1.258.281 1.61 3.489 2.218 3.354zm60.827 80.059c1.811-1.676 5.448-4.442 5.972-5.906.23-.643-1.697-5.736-.503-5.661 1.084.061.78 4.493 1.901 4.611.636.071 1.93-1.578 2.065-2.082.163-.6-2.44-5.301-.314-4.813.744.167.738 2.337.548 1.801.083.224.672 1.677 1.109 1.678.402.001 2.538-2.371 2.613-2.947.07-.5-.68.122-1.084-.203-.237-.197-1.01-3.187-.455-3.451 1.38-.658 1.448 3.414 1.934 3.417.157.004.66-1.031.66-1.031 2.307-2.405 4.348-5.513 6.31-9.09.617-1.122 2.387-4.153.904-3.306-1.958 1.118-3.395 2.999-4.861 4.181-6.551 5.288-13.344 10.847-19.687 16.342-1.095.947-2.444 1.585-3.022 2.442-.223.34.082.909-.255 1.54-.2.366-1.27.966-1.735 1.567-3.274 4.262-6.341 6.811-9.822 9.279-1.472 1.042-4.927 2.992-5.046 3.337.136-.38.846 2.735.903 2.76.537.234 2.555-1.554 3.143-1.878 5.452-3.015 12.847-7.123 18.734-12.579l-.012-.008zm-64.183-80.502c.025-.12-1.042 4.919-.535 5.004.64.101.848-.889 1.451-1.503.302-.313 1.415-1.271 1.447-1.506.128-.935-2.103-2.357-2.141-2.342-.041.02-.213.296-.222.347zm2.9 9.867c.457-.906 1.364-1.667.65-1.776-1.033-.148-.667-.153-1.157-1.22-.618-1.347-1.46-1.953-2.1-.13-.396 1.132 2.57 5.32.314 4.813-.353-.077-1.493-6.178-2.532-2.102-.398 1.55 2.555 3.802 1.79 4.784-1.207 1.557-2.278-4.085-2.796-3.967-1.896.419 2.035 7.068 1.386 7.681 2.57-3.383 3.143-5.491 4.452-8.084l-.006.001zm26.333 21.398c.136.239.767.29.862.549.083.224-.019 2.224.321 2.146-.108.027 1.514-1.878 1.481-2.693-.006-.248-.787-.003-1.142-.484-.46-.628.273-4.712-.93-4.231-1.895.744-.99 4.022-.595 4.717l.003-.004zm-3.038 1.706s.5.511.641.902c.521 1.444.472 2.531.915 3.494-2.594-5.626.289.825.467.786-.106.023 1.434-1.611 1.546-2.413.1-.725-.407.183-.862-.55-.447-.727-.18-4.552-1.379-4.284-.225.05-1.245 1.334-1.324 2.067l-.004-.002zm1.156 7.296s-.571-.585-.581-.614c-.62-1.883.08-3.155-.767-4.859-.398-.804-1.902 1.534-1.892 2.193.004.144.7.208 1.034.66.595.798 1.472 5.698-.078 5.045-1.159-.484-.196-4.75-1.338-4.729-.53.003-.843 1.857-1.53 3.15-1.923 3.614-2.68 5.435-3.948 7.68-.424.75-1.135 1.444-1.546 2.413-1.188 2.811-1.19 5.959-1.66 8.656-1.475 8.502-5.908 18.885-8.08 27.385-.766 2.995-3.317 13.291-7.398 11.552.12.053-1.18-1.399-1.612-1.273-1.19.354-1.873 5.422-2.154 6.401-.772 2.674-1.896 5.033-2.803 8.166-1.57 5.41-2.97 12.065-4.705 19.096-.73 2.945-1.603 5.815-2.216 9.516-.161.969-1.82 9.041-1.647 9.39.226.462 3.324.707 2.079 2.058-.903.984-1.34-1.059-1.941-.75-1.619.818 3.109 4.212 2.086 5.455-1.141 1.383-1.857-2.847-2.66-2.666-.257.057-.47 1.913-.478 1.88.072.341 3.868 4.117 2.59 5.05-.665.49-1.022-.617-1.44-1.161.262.336-.943-1.998-1.454-1.899-.422.083-.38 2.028-.243 2.274-.125-.221.663-.167 1.252.311.637.52 1.858 3.102 1.65 3.48-.9 1.662-2.225-2.059-2.659-2.665-.872-1.215-1.5 3.503-1.347 3.998.22.708 2.186 2.183 2.252 2.168.72-.159-2.012-3.587-1.601-3.937.959-.825 3.178 2.616 3.19 3.73.006.577-.943 1.101-.947 1.099-.098.703 1.667 1.851.042 2.211-.777.168-1.208-1.798-1.518-2.182-.08-.096-1.444-1.454-1.504-1.441-2.847.63 5.04 5.794 2.964 6.741-1.146.523-2.899-4.408-3.978-3.263-.818.869 3.366 3.758 3.376 4.576.029 2.77-2.764-1.972-3.1-1.977-.9-.006-.146 2.148-.322 1.253.283 1.48 3.209 3.561 4.535 2.403 1.193-1.049.601-4.206.642-5.173.068-1.558.069-3.764.188-5.226.597-7.138 3.324-15.017 4.973-23.294.996-5.017 2.544-11.702 4.45-17.556.498-1.522 2.08-5.382 1.936-6.052-.118-.558-.242.299-.972-.376-.454-.425-2.131-6.704-1.312-6.664.64.028.898 2.059 1.248 2.975.022.053 1.175 3.149 1.416 3.093-.218.048.852-1.908.81-2.4-.03-.411-.559-.198-.923-.833-.272-.479-2.093-6.197-1.534-6.318.57-.129 1.227 2.378 1.294 2.522.247.526 1.232 2.539 1.582 2.462.694-.154.667-1.822.647-1.772.506-1.499 1.908-4.538 1.43-5.642.173.394-.799.256-1.021.08-.62-.509-1.94-4.737-1.68-4.957 1.208-1.018 2.463 4.487 3.032 4.361.491-.112 1.19-3.746 1.51-4.626 2.964-8.239 7.862-17.242 9.134-25.249.435-2.725 2.07-5.791 2.979-8.06 1.431-3.581 3.893-9.275 5.88-13.733.605-1.351 2.124-3.679 1.793-4.684.09.267-.708.547-1.13.25.271.195-1.466-3.591-.35-3.623 1.407-.038 1.656 2.628 1.875 3.136.116-2.66 4.118-6.748 4.204-9.212l-.004-.003zm8.494 48.87c-2.284 1.086-4.607 2.448-6.698 3.259-2.024.787-4.716 1.175-7.227 2.19-.945.379-2.541 1.189-3.945 1.61-1.094.335-3.69 1.217-3.942 1.612.062-.097-.275 4.909-.254 4.939.4.465 1.688-.041 1.982-.438.663-.911-.908-4.046.606-3.983 1.085.05-.08 3.24.867 3.958 1.187.892 2.892-1.266 2-2.369-.49-.607-1.616.247-1.486-.709.115-.879 2.768-.851 3.216-.86 2.911-.056 4.695-1.177 7.404-2.077 8.931-2.993 20.833-8.302 27.036-17.971-5.593 4.049-13.332 7.881-19.56 10.839zm-14.552-29.184c-.008.438 1.476 1.406 1.504 1.442.753 1.03.842 2.244 1.514 2.179 2.417-.224.455-5.935-1.35-5.473-.092.02-1.65 1.171-1.668 1.852zm16.908 33.847c-.084.156.199 2.805.161 2.775 1.794 1.45 3.54-3.321 1.974-3.843-.337-.112-1.873.56-2.135 1.068zm-2.762 4.311c1.411.621 2.41-3.304 1.41-3.715-2.351-.96-1.973 3.469-1.41 3.715zm-2.596 1.017c1.29-.358 1.398-3.245.734-3.413-1.653-.43-2.829 4.001-.734 3.413zm-9.253-6.388c1.186.433 2.37-2.443.573-2.789-1.573-.306-1.63 2.404-.573 2.789zm-2.592 1.02c1.433.17.65-2.758.573-2.79-2.01-1.014-1.947 2.624-.573 2.79zm6.831 4.112c-.3.54.644 2.306.603 2.086.01.047-.354.501-.333.52.117.092 2.322-.057 2.77-.907.176-.336-.412-.393-.467-.785-.156-1.138.658-1.283-.374-1.691-.182-.071-1.942.322-2.197.783l-.002-.006zm-27.272-16.901c-.295.22.474 1.403.543 1.799.182 1.035-.37 1.863.763 1.456.936-.328 2.112 1.006 2.795.568.37-.241.385-1.752-.038-2.208-.636-.69-3.698-1.893-4.06-1.619l-.003.004zm16.656 13.775c1.864 1.455 2.219-2.694 1.142-2.915-1.522-.307-1.924 2.303-1.142 2.915zm7.277 6.824c.648.459 3.063-.549 3.155-1.143-.05.325-.965-.167-.91-.093-.587-.794.648-1.402-.542-1.803-1.664-.562-2.899 2.197-1.702 3.039zm-10.375-5.395c1.066.425 2.518-2.514.86-2.857-1.733-.349-1.487 2.605-.86 2.857zm6.312 3.78c-.328.512.598 1.085.593 1.349-.044 2.31 3.18-.634 1.555-1.675-.527-.337-1.89-.076-2.148.326zm-9.19-2.704c1.312.297 1.787-2.322.746-2.679-1.953-.678-1.679 2.47-.746 2.679zm-5.704 1.708c.2.36 3.576-.449 4.007-1.326.299-.598-.046-1.584-.544-1.806-1.141-.511-4.134 1.921-3.466 3.136l.002-.004zm6.974-.654c-1.15-.399-.855 3.875-.427 4.828 1.058-1.129.904-4.661.427-4.828zm-5.127 2.32c-.49.164-2.483.159-2.37.673.236 1.065 5.27 1.307 5.19 1.369 1.006-.737.032-2.828-.507-2.996-.874-.274-1.526.69-2.309.957l-.004-.003z"/></g></svg>