<svg width="311" height="154" fill="none" xmlns="http://www.w3.org/2000/svg"><path fill-rule="evenodd" clip-rule="evenodd" d="M308.17 85.586c-.204-.33-.72-.011-1.088.367-.383.393-.376.503-.212-.011.089-.28.379-1.278-.256-1.064-.008.002-.268.152-.29.146-.129-.034.078-.402-.162-.588-.157-.124-.343-.067-.511.014-.102.05-.42.405-.486.374-.004 0 .157-.617.101-.702-.212-.326-.578-.252-.734-.177-.202.097-.48.539-.629.478-.18-.073.477-1.566-.146-1.645-.243-.032-.814.736-1.046.965-.342.338-.385.452-.245-.038.078-.268.388-.994.367-1.208-.01-.1-.123-.315-.204-.344-.292-.106-.884.934-.749.488.101-.333.394-1.52-.209-1.249-.284.128-.301.356-.212-.01.185-.762-.496-.886-1.1-.206-.112.127-.163.35-.241.413-.078.065-.346.022-.502.135-.502.364-1.342 1.475-1.692 2.049-.361.59-.826 1.584-1.026 2.11-.118.312.009-.812-.123-.893-.22-.135-.5.205-.743.548-.746 1.042-1.52 2.342-.643 3.283.095.103.932.654.237.372-.042-.017-.236-.097-.247-.099-.196-.047-.9.104-.991.057-.117-.062.024-.307-.232-.312-.516-.008-.437 1.07-.302 1.263.255.365.708.428 1.004.575.324.161.517.362.784.444.541.167.09.249-.237.473-.087.06-.472.223-.522.288-.192.242-.075.64.055.78.425.458 1.292.2 1.777-.005.425-.18.126.339-.102.703-.62.99-1.45 1.96-2.315 3.038-.168.21-.317.592-.512.859-.177.244-.425.477-.612.717-1.036 1.327-2 2.727-2.721 3.708-.167.226-.775 1.199-.37.303.396-.875.545-2.03.975-2.83.183-.338.435-.587.655-.962.051-.086.503-.732.388-.909-.223-.343-1.056.492-1.275.716-1.657 1.7-2.22 3.814-3.036 5.635-.055.122-.059.404-.082.549-.015.103-.076.259-.09.43-.022.273.155.273.067.507-.121.315-.685.837-1.029 1.206-.953 1.023-1.603 1.922-2.356 2.89-.799 1.026-1.763 2.263-2.143 3.355-.086.246-.228.748-.233.985-.001.12.055.645.143.741.036.04.695.274.711.27.184-.043.453-.683.627-.929 1.198-1.695 2.431-3.734 3.795-5.551.463-.618 1.026-1.404 1.414-1.722.299-.245.501-.137.679-.211.11-.045.169-.16.286-.206.751-.294 1.489-.322 2.237-.739.488-.272.995-.615 1.501-.915 1.141-.678 2.569-1.547 3.597-3.241.601-.989-.07-.718-.789-.504-.946.281-1.626.492-2.606 1.043-.834.469-1.452.919-2.242 1.525-.575.44.072-.367.257-.626 1.822-2.552 4.442-5.069 6.325-7.672.24-.333.987-1.275.962-.869-.026.445-.229 1.184-.723 1.693-.101.104-.408.183-.394.396.035.486 2.032.016 2.335-.204.133-.097.31-.342.39-.457.042-.06.047-.33.215-.38.085-.027.084.513.138.68.215.689.86 1.058 1.467 1.59.287.252.324.474.573.433.308-.05.535-.607.516-.8-.012-.123-.372-.586-.506-.769-.194-.267.371-.012.451-.01.628.024.86-.475 1.367-.693.282-.127.896.18 1.08-.04.297-.355-.573-1.19-1-1.36-.105-.04-.677-.145-.233-.31 1.001-.376 2.15-1.032 3.187-1.788.388-.284.973-.85 1.217-1.103.348-.358.719-.966 1.049-1.358.106-.126.365-.247.397-.337.045-.12-.103-.47-.158-.53-.058-.063-.466-.214-.468-.229-.028-.21.473-.33.348-.603-.117-.26-1.031-.025-1.288.082-.207.086.119-.323-.159-.529-.274-.202-.847.426-.972.297-.074-.076.186-.373.284-.658.13-.376.332-1.221.234-1.377h.002zm-.533 1.404c-.083.204-.501 1.164-.647 1.082-.033-.019.114-.5.046-.638-.053-.106-.539-.41-.537-.344-.004-.095.563-.698.835-.979.307-.317.443-.418.55-.32.134.126-.129.908-.247 1.199zm.799 1.529c-.018-.266 1.226-.773 1.201-.497-.04.439-1.188.671-1.201.497zm-3.29-2.245c-.063.059-.407.276-.434.25-.013-.012.161-.32.159-.316.13-.443-.455-.296-.421-.415.058-.2.792-.555 1.118-.792.221-.16.23-.287.356-.092.156.246-.459 1.069-.778 1.365zm1.031-.754c.005-.231.444-.048.427.083-.032.235-.431.048-.427-.083zm-2.786-.631c-.1.13-.275.268-.346.212.066.053.845-2.87.107-.191.048-.173.052-.542-.014-.632-.032-.041-.318-.125-.318-.214.001-.029.671-.78.751-.88.081-.1.068.006.093.022.211.137-.113 1.478-.274 1.682l.001.001zm1.193-.165c-.053.246.307.267.026.36-.159.052-.65-.676-.671-.123-.01.25.52.277.513.438-.006.133-.581.57-.649.63-.514.468-.011-.5-.034-.479.207-.196.19.23.387-.065.184-.276-.489-.21-.481-.41.003-.116 1.021-1.017 1.123-.732.042.115-.17.177-.215.38l.001.001zm-3.491-3.373c-.016.184.018.605-.27.446-.188-.104-.594.21-.627.085-.013-.053.293-.454.412-.549.262-.21.48-.096.475-.101.034.04.013.075.009.119h.001zm8.51 7.486c-.306.001-.788.264-1.08.488-.152.115-.201.247-.283.265-.141.032-.177-.153-.303-.032-.072.067.126.428-.174.527.025-.009-.631-.404-.629-.367-.003-.046.547-.49.741-.608.491-.297.979-.228 1.423-.305.109-.019.676-.215.544.013.017-.03-.243.021-.239.02zm-7.928-6.481c-.171.122-.318-.266-.455-.052-.111.172.499.456.282.578a1.494 1.494 0 00-.248-.098c-.636-.283.259-.894.444-.975-.004.002-.027.034-.028.032.04.026.115.434.006.514h-.001zm6.252 5.783c-.096-.126-.233-.132-.224-.19.004-.037.403-.246.461-.282-.131.082.13-.152.204-.109.195.115-.106.338-.15.436-.117.253-.189.762-.48.887.124-.261.399-.46.189-.74v-.002zm-2.146-2.224c.028-.156.694.114.704.15.088.33-.748.104-.704-.15zm-3.386-3.17c-.002.016-.348 1.967-.816 1.67.004.003-.033-.724-.023-.752.112-.324.84-1.034.863-1.011.041.04-.018.047-.024.093zm7.223 6.724c-.396.572-.998.956-1.462 1.455-.138.148-.22.282-.362.425-.496.49-1.138.646-1.498.975-.09.08-.119.284-.274.386-.879.583-1.686.694-2.523.946-.34.1-.661.263-1.001.33-1.117.214-2.625-.288-3.718-1.484a37.743 37.743 0 01-1.148-1.316 5.306 5.306 0 01-.547-.917c-.147-.384-.483-1.855-.207-2.093.138-.12.453.076.639.094.108.012.162-.129.208-.048.102.186-.339.269-.118.463.276.24.507-.552.58-.745.326-.873 1.228-2.506 1.598-2.975.232-.294 1.005-1.194 1.185-1.13.143.051.211.64.155.922-.126.64-.704 1.207-1.135 1.848-.474.707-1.066 1.757-1.483 2.453-.123.207-.574.735-.591 1.017-.037.599.368-.102.383-.124.588-.909 1.217-2.042 1.864-3.028.207-.316.474-.881.62-.598.016.032-.497.55-.039.305.153-.082.708-.071.642-.297-.053-.182-.524-.01-.432-.143.088-.127 1.038-.07.877-.378-.089-.171-.58.023-.718.063-.517.146-.038-.282.154-.376.08-.039 1.179-.005 1.096-.247-.077-.228-1.102.175-1.117-.053-.002-.022.176-.192.374-.244.041-.01 1.028.157.958-.084-.072-.246-.778-.084-.707-.21.134-.243.367-.065.534-.108.206-.052.128-.31.383-.123.304.225-.414 1.263-.616 1.501-.503.59-1.329 1.774-1.875 2.457-.172.214-.385.332-.33.452.087.189.461-.055.391-.005.241-.171.768-1.069 1.206-1.673.305-.42.808-1.241 1.129-1.517.109-.095.603-.321.705-.243.098.076-.052.71-.156.767-.117.066-.214-.175-.332 0-.085.127.115.258.085.353-.255.81-.842-.073-1.065.275-.181.283.42.19.541.405.136.24.46-.007.793-.28.353-.29 1.622-1.23 1.117-.4a9.198 9.198 0 01-.77 1.032c-.3.335-.408.545-.683.995-.248.404-1.182 1.87-1.402 1.902.022-.003-.041-.147-.041-.147-.157-.157-1.031-.432-.843.014.05.119.76.102.775.324.007.098-.329.083-.294.086-.154-.011-.961-.277-.959-.368.003-.11 1.257-1.4 1.534-1.734.1-.121.337-.294.394-.396.274-.5-.1-.252-.321-.275-.198-.018-.585-.436-.639-.094-.037.233.239.156.316.214.101.077.379.246.113.321-.181.051-.563-.563-.643-.155-.057.285.37.14.36.42-.003.117-.788.993-.858 1.072-.398.454-.938.794-1.32 1.353-.104.152-.578 1.255-.269 1.29.315.036.048-.457.32-.57.247-.105.514.47.821.53.325.064 1.472-1.2 1.869-1.672 1-1.185 1.446-2.56 2.47-3.413.166-.138.723-.674.836-.526.041.054-.271.515-.364.816-.168.542-.433 1.377-.715 1.812-.756 1.167-1.319 1.463-2.168 2.151-.182.148-1.086.813-.746.94.073.028.554-.333.776-.52.401-.339.792-.616 1.083-.88.163-.15.304-.353.393-.397-.036.018 1.395-.035.933-.444-.1-.088-.478.262-.535.107-.096-.26.61-.298.582-.292.157-.03.684-.125.487-.375-.128-.158-.401.217-.511.015-.114-.21 1.146-.156 1.052-.455-.077-.243-.743.132-.755-.024-.012-.173.36-.323.31-.299.015-.008.838-.08.843-.014.01.15-.759.955-.831 1.038-.431.498-.857 1.008-1.367 1.538-.423.439-1.261.965-1.628 1.258-.292.233-.359.524.026.359.423-.18 1.071-.692 1.437-.97.898-.683 1.778-2.215 2.48-2.841.1-.09.465-.293.837-.526.168-.107.778-.535.877-.379.058.094-.284.589-.345.664-.398.492-.708.76-1.204 1.282-.405.424-1.063 1.04-1.034 1.146.099.366.343-.158.559-.2.164-.033.618.225.62.247.007.104-.546.418-.629.478-.262.186-.872.728-.324.51 1.126-.447 2.179-1.836 3.151-2.719.182-.165 1.221-.862 1.311-.627.031.084-.07.26-.127.343l-.003.002zm-3.499-2.648c.05-.006-.066-.124-.101-.143-.159-.085-.654-.16-.416-.355.145-.119.696.19.711.268.005.024.03.205-.194.228v.001zm-5.975-3.578c-.104.205-.143.649-.308.75-.174.109-.221-.203-.299.026-.057.17.224.134.228.251.005.116-.321.529-.483.828-.21.383-.517 1.126-.698 1.207-.075.033-1.256-.248-.922.17.066.083.364.03.363.03.326.012.56.124.237.372-.103.078-1.312-.137-1.097.246.034.06 1.449-.094.891.253-.175.11-1.37-.191-.977.237.137.15.764-.183.874.014-.017-.034-.03.44-.265.505-.006.002-.177-.188-.132-.17-.178-.074-.538.091-.667-.061-.021-.026-.049-.448.097-.763.275-.597.78-1.388 1.26-2.192.25-.416.722-1.085.957-1.38.335-.421.966-.813 1.301-1.2.106-.125.166-.385.199-.168.036.24-.325.58-.56 1.044h.001zm5.08 4.561c-.168.203-.273.46-.17.135.053-.168.197-1.078.49-1.159.022-.006.251.211.349.24.052.017.144-.09.152.018.016.236-.568.46-.82.765l-.001.001zm-4.586-4.815c-.018-.243.785.169.823.139-.033.118-.821-.104-.823-.14zm5.242 5.15c-.498.01.616-.722.697-.363.099.43-.557.36-.697.362zm-6.696-5.264c-.285.402-.751 1.22-1.083 1.723-.369.56.027-.386.058-.457.133-.316 1.536-2.218 1.633-2.043.097.177-.411.498-.608.777zm1.731.632c.066-.032-.722.397-.724.395.003.004.199-.591.257-.625.12-.072.562.141.555.193-.003.021-.076.032-.088.038v-.001zm4.591 4.874c.225-.082.716.025.699.09-.049.185-1.555.226-.699-.09zm1.204 1.704c-.017-.245.799.017.828.199.074.466-.826-.181-.828-.199zm-.366.364c-.014-.195.871.067.855.166-.058.384-.845-.02-.855-.166zm-.505.528c-.027-.387.9-.166.878.073-.04.46-.874-.019-.878-.073zm-9.347-5.273c-.007.136.121.79.091.867-.049.129-.379.058-.222.26.008.013.303.025.303.034.003.092-.182.208-.254.234-.492.172-.442-.205-.627.085-.115.182.269.145.372.148.291.007.511.16.237.371-.063.05-.974-.212-.769.188.149.292.493-.209.731.117.035.049.037.245-.011.272-.063.037-.329-.233-.224-.191.045.019-.295-.01-.447.07-.048.025-.095.135-.111.13-.109-.037-.228-.298-.233-.311-.101-.29.088-.94.385-1.361.192-.273.487-.509.608-.778.046-.103.012-.407.163-.255.037.037.01.08.008.12zm3.641 5.08c-.021-.013-.284-.004-.276-.066.023-.172 1.214.263 1.2.347-.079.476-.823-.227-.924-.281zm5.188 4.37c.029-.029-.411-.06-.336-.061-.721.013-1.142.952-1.845.734-.479-.149.505-.456.392-.848-.021-.074-.143.126-.239.02.009.011.051-.124.052-.125-.022-.307-.389.09-.587.233-.334.241-.837.397-.395-.056.23-.237.729-.202.656-.51-.034-.144-.17.054-.239.02-.104-.048-.044-.216-.136-.229-.127-.017-.275.097-.411.157.004-.002-.409.216-.406.216.156.031-.261-.066-.229-.25.017-.1.327-.056.387-.065.425-.061.927-.3 1.245-.291.061.002.164.143.251.159.217.04.459-.149.715-.123.278.028.646.246.844.439.114.11.473.387.283.578l-.002.002zm-4.973-3.455c-.089-.004-.291-.273-.416-.355-.256-.166-.49-.123-.468-.23.063-.318 1.187.243 1.171.38.007-.068-.131.215-.287.205zm-4.094-2.536c-.048-.004-.626-.759-.626-.759-.008.025.731.127.671.122.06.005.001-.017.033.028.097.134.004.617-.078.61zm3.528 2.617c-.113-.055-.582-.198-.588-.22-.02-.065.086-.186.166-.195-.049.005.067.124.101.14.192.101.435.055.564.314.147.293-.026.067-.243-.04zm2.388 3.108c-.761.378.405-.467.318-.18-.02.067-.142.092-.318.18zm-6.185-3.981c-.171 0-1.544-.635-1.556-.708-.012-.072.601-.307.298-.479-.194-.11-.257.376-.459.342-.1-.018-.344-.565-.17-.71.056-.045.219.066.275.066.219.004.484-.152.715-.123.558.07.899.55 1.289.763.128.07.195-.04.307.092.352.413-.315.755-.7.756h.001zm6.685 4.69c-.134-.023.032-.216.08-.156-.06.055-.025.102-.08.157zm-1.043-.27c.061.073.198.097.285.187.1.103.175.332.305.486.345.406.808.742.795 1.015.004-.1-.093.274-.132.283-.087.02-1.088-.87-1.117-.897-.379-.381-.602-1.108-.65-1.512.01.085-.036-.44.063-.398.235.1.261.609.45.835l.001.002zm-4.655-4.085c-.286.163.291.401.214.463-.133.11-.879-.293-.871-.406.009-.142.588-.455.789-.34.069.039.196.401.221.584-.115-.18-.17-.405-.352-.302l-.001.001zm3.463 3.406c.026-.017-.214-.072-.216-.073-.283.018-.902.129-1.062-.117-.099-.152.091-.259.114-.523.014-.17-.209-.47.021-.546-.01.004.568.264.692.422.06.075.01.197.077.235.106.06.393-.193.523.165.033.089-.016.348-.15.436h.001zm-1.752-1.777c-.012.152-.375.11-.207.05a2.81 2.81 0 00-.638.356c-.228.206-.714 1.39-.805 1.397-.065.005-.259-.557-.168-.256-.14-.462.276-1.29.584-1.981.072-.163.096-.498.233-.534.123-.033.134.128.192.164.03.019.815.737.81.803l-.001.001zm.007.513c-1.136 1.388-2.291 2.79-3.196 3.809-.154.172-.185.415-.449.462.078-.014-.007-.177-.013-.18.054.036-.801-.066-.907-.04-.277.06-.028-.337.122-.405.088-.038.004.098.134.17.156.089 1.298-.055 1.119-.34-.077-.122-.272.07-.506.075-.16.003-.083-.083-.248-.098-.336-.033-.63.276-.285-.186.137-.181.659-.874.779-.913.028-.008.341.277.197.224.073.027 1.059-.145.78-.46-.011-.014-.879.193-.894.138-.03-.124.151-.23.246-.353.21-.27.843-1.252.997-1.233-.109-.014.154.81.147.801.477.619.747-.267.92-.624.146-.302.209-.549.4-.728.125-.119.64-.353.679-.21.024.091.005.056-.024.093l.002-.002zm-2.165-1.228c-.218-.046-.668-.59-.673-.574.075-.211 1.04.266 1.052.39.005.07-.187.226-.379.184zm3.589 3.063c.043-.012-.057-.13-.1-.142-.03-.008-1.141.038-1.15-.08-.027-.39 1.445-.058 1.442-.066.014.035-.026.239-.19.288h-.002zm-4.693-3.328c.05-.287.904.358.901.374-.051.23-.923-.236-.901-.374zm4.096 3.833c-.041-.001-.115-.125-.193-.164-.168-.084-.864-.192-.527-.225.289-.03 1.197.012 1.182.107-.006.039-.297.288-.462.282zm-1.161.193c-.122-.388.755-.26.718-.064-.017.084-.702.115-.718.064zm-3.418 1.929c-1.776 1.853-3.934 4.523-5.352 6.531-.546.773-.923 1.82-1.389 2.082-.201.113-.303-.132-.447.07-.106.148.122.19.085.353-.053.232-.669.797-.942 1.169-.32.44-.711 1.302-1.044 1.419.032-.012-.6-.3-.192-.164-.106-.034-.452.048-.626.085-.095.021-.631.116-.366.364.183.171 1.087-.438 1.105-.127.021.371-.427.251-.554.26-.213.016-.718.207-.917.232-.3.037.277-.681.42-.882.088-.124.238-.263.361-.424.741-.961 1.855-2.63 2.598-3.304.12-.108.228-.071.291-.146.067-.079.057-.237.126-.343.184-.279.537-.605.835-.978.378-.473.832-.975 1.223-1.434.837-.975 1.538-2.298 2.327-3.31.173-.222.437-.605.557-.653.092-.037-.006.092.132.17.155.087.93-.045.921-.171-.022-.302-.953.017-.947-.189 0 .017.14-.204.194-.227-.027.01 1.329.214 1.069-.215-.027-.046-.826.026-.846-.046.011.043.169-.348.274-.386.043-.016.059.154.164.197.258.103 1.007-.221.994.003 0 .014-.046.054-.056.065l.002-.001zm1.749 3.013c-.931 1.573-2.156 2.463-3.537 3.235-1.135.636-2.156 1.238-3.121 1.45-.01.002-.652.125-.654.118-.013-.089.935-1.259 1.104-1.424 1.219-1.194 3.187-2.475 4.576-3.024.403-.16 1.614-.648 1.656-.448a.577.577 0 01-.024.093zm-5.878-2.198c-.103.175-.003.397-.053.516a.7.7 0 01-.455.403c-.55.158-.149-.237.082-.55.147-.2.862-1.282.977-1.082.159.273-.504.632-.551.713zm-1.275 1.558c-.024-.33.931-.467.936-.383.017.253-.933.436-.936.383zm-.364.817s.085-.327.21-.442c.048-.044.766-.326.849-.345.05-.013.069.115.068.114.164.436-1.084.746-1.127.673zm-.126.342c.264-.259.924-.207.917-.231.099.322-1.703 1.003-.917.231zm.511.83c-.078.069-.336.164-.467.222-.096.042-.442.23-.498.195-.123-.079-.038-.364.085-.491.072-.073 1.202-.451 1.204-.437.038.16-.353.536-.325.512l.001-.001zm-1.285.987c-.064-.162.829-.591 1.127-.672.041-.011.077-.01.064.055-.033.151-1.153.715-1.191.617zm.707.209c-.067.131-.063.256-.098.311-.1.152-.78.991-.895.983-.145-.01.019-.412.006-.333.025-.149.038-.681.097-.762.059-.085.999-.486 1.023-.422.069.181-.12.194-.134.223h.001zm-4.017 7.108c-.177.042-.602.283-.76.308-.111.017-.483-.058-.487-.079.011.056.139-.31.274-.386.038-.021.115.098.187.105.227.016 1.201-.498 1.217-.259.016.244-.314.282-.43.31l-.001.001zm-.648.63c-.136.027-.665.23-.794.28-.637.249-.158-.21-.02-.3-.015.009.253.009.271.006.166-.029 1.18-.381 1.185-.286.021.363-.436.256-.641.298l-.001.002zm-.492.706c-.303.072-.462.106-.678.211-.317.152-.276-.184-.054-.327-.045.029.304.059.276.067.236-.057 1.244-.689 1.207-.378-.041.358-.615.396-.751.428v-.001zm-.069.731c-.215.162-.752.089-.806.101-.056.013-.09.081-.143.103-.277.116-.195-.217-.025-.36.052-.044.071.049.211.012.189-.05 1.092-.55 1.117-.399.022.131-.342.535-.353.543h-.001zm-.792.733c-.272.079-.489.246-.562.14.018.025.045-.297.154-.375-.049.035.233.04.244.038.348-.066.732-.302.741-.156.022.315-.451.315-.577.352v.001zm-.212.833c-.124.04-.368-.221-.353-.301.049-.24.642-.135.619-.206.028.085-.159.472-.266.507zM49.408 9.942c-.271.112.126.225.315.257.942.162 1.74.432 2.704.613.053.01.324.125.326-.017.002-.11-.433-.184-.442-.186-.169-.039-.423-.05-.475-.066-.496-.15-.999-.287-1.555-.426-.295-.074-.606-.078-.819-.139a.785.785 0 01-.054-.036zm5.02-2.828c-.2-.005.132.396.217.381.222-.039-.148-.38-.217-.38zm-3.892 3.631c-.338.115.561.369.605.294.069-.117-.501-.33-.605-.294zm2.76-1.478c-.181.05.274.48.359.334.068-.117-.297-.35-.359-.334zm.738.019c-.24.045.19.32.239.302.178-.067-.11-.326-.239-.302zm-1.489 1.76c-.145-.04-.08.173-.004.17.099-.003.097-.146.004-.17zm.422.065c-.086.01-.325.072-.25.21.088.164.647-.254.25-.21zm-3.758 3.043c-.099.047-.42.164-.207.286.072.04.211-.125.254-.145.575-.268 1.7-.392 2.422-.472-.015.002.293.053.297-.069.008-.197-.434-.085-.645-.07-.462.035-.863.12-1.4.26-.25.066-.481.094-.722.21h.001zm.573.514c-.06.036-.145.026-.044.16.115.152.791-.073 1.08-.112.06-.008 1.07-.01 1.024-.212-.024-.102-.336-.015-.472 0-.412.043-1.18.203-1.508.186-.027-.001-.046-.042-.08-.022zm6.891-3.313c-.418.244.77.673.425.095a.329.329 0 00-.425-.095zm.187.565c-.305.04.15.668.292.338.073-.168-.245-.344-.293-.338zm-.477.301c-.251-.015.084.321.137.124.037-.133-.095-.121-.137-.124zm-.563.659c-.313-.086.083.402.084.087 0-.055-.065-.081-.083-.086zm-6.8 4.245c-.322.297.296 0 .533-.068.508-.144 1.166-.285 1.737-.552.347-.162.654-.27.904-.48.126-.107-.007-.084.043-.16-.016.025.13-.06.153-.087.07-.084.357-.556.254-.616-.082-.048-.34.39-.392.492-.001.003-.007.111-.07.174-.171.175-.513.292-.736.42-.22.126-.521.233-.78.343-.609.26-1.256.174-1.647.535h.001z" fill="#81736A"/><path fill-rule="evenodd" clip-rule="evenodd" d="M51.527 15.904c-.17.04.084.234.137.124.029-.059-.007-.154-.137-.124zm5.085-2.699c-.39-.025.169.378.095.048-.006-.022-.078-.046-.095-.048zm-.482.273c-.032 0-.15.103-.045.16.093.05.237-.16.044-.16zm-.39.496c-.358.114.055.58.25.497.312-.136.058-.597-.25-.497zm.714-.148s-.135.08-.084.148c.123.166.311-.138.084-.148zm-5.144 2.966c-.052.034-.154 0-.137.112.027.173.574-.086.842-.176.52-.175.935-.27 1.436-.55.168-.093.497-.305.566-.423-.048.082.099-.145.004-.17-.085-.024-.482.34-.504.354-.494.313-.855.406-1.331.556-.307.098-.645.148-.875.296v.001zm5.441-2.93c-.24.037.14.301.149.083.006-.137-.086-.093-.149-.083z" fill="#81736A"/><path fill-rule="evenodd" clip-rule="evenodd" d="M56.29 14.294c-.414.188.388.625.533.403.037-.055-.036-.298-.111-.373-.088-.088-.312-.08-.42-.03h-.001zm.29.272c-.014.054-.287-.064-.188-.095.05-.014.218-.015.188.095zm1.384-.521c-.24-.001.099.318.108.073.003-.074-.058-.073-.108-.073zm.696.11c-.272.073.245.298.188.095-.026-.092-.06-.129-.188-.095zm-3.383 2.095c-.145.001-.086.168-.004.17.074.003.153-.171.004-.17zm-.494.351c-.153-.01-.1.203-.014.21.097.01.186-.198.014-.21zm2.068-.871c-.121-.005-.248.776-.302.946-.18.566-.431 1.22-.597 1.787-.18.616-.383 1.06-.376 1.76 0-.006-.087.282.065.233.088-.028.063-.313.062-.305.153-1.294.7-2.525 1.104-3.79.02-.065.252-.622.044-.63zm-5.943 3.884c-.49.12.514.392.55.259.042-.153-.545-.236-.496-.223-.034-.008-.01-.047-.054-.036zm2.461-.894c-.057-.005-.182.186-.287.264-.22.164-.607.374-.747.459-.035.021-.498.192-.413.337.05.086.988-.46 1.222-.63.115-.083.487-.41.226-.43h-.001zm3.313-.714c-.16-.044-.114.594-.132.714-.076.53-.186 1.203-.32 1.798.015-.07-.113.112-.005.17.21.114.334-1.185.35-1.275.075-.434.263-.989.175-1.345-.012-.052-.042-.055-.068-.061v-.001zm1.661-.338c-.16-.044-.3.405-.134.413.049.003.306-.366.134-.413zm.089.686c-.143-.04-.193.307-.062.304.158-.004.124-.288.063-.305zM55.5 20.53c-.137-.037-.144.514-.114.804.023.223.098.752.21.722.158-.042 0-.31-.043-.547-.058-.325.042-.726.016-.917-.007-.052-.048-.056-.07-.062zm5.229-1.868c-.085-.023-.035.507.13.464.14-.036.006-.426-.13-.464zm-1.941 2.418c-.145-.039-.165.921-.081.92.087.001.29-.862.08-.92zm-1.198 7.782c-.317.161.107.16.22.21.081.036.493.41.595.335.257-.192-.805-.52-.196-.461.1.01.124.082.362.164.135.046.338.03.504.116.18.093.469.276.689.382.254.122.077-.155-.08-.258-.133-.087-.183-.038-.239-.066-.191-.096-.347-.247-.554-.323-.198-.072-.746-.31-.954-.197-.025.015-.056.105-.072.11-.107.021-.14-.082-.276-.012zm.129.93c-.131-.006-.023.17-.106.229-.075.053-.188-.051-.22.025-.063.143.172.279.224.275.166-.009.333-.518.102-.529zm.356.208c-.136-.038-.264.546-.088.554.162.008.19-.526.088-.555zm.955-.376c-.368.043.32.46.3.468.194-.07-.147-.487-.3-.468zm-.628.723c-.05-.014-.31.344-.29.434.023.11.302.295.354.269.154-.076-.047-.138-.068-.298-.03-.215.175-.36.004-.405zm-.546.917c-.31.006.195.469.279.313.071-.134-.237-.313-.279-.313zm-.579.634c-.262-.04.053.409.156.214.054-.104-.093-.205-.156-.214zm-.261.315c-.163-.045-.428.364-.302.474.11.097.423-.441.302-.474zm4.408-2.003c-.207-.058-.19.31 0 .235.113-.045.042-.224 0-.236zm-2.939 2.576c-.014-.002-.069-.019-.091.018-.188.303.524.008.09-.018zm.382.196c-.157-.012-.16.37-.019.38.126.01.22-.365.019-.38zm2.617-1.022c-.193-.052-.059.346.075.193.032-.035.027-.164-.075-.192zm-1.315 1.32c-.201.079 1.042 1.167 1.317 1.604.023.037.416.745.546.664.172-.105-.158-.363-.22-.446a25.834 25.834 0 00-1.068-1.343c-.14-.16-.443-.531-.576-.48v.002zm.971 2.035c-.248.066.357.638.457.447.064-.123-.379-.467-.456-.447zm1.66.5c-.062-.002-.119-.007-.126.072-.032.341.474-.063.127-.072zm-3.967 2.902c-.064-.014-.129.01-.127.072.005.215.356-.021.127-.072zm.419-.209c-.188-.01-.012.8.144.725.129-.061-.047-.72-.144-.725zm4.171-2.31c-.09-.025-.296.626-.156.728.207.155.277-.695.156-.728zm3.576-.753c-.172-.06.093.409.191.632.477 1.08.717 2.075 1.167 3.17.196.476.263.965.383 1.263.198.49.511 1.003.677 1.364.262.576.531 1.145.867 1.759.09.166.282.636.413.606.123-.028-.135-.412-.141-.424-.392-.775-.815-1.576-1.204-2.41-.15-.32-.332-.646-.445-.956-.126-.347-.17-.729-.32-1.096-.528-1.279-.702-2.596-1.533-3.87-.026-.041-.024-.026-.054-.038zm-1.346 1.063c-.2.022.033.296.138.124.046-.078-.075-.131-.138-.124zm-4.135 2.528c-.158-.044-.011.152.028.286.045.153.031.364.097.584.081.27.318.873.413.841.107-.036-.165-.657-.199-.76-.112-.355-.112-.565-.184-.737-.034-.08-.116-.203-.155-.214zm4.232-1.641c-.275-.03.017.34.127.164.056-.089-.067-.157-.127-.164zm-2.967 1.997c-.073-.02-.248.34-.12.438.174.135.266-.398.12-.438zm-.579.358c-.178-.009-.046.149.018.327.088.24.203.824.268.823.155-.002-.102-1.14-.286-1.15zm6.243-2.27c-.138.026.06.258.138.123.047-.083-.046-.141-.138-.123zm-3.907 3.099c-.104-.007-.39.62-.215.627.112.004.409-.615.215-.627zm17.685-9.874c-.191-.018-.078.225.036.182.095-.037.089-.17-.036-.182zM71.174 42.889c-.154.001-.07.193.01.196.082.002.139-.197-.01-.196zm.306.426c-.03 0-.149.102-.043.16.092.05.237-.16.044-.16zm-2.093 2.005c-.185.002.066.23.109.073.02-.07-.068-.073-.11-.073zm2.558-1.425c-.223-.013-.272.406-.135.413.08.005.314-.403.135-.413zm-.802.895c-.23-.01.248.795.38.726.137-.073-.311-.723-.38-.726zm1.231-.505c-.253-.07-.404.832-.28.866.13.036.312-.857.28-.866zm-2.454 1.539c-.07-.005-.212.092-.184.206.07.284.437-.192.185-.206zm2.863-1.164c-.186-.052-.138.297-.207.521-.029.095-.31.803-.004.642-.033.017.341-1.128.211-1.164zm.525-.263c-.145.001-.086.168-.004.17.075.003.153-.172.004-.17zm-.098.554c-.156-.097-.165.815-.21.929-.011.026-.106.067-.113.096-.023.096-.025.478.014.498.202.105.24-.586.25-.681.039-.335.115-.49.103-.765a.273.273 0 00-.043-.077zm.377.531c-.096-.027-.424 1.276-.255 1.322.156.043.177-.403.203-.587.028-.19.152-.709.052-.736zm.33.521c-.12-.074-.106.273-.167.533-.044.184-.148.39-.157.493-.009.116.021.38.149.32.089-.043.026-.17.037-.29.032-.35.23-.674.182-.979a.273.273 0 00-.043-.076zm.393.376c-.168-.046-.094.291-.142.519-.029.132-.286.715-.063.776.115.031.139-.361.189-.612.035-.175.155-.644.016-.682v-.001zm.253.529c-.183-.05-.244 1.062 0 .943.051-.026.075-.853.069-.881-.013-.053-.044-.055-.07-.062h.001zm.297.704c-.131-.007-.244.544 0 .472.162-.048.122-.464 0-.472zm-.572 1.001c-.025 0-.192.126-.054.2.102.055.248-.197.054-.2zm-1.161.727c-.043-.031-.135.024-.127.072.02.122.241.01.127-.072zm.713.607c-.215-.01.028.271.112.138.049-.076-.04-.134-.112-.138zm1.572-.729c-.19-.01.04.317.126.162.053-.093-.062-.16-.126-.162zm-1.024 1.326c.132.106.254-.162.17-.231-.077-.065-.301.126-.17.231zm1.699-.964c-.301-.082.09.338.083.088-.002-.056-.063-.082-.083-.087zM59.274 3.576c-.121.064-.357.412.04.246.165-.07.504-.235.413-.337-.085-.096-.373.048-.453.09zm-4.392 3.043c-.3.042.152.246.269.352.137.125.198.35.303.298.167-.084-.433-.67-.571-.65zm-.209.224c-.245-.067-.017.38.101.177.044-.073-.029-.158-.1-.177zm.149.316c-.264.216.388.205.18-.037-.009-.01-.116-.017-.18.037zm.298.37c-.108.07-.146-.008-.152.087-.019.248.578-.003.583-.098.01-.16-.344-.047-.43.01zm2.915-1.557c-.313-.087.085.394.083.087 0-.04-.067-.083-.083-.087zm.036.512c-.144-.04-.115.274-.01.275.165.002.026-.271.01-.275zm2.477-.834c-.168-.046-.132.564-.073.58.128.036.21-.542.073-.58zm-2.529 1.54c-.3.215.51.174.51.011.002-.14-.435-.066-.51-.011zm1.829-.947c-.146-.04-.09.597-.02.616.086.024.173-.573.02-.616zm2.762-1.47c-.194-.053-.293 1.182-.237 1.178.053-.003.36-1.145.237-1.178zm1.032-.553c-.203-.108-.21.364.011.196.04-.03.052-.163-.01-.196zm-5.446 3.274c-.58.291.63.146.63.045.001-.117-.511-.104-.63-.045zm2.287-.837c-.093-.026.001.542-.005.878-.005.288-.119.74.065.703.131-.027.07-.61.077-.75.01-.187.08-.771-.137-.83zM66.89 3.72c-.144-.04-.356.483-.461.666-.082.141-.353.541-.233.536.088-.004.748-1.051.763-1.142.008-.046-.06-.058-.069-.06zm1.097.208c.047 0-.217.108-.054.2.108.06.23-.2.054-.2zm-.187.415c-.148-.011-.104.255 0 .236.117-.022.123-.227 0-.236zm-5.512 3.439c-.11-.071-.227.338-.15.387.053.034.266-.312.15-.387zm5.255-2.855c-.136-.037-.177.251-.077.28.111.03.15-.26.077-.28zM57.755 10.6c-.502.056.246.746.359.335.042-.153-.286-.342-.359-.334zm-.436.415c-.257-.033-.34.357-.175.403.168.046.428-.37.175-.403zm9.784-5.5c-.222-.061-.01.388.101.178.05-.094-.032-.16-.101-.178zm-.493.379c-.578.228.53.227.53.102 0-.148-.484-.12-.53-.102zm-.375.416c-.098.026-.244.025-.16.192.04.078.72.022.718-.039-.001-.13-.524-.124-.503-.116-.034-.012-.012-.048-.055-.037zm-4.727 3.095c-.178-.049-.137.224-.04.225.112 0 .165-.19.04-.225zm-1.962 1.154c-.135.073-.323.148-.457.26-.168.14-.258.369-.444.522-.435.36-1.881.97-.992 1.507.248.148.634.043 1.002-.134.486-.232 1.407-.784 1.614-1.122.078-.126.085-.336.157-.492.137-.297.324-.512-.028-.758-.201-.14-.517.033-.852.217zm.812.008c.15.124-.058.41-.11.399.037.008-.018-.096-.031-.116-.107-.154-.263-.194-.094-.283.05-.027.248.01.235 0zm-.639.768c.2.063.025-.064.163-.127.112-.05.196.108.207-.05.005-.067-.246-.386-.243-.366-.03-.163.244.257.25.262-.332-.18.22.084.142-.047.274.464-1.237 1.31-1.633 1.502-.283.137-.996.29-.997-.037 0-.115.183-.03.243-.105.034-.042-.1-.105-.05-.207.028-.06.266-.125.395-.191.13-.067.295-.149.431-.246.109-.078-.064-.15.138-.112.138.025.165.605.355.504.27-.144-.291-.489-.267-.587.032-.133.131-.049.184.029.087.124.179.314.301.232.208-.14-.284-.389-.224-.512.152-.311.313.429.51.248.137-.124-.183-.325-.234-.472.175-.083.155.229.33.283v-.001zm.094-.188c-.098-.348-.32-.25 0 0zm2.16-1.941c-.065 0-.123.192.01.196.129.004.143-.196-.01-.196zm-.671.752c-.044 0-.096-.039-.102.058-.018.315.4-.061.102-.058zm.395.082c-.31-.02.112.352.11.073-.002-.074-.052-.07-.11-.073z" fill="#81736A"/><path fill-rule="evenodd" clip-rule="evenodd" d="M58.02 12.132c-.071-.016-.15.025-.153.087-.015.277.41-.026.152-.087zm4.384-2.33c-.353-.018.203.35.095.047-.02-.052-.06-.045-.095-.047zm-4.008 2.318c-.06-.02-.136.036-.142.046-.123.232.416.043.142-.047zm.376-.144c-.19-.053-.144.263.01.196.096-.042.088-.17-.01-.196zm3.677-1.83c-.205-.008-.048.234.037.181.054-.034.11-.175-.037-.181zm-.636.431c-.133-.008-.136.216-.04.224.098.009.224-.213.04-.224zm1.206-.417c-.24-.017-.003.337.112.138.052-.089-.043-.133-.112-.138zm-.623.558c-.499.24.253.841.55.494.19-.223-.177-.673-.55-.494zm.279.312c.017-.004.083-.088.087-.084.288.356-.659.075-.29-.037.101-.03.136.138.203.12v.001zm-.975.114c-.202.023-.066.335.067.298.12-.033.125-.32-.068-.298zm-3.235 2.185c-.244-.067-.03.35.087.152.014-.024.007-.126-.087-.152zm2.622-1.429c-.193-.009-.07.237.025.221.105-.017.103-.215-.025-.22zm1.196-.546c-.05 0-.267.107-.264.185.004.162.39.385.535.232.138-.144-.07-.419-.271-.417zm-2.165 1.333c-.332.174.318.58.445.486.123-.091-.02-.447-.159-.515-.042-.02-.278.025-.286.03zm.24.301c-.017.007-.212-.128-.139-.123.059.003.192.1.138.123zm7.982-4.711c-.1.059-.209.012-.149.152.062.145 1.066-.327.406-.231a.67.67 0 00-.258.079zm-6.953 4.025c-.181-.008.021.303.112.138.052-.094-.04-.136-.112-.138zm8.253-4.438c-.068.035-.204.03-.188.141.021.146.45-.061.584-.097.13-.035.4-.081.66-.14.118-.027.715-.169.468-.3-.06-.033-.065.039-.243.104-.403.147-.885.088-1.28.292zm-3.14 1.79c-.126-.035-.29.499-.128.543.086.024.318-.491.128-.543zm-5.072 2.956s-.191.124-.055.199c.093.05.248-.201.055-.2zm-2.303 1.35c-.173-.047-.12.273.036.182.085-.05.051-.158-.036-.182zm8.115-4.486c-.258.222.198.016.392-.022.307-.06.042-.19-.138-.123a.837.837 0 00-.254.145zm-.2.176c-.024-.003-.298.39-.13.477.147.076.379-.461.13-.478zm.497-.078c-.22-.008-.119.527.123.334.052-.041-.042-.33-.123-.334zm.923-.429c-.337.238.226.08.355.033.89-.32 1.721-.782 2.55-1.251.061-.034.497-.239.324-.319-.09-.04-.626.325-.726.38-.363.197-.846.552-1.27.724-.282.114-.874.18-1.233.433zm-4.765 2.916c-.108-.03-.242.107-.2.18.087.153.4-.126.2-.18zm4.363-2.449c-.076-.004-.151.017-.152.087-.003.288.447-.066.152-.086zm.552-.147c-.41.158.346.261.17.004-.055-.081-.074-.04-.17-.004zM62.5 12.98c-.236.033.137.32.148.084.005-.103-.08-.094-.148-.084zm7.031-3.907c-.053-.015-.172.022-.177.101-.024.318.443-.028.177-.1zm.267-.12c-.22.024.028.252.115.203.118-.066-.007-.215-.115-.203zm-5.247 3.124c-.065-.018-.499.458-.323.555.08.043.549-.493.323-.555zm.699-.06c-.324.145.674.336.78.363 1.049.267 2.117.597 2.993.885.207.069.448 0 .135-.177-.21-.118-.496-.131-.772-.233-.978-.362-2.153-.598-3.07-.842-.025-.007-.031-.012-.065.003zm-.113.2c-.194-.053-.614.602-.32.62.15.009.02-.104.105-.228.066-.096.458-.325.214-.391h.001zm-2.159 1.363c-.323.29.61.108.504-.12-.046-.1-.41.033-.504.12zm2.552-1.08c-.104-.058-.616.673-.28.63-.018.002.454-.535.28-.63zm-2.292 1.433c-.025.023-.129.007-.073.11.062.112.678-.085.657-.207-.028-.16-.459-.015-.584.098zm-1.786 1.229c-.21.115-.204.004-.228.13-.066.346.73-.134.522-.264-.055-.034-.15.055-.294.134zm4.568-2.44c-.212-.058-.34.649-.025.486.1-.052 0 .024-.008-.13-.004-.102.224-.303.034-.356zm-2.484 1.482c-.047.029-.205.016-.189.141.017.131.929-.174.9-.31-.031-.15-.579.087-.71.169zm-1.321.822c-.233-.003.182.406.323.623.15.234.255.536.412.842.53 1.039.973 1.78 1.326 2.743.158.431.124.684.256 1.098.025.08.039.264.12.269.282.017-.056-.59-.076-.664-.042-.166-.057-.474-.115-.674-.058-.2-.169-.367-.238-.537-.07-.17-.085-.348-.145-.49-.211-.5-.582-1.027-.857-1.563-.307-.599-.503-1.207-.951-1.611-.033-.03-.016-.036-.055-.037zm-.236.403c-.105-.012-.656.313-.475.405.12.062.727-.376.475-.405zm4.623-2.531c-.181-.05-.262.431-.033.355.106-.036.123-.33.033-.355zm-1.63 1.703c-.035-.03-.643.166-.646.166.028 0-.227-.027-.218-.146 0 .012.561-.27.457-.26.063-.005.737.355.834.4.284.131.531.369.8.52.574.32 1.13.853 1.522 1.253-.04-.04.367.56.477.367.02-.037-.234-.366-.34-.48-.723-.776-1.678-1.42-2.615-1.874-.38-.184-.45-.344-.746-.248-.123.04-.812.12-.769.304.024.104.171.04.199.055.152.083.386.555.637.41.064-.036-.089-.146-.087-.152-.013.037.689-.146.493-.315h.002zm-2.988 1.329c-.016.009-.311.146-.117.268-.014-.01.56-.249.425-.377-.035-.033-.196.04-.308.109zm5.136-2.894c-.249.01.074.38.166.174.05-.109-.118-.176-.166-.174zm.693.112c-.106.057-.021.184.105.243.03.014.111-.083.087-.083.039 0 .516.17.352-.033-.095-.117-.153.018-.315-.022-.176-.042.011-.233-.23-.105zm-5.742 3.269c.003-.001-.048-.012-.065.003-.122.12.515 1.445.643 1.72.159.34.357.627.524.98.057.12.33.577.428.395-.001.002-.19-.384-.221-.445-.341-.669-.486-.846-.817-1.553-.098-.21-.398-.761-.376-.896-.01.06.355-.282.309-.344-.051-.068-.303.035-.425.14zm4.97-2.794c-.357.05.499.292.522.208.026-.098-.52-.208-.522-.208z" fill="#81736A"/><path fill-rule="evenodd" clip-rule="evenodd" d="M64.421 15.414c.053.027.1-.038.218-.09.168-.073.755-.15.758-.263.003-.115-.889-.011-1.023.212-.004.007.018.127.047.142zm-3.665 2.056c.043 0-.161.09-.029.185.107.078.233-.189.03-.185zm4.199-2.023c-.554.35.971-.049.917-.22-.027-.087-.815.156-.917.22zm-2.313 1.318c-.02 0-.187.084-.08.214.076.091.269-.21.08-.214zm-1.565 1.162c-.305.002.093.282.152.15.042-.095-.01-.15-.152-.15zm.514-.127c-.269-.073.623 1.717.311.665-.041-.139-.119-.612-.31-.664zm3.563-1.994c-.023.02-.108-.017-.101.058.02.23.473-.043.623-.086.229-.066.602-.039.566-.188-.02-.079-.402-.043-.395-.044-.223.047-.566.152-.693.26zm-4.093 2.603c-.23.183.452.266.46.04.006-.134-.421-.07-.46-.04zm2.045-1.071c-.265-.003.112.311.11.073-.002-.077-.054-.072-.11-.073zm6.857-3.839c-.277.111.523.473.537.233.007-.115-.494-.25-.537-.233zm-4.17 2.477c-.342.204.111.088.202.12.256.089.686.656 1.05 1.016.46.455.734.69 1.072.936.077.057.41.26.493.157.129-.159-.241-.216-.315-.258-.519-.294-1.032-.822-1.554-1.369-.135-.143-.486-.487-.484-.497.009-.14.288-.055.224-.196-.04-.091-.632.056-.688.09zm-4.701 2.849c-.385.243.674.208.681.015.002-.078-.585-.076-.681-.015zm.205.424c-.578.274.787.22.668-.01-.015-.029-.584-.03-.668.01zm.983.548c-.18-.05.031.542.108.78.221.681.309.979.408 1.483.005.024.011.353.148.319.118-.03.008-.523-.006-.602-.078-.424-.223-.859-.358-1.277-.055-.173-.148-.662-.3-.704zm1.635.143c-.358-.099.183.707.286.678.13-.036-.149-.64-.286-.678zm4.685-2.569c-.322-.025.18.399.293.573.013.02.18.52.3.233.045-.107-.518-.8-.593-.806zm-2.674 3.747c-.204-.064-.146.269-.025.25.117-.018.174-.204.025-.25zm2.748 4.524s.014.022.014.026c.001.006-.02.408.101.413.265.011.07-.715-.115-.439zm.728 1.031c-.169-.005-.083.256.014.261.116.007.163-.255-.014-.261zm.315.794c-.245-.052.062.383.156.214.055-.098-.1-.202-.156-.214zm.568.891c-.101.004-.191.183-.04.225.069.019.205-.232.04-.225zm.278.712c-.112.022-.014.287.094.283.139-.005.13-.327-.094-.283zm.615.863c-.3.021.14.34.15.083.002-.094-.082-.088-.15-.083zm2.066 4.037c-.072 0-.07.197.01.196.074-.001.125-.198-.01-.196zm.319.522c-.15.003-.023.204.05.206.07.002.11-.211-.05-.206zm.455.885c-.199-.105-.014.423.09.217.005-.01 0-.17-.09-.218zm8.139-3.793c.044-.155-.268-.176-.264-.05.002.086.224.198.264.05zM74.59 36.33c-.138-.047-.112.186-.03.185.104 0 .15-.144.03-.185zm.434.931c-.314-.086.083.402.083.087 0-.056-.064-.081-.083-.087zm.409.846c-.14-.006-.1.318.029.286.11-.027.135-.28-.029-.286zm-3.677 3.198c-.19-.051-.305.66-.197.718.133.071.284-.694.197-.718zm.498.058c-.298.035.399.53.6.7.183.154.336.355.551.494-.94-.606.115.182.2.055.044-.069-.525-.583-.612-.66-.311-.278-.54-.436-.684-.552-.031-.026-.016-.042-.055-.037zm-.129.609c-.258-.07-.04.404.087.153.035-.068-.023-.136-.087-.153zm.478.536c-.278.012.034.313.108.308.219-.011.036-.314-.108-.308zm1.068.976c-.178-.049-.162.264-.05.264.131.001.114-.247.05-.264zm-.362 1.218c-.221.019.277.56.42.736.258.32.534.896.87 1.118.25.164.005-.197-.067-.298-.33-.455-.909-1.284-1.17-1.52-.03-.028-.016-.04-.054-.037zm2.344-1.008c-.224.004.062.294.152.149.056-.09-.103-.15-.152-.149zm-1.781 1.292c-.196.022.05.284.137.123.053-.097-.062-.131-.137-.123zm6.798-3.501c-.171 0 .03.365.127.163.046-.095-.07-.163-.127-.163zm-4.612 2.66c-.007.001-.2.119-.055.199.131.07.337-.299.055-.2zm1.904-.851c-.131-.011-.323.4-.182.507.136.104.38-.492.182-.507zm-1.426.979c-.163-.044-.41.58-.203.586.082.004.29-.563.203-.586zm-2.186 1.249c-.197-.054-.02.268.073.127.031-.047 0-.108-.073-.127zm6.35-3.316c-.06-.02-.13.025-.14.046-.132.257.425.048.14-.047zm-5.927 3.641c-.047-.003-.13.058-.098.123.088.179.363-.11.098-.123zm2.255-1.077c-.032-.009-.388.334-.381.453.024.366.561-.403.381-.452zm3.772-1.782c-.136.016-.03.195.062.167.1-.03.074-.181-.062-.167zm-5.621 3.229c-.1-.055-.37.313-.28.395.135.12.4-.33.28-.395zm7.953-4.221c-.09-.024-.376.753-.482.747-.082-.006-.039-.186-.127-.163-.168.041-.079.35-.066.475.015.144.105.76.192.395.007-.032-.024-.311-.007-.366.01-.033.107-.043.127-.072.034-.05.031-.203.087-.318.105-.217.504-.634.277-.696v-.002zm-2.813 1.669c-.17-.007-.312.986-.195 1.018.109.03.345-1.012.195-1.018zm.659-.074c-.182-.005-.111.205-.015.21.095.007.19-.205.015-.21zm-5.107 3.251c-.018-.005-.039-.017-.065.004-.236.196-.619 1.095-.422 1.148.142.04.115-.28.197-.482.075-.189.426-.634.29-.67zm7.334-4.149c-.308-.098.102.36.098.113 0-.027-.026-.09-.098-.113zm-.086.387c-.114-.031-.459.517-.284.565.095.026.44-.523.284-.565zm-2.017 1.178c-.129-.035-.45.204-.323.32.108.096.483-.276.323-.32zm-5.038 2.909c.006 0-.629 1.156-.418 1.213.153.042.08-.134.152-.322.056-.142.494-.829.266-.891zm7.339-4.12c-.184-.027-.006.242.064.232.104-.014.018-.22-.064-.232zm-.326.794c-.147-.04-.348.361-.226.432.081.046.375-.39.226-.432zM81.12 44.96l-.014-.026c-.014.02-.534.334-.33.424.125.055.544-.324.345-.399zm-4.317 2.827c-.147-.04-.762 1.098-.549 1.22.098.056.236-.54.28-.63.07-.142.429-.547.269-.59zm7.014-3.896c-.063 0-.175.117-.069.174.092.05.259-.172.07-.174zm-2.544 1.619c-.099-.027-.727.382-.587.503.084.073.802-.445.587-.503zm-4.2 2.66c-.09-.058-.641.957-.48 1.048.08.046.466-.845.498-.956.003-.013.006-.075-.018-.091zm6.719-3.226c-.15-.002-.062.35.032.352.112.002.124-.35-.032-.352zm-1.711 1.046c-.156-.042-.132.179-.054.2.079.022.177-.166.054-.2zm-4.364 2.924c-.1-.028-.702.7-.52.801.094.051.659-.762.52-.801zm4.511-2.337c-.053-.001-.184.131-.055.199.104.055.248-.197.055-.2zm1.682-.522c-.147-.002-.104.203-.014.21.083.007.174-.207.015-.21zm-1.823 1.28c-.076 0-.173.138-.055.2.097.05.257-.196.055-.2zm1.21-3.89c-.033-.009-.058-.012-.05.029.182 1.053.26 2.533.027 3.651-.04.19-.083.383-.113.57-.062.385-.119.82-.317 1.155-.09.152-.564.645-.581.87-.026.32.329-.208.413-.338.39-.595.573-.928.67-1.659.106-.809.339-1.665.267-2.54-.036-.456-.024-.95-.124-1.343-.04-.153-.156-.386-.193-.396v.001z" fill="#81736A"/><path fill-rule="evenodd" clip-rule="evenodd" d="M82.73 44.877c-.163-.044-.074.66-.088.79-.076.72-.285 1.588-.446 2.171-.029.109-.035.448-.105.465-.004 0-.318-.33-.403-.175-.054.099.206.267.224.276.036.016.177.015.171.004.005.008-.128.564-.154.558-.046-.011-.337-.714-.48-.432-.08.157.087.116.183.264.057.087.084.227.12.27.042.048.104-.008.12.032.02.051.008.39-.07.41-.165.04-.331-.72-.542-.599-.049.027.133.476.285.678.122.163.218.08.17.24-.154.524-.477-.721-.674-.356-.045.083.225.276.225.276.147.193.232.533.42.501.22-.037.417-1.187.462-1.373.117-.49.252-.92.383-1.395.115-.422.108-.818.168-1.24.041-.286.253-.93.143-1.225a.338.338 0 00-.111-.138v-.002zm-3.931 5.203c-.145.053.118.416.227.341.127-.087-.1-.388-.227-.34zm2.202-.143c-.24 0 .337.729.457.681.132-.051-.295-.682-.457-.681zm-.276 1.875c-.028-.002-.161.09-.109.163.114.16.34-.15.109-.163zm.441.821c-.05-.029-.655.853-.31.815.048-.005.342-.54.356-.674a.397.397 0 00-.047-.141zm.394 1.766c-.14-.08-.553.665-.292.67.091.003.075-.185.153-.322.054-.092.3-.255.139-.347v-.001zm.427 2.346c-.16-.005.091.294.138.124.026-.092-.085-.121-.138-.123zm.127.567c-.15-.042-.078.251.025.22.098-.029.087-.19-.025-.22zm.146.788c-.16-.006.01.306.113.14.055-.092-.044-.137-.112-.14zm.077.562c-.205-.004.009.311.112.138.048-.08-.038-.136-.112-.138zm-5.041-34.839c-.114-.062-.178.379-.095.424.121.064.276-.327.095-.424zm2.014-.303c-.047.007-.167.197-.011.275.15.074.243-.316.011-.276zm-.376 1.522c-.086-.006-.188.06-.11.163.106.14.332-.148.11-.163zm.184.398c-.173-.012-.25.415-.095.425.11.007.272-.411.095-.424zm-1.142.889c-.265-.031.03.38.14.189.057-.099-.099-.184-.14-.19zm.413-.065c-.19-.052-.02.587.144.49.099-.06-.065-.469-.144-.49zm-.356.503c-.227.045.218.4.308.363.198-.082-.204-.383-.308-.363zm-.222 1.739c-.091-.005.054.774.228.576.09-.101-.044-.566-.228-.576zm2.929-.116c.026-.021.013-.212.011-.276-.004-.117.034-.23-.064-.232-.204-.004-.133.65.053.507zm-3.586 2.04c-.057-.017-.13.006-.141.046-.061.22.37.016.141-.047zm2.502 1.666c-.108-.03-.328.618-.16.662.12.033.3-.624.16-.662zM61.747 11.792c-.453.061.088.678.311.428.158-.177-.185-.446-.311-.428zm-2.141 1.523c-.446.146.119.529.297.403.23-.162-.047-.484-.297-.403z" fill="#81736A"/><path fill-rule="evenodd" clip-rule="evenodd" d="M54.128 10.85c-.035-.061-.62-.34-.862-.45-.971-.438-2.047-.755-3.208-.73-.283.007-.92-.193-1.142-.055 0 0-.154.16-.16.192-.012.08.132.14.145.254.008.079-.12.14-.091.254.086.346.65.678.923.853.338.218.705.335 1.022.494.359.182.717.311 1.043.415a9.18 9.18 0 002.236.442c.106.007 1.098.03 1.164.211.068.19-.233.29-.298.304-.137.033-.32-.046-.396-.043-1.339.04-3.666.126-5.427.57-.287.07-1.052.385-1.169.665-.01.022.028.126-.004.17-.096.131-.258.065-.25.21.005.095.208.115.235.236.04.174-.177.019-.065.24.093.184.828.313 1 .338.878.132 1.798-.039 3.1-.522.812-.3 1.593-.728 2.434-.983.225-.068.768-.301.67.055-.03.116-.806.122-1.01.173-1.29.317-2.28 1.439-3.734 2.127-.699.33-1.145.261-1.723.342-.106.015-.636.107-.696.195-.147.218.114.112.072.362-.042.246-.243.073-.247.275-.004.186.383.336.478.367 1.245.403 3.003.098 4.573-.654.8-.383 1.728-1.022 2.232-1.574.123-.134.566-.683.275-.224-.127.2-.357.476-.476.641-.228.32-.455.65-.66.848-.484.465-.884.733-1.492.984-.748.308-1.47.81-1.905 1.32-.185.217-.407.687-.393.964.01.2.11.652.213.787.049.064.318.205.351.203-.02.001.484-.17.45-.155.43-.187.775-.465 1.088-.688.408-.29.88-.395 1.343-.597.28-.122.556-.324.798-.488.192-.13.476-.543.359-.137-.192.666-.293 1.494-.206 2.237.032.281.092.676.245.903.06.088.147.098.247.196.113.111.186.366.333.348.022-.003.11-.083.127-.073.075.045.178.348.318.324.171-.03.245-.802.292-.906.115-.263.38-.515.563-.96.086-.21.217-.626.306-.88.11-.316.266.582.303.768a20.1 20.1 0 01.274 1.662c.03.245.068.681.176.84.06.088.114.051.218.146.061.057.08.209.155.214.149.011.422-.328.44-.35.316-.44.466-1.168.622-1.802.16-.654.325-1.148.343-1.877.021-.886-.324-2.18-.753-3.271-.116-.296-.458-1.022-.401-1.118.006-.01.249-.13.308-.108.104.038.103.686.137.83.071.304.19.635.274.954.235.888.656 1.863 1.018 2.85.164.445.596.923.836 1.408.165.333.373.674.659 1.038.125.16.468.595.636.646.128.037.23-.115.417-.036.127.053.123.203.247.196.16-.009.384-.864.386-1.094.005-.622-.281-1.336-.48-2.081-.103-.39.304.257.388.384.296.45.672 1.065.999 1.281.057.038.294.135.348.138.009 0 .26-.05.297-.069.046-.023.263-.265.288-.264.12.009.41.613.567.82.797 1.04 1.66 2.238 2.415 3.47.46.754.953 1.53 1.37 2.347.762 1.49 1.885 3.436 2.738 5.1.71 1.386 1.297 2.868 2.053 4.314 1.197 2.286 2.344 4.539 3.2 6.857.095.258.249.587.321.86.084.313-.2-.16-.275-.247-.648-.754-1.41-1.473-2.15-2.005-.38-.272-.842-.655-1.276-1.056-.447-.415-.967-.73-1.25-1.071-.592-.717-1.345-1.025-1.98-1.765-.284-.331-.5-.695-.775-1.006-.492-.555-1.079-1.088-1.596-1.681-.512-.586-.942-1.393-1.543-1.645-.026-.011-.403-.132-.475-.066-.065.061-.002.751.024.929.171 1.125.869 2.126 1.152 3.38.061.27.114.6.165.88.116.627.09 1.502.201 2.242.003.022.187.565.112.61-.059.034-.315-.247-.3-.233-.47-.468-.91-.97-1.322-1.434-.172-.195-.478-.528-.507-.653-.027-.12.197-.518.226-.667.122-.647 0-1.28-.085-2.037-.093-.848-.166-1.538-.576-2.43-.162-.352-.188-1.106-.325-1.16-.362-.146-.5.937-.505 1.06-.04.77.056 2.048.25 2.92.095.43.196.6.209.957.013.387-.242-.244-.337-.413-.53-.94-.857-1.822-1.196-2.75-.135-.367-.3-.735-.347-1.08-.056-.412.133-.878.136-1.356.005-.822-.278-1.628-.893-2.453-1.037-1.39-2.352-2.168-3.723-2.52a4.494 4.494 0 00-.91-.122c-.434.001-1.233.38-1.709.84-.11.105-.165.332-.233.535-.093.283-.14.44-.207.758-.025.12-.106.24-.102.294.004.056.099.186.12.268.052.212.028.459.09.689.376 1.421 1.383 2.561 2.474 3.4.521.4 1.14.786 1.637.985.383.153.92.245 1.32.19.144-.02.3-.13.438-.115.248.027.714.462 1.025.796.815.874 1.283 1.812 2.012 2.822.213.294.58.664.199.527-.239-.087-.332-.166-.58-.31-.208-.12-.642-.294-.794-.389-.443-.275-.649-.509-1.18-.774-.622-.309-2.034-.695-2.802-.724-.098-.005-.233.046-.377.045-.36.002-.987-.147-1.204.014-.078.057-.148.285-.11.398.115.334 1.058.858 1.272.992 1.266.787 2.586 1.743 4.091 1.807.148.006.332-.016.497-.014.167.002.342.015.471 0 .107-.011.486-.054.584-.097.185-.081.439-.454.66-.376.173.06.501.632.673.828.484.549.886.992 1.34 1.524.234.274.523.49.68.722.24.354.33.812.481 1.14.737 1.603 1.863 2.641 2.867 3.614.515.5 1.017 1.02 1.568 1.394.267.182.563.324.825.506.723.498 1.505.958 2.32 1.235.232.08.523.127.797.22.258.084.533.21.771.232.168.014.372-.051.547-.043.22.01.428.094.62.085.126-.007.302-.066.518-.094.087-.012.455-.103.494-.08.2.12.21.734.245.904.067.318.202.636.27.888.135.498.245 1.074.39 1.629.343 1.306.494 2.179.682 3.38.149.957.33 1.703.301 2.654-.011.357-.119 1.035.03 1.294.26.448.967.31 1.259-.212.15-.268.066-.502.03-.89-.038-.413-.018-.737-.133-1.237-.211-.923-.266-1.914-.457-2.87-.37-1.855-.68-3.448-1.17-5.42-.075-.3-.363-.974-.322-1.095.056-.163.512-.348.708-.471.916-.574 1.58-1.108 1.913-1.898.301-.712.516-1.59.63-2.377.098-.665-.038-1.367-.138-2.074-.063-.444.003-.96-.172-1.483-.168-.5-.482-.949-.748-1.491-.362-.736-.656-1.474-1.182-2.253-.14-.207-.348-.335-.438-.592-.052-.148.001-.34-.014-.496-.115-1.175-.425-2.419-.764-3.703-.059-.224-.193-.564-.154-.685.086-.275.628-.47.928-.731.151-.131.595-.84.687-1.098.094-.264.135-.75.14-1.055.001-.152.082-.455.087-.554.012-.229-.016-.672-.024-.928-.008-.23-.019-.871-.206-.892-.127-.015-.456 1.072-.513 1.166-.156.26-.38.483-.549.75-.396.627-.618 1.435-.756 2.214-.081.455-.193-.306-.271-.653-.157-.695-.479-1.866-.222-2.397.048-.098.191-.202.284-.33.078-.108.118-.26.203-.35.225-.247.425-.328.54-.645.11-.296.177-1.296.119-1.682-.134-.887-.623-1.901-1.251-2.786-.219-.308-.525-.677-.767-.874-.147-.12-.375-.174-.566-.284-.092-.053-.24-.23-.354-.27-.107-.036-.24.029-.457.026-.22-.005-.376-.18-.504-.117.009-.005-.169.303-.214.39-.178.348-.355.93-.444 1.23-.25.842-.285 1.509-.22 2.446.045.661.295 1.648.667 2.412.239.492.66.86.985 1.02.19.094.395.059.532.167.251.198.622.923.778 1.306.094.232-.265-.14-.297-.166-.53-.43-1.266-.694-2.033-1.03-.213-.092-.454-.259-.587-.203-.346.146-.15.583.072.834.353.4.834.524 1.347.948.482.397.846 1.006 1.238 1.346.339.294.728.39.899.632.144.204.195.702.267 1.06.12.6.117 1.133.186 1.744.014.128.095.404.097.583.004.387-.186-.074-.384-.32-.186-.231-.853-1.262-1.086-1.198-.216.061-.3.82-.295 1.076.008.45.12.85.144 1.197.063.895.093 1.547.152 2.335.056.74.14 1.522-.007 2.291-.107.565-.317 1.364-.293 2.085.014.397-.425-.668-.473-.773-.717-1.55-1.46-3.127-2.252-4.84-1.136-2.454-2.624-4.854-3.895-7.369-.972-1.922-2.226-4.144-3.313-6.051-.659-1.156-1.418-2.303-2.29-3.607-.446-.666-1.149-1.387-1.407-2.058-.088-.229-.113-.505-.2-.761-.44-1.32-1.097-2.818-2.042-4.118-.178-.244-.495-.56-.724-.798-.206-.214-.7-.61-.735-.759.006.026.056-.293.142-.282.062.007.128.187.257.392.465.738 1.116 1.273 1.695 1.793.195.176.41.283.586.44.576.514 1.252 1.233 1.861 1.732.324.264.654.48.956.733.373.311.98.827 1.424.905.15.026.597.074.656.03.146-.11-.05-.27.033-.355.068-.069.272.117.391-.02.08-.095.033-.4-.032-.588-.415-1.204-1.63-2.472-2.421-3.128-.52-.432-1.37-.9-1.92-1.127-.247-.101-.494-.135-.707-.237-.398-.19-.928-.402-1.37-.632-.032-.017-.602-.294-.636-.41-.019-.063.266-.512.377-.519.12-.007.27.29.348.374.062.067.153.16.275.247.78.552 1.7.961 2.659 1.479.452.244.92.455 1.369.632a5.883 5.883 0 002.157.42c.561.012 1.252-.127 1.867-.324.171-.055.398-.157.457-.26.067-.116-.037-.025-.04-.246 0-.08.087-.158.08-.214-.004-.038-.105-.09-.126-.164-.037-.128.059-.09.004-.17-.064-.093-.356-.296-.532-.403-.237-.143-.542-.236-.82-.375-.263-.132-.55-.227-.829-.335-1.1-.426-2.217-.758-3.37-1.073a15.584 15.584 0 00-2.291-.478c-.058-.008-.547-.026-.58-.073-.05-.07.059-.497.102-.53.072-.053.54.032.736.052.737.076 1.45-.033 2.259-.109.935-.088 2.398-.665 3.257-1.014.672-.273 1.3-.547 1.763-1.038.141-.149.357-.336.484-.51.115-.162.299-.692.218-.798-.14-.185-.146.056-.261.014-.047-.017.003-.104-.062-.167a2.66 2.66 0 00-.348-.138c-.178.011-.41.185-.576.228-.485.121-.94.002-1.4.023-.42.02-.954.14-1.439.249a8.435 8.435 0 00-2.942 1.272c-.401.272-.969.671-1.585.937-.346.149-.304-.09-.11-.309.113-.126.27-.187.429-.311 1.311-1.025 3.344-2.183 3.942-3.592.166-.389.347-.848.48-1.282.129-.426.309-.914.335-1.301a1.244 1.244 0 00-.032-.352c-.043-.11-.169-.148-.21-.251-.035-.085.064-.203.022-.315-.036-.094-.134-.017-.189-.095-.054-.077.067-.22-.043-.312-.128-.106-.724.07-.856.151-.618.383-1.02 1.296-1.314 1.825-.169.301-.29.63-.458.968-.157.313-.408.61-.658.913-.76.92-1.498 1.675-2.091 2.705-.065.112-.446.899-.568.895-.38-.01.043-.443.139-.584.3-.44.322-.537.523-.971.257-.554.427-1.01.594-1.616.254-.927.524-1.829.645-2.823.044-.364.263-1.277.097-1.602-.062-.12-.132-.087-.232-.171-.035-.03-.026-.094-.072-.127-.042-.03-.128-.044-.12-.033-.065-.086.01-.221-.104-.243-.18-.033-.569.395-.727.616-.472.66-.843 1.607-.988 2.279-.291 1.342-.444 2.362-.622 3.751-.022.173-.096.434-.149.624-.02.072-.102.562-.243.576-.112.01-.084-.32-.083-.323.004-.346.102-.669.085-1.092-.025-.574-.058-1-.075-1.606-.009-.365.042-.754.006-1.113-.034-.333-.135-.662-.159-.986-.023-.322.038-.651.002-.943-.03-.23-.1-.666-.333-.82-.023-.015-.28-.046-.265-.051-.12.039-.162.275-.221.26-.143-.035.058-.31-.123-.333-.127-.016-.533.452-.563.489-.079.1-.152.248-.229.366-.457.706-.54 1.731-.482 2.697.044.721.036 1.306.407 2.19.082.195.183.422.314.73.11.256.477.904.068.768-.104-.034-.233-.498-.253-.562-.097-.304-.155-.538-.238-.773-.157-.439-.322-1.154-.452-1.56-.263-.82-.781-1.666-1.23-2.394-.116-.19-.242-.483-.423-.566-.055-.026-.104.069-.246.039-.068-.014-.122-.132-.178-.135-.034-.001-.139.123-.163.127-.089.014-.153-.17-.28-.077-.108.08-.03.525-.012.747.024.269.091.55.134.765.028.14.001.368.042.548.05.219.162.464.235.707.27.896.74 1.806 1.378 2.713.242.345.68.637.677.893 0-.03-.296.434-.45.391-.11-.03-.431-1.144-.56-1.396a3.654 3.654 0 00-.316-.494c-.274-.358-.773-.798-1.25-1.07-.155-.09-.379-.123-.535-.234-.212-.15-.778-.747-1.01-1.005-.228-.253-.42-.568-.645-.541-.176.02-.013.115-.135.177-.074.039-.16-.172-.26.014-.11.204-.146-.11-.316-.022-.123.063-.096.454-.073.58.06.336.209.726.285.914.105.258.232.545.344.78.398.834 1.012 1.346 1.564 1.8.23.19.513.393.858.621.144.095.838.463.87.581.006.026-.197.49-.394.493-.175.002-.468-.658-.647-.842-.636-.654-1.29-1.073-2.108-1.693-.54-.409-1.04-.916-1.492-1.201-.232-.147-.663-.38-.74-.353-.095.035-.072.126-.145.217a2.78 2.78 0 01-.174.167c-.109.018-.2-.153-.294-.102-.158.087.2.993.357 1.276.547.982 2.14 1.879 2.804 2.44.017.015.032.056.043.076l.004.006zm3.174-4.23c.016.037.157.475.282.377.077-.06-.047-.197-.05-.206-.434-1.077-.906-2.074-1.004-3.061-.044-.441.097.015.21.25.36.753.663 1.29.9 1.876.028.07-.013.318.12.269.063-.024.044-.15.043-.16-.021-.3-.366-.905-.614-1.433-.142-.303-.372-.846-.542-1.07-.09-.118-.274-.422-.054-.272.1.068.2.01.265.051.11.07.449.62.54.77.096.16.2.318.328.519.498.777.944 2.459 1.13 2.989.105.297.144.315.087.387-.015.02-.83.126-.639.297.102.09.618-.233.696-.196.087.042.089.316.083.324-.066.098-.586-.086-.53.133.03.11.257.05.37.058.258.02.366.073.312.192-.065.143-.565-.055-.61.111-.044.163.364.084.45.08-.57.022.178-.023.16.044-.037.132-.136.052-.218.09-.339.158-.233.107-.467-.17-.175-.209-.4-.371-.42-.501-.007-.05.13-.007.153-.087.033-.123-.4-.916-.522-.679-.036.07.24.384.275.483-.077-.217.057.192.01.196-.031.002-.46-.64-.553-.795-.337-.567-.675-1.28-.817-1.788-.246-.885-.409-1.652-.392-2.401.106 1.026.529 2.17 1.018 3.322v.001zM53.57 5.618c.07-.036.026-.22.076-.28.039-.044.183-.132.229-.13.101.008.14.15.293.338.209.26.687.622.779.835-.01-.021-.022.133-.033.12.077.084.299.14.431.225.148.094.291.242.41.304.294.157.596.17.847.425.426.435 1.06 1.523 1.183 2.018.01.038.042.397-.084.384-.109-.011-.356-.557-.401-.646-.24-.471-.955-1.537-1.376-1.706-.522-.209.227.347.206.421-.024.086-.18.085-.268.12-.266.103-.336.215-.465.13-.368-.247.583-.251.458-.497-.085-.167-.51.174-.667.246-.306.138-.178.12.043.312.587.51.987.897 1.502 1.398.078.075.36.468.49.326.118-.13-.21-.24-.265-.286-.227-.189-.26-.299-.652-.672-.157-.15-.347-.307-.51-.483-.202-.218-.163-.199.152-.323.101-.04.63-.184.544.128-.023.082-.486-.076-.49.144-.002.11.505.075.54.063.193-.069.264.21.417.435.253.371.907 1.365.281 1.32-.045-.004-.3-.17-.446-.251-.79-.444-1.888-1.216-2.487-1.947-.355-.432-.67-1.159-.846-1.603-.114-.285-.348-.984-.173-1.012.124-.02.116.228.282.142v.002zm6.348-3.381c-.046.2-.096.939-.124 1.315-.019.239.054.36-.088.319-.06-.017-.51.21-.537.238.025-.027-.188.227-.011.276.134.036.432-.395.635-.362.082.014-.354.417-.019.145-.03.025-.144-.02-.17-.004-.162.103-.572.368-.523.5.089.24.686-.511.675-.35-.01.141-.658.634-.74.59.029.015-.04-.28-.047-.377-.046-.567.119-1.324.386-1.801.105-.185.387-.752.578-.7.127.035.004.128-.015.21zm.87.345c.03.24-.023.594 0 .943.02.336.145.67.172 1.011.016.2-.01.426-.005.642.013.448.044.88.031 1.295-.006.232.035.452.036.653.002.362-.083.702-.114 1.04-.012.128.008.383-.055.434-.072.06-.306.014-.392.022-.065.006-.404.09-.428.075-.243-.137-.342-.95-.372-1.066-.112-.43-.378-.83-.488-1.27-.075-.298-.088-.628-.1-.884-.003-.06-.048-.3-.043-.312.052-.118.71-.54.744-.524-.003-.001-.026.265-.026.25 0 .103-.09.773.079.729.138-.036.03-.378.03-.42a14.81 14.81 0 01.213-2.578c.018-.11.059-.662.116-.268.103.702.118 1.314.183 1.915.01.091.037.688.155.685.1-.003.041-.422.047-.33-.023-.323-.024-.457-.038-.718-.014-.257-.276-1.943-.067-1.947.216-.003.308.512.322.624zM51.711 7.08c.999.612 2.075 1.489 3.028 2.245.328.26.71.546.989.85.126.137.585.726.582.845 0 .008-.253.298-.297.304a5.972 5.972 0 00-.377-.189c-.353-.14-.502-.254-.84-.53-.361-.295-.418-.364-.714-.603-.32-.26-.247.015-.026.25.198.209.396.263.642.475.356.309.429.37.84.53.019.008.38.104.341.244-.044.157-.475.053-.616-.02-.372-.186-.806-.684-1.097-.922-.44-.357-.878-.616-1.243-.94-.466-.416-1.08-.926-1.383-1.6-.069-.155-.255-.557-.112-.61.1-.037.175.144.262.221.286.255.605.491.793.625.213.152.516.409.804.585-.032-.02.275.179.279.076.007-.2-.362-.31-.507-.417-.392-.292-.699-.52-1.025-.795-.187-.159-.682-.593-.376-.66.04-.01.022.016.054.036zm11.864-5.749c-.092.167-.143.442-.262.722-.266.622-.585 1.352-.623 2.036-.026.451.105-.003.16-.191.202-.694.376-1.218.644-1.881.068-.169.183-.659.407-.703.256-.05.255.302.26.457.018.515-.104 1.008-.183 1.45-.02.108.012.262-.007.34-.058.234-.228-.117-.272.054-.032.124.18.18.196.225.017.051-.105.647-.176.874-.06.193-.127.231-.337.293-.174.051-.27.085-.24-.065a32.5 32.5 0 01.361-1.552c.117-.45.32-.963.353-1.445.018-.24-.104-.217-.145-.02-.035.174.015.135 0 .237-.067.437-.477 1.624-.554 2.098-.118.737-.338 1.533-.521 2.215-.036.133-.047.277-.084.384-.009.025-.256.35-.033.355.099.003.04-.215.193-.311.13-.083.05-.008.156-.022.585-.077-.185.282-.182.272-.042.14.23.164.203.12.117.19-.608 1.256-.843 1.354-.085.037-.416.014-.474-.066-.084-.112.195-1.033.24-1.348.25-1.725.414-3.553 1.168-5.038.146-.29.208-.645.592-.91.023-.016.048-.017.065-.003.007.005-.056.059-.062.07zm-14.372 8.49c.802.09 1.41-.023 2.342.214.576.147 1.348.382 1.91.695.337.188.244.137-.048.33-.125.083-.448.38-.54.409-.195.06-.71-.169-.917-.252-.566-.224.102.243.238.302.13.056.366.09.584.138.201.045.422.116.583.139.122.017.274-.006.341.008.24.046.574.324.953.432.083.024.7.168.707.002.006-.14-.62-.174-.717-.197-.473-.111.07-.124.247-.275.067-.057-.023-.126.083-.148.011-.003.297.102.294.101.391.137.21.164.115.439-.093.273.003.331-.3.239-.278-.084-.59-.052-.896-.095-1.471-.21-2.838-.552-4.157-1.333-.282-.167-.682-.358-.822-.675-.045-.103.067-.055.015-.21-.085-.251-.22-.152-.08-.258.015-.012.05-.005.066-.003l-.001-.002zm16.06-3.633c.062-.105.261-.378.303-.474.077-.178-.073-.191-.16-.044-.228.387-.482.813-.8 1.196-.246.297-1.057 1.002-1.028 1.325.03.325.192.154.283.142.106-.014.496.022.373.124-.294.242-.53.463-.736.655-.265.246-.3.226-.533.068-.32-.216-.195-.269-.021-.627.244-.505.54-.965.843-1.355.748-.963 1.515-1.706 2.085-2.6.182-.287.293-.613.472-.943.167-.305.34-.604.527-.905.182-.294.347-.648.672-.888.11-.08.581-.314.667-.245.078.061-.054.312-.098.358.026-.027-.114-.04-.145-.018-.072.052-.22.392-.349.569-.04.056-.422.548-.309.579.1.028.294-.356.356-.438.14-.19.3-.322.381-.453.115-.185-.014-.176.163-.126.047.012.092-.085.142-.047.112.084-.05.118.054.272.07.103.183.08.231.17.098.184-.054.594-.102.765a21.177 21.177 0 01-.576 1.706c-.247.665-.623 1.035-1.158 1.568-.063.063-.109.177-.21.221-.053.023-.481.036-.588.032-.054-.002-.51-.132-.334.122.056.082.694-.085.697.041 0 .007-.249.225-.327.254-.12.042-.585-.07-.71-.067-.168.006-.03-.097.018-.145.12-.122.371-.376.421-.442.41-.532.779-.924 1.202-1.492-.013.02.273-.248.153-.323-.111-.068-.36.419-.345.399-.692.966-1.93 2.212-2.944 2.922.343-.571 1.08-1.25 1.43-1.858v.002zM63.25 5.25c.16-.043.27-.2.359-.137-.027-.02-.097.424-.084.384-.064.196-.095.088-.192.076-.115-.014-.215.163-.294.133-.123-.045.054-.467.117-.503-.014.008.077.052.094.047zm-9.35 5.73c.015.012.55.306.543.364-.015.115-.518.328-.65.336.053-.003-.216-.046-.213-.08.017-.208.57-.206.475-.405-.053-.111-.831.414-.841.411-.413-.091.351-.357.534-.539.06-.061.018-.12.098-.123.004 0 .05.033.054.036zm-.21 2.408c-.219.04-.741.08-.827.202-.14.196.59.024.707 0 .193-.037 1.084-.262.46.041-.505.246-.972.532-1.578.832-.396.196-.846.251-1.273.423-.457.184-1.125.455-1.578.36-.089-.019-.159-.109-.228-.105-.107.006-.166.16-.257.079-.069-.063.137-.37-.036-.417-.142-.04-.14.377-.254.38-.299.009 0-.513-.148-.554-.126-.035-.2.417-.25.445-.018.01-.199.012-.225-.04-.05-.096.303-.4.128-.544-.192-.156-.166.284-.25.21-.108-.093.055-.144.079-.213.05-.144-.03-.202.087-.319.087-.086.243-.152.381-.217.448-.209 1.037-.317 1.523-.396 1.45-.238 3.094-.345 4.37-.303-.213.085-.49.073-.83.136h-.001zm9.73-7.663c.11.078-.362.57-.523.5-.123-.054.11-.337.088-.319.002 0 .416-.194.435-.18zm-.208.522c.11.041-.024.373-.094.424-.084.06-.325.06-.367.007-.05-.066.147-.292.116-.268.065-.05.364-.156.345-.163zm-8.403 5.325c-.035.172-.763.29-.761.198 0-.05.296-.132.431-.245.067-.057.019-.095.113-.098-.011 0 .237.05.217.145zm6.758-2.605c.572.097 1.27.236 1.615.83.449.768.25 1.095-.096 1.601-.143.21-.248.49-.447.693-.248.251-.546.29-.798.488-.095.076-.185.228-.283.33-.312.323-.722.626-1.143.887-.14.087-.375.144-.498.25-.116.1-.086.245-.228.365-.072.061-.188.071-.269.12-.184.11-.324.272-.53.369-.167.079-.39.087-.54.173-.265.153-.241.193-.511.224-.334.04-.43.016-.707 0-.155-.01-.327.042-.457.024-.369-.051-.768-.26-.979-.418-.392-.294-.32-.37-.437-.827-.018-.07-.142-.273-.137-.36.002-.052.134-.134.156-.257.03-.169-.072-.276-.047-.376.031-.122.2-.254.255-.38.107-.246.058-.493.185-.678.075-.109.242-.244.36-.373.119-.132.231-.286.345-.399.145-.145.354-.231.49-.38.102-.112.138-.274.242-.34.117-.074.324-.047.465-.13.12-.072.202-.23.322-.318.288-.209.662-.418.988-.63.145-.094.305-.154.446-.22.974-.46 1.474-.394 2.237-.265v-.003zm3.602-1.648c.09.052.15.003.366-.007.066-.003.355-.014.356.033 0 .009-.3.274-.403.297-.032.008-.047-.032-.134-.058-.12-.035-.358-.035-.46-.04-.359-.02.271-.29.272-.29-.016.002-.02.052.003.066v-.001zm-16.28 9.51c.77-.086 1.646-.352 2.58-.965.185-.123.667-.578.423-.14-.223.402.294.079.294-.135 0-.16-.13.004-.047-.141.086-.148.693-.562.795-.554.077.006-.247.574-.2.653.033.054.233.081.305.062.103-.028.248-.173.417-.272.443-.26 1.154-.5 1.317-.582.238-.118.349-.332.453-.09.087.2-.02.291-.145.453-.775 1.01-2.387 1.94-3.625 2.2-.731.154-1.484.292-2.092.283-.074 0-.965-.022-1.069-.164-.11-.151.045-.25-.007-.367-.058-.131-.276-.01-.112-.137.272-.214.553-.087.714-.105zm15.754-9.076c.008.002 1.068-.072.478.132-.11.038-.735-.053-.736-.052-.007-.124.27-.133.204-.116.042-.01.02.03.054.037zm-.363.308c-.036-.003.583-.085.576.008 0 .021-.236.214-.34.228.018-.003-.1-.113-.098-.113-.042-.015-.126.008-.196.011-.293.014-.178-.118.004-.17.004-.002.046.035.055.036zm-10.983 6.996c.188.17.45-.558.454-.56.151-.137.463-.162.696-.195.066-.01.638-.084.653-.036.035.117-.344.304-.465.366-.265.134-.635.238-.769.303-.272.133-.981.598-.896.376.076-.199.257-.704.447-.692.256.016-.267.305-.12.439zm10.593-5.26c.827-.405 1.676-1.12 2.5-1.459.12-.05.29-.068.464-.13.569-.202 1.123-.524 1.64-.664.44-.12.93-.013 1.434-.078.549-.07 1.048-.123 1.469-.197.195-.034.318-.107.363-.072.149.118-.147.192.017.326.125.102.265-.141.352-.032.076.097-.23.364-.316.449-.256.255-.527.692-.959.916-.46.24-1.093.458-1.715.709-.906.365-1.572.622-2.369.744-.187.028-.838.103-.873.06-.022-.024.262-.6.058-.605-.04-.001-.222.3-.225.43a.64.64 0 00.061.168c.004-.006-.34.08-.377.046-.137-.13.375-.648.092-.725-.114-.03-.117.198-.153.322-.004.014-.091.431-.07.41-.13.13-.723-.005-.852-.02-.143-.015-1.29-.083-.539-.297.052-.015.537-.154.555-.148.107.038.002.263.145.254.132-.008.063-.286.163-.363.006-.004.228-.067.232-.064.103.069-.319.636-.008.576.12-.023.225-.685.262-.721.073-.07.339-.105.45-.155.588-.268 1.153-.581 1.596-.742-.098.036.3-.015.254-.144-.016-.044-.113-.023-.145-.02-.525.065-1.316.585-1.829.807-.509.22-1.385.47-1.646.534-.058.015-.069.063-.218.09-.274.051-.184-.088-.163-.108.044-.043.325-.087.348-.098h.002zm-7.704 5.666c.063.142-.137.574-.247.746-.28.436-1.01 1.331-1.326 1.63-.256.244-.33.191-.515.395-.355.392.404-.082.552-.214.344-.308.497-.582.7-.836.37-.461.846-.971.985-1.402-.011.034-.029-.26.05-.265.169-.008.015.418.033.352-.174.652-.495 1.166-.811 1.706-.131.224-.212.525-.341.7-.18.242-.542.56-.835.778-.536.397-1.017.493-1.506.723-.512.24-1.043.74-1.56.923.059-.021-.39.094-.348.097-.06-.005-.06-.184-.141-.189-.054-.003-.152.122-.178.102-.01-.009-.16-.467-.144-.49.111-.169.564.399.677.186.085-.158-.625-.38-.651-.437-.086-.176.293-.806.494-.786-.021-.002.096.2.061.168.051.048.726.233.724.091 0-.198-.71-.11-.724-.327-.01-.176.047-.017.138-.112.152-.159.155-.05.34.008.221.07.222.026.404-.061.342-.166.985-.333 1.47-.67.143-.1.382-.312.551-.448.236-.19-.01.124.276-.225.192-.234.124-.252.076-.28-.09-.049-.186.16-.225.197.104-.099-.849.709-1.158.861-.186.092-.374.242-.587.268-.02.002-.43-.151-.405-.24.008-.03.296-.184.33-.188.03-.003.166.13.177.135.147.056.333.037.352-.032.05-.185-.313-.111-.286-.208-.008.028.353-.169.475-.17.18 0 .105.17.279.077.037-.02-.015-.119.029-.185.097-.146.384-.17.472-.234.087-.064.213-.313.334-.36.078-.03.165.044.22-.024.047-.056-.032-.176-.013-.261.043-.203.435-.53.636-.833.196-.298.502-.937.628-.964.12-.026.504.217.54.298h-.002zm7.329-4.14c.425.064.923.049 1.3.098.39.052.844.21 1.302.336 1.075.295 2.208.629 3.222.99.231.082.399.206.62.32.121.064.338.073.438.12.303.144.663.461.924.618.167.1.406.157.38.255-.016.06-.394.198-.512.223-.611.135-2.02-.082-2.498-.191-.18-.042-.166-.1-.307-.128 0 0-.334-.069-.337.058-.001.034.235.126.322.153a7.924 7.924 0 002.831.304c.13-.011.35-.076.457-.025.346.168-.336.281-.52.33-.544.144-.888.2-1.297.2-.226.002-.447.053-.653.036-.194-.015-.437-.135-.678-.186-.771-.164-1.283-.42-2.032-.793-.602-.298-1.315-.631-1.943-1.046-.192-.127-.63-.349-.637-.411-.01-.096.563-.444.31-.58-.117-.061-.418.492-.458.497-.032.003-.256-.206-.33-.283-.22-.234-.442-.54-.166-.646.042-.015.517.206.602.23.068.018.34.067.504.116.039.011.477.179.485.026.012-.215-.758-.266-.96-.328-.131-.04-.539-.225-.434-.29.017-.012.05-.007.065-.004zm-6.31 4.334c.1.107.034.424.02.627-.016.255.024.476-.004.642-.05.297-.187.494-.218.797a4.37 4.37 0 00.02.863c.026.271.143.606.115.91-.003.03-.062.087-.084.148-.067.193-.03.534-.102.765-.073.235-.209.486-.338.764-.117.253-.337.494-.457.732-.091.177-.138.683-.251.681-.09-.001-.109-.21-.17-.24-.177-.084-.105.11-.247.04-.074-.035.019-.087-.061-.167-.085-.084-.254-.108-.297-.167-.092-.123-.204-.711-.192-.867.074-.923.073-1.616.479-2.526.178-.4.34-.81.538-1.181.205-.387.436-.784.604-1.185.095-.227.137-.652.21-.692.078-.043.388.004.435.055zm-5.269 3.035c.232.244-.385.186-.377.046.006-.103.324-.21.315-.213-.014-.003.045.149.062.167zm10.69-4.913c-.202-.247-.96-1.026-.295-1.11.104-.012.284.193.38.255.143.093.383.135.34.244-.024.063-.312.014-.28.16.073.31.482-.211.371-.178.067-.02.69.292.805.349.296.149.478.294.782.429.279.124.542.165.815.309.216.114.616.2.83.335.059.037.095.132.181.199.2.16.457.308.626.45.108.09.176.22.293.338.562.572 1.14 1.053 1.607 1.877.12.21.488.952.398 1.052-.078.086-.292-.154-.421-.029-.101.098.059.276.018.326-.011.015-.346.05-.457.026-.23-.054-.666-.395-.935-.578a7.31 7.31 0 01-.89-.737c-.765-.715-1.674-1.348-2.35-2.059-.008-.006-.009-.019-.015-.025-.594-.507-1.273-.984-1.803-1.63v-.003zm-5.07 1.847c.136.09-.079.429-.099.594 0-.108-.063-.702.099-.594zm3.878-2.11c.325.275.611.565.884.843.966.985 1.845 2.615 2.398 3.915.046.107.138.354.2.525.22.62.405 1.607.337 2.129-.026.199-.174.562-.27.59-.058.018-.104-.125-.176-.134-.155-.02-.281.131-.389.087-.116-.048-.431-.445-.557-.625-.129-.183-.215-.413-.347-.61-.208-.31-.46-.57-.579-.78-.695-1.224-1.085-2.652-1.633-3.812-.099-.209-.327-.517-.308-.598.019-.078.164-.027.156-.022.079-.045.45-.268.359-.373-.128-.149-.495.289-.591.202-.194-.173.52-.26.29-.434-.128-.098-.472.338-.521.028-.028-.173.447-.116.363-.307-.068-.154-.492.136-.547.042-.064-.104.016-.078.185-.206.249-.19.307-.167.47 0 .15.153.504.712.638.647.106-.051-.28-.503-.416-.671-.094-.117-.29-.257-.279-.312.023-.107.2-.146.255-.145.034 0 .052-.001.079.022zm-.417 2.459c-.237-.335-.654-.696-.85-.963-.067-.088-.286-.434-.275-.482.03-.136.344-.229.395-.192.45.327.75 1.53 1.107 2.06-.212-.045-.224-.209-.377-.423zm-2.418.3c.364.858.753 2.094.849 3.084.1 1.05-.12 1.88-.374 2.769-.053.19-.172.466-.251.681-.065.176-.256.672-.356.674-.075.002-.007-.16-.09-.217-.167-.118-.173.117-.301.003-.136-.12-.104-.646-.144-.961-.047-.371-.14-.736-.198-.998-.063-.282-.103-.644-.183-.971-.157-.644-.17-1.21-.175-1.784a8.276 8.276 0 01.022-.787c.04-.464.139-1.214.31-1.522.012-.02.354-.354.295-.37.133.037.235.943.035.888-.183-.05.17-.502-.09-.453-.17.032-.144.563-.142.754.006.53-.003.976.041 1.49.027.31.044.673.104.95.018.083.115.447.253.327.099-.086-.076-.294-.083-.323-.055-.246-.255-1.715-.07-1.777.163-.054.04-.12.08-.214.046-.107.227-.195.225-.196.073.02.193.583.22.682.19.712.305 1.414.291 1.988-.002.096-.066.227-.062.304-.002-.047.02.3.12.268.09-.028.098-.81.081-1.156-.043-.863-.429-1.735-.623-2.572-.048-.204-.054-.419-.087-.623-.03-.185-.204-.636-.075-.664.15-.033.313.569.38.725l-.002.002zm1.296-1.208c.31.424.781.86 1.162 1.39.519.72.95 1.555 1.237 2.289.448 1.147.918 2.326.927 3.34.001.069-.05 1.01-.229.601-.094-.217-.121-.096-.235-.236-.2-.245-.45-.948-.673-1.299-.053-.084-.257-.344-.232-.406.064-.155.573.063.53-.134-.057-.262-.348.039-.58-.073-.08-.04-.229-.175-.185-.266.045-.09.685.157.635-.125-.026-.151-.656.015-.78-.128a.528.528 0 01-.05-.207c.059-.092.729.189.678-.05-.01-.042-.37-.153-.558-.153-.053 0-.173.056-.207.05-.159-.024-.105-.294-.213-.08-.028.055.184.49.212.552.157.337.622.997.883 1.549.087.184.122.37.184.5.098.206.348.454.34.48 0-.002-.26.12-.269.12-.102-.03-.48-.584-.618-.793-.195-.29-.324-.613-.521-.914-.26-.397-.54-.768-.713-1.075-.729-1.286-1.159-2.682-1.441-3.887-.01-.043-.152-.84-.09-.925.15-.205.333-.106.362-.072.194.217.537.632.66.802.26.363.596.944.955 1.205.339.246-.08-.351-.239-.537-.351-.412-.653-.826-.955-1.205-.163-.205-.523-.632-.202-.591.128.016.136.155.224.275v.003zm-1.925 2.408c-.155-.043.141-.619.258-.55.163.093-.25.552-.258.55zm7.744 3.259c-.01.044-.146.035-.113.098.051.098.21.013.21.014-.002-.001.436.459.482.668.007.035-.077.192-.08.214-.025.154.008.072-.015.21-.058.352-.084.124-.282-.142-.197-.262-.472-.504-.511-.718-.017-.097.057-.735.052-.736.138.03.257.39.256.391zm.875 1.419c-.01.103.032.524-.077.514-.226-.02-.14-.961-.064-.939.202.058.146.375.14.425zm.345.308c.123.174.065.414.031.587.028-.142-.001.163-.043.16-.035-.003-.156-.196-.17-.24-.021-.06.025-.726.066-.71.018.007.072.142.115.203zm.335 1.357c-.2-.055-.124-.956-.064-.94.302.084.083.945.064.94zm-9.523 4.954c.038-.01.08-.085.112-.098.16-.059.601-.007.867.045.327.065.726.24 1.04.35.203.07.414.106.533.166.336.172.215.213.224.512.004.106.082.293.072.362-.01.06-.197.158-.193.312 0 .02.096.126.061.167-.105.126-.344-.07-.547.043-.193.107-.113.346-.233.536-.009.014-.111-.015-.156.022-.07.06-.025.125-.029.184-.02.323-.064.082-.308.109-.07.007-.28.065-.346.162-.028.043.063.171.026.221-.076.1-.155.01-.269.12-.14.133.024.32-.084.384-.089.052-.285-.146-.322-.153-.071-.013-.228-.01-.287.029-.179.12-.003.332-.07.41-.121.143-.367-.102-.507.053-.171.19.207.297.155.45-.027.082-.247-.093-.34-.008-.018.016-.022.291-.037.29-.06-.006-.584-.873-.59-.976-.002-.036.468-.63.138-.584-.073.01-.1.337-.218.326-.022-.002-.104-.248-.105-.243.002-.007.417-.384.237-.47-.108-.053-.215.226-.29.198-.032-.011-.043-.212-.037-.18-.07-.355.033-.05.2-.183-.048.039.143-.152-.05-.206-.109-.03-.171.168-.174.167-.076-.047-.032-.339-.054-.272.032-.094.172-.028.133-.177-.03-.119-.123 0-.188-.095-.062-.09.08-.854.182-.507.051.175.454 1.425.651 1.378.207-.048-.043-.398-.003-.3-.219-.536-.42-.895-.492-1.335-.093-.566.258.193.373.36.066.093.685.914.786.73.056-.103-.325-.427-.395-.516-.075-.096-.308-.44-.383-.555-.098-.15-.351-.521-.112-.374.174.107.142.242.271.182.269-.124-.33-.41-.326-.453.011-.102.295-.174.24-.17.02-.001.052.115.072.126.208.122.296-.035.385.084 0 .003-.153.089-.07.174.128.13.17-.113.203-.116.161-.014.524.329.68.487.107.107.752.806.852.726.11-.087-.258-.487-.387-.62-.355-.37-1.06-.862-1.503-.926-.308-.046.466-.366.464-.366.039-.013.093.031.146.019h.002zM67.772 23.7c-.005-.023-.083.14-.084.148-.012.128.07.293.061.403-.021.282-.256.015-.3-.233-.006-.032.064-.11.07-.173.007-.115-.08-.516.026-.486.088.025.218.3.227.34zm.488.798c0-.009-.086.083-.086.083-.015.043-.047.32-.059.37-.048.211-.16-.04-.206-.185-.076-.24.037-.714-.039-.954.043.256.353.384.39.686zm.29.508c-.187.044-.029.709-.164.598-.19-.157-.1-.698-.085-.86.017-.222.298.174.354.27.065.11.092.267.151.384.085.165.231.294.326.454.237.399.457.874.687 1.324.575 1.125 1.263 2.332 1.917 3.483.31.545.593 1.194.84 1.709.456.955 1.035 1.805 1.623 2.91.394.74.69 1.304 1.125 2.151.317.617.873 1.446.868 1.76-.001.026-.096.091-.134.177a3.323 3.323 0 00-.12.439c.044-.21.048.184-.045.16-.034-.01-.225-.328-.22-.447.002-.07.096-.003.152-.087.032-.047.004-.23.034-.355.037-.164.199-.308.021-.315-.233-.01-.142.63-.312.514-.064-.044-.216-.57-.318-.794-.663-1.467-1.53-3.003-2.394-4.557-.257-.462-.445-1.012-.67-1.47-.539-1.1-1.135-2.182-1.677-3.182-.272-.5-.724-1.359-1.049-1.959-.176-.324-.962-1.25-.959-1.506 0-.039.142-.007.174-.166.03-.145-.06-.65-.126-.635h.001zm-7.714 4.765c.058.04.197-.077.232-.065.099.034.528.368.58.545.026.093-.147.502-.183.507-.137.02-.182-.255-.351-.439-.067-.073-.285-.074-.398-.345-.079-.186.032-.325.047-.33.01-.002.06.12.073.128v-.001zm2.352 4.01c-.02-.026.127.05.12.032.051.127-.023.96-.175.402-.129-.469-.55-1.067-.8-1.462-.11-.173-.461-.862-.608-.596-.065.118.18.242.174.305-.004.044-.25.123-.236.236.044.355.294-.153.32-.15.022.004.294.366.274.483.002-.013-.204.097-.167.062-.087.084-.18.344-.149.387.2.29.303-.445.356-.438-.058-.007.259.222.257.392 0-.016-.465.21-.36.373.154.236.353-.363.418-.272.134.192-.383.43-.19.613.204.193.126-.367.309-.344.19.023.342.922.34.95-.007.062-.188.37-.23.366-.09-.008-.11-.311-.108-.309-.365-.846-.905-1.338-1.503-2.104-.428-.55-.952-.912-1.172-1.35-.04-.081-.124-.443-.08-.493.058-.066.31-.065.381.019.012.013-.046.075-.033.12.078.26.146-.022.247-.04 0 0 .572.22.55.494-.003.038-.173.062-.109.163.13.204.177-.075.232-.065.13.023.122.342.297.167.161-.16-.474-.748-.597-.87-.11-.11-.447-.604-.14-.425.355.208 1.158 1.183 1.546 1.71.091.124.196.21.238.301.045.094.269.569.38.49.123-.088-.165-.28-.184-.5-.016-.188.175-.294.168-.298.077.036.163.299.234.472.121.291.186.573.148 1.026-.185-.672-.49-.293-.148.152zM59.8 31.435c.45.377.937.968 1.408 1.587.39.512.833.978 1.057 1.383.102.184.178.228.271.416.03.058.2.475.015.261-.532-.611-.695-1.035-1.227-1.622-.31-.34-.536-.702-.76-.98-.17-.21-.481-.393-.62-.555-.15-.177-.33-.508-.198-.526.038-.005.024.011.055.037H59.8zm.042.784c.085.054.163.03.214.08.06.06.073.157.145.254.14.19.374.417.572.65.11.13.245.277.362.399.413.43.803.888 1.079 1.303.056.084.339.515.332.583-.005.06-.203.151-.3.24-.19.17-.354.365-.636.362-.162-.003-.685-.358-.72-.498-.036-.139.303-.443.17-.703-.014-.03-.163-.088-.202-.12-.283-.238-.675-.792-.963-1.1-.18-.192-.325-.433-.532-.639-.046-.046-.84-.713-.532-.874.148-.077.536.458.648.606.039.052.292.538.43.226.044-.097-.918-1.031-.73-1.165.138-.098.399.227.663.396zm-.99.564c.104.1.373.389.377.425.002.016-.116.055-.127.072-.027.038-.13.443-.037.526.143.13.151-.15.17-.232.087-.385.327-.082.312.193-.004.08-.062.068-.095.188-.026.1.038.35-.105.228-.341-.29-.727-.83-.977-1.125-.156-.185-.528-.496-.242-.602.08-.03.532.143.724.327zM61.805 31c.104-.259-.019.144-.018.145-.22-.012-.08-.751.066-.71.319.087-.024.506-.048.565zm-3.936 2.006c.356.27.899.819 1.286 1.253.647.728 1.11 1.094 1.807 1.695.21.182.01.17-.098.124-.04-.017-.18-.164-.206-.185-.408-.329-.89-.686-1.21-1.06-.368-.43-.556-.66-.92-1.024-.219-.22-.816-.655-.829-.806-.002-.032.099-.019.091-.018a.092.092 0 01.08.022h-.001zm-.29.435c.072.028.195.067.213.08.21.147.005.249.098.348.085.09.393-.053.442.185.009.042-.094.067-.113.098-.05.083.044.21-.08.214-.06.002-.756-.796-.81-.951-.02-.055.04-.021.05-.03.036-.023.127.028.2.055zm4.486-1.984c-.13-.009-.02-.671.11-.635.275.078.011.642-.11.635zm.494-.08c.015.126-.199.418-.2.417-.199-.054.007-.641.099-.594.02.01.096.14.1.178zm17.071-7.941c.056.067.254.376.246.431 0 .005-.197.137-.225.195-.033.072.059.262.018.327-.075.118-.3.127-.353.267-.096.261-.07.036-.264-.05-.102-.046-.41.011-.519.093-.028.022-.086.16-.109.163-.142.015-.276-.278-.456-.21-.038.014-.11.156-.174.166-.038.006-.155-.093-.189-.094-.419-.021-.217.447-.403.532-.014.006-.143-.129-.228-.105-.186.053-.142.314-.197.482-.054-.873.218-1.719.522-2.45.017-.042.1-.42.124-.138.012.152.066 1.098.339.95.105-.056-.045-.13-.08-.257-.054-.205-.024-.497-.035-.653.072.112.08.163.13.229.278.362.13-.206.001-.472-.093-.191-.09-.34.08-.214-.137-.102.063.116.101.178.16.254.283 1.063.467.878.095-.096-.365-1.07-.321-1.095.203-.117.663 1.04.825.976.23-.09-.271-.768-.333-.82.325.092.737.334 1.032.69h.001zm-16.974 8.762c-.232-.018-.038-.653.058-.605.2.1.023.612-.058.605zm-4.238 2.482c-.24.003-.026-.48.08-.45.242.067.057.447-.08.45zm1.247-.173c-.035.005-.206-.155-.206-.185-.001-.063.124-.019.167-.062.075-.077.016-.336.094-.424 0 .119.017.66-.055.67zm-.845.582c-.25.033-.197-.511-.028-.522.316-.02.194.5.028.522zm1.23-.263c-.265.07-.148-.711-.065-.703.298.028.108.692.064.703zm-.064.776c.235.209.509.401.185.265-.161-.068-.427-.16-.522-.207-.2-.103-.61-.358-.64-.476-.025-.095.126-.288.206-.286.186.004.586.539.771.704zm.382-.453c-.165.006-.083-.628-.021-.627.221 0 .02.627.02.627zm17.078-7.576c.04.108.082.645.243.602.146-.039-.004-.284-.051-.442-.195-.668-.588-1.374-.646-2.02-.05-.553.258.157.257.156.18.409.282.94.444 1.428.044.135.034.287.126.4.067.08.131.053.178.134.08.142.072.357.151.62.022.07.166.626.315.493.098-.087-.119-.194-.057-.337.03-.072.252.026.228-.13-.02-.13-.32-.108-.395-.28.025.054-.025-.154.005-.17.092-.051.162.296.337.177.206-.14-.367-.368-.431-.46-.395-.567.488.082.577.008.065-.056-.008-.476-.167-.41-.14.056.046.247-.167.06-.153-.132-.33-.055-.413-.134-.036-.034-.048-.17-.08-.257-.089-.244-.382-.908-.465-1.35-.05-.267.041-.608.123-.609.079 0 .368.262.377.425.002.045-.127.116-.094.188.01.025.302.24.387.15.158-.166-.4-.78-.18-.907.105-.06.4.285.424.33.032.061.016.16.04.247.1.37.319.846.444 1.193.15.412.43 1.207.44 1.6.003.082-.046.149-.04.224.012.147.203.712-.019.852-.025.016-.313-.007-.3.004-.053-.048-.038-.296-.047-.377-.014-.108-.031-.282-.047-.378-.008-.049-.043-.81-.26-.693-.026.015.047.55.06.639.044.288.051.578.09.688.018.053.105.1.098.113 0 0-.26.145-.384.152-.41.024-.897-.506-1.14-.998-.443-.893-.631-2.043-.57-2.535.088.528.338.852.61 1.603v.001zm-16.734 7.885s-.196-.095-.221-.211c-.003-.01.095-.045.102-.058.06-.12-.082-.34.072-.344.257-.006.23.599.047.613zm19.225-10.953c-.077-.02-.078-.386.073-.344.232.064-.008.362-.073.345zm.397 4.417c-.045-.013-.015-.283-.014-.262-.013-.436-.069-.587-.173-1.247-.044-.278-.12-.982-.31-.9-.085.038-.024.308.01.432.077.278.138.507.159.751.03.358-.002.164-.168.297-.072.059-.184.476-.127.544.124.15.19-.217.185-.206.227-.486.26.245.246.43-.016.2-.06.377-.12.44-.041.042-.34.203-.424.14-.052-.039.022-.312.021-.315.006-.199-.092-.867-.053-.98.026-.072.071.023.142-.046.042-.041.203-.427.17-.468-.219-.275-.294.622-.395.192-.053-.228-.027-.068.095-.188.048-.048.04-.18.077-.28.056-.156.22-.371.007-.34-.064.01-.207.48-.276.46-.026-.007-.158-.376-.141-.425.024-.066.117.043.195-.01.037-.024.16-.39.135-.413-.069-.061-.152.025-.217.09-.036.036-.061.215-.12.203-.017-.004-.118-.276-.12-.268.002-.012.152-.044.168-.061.03-.035.212-.514.207-.523-.016-.027-.202-.115-.338.058.007-.008-.017.36-.072.345-.054-.015-.073-.217-.094-.283-.073-.226-.31-.827-.289-.98.058-.398.38-.196.511.012.174.274.396 1.21.51 1.19.25-.047-.1-.638-.198-.998-.09-.336-.044-.948.25-.446.132.224.176.528.279.784.234.58.333.818.495 1.4.026.092.011.57.123.569.158-.003-.007-.437.12-.439.184-.002.17-.339.257-.315.031.009.047.413.04.482-.03.251-.238.759-.328.961-.013.03-.226.667-.425.613zm-.03-4.423c.084.036.204.297.19.395.01-.072-.156-.01-.119-.034-.134.089-.137.612-.319.148-.039-.1-.162-.34-.104-.478.08.386.248-.077.352-.032zm.56 1.16c-.02.078-.415.444-.381.453-.186-.051.044-.42.066-.475.232-.571-.019-.44-.188-.094-.01.02.021.155-.059.134-.193-.053.233-.75.247-.747.076.02.36.558.315.73zm-17.35 10.052c.051.154.119.376.203.591.117.306.35.642.332.82-.01.095-.135.07-.164.127-.02.04.033.484-.065.475.022.002-.164-.1-.199-.29-.02-.1.398-.864.051-.737-.02.008-.11.561-.217.562-.114 0-.149-.184-.225-.276-.148-.179-.314-.242-.122-.334-.042.02.243-.713.026-.721-.111-.005-.129.315-.128.307 0 .007-.018.335-.073.345-.08.015-.332-.356-.401-.41-.126-.101-.27-.032-.026-.221.209-.162.779-.86.792-.855.11.048.183.515.217.617zm-4.024 2.797c.08.098.06.407.083.559.02.132.184.615.014.496-.198-.137-.447-.258-.624-.385-.219-.158-.929-.564-.524-.744.196-.088.97-.024 1.05.074zm5.824-3.89c.285.918.57 1.5.719 2.384.022.131.127 1.087.034 1.124-.08.033-.302-.19-.217-.145-.102-.054-.192-.133-.25-.025-.131.244.43.185.558.388.028.044.008.371-.018.38-.107.04-.261-.372-.417-.2-.099.11.423.381.474.538.037.11-.058.267-.051.264.025-.006-.442-.314-.478-.366-.128-.188-.187-.82-.27-1.124-.11-.404-.205-.717-.23-1.113-.025-.374.012-.726.008-1.048-.005-.43-.093-.775.034-1.063.018-.04.064-.05.076-.043a.17.17 0 01.029.051v-.001zm15.587-8.777c.057.015.216.628.147.79-.025.058-.1-.012-.167.061-.1.11-.037.42-.149.388-.058-.016-.035-.104-.047-.142-.017-.06-.062-.15-.06-.167.008-.189.493-.564.203-.586-.218-.018.013.141-.225.195.027-.07.209-.564.297-.54zM60.05 38.428c.108.01.893.128.953.196.031.036 0 .18.014.261.073.397.182.709.31 1.136.067.221.228.704.3.703.168-.002-.185-.82-.238-1.007-.03-.11-.088-.387-.119-.504-.039-.147-.231-.557-.028-.523.15.026.899.237.946.302.073.1-.006.219.04.247.113.07.054-.088.218-.09.163-.003.694.361.702.407.003.015-.11.052-.137.112-.014.03-.105.646-.056.671.186.098.241-.609.24-.641-.008-.218.201-.046.24.066.073.216-.45.784-.114.804.21.013.106-.674.276-.696.32-.04-.186.809-.04.931.18.153.226-.669.38-.688.038-.005.189.107.207.185.016.071-.48.699-.139.583.189-.064.159-.474.353-.503.068-.01.363.182.47.236.054.026.497.215.496.222.001.001-.354.276-.402.297-.067.03-.316.081-.478.104-.611.087-1.742.003-2.422-.235-.523-.183-.632-.379-.84-1.002a5.05 5.05 0 01-.166-.646c-.012-.062-.012-.627-.187-.566-.093.033.15 1.013.161 1.052.044.15.296.665.21.722-.062.04-.183-.13-.149-.084-.09-.12-.223-.516-.257-.628-.02-.066-.127-1.133-.331-1.055-.023.009.033.312.028.287.058.289.147.774.209.957.097.288.124.328-.08.214-.22-.123-.207-.297-.318-.559-.055-.13-.157-1.136-.372-1.066-.058.02.075.483.115.675.02.099.21.64.155.685-.022.018-.35-.175-.395-.28 0 0 .072-.12.07-.173-.007-.112-.103-.352-.134-.53-.063-.362-.138-.486-.017-.561.003-.002.178-.033.327-.018h-.002zm9.611-.43c1.324 1.534 2.722 2.663 4.092 3.757.198.158.376.352.58.545.336.318.776.649 1.19.969.561.432 1.204.98 1.75 1.594.158.177.514.608.496.693-.012.051-.212.149-.276.224-.108.126-.224.47-.363.072-.03-.085.02-.218.099-.359.048-.087.28-.294.164-.362-.11-.064-.22.146-.276.225-.21.29-.109.37-.402.06-.272-.285-.512-.556-.735-.758-.121-.11-.54-.537-.757-.68-.238-.155-.367-.043-.218.09.369.331.626.501 1.072.937.863.843 1.57 1.75 2.263 2.85.153.245.313.499.42.736.033.076.062.396.177.37.132-.03.023-.28.007-.34-.037-.144-.051-.21-.166-.41-.166-.289-.742-.95-.756-1.15-.007-.089.137-.19.17-.232-.055.069.19-.173.157-.257-.07-.176-.292.089-.37.177-.316.36-.067-.652.19-.613.149.024.221.479.252.562.244.666.43 1.313.567 1.764.204.665.45 1.388.675 2.07.11.334.097.356-.101.294-.46-.143-.767-.242-1.164-.447-.081-.042-.458-.22-.46-.276 0-.014.524-.394.378-.518-.103-.087-.464.318-.48.34-.01.016-.023.145.008.13-.15.072-.715-.296-.805-.348-.3-.172-.606-.251-.819-.375-.277-.162-.613-.391-.989-.614-.661-.394-1.268-1.005-1.923-1.428-.363-.235-.706-.4-.989-.614-1.095-.83-2.191-1.968-3.227-3.006-.155-.157-.393-.34-.455-.447-.041-.07-.02-.208-.058-.337a8.069 8.069 0 01-.284-1.62c-.095-1.055-.225-2.062-.605-3.19-.333-.988-.959-1.986-.873-2.832.011-.114.076-.022.105.008.05.053.984 1.072 1.107 1.353.04.09-.01.186.04.247.034.043.152.02.2.055.151.113.665.987.672 1.063.003.03-.207.382-.189.377.021-.006-.151-.14-.174-.07-.08.251.507.717.8 1.227.037.066.042.212.08.258.067.083.168.062.216.145.065.113.02.292.058.337.055.068.126-.053.228.105.093.144-.027.186.083.323.013.017.156.055.173.07.007.004.06.043.055.036.744 1.032 1.618 1.965 2.675 2.983.597.575 1.244 1.248 1.869 1.862.248.245.603.505.637.646.036.15-.167.42-.243.576-.046.094-.302.609-.048.566.095-.016.096-.302.124-.373.037-.098.292-.59.334-.594.113-.009.033.05.097.112.146.142.72.568.75.785 0 0-.12.28-.163.361-.155.296-.284.404-.368.715-.024.092-.107.373.058.337.091-.02.121-.454.131-.478.045-.112.136-.212.24-.406.032-.06.174-.43.226-.43.081-.002.375.393.416.434.152.153.371.277.42.501.02.09-.148.395-.269.59-.028.046-.449.541-.269.591.066.018.276-.333.367-.478.117-.185.22-.504.353-.503.087 0 .348.284.35.439.002.144-.735.697-.428.782.22.062.306-.626.555-.618.162.004.4.666.554.558.096-.066-.087-.33-.21-.486-.62-.794-1.213-1.405-1.813-2.062-.74-.807-1.456-1.464-2.285-2.298-.736-.739-1.502-1.485-2.285-2.298-.23-.238-.707-.621-.764-.81-.03-.102.41-.916.263-.956-.227-.062-.233.792-.429.782-.01 0-.205-.194-.224-.275-.016-.065.261-.701.288-.736-.007.008.177-.11.173-.166-.008-.163-.614-.63-.789-.795-.756-.714-1.154-1.237-1.741-2.17-.519-.826-1.134-1.523-1.487-2.08.672.803 1.629 1.8 2.328 2.61l-.003.002zm8.214-6.9c.19.2.143-.34.254-.38.025-.01.231.094.257.156.047.111-.188.555-.218.562-.035.007-.407-.29-.503-.352-.205-.132-.403-.228-.515-.313-.068-.052-.598-.549-.43-.696-.004.002.474.204.536.232.186.083.455.195.489.327-.059-.232-.23.369.025.22.125-.07.039-.047.04-.223.191.258-.086.308.065.466zm-13.609 6.878c-.139-.106-.126.175-.232.065-.145-.152-.027-.18.012-.276.014-.036.013-.594.123-.373.168.337.592 1.344.8 1.697.25.428.599.923.926 1.39.34.487.768.94 1.147 1.365 1.107 1.242 2.379 2.405 3.53 3.54a22.68 22.68 0 003.67 2.955c.192.123.752.484.76.508.003.01-.106.026-.116.033-.13.086.024.18.101.177.151-.006.05-.157.15-.152.117.007.33.235.637.411.225.129.624.29.663.396.02.055-.133.128-.015.21.136.096.118-.246.312-.043.124.128-.103.288.098.348.177.053.067-.217.17-.232-.008 0 .166.108.15.083.06.093-.067.377-.085.385a4.608 4.608 0 01-.442-.186c-.68-.344-1.203-.694-1.837-1.04-1.453-.789-2.619-1.918-3.995-3.173-.906-.826-1.777-1.593-2.568-2.44-.869-.93-1.626-1.917-2.44-2.984-.203-.267-.779-1.023-.882-1.313-.035-.098.029-.136-.025-.221-.077-.123-.307-.194-.333-.348-.01-.053.162-.105.08-.214-.089-.117-.092.082-.221.025-.16-.07-.214-.358-.246-.431.115.181.295-.023.108-.163v.001zm15.728-8.354c.113.068-.095.414-.095.424-.007.075.064.168.079.257.03.162.028.373.057.573.032.218.112.42.152.62.026.134-.014.29.011.432.06.357.199.768.31 1.135.142.472.115.976.216 1.324.068.236.27.539.231.642-.044.12-.218-.024-.163.126.062.17.23-.014.258.157.023.145-.3.178-.164.362.059.079.232-.065.232-.065.176.1.001.356-.055.435-.11.158-.182.271-.207.05-.063-.558-.192-1.257-.28-1.79-.04-.244-.153-.493-.155-.687 0-.083.071-.12.054-.199-.058-.285-.326-.816-.382-1.026-.007-.027.013-.15-.014-.26-.119-.49-.478-1.406-.868-1.996-.2-.305-.156-.224.048-.33.027-.014.712-.198.736-.184h-.001zm-1.308 2.192c.215-.04.11-.653.21-.692.187-.074.427.432.584.61.165.187.502.588.423.8.024-.063-.15-.048-.135-.057-.094.052-.018.388-.2.416-.077.012-.374-.307-.387-.384-.008-.052.102-.067.113-.098.043-.119.022-.36.05-.5-.132.644.134-.238.001-.236-.161.003-.21.735-.302.71-.142-.039.018-.203.037-.29.043-.199.147-.748.012-.747-.087.001-.086.295-.11.4-.111.497-.105.356-.416.035-.14-.145-.27-.13-.185-.265.096-.155.085-.58.203-.588.428-.03-.233.946.1.885h.002zm3.273.254c-.02 0-.086-.373-.235-.236-.15.14.196.342.21.486 0 .004-.093.224-.146.217-.156-.021-.135-.576-.325-.454-.048.031.167.67.115.675-.142.012-.22-.64-.388-.384-.078.117.364.63.166.645-.126.01-.121-.476-.308-.362-.13.078.004.148.098.348.05.105-.078.45-.2.416-.03-.008-.038-.495-.04-.482.045-.838.405-1.91.842-2.599.145-.227.374-.443.486-.68.04-.084.273-.918.306-.41.028.437.02 1.018-.046 1.338-.07.344-.224.557-.338 1-.03.116-.035.49-.197.482zm-15.773 7.506c.13.373-.635-.316-.383-.32.005 0 .353.235.383.32zm-.074.344c.076.29-.31-.131-.151-.149.047-.005.138.093.151.149zm3.01-.975c-.042-.004-.308-.41-.31-.428-.002-.017.256-.4.218-.325.014-.027-.015-.021.026-.015.326.056.167.777.067.768zm10.868-6.258c-.022-.057.182.496.108.544-.039.024-.3-.21-.316-.258-.022-.071.131-.397.15-.388a.34.34 0 01.058.102zm-10.301 6.306c.01.058-.245.388-.214.391-.201-.021-.196-.66-.036-.653.047.002.239.191.25.262zm.188.566c-.047.111-.04.247-.106.228-.224-.061-.068-.663.085-.62.214.06.054.313.021.391zm.249.497c-.137.479-.264-.63.023-.551.206.058.003.46-.023.55zm.573-.057c-.013-.07-.074.128-.084.148-.066.148-.002.005-.068.174-.017.043-.136.348-.179.337-.287-.08-.045-.907.095-.896.015.002.223.167.236.236zm.427.395c.01.057-.17.333-.19.377-.059.132-.166.398-.214.392a.795.795 0 01-.2-.29c-.05-.19.272-.736.288-.736.046-.002.3.18.315.258zm8.361 6.944c-.188-.69-.297-1.353-.28-2.027.016-.621.038-1.244.086-1.798.042-.495.185-1.067.22-1.505.066-.86-.068-1.53-.135-2.48-.034-.487.01-1.016-.049-1.62-.06-.631-.167-.927-.117-1.447.03-.32.103-.06.123.098.035.307.034.622.086.86.267 1.248.565 2.223.738 3.48.077.56.027 1.312.117 1.918-.014-.096-.018.268.08.258.057-.006.013-.367.01-.275.017-.567.022-1.372-.055-1.987-.136-1.092-.603-2.556-.77-3.597-.061-.373-.127-.826-.09-1.16.027-.256.365.473.536.704.253.342.577.568.59.74.009.122-.175.022-.069.174.064.092.192-.011.279.077.122.123-.1.111.068.297.044.048.264-.063.308.128.02.089-.257.455-.29.434-.152-.09-.284-.516-.366-.7-.036-.081-.155-.427-.209-.486-.333-.364.014.533.09.689.46.951 1.1 2.046 1.44 2.88.007.021.053.336.122.334.203-.006-.27-1.03-.256-1.099.008-.042.13-.035.142-.047.071-.076.113-.771.313-.75.267.029.015.511-.045.631-.032.063-.126.184-.167.297-.008.02-.15.319.018.326.1.004.106-.174.12-.203.042-.095.371-.938.53-.368.038.14-.167.396-.259.55-.089.15-.315.492-.167.533.122.034.183-.218.28-.394.086-.158.356-.71.41-.167.01.098-.284.548-.32.62-.043.086-.408.628-.175.638.114.005.236-.45.272-.526.016-.03.26-.55.299-.54.076.022.103.257.104.243 0 .017-.135.248-.178.337-.063.132-.624 1.038-.313.986.096-.016.111-.298.15-.388.023-.055.407-.745.417-.742.037.01.223.428.25.496.117.304.199.67.329.99.295.733.45 1.545.537 2.42.082.84.097 1.605-.073 2.059-.038.102-.295.398-.21.457.029.02.17-.066.18-.036.024.066-.149.513-.2.652-.198.548-.481 1.197-.984 1.637-.348.305-1.093.684-1.53.973-.07.046-.185.174-.24.17.014.002-.375-.351-.388-.384-.03-.078.04-.266.051-.265.072.007.372.68.464.341.022-.078-.302-.383-.239-.3-.158-.207-.097-.339-.326-.22-.125.067-.157.498-.084.62.103.173.358.113.37.295.003.051-.133.131-.149.152-.187.233-.089.11-.257-.157-.145-.227-.361-.69-.376-.896-.013-.16.034-.027.057-.134.028-.121-.033-.238-.014-.261.082-.098.38-.11.414-.101.115.035.056.129.148.083.094-.047.194-.61.243-.811.438-1.778.556-3.865.367-5.794-.154-1.565-.678-3.297-1.28-5.022-.17-.485-.187-.23-.052.264.396 1.448.861 2.68 1.053 4.21.11.866.212 1.623.211 2.438 0 .297.024.764-.008.813-.032.046-.179.036-.233.064-.128.068-.819.58-.802.659.048.218.69-.33.828-.438-.159.125.095-.124.137-.112.036.01.039.249.04.246-.059.163-.437.368-.654.508-.168.107-.701.413-.468.535.081.043.266-.2.352-.268.071-.057.601-.502.722-.445.05.024-.07.353-.11.399-.12.14-1.106.613-.94.77.13.123.939-.744.919-.455-.033.47-.261.37-.708.706-.067.05-.273.26-.153.322.108.056.653-.506.762-.434.047.03.02.223-.037.29-.064.075-1.067.5-.722.68.098.052.485-.467.63-.427.073.02-.02.315-.021.316-.033.038-.644.342-.69.325-.05-.018-.037-.38-.025-.221-.067-.933-.178-1.627-.12-2.455.008-.121.027-.524-.01-.667-.127-.486-.166-.01-.16.193.031.987-.086 1.751.029 2.708-.215-.42-.36-1.017-.47-1.415h.002zm1.788-11.212c-.022-.116.074.21.065.233-.05.12-.446.289-.403.296-.041-.006-.072-.218-.028-.286-.037.058.117.036.145.019.102-.064.122-.379.218-.326.015.008.002.055.003.065zm-5.03 4.28c.198.21.19-.527.287-.5-.009-.003.177.313.191.395.011.063-.053.297-.062.304-.074.065-.124-.043-.156.021-.061.124-.02.516.181.435.086-.034.071-.494.171-.467.018.005.12.241.123.334.007.217-.193.463-.204.587-.024.283-.204-.09-.319-.324-.067-.138-.53-.948-.517-1.084.013-.129.127.007.192-.076.039-.05-.035-.096-.025-.22.017-.197.142-.412.175-.403.28.077-.163.863-.037.997zm5.152-3.474c-.05.087-.422.224-.406.231-.225-.108.29-.585.35-.568.004.001.116.236.056.337zm-.316.685c-.137-.038.216-.498.341-.464.178.05-.255.487-.341.464zm-9.274 11.001c-.246-.252-.744-.672-.808-.885-.028-.094.285-.807.114-.805-.155.001-.144.636-.305.645-.091.006-.264-.239-.28-.312-.018-.087.388-.74.081-.685-.107.019-.122.329-.091.253-.014.032-.109.235-.17.232-.058-.003-.345-.356-.352-.44-.006-.071.096.023.156-.02.036-.027.168-.448.091-.49-.192-.104-.232.477-.301.474-.023 0-.087-.152-.087-.152-.311-.36-.58-.818-.832-1.342-.08-.165-.31-.61-.105-.479.271.174.462.453.663.632.895.801 1.823 1.643 2.686 2.472.15.143.337.244.413.37.03.05-.018.13.025.222.026.054.174.147.236.236.435.632.854 1.017 1.332 1.394.203.16.68.462.695.513-.016-.056-.14.384-.15.387-.077.03-.352-.24-.433-.29-.756-.47-1.78-1.108-2.58-1.929h.002zm9.756-11.04c-.003-.018.112.709.04.718-.093.01-.115-.133-.197-.225-.04-.047-.192-.192-.195-.226-.011-.134.318-.321.323-.319a.186.186 0 01.03.051zm-.487 1.388c-.058-.133-.182-.248-.08-.258.149-.014.097-.018.175-.167.098-.188.222-.268.3-.003.048.164-.406.741-.08.685.05-.009.258-.872.376-.283.046.225-.392.525-.29.67.16.232.355-.566.428-.546.267.074-.343.995-.255 1.087-.342-.501-.408-.806-.575-1.186zm-3.916 2.869c-.021.033-.112.036-.127.072-.014.032-.014.318-.062.304.015.005-.202-.279-.191-.395.002-.035.112.005.166-.06.07-.087-.004-.675.165-.598.264.12.11.581.05.677h-.001zm.42.265s-.075.07-.098.124c-.085.203-.086.358-.156.493.412-.785-.047.115-.073.109.015.004-.192-.24-.202-.356-.01-.104.056.03.127-.072.07-.101.06-.65.228-.602.032.008.168.199.174.304zm-.219 1.034s.086-.08.088-.084c.102-.265.012-.451.145-.688.063-.112.26.232.254.326-.002.02-.101.025-.153.087-.09.11-.252.803-.026.721.17-.06.064-.677.226-.666.076.004.107.271.195.46.248.53.342.796.506 1.125.055.11.151.214.203.356.148.41.125.86.172 1.248.147 1.224.702 2.738.949 3.967.087.433.374 1.921.97 1.701-.018.007.178-.19.239-.17.167.06.227.788.26.93.09.387.232.731.338 1.185.184.784.334 1.744.53 2.76.081.426.185.842.245 1.375.016.14.192 1.303.165 1.352-.036.064-.48.078-.312.28.121.146.199-.143.282-.094.225.128-.475.58-.338.764.153.206.286-.393.4-.362.036.01.052.277.053.272-.012.048-.582.56-.406.703.09.074.15-.081.213-.156-.04.046.15-.279.222-.26.06.014.04.291.018.326.02-.031-.093-.029-.181.035-.095.07-.288.43-.261.486.116.243.332-.279.399-.362.133-.168.188.51.162.58-.037.1-.328.296-.337.294-.102-.028.314-.498.257-.551-.13-.125-.472.351-.482.51-.005.082.126.164.127.164.008.1-.252.252-.023.315.11.03.186-.248.233-.3.012-.014.217-.198.225-.196.402.11-.762.792-.473.942.16.083.447-.61.592-.438.11.13-.508.513-.516.63-.024.395.41-.263.457-.261.129.005.005.308.037.181-.052.21-.484.486-.665.311-.162-.158-.054-.605-.053-.743.002-.223.018-.538.012-.747-.032-1.024-.362-2.168-.536-3.362a23.046 23.046 0 00-.504-2.538c-.06-.22-.257-.783-.231-.878.02-.079.032.045.141-.047.068-.057.354-.942.237-.942-.091 0-.143.288-.2.416-.004.008-.191.442-.225.432.03.008-.108-.279-.098-.349.008-.058.081-.024.138-.112.042-.067.345-.87.266-.891-.08-.023-.193.33-.203.35-.04.074-.195.354-.244.34-.098-.026-.082-.264-.08-.257-.06-.217-.238-.661-.162-.816-.027.056.112.043.145.02.093-.069.312-.663.277-.697-.165-.154-.385.623-.465.602-.07-.02-.142-.544-.181-.672-.361-1.197-.993-2.517-1.115-3.67-.042-.392-.252-.84-.365-1.171a63.989 63.989 0 00-.737-2.003c-.076-.197-.275-.54-.22-.681-.015.037.096.083.159.043-.04.026.236-.502.077-.515-.2-.015-.256.364-.291.435.003-.38-.537-.993-.531-1.345zm-1.575 6.918c.317.17.639.382.931.512.283.127.664.201 1.015.364.132.06.353.188.55.258.154.055.518.2.55.258-.007-.014.004.703 0 .707-.06.063-.24-.018-.28-.077-.087-.135.16-.571-.056-.573-.155 0-.013.464-.153.56-.176.118-.403-.202-.268-.353.075-.083.229.047.218-.09-.01-.127-.389-.142-.453-.146-.415-.029-.66-.202-1.04-.35-1.252-.49-2.91-1.332-3.724-2.756.768.617 1.844 1.22 2.71 1.686zm2.293-4.065c-.002.063-.221.19-.225.196-.115.141-.137.314-.232.3-.344-.049-.021-.85.233-.772.013.004.227.179.224.276zM75.415 50.7c.01.023-.05.399-.044.395-.266.194-.48-.5-.253-.563.05-.014.263.093.297.168zm.362.635c-.206.079-.32-.489-.174-.54.343-.121.256.509.174.54zm.363.163c-.182-.06-.176-.473-.08-.492.24-.05.374.591.08.492zm1.367-.846c-.172.053-.32-.366-.06-.403.226-.032.214.355.06.403zm.362.164c-.205.014-.072-.399-.06-.403.294-.13.258.389.06.403zm-1.005.538c.04.08-.109.325-.101.294-.002.007.047.074.043.077-.017.012-.33-.025-.388-.15-.023-.049.062-.053.072-.108.031-.162-.084-.188.066-.24.027-.008.275.06.308.128zm4.017-2.22c.04.033-.078.197-.091.253-.034.146.039.269-.12.203-.13-.054-.308.128-.403.06-.05-.036-.042-.252.022-.314.096-.094.542-.244.591-.203zm-2.479 1.85c-.277.194-.296-.401-.141-.425.22-.033.257.342.141.424zm-1.089.922c-.096.061-.433-.1-.441-.186.004.047.138-.017.13-.006.09-.11-.082-.205.09-.254.242-.068.398.334.221.446zm1.52-.697c-.155.053-.34-.377-.101-.414.25-.038.193.383.101.414zm-.928.495c.043.076-.094.151-.095.189-.01.33-.449-.113-.21-.25.078-.045.271.002.305.061zm1.33-.32c-.189.032-.237-.345-.086-.389.284-.083.222.365.087.388zm.802.283c-.031.05-.507-.09-.562-.217-.038-.088.019-.226.091-.254.167-.065.576.303.471.472zm-.99-.142c.167-.05.093.559.025.692-.143-.169-.094-.672-.025-.692zm.714.367c.069.027.353.04.333.113-.042.15-.761.15-.75.159-.138-.113.016-.404.094-.424.127-.033.213.109.322.153h.001z" fill="#81736A"/><path d="M89.3 107.2c.533 0 .8 1.4.8 4.2 0 2.8-.267 4.2-.8 4.2l-15.2-.6v19.8c0 4.133.333 7.133 1 9s1.933 3.133 3.8 3.8c1.867.667 4.867 1 9 1 .267 0 .4.4.4 1.2 0 .8-.133 1.2-.4 1.2-3.6 0-6.467-.067-8.6-.2l-12.8-.2-15.2.2c-2.667.133-6.267.2-10.8.2-.4 0-.6-.4-.6-1.2 0-.8.2-1.2.6-1.2 6 0 10.2-.267 12.6-.8 2.533-.667 4.2-1.867 5-3.6.8-1.867 1.2-5 1.2-9.4v-20.2c-17.6-.267-34-.4-49.2-.4-.667 0-1.2-.2-1.6-.6-.267-.533-.2-1.067.2-1.6l62.4-87c.267-.267.667-.4 1.2-.4.4 0 .8.133 1.2.4.4.133.6.4.6.8v82l15.2-.6zm-69 1.2c11.067 0 24.067-.133 39-.4V49.6l-40 57.4c-.533.933-.2 1.4 1 1.4zm127.642 45.2c-8.266 0-15.533-2.667-21.8-8-6.266-5.333-11.133-12.933-14.6-22.8-3.333-9.867-5-21.333-5-34.4 0-12.933 1.734-24.267 5.2-34 3.467-9.867 8.334-17.467 14.6-22.8 6.267-5.333 13.6-8 22-8 8.134 0 15.267 2.733 21.4 8.2 6.134 5.333 10.867 12.933 14.2 22.8 3.334 9.867 5 21.333 5 34.4 0 12.933-1.666 24.267-5 34-3.333 9.733-8.133 17.267-14.4 22.6-6.133 5.333-13.333 8-21.6 8zm2.4-3.2c14.4 0 21.6-19.667 21.6-59 0-21.6-2.333-37.733-7-48.4-4.533-10.8-10.8-16.2-18.8-16.2-7.466 0-13.133 5.2-17 15.6-3.733 10.4-5.6 25.267-5.6 44.6 0 20.4 2.267 36.067 6.8 47 4.667 10.933 11.334 16.4 20 16.4zm135.442-43.2c.534 0 .8 1.4.8 4.2 0 2.8-.266 4.2-.8 4.2l-15.2-.6v19.8c0 4.133.334 7.133 1 9 .667 1.867 1.934 3.133 3.8 3.8 1.867.667 4.867 1 9 1 .267 0 .4.4.4 1.2 0 .8-.133 1.2-.4 1.2-3.6 0-6.466-.067-8.6-.2l-12.8-.2-15.2.2c-2.666.133-6.266.2-10.8.2-.4 0-.6-.4-.6-1.2 0-.8.2-1.2.6-1.2 6 0 10.2-.267 12.6-.8 2.534-.667 4.2-1.867 5-3.6.8-1.867 1.2-5 1.2-9.4v-20.2c-17.6-.267-34-.4-49.2-.4-.666 0-1.2-.2-1.6-.6-.266-.533-.2-1.067.2-1.6l62.4-87c.267-.267.667-.4 1.2-.4.4 0 .8.133 1.2.4.4.133.6.4.6.8v82l15.2-.6zm-69 1.2c11.067 0 24.067-.133 39-.4V49.6l-40 57.4c-.533.933-.2 1.4 1 1.4z" fill="#6B452C"/></svg>