<svg width="296" height="147" fill="none" xmlns="http://www.w3.org/2000/svg"><path fill-rule="evenodd" clip-rule="evenodd" d="M39.71 8.22c-.286.092.11.242.3.29.947.246 1.739.59 2.707.858.054.015.32.155.335.01.011-.112-.427-.225-.435-.227-.17-.054-.428-.088-.48-.108a34.04 34.04 0 00-1.55-.568c-.295-.101-.613-.131-.824-.212a.783.783 0 01-.052-.041V8.22zm5.367-2.456c-.204-.022.1.416.189.408.23-.021-.12-.4-.19-.408zm-4.285 3.374c-.355.088.542.424.593.352.08-.113-.484-.38-.593-.352zm2.946-1.273c-.19.037.238.514.338.372.079-.114-.274-.383-.338-.372zm.755.084c-.249.025.167.342.218.328.188-.053-.085-.342-.218-.328zm-1.671 1.668c-.144-.053-.097.17-.018.173.101.005.111-.14.018-.173zm.425.103c-.09.002-.338.045-.274.192.076.175.683-.204.274-.192zm-4.096 2.784c-.104.04-.443.131-.236.274.07.048.227-.11.272-.126.61-.224 1.769-.255 2.513-.274-.016 0 .294.079.31-.045.025-.2-.437-.124-.653-.126-.474-.005-.891.048-1.451.145-.26.046-.5.054-.755.152zm.541.574c-.064.032-.15.014-.059.159.105.165.814-.007 1.113-.02.062-.004 1.092.08 1.062-.13-.015-.106-.34-.044-.48-.04-.425.008-1.222.106-1.556.06-.028-.003-.043-.047-.08-.029zm7.306-2.792c-.449.213.727.753.425.133a.336.336 0 00-.425-.133zm.149.592c-.314.015.096.695.27.37.088-.165-.22-.372-.27-.37zm-.506.268c-.255-.037.058.334.13.138.049-.133-.087-.132-.13-.139zm-.638.624c-.313-.115.05.417.077.096.005-.057-.059-.089-.077-.096zM38.7 15.52c-.355.276.301.025.549-.023.53-.104 1.215-.192 1.82-.415.368-.136.69-.22.964-.414.138-.098 0-.085.058-.159-.02.024.137-.05.163-.075.078-.08.412-.537.313-.607-.08-.056-.38.369-.443.469-.002.002-.017.112-.086.171-.19.164-.55.254-.788.366-.236.11-.552.193-.825.283-.644.213-1.297.07-1.727.405h.001z" fill="#81736A"/><path fill-rule="evenodd" clip-rule="evenodd" d="M41.356 14.489c-.176.026.066.245.13.138.035-.058.006-.158-.13-.139zm5.429-2.319c-.397-.06.14.4.093.056-.004-.023-.075-.053-.093-.057zm-.511.237c-.032-.002-.162.092-.059.159.09.059.255-.143.059-.16zm-.454.472c-.376.086.006.598.211.529.33-.112.111-.604-.212-.53zm.755-.089s-.144.07-.098.144c.11.18.33-.114.098-.144zm-5.507 2.587c-.057.03-.16-.013-.15.103.012.178.592-.04.873-.108.546-.134.978-.195 1.514-.438.179-.08.533-.269.614-.384-.057.08.113-.14.019-.174-.085-.031-.522.306-.546.32-.53.276-.907.34-1.406.453-.322.073-.67.096-.918.227v.001zm5.809-2.525c-.25.017.115.32.144.098.018-.14-.08-.103-.144-.098z" fill="#81736A"/><path fill-rule="evenodd" clip-rule="evenodd" d="M46.363 13.253c-.44.157.341.672.509.458.042-.054-.012-.308-.082-.391-.082-.097-.311-.108-.427-.066zm.272.303c-.02.054-.288-.09-.184-.113.051-.01.224.004.184.113zm1.464-.413c-.245-.022.074.333.104.083.01-.075-.053-.079-.104-.083zm.701.172c-.284.051.225.324.184.113-.018-.097-.05-.137-.184-.113zm-3.637 1.848c-.148-.01-.102.164-.018.174.075.01.17-.162.018-.174zm-.54.317c-.156-.024-.12.197-.033.213.098.017.207-.187.033-.214zm2.187-.713c-.124-.016-.32.77-.39.94-.232.562-.545 1.209-.762 1.772-.237.614-.482 1.049-.535 1.766 0-.007-.112.279.047.242.091-.02.09-.313.09-.305.266-1.308.929-2.518 1.45-3.775.027-.065.311-.613.1-.64zm-6.402 3.456c-.51.08.491.444.54.31.056-.152-.536-.286-.487-.268-.035-.012-.008-.05-.053-.042zm2.597-.703c-.057-.009-.201.175-.315.246-.24.15-.651.33-.802.405-.037.018-.524.153-.45.308.044.092 1.048-.384 1.301-.537.125-.076.532-.379.267-.42v-.001zm3.44-.444c-.16-.059-.167.596-.196.718a24.666 24.666 0 01-.482 1.807c.023-.07-.123.105-.019.174.206.134.443-1.182.467-1.272.114-.436.353-.987.294-1.358-.008-.054-.039-.06-.064-.068v-.001zm1.723-.203c-.16-.059-.342.387-.172.41.05.008.344-.347.172-.41zm.036.707c-.143-.051-.224.298-.09.306.161.01.151-.283.09-.305zm-3.176 1.971c-.136-.05-.19.512-.185.811.004.23.036.776.152.755.165-.03.026-.317.004-.562-.032-.337.105-.737.094-.935-.003-.053-.044-.06-.065-.069zm5.495-1.459c-.085-.031-.08.514.093.485.146-.025.043-.435-.093-.485zm-2.198 2.302c-.145-.052-.247.926-.162.933.09.008.37-.856.162-.933zm-1.882 7.841c-.337.138.097.173.208.234.08.043.467.46.578.392.279-.173-.777-.6-.16-.487.1.019.12.095.355.198.134.059.342.06.505.162.175.11.455.322.67.448.249.147.092-.15-.06-.269-.128-.1-.183-.055-.238-.088-.187-.114-.333-.282-.538-.377-.195-.09-.734-.381-.956-.283-.027.013-.067.103-.084.105-.11.014-.134-.095-.28-.035zm.053.961c-.133-.018-.038.172-.127.224-.082.048-.188-.068-.228.007-.076.14.153.3.206.3.17.005.384-.5.15-.531zm.343.242c-.136-.05-.316.535-.138.559.165.02.24-.522.138-.56zm1.001-.302c-.38.013.288.497.266.503.204-.054-.108-.509-.267-.503zm-.698.684c-.05-.018-.347.325-.334.419.015.114.283.326.339.305.164-.065-.036-.145-.044-.31-.011-.222.209-.352.039-.414zm-.639.89c-.316-.02.16.495.258.343.084-.13-.216-.34-.258-.343zm-.647.597c-.263-.063.02.422.14.232.065-.101-.077-.217-.14-.232zm-.288.299c-.163-.06-.468.335-.349.46.104.107.47-.415.349-.46zm4.672-1.667c-.206-.076-.22.3-.02.24.12-.036.063-.225.02-.24zm-3.217 2.378c-.014-.002-.068-.024-.094.011-.218.294.535.054.094-.01zm.363.233c-.159-.025-.195.364-.052.387.128.02.255-.355.052-.387zm2.758-.818c-.193-.07-.09.346.06.202.036-.033.042-.165-.06-.202zm-1.449 1.234c-.212.063.964 1.28 1.208 1.75.02.04.36.796.5.725.184-.092-.13-.385-.187-.474a26.41 26.41 0 00-.975-1.462c-.129-.176-.407-.58-.546-.54v.001zm.815 2.161c-.258.045.31.68.428.495.076-.12-.346-.509-.427-.495zm1.65.652c-.064-.008-.121-.018-.135.063-.061.345.49-.024.136-.063zm-4.293 2.622c-.064-.02-.132 0-.136.063-.013.22.365.009.136-.063zm.445-.177c-.19-.026-.08.816.086.752.136-.051.013-.739-.086-.752zm4.454-2.001c-.09-.033-.356.613-.222.73.198.176.343-.686.222-.73zm3.714-.463c-.171-.076.06.426.14.662.394 1.143.555 2.18.92 3.336.16.502.186 1.007.283 1.321.16.517.436 1.069.574 1.451.219.61.444 1.215.735 1.87.078.177.233.673.37.654.127-.018-.103-.432-.108-.446-.334-.824-.697-1.677-1.023-2.562-.126-.34-.283-.688-.372-1.014-.099-.365-.111-.759-.234-1.147-.429-1.35-.493-2.71-1.232-4.082-.023-.043-.023-.028-.052-.042h-.002zm-1.459.97c-.205.007.01.306.13.139.054-.075-.064-.14-.13-.138zm-4.445 2.226c-.157-.057-.024.155.005.295.033.16 0 .375.049.604.06.283.25.919.349.895.112-.029-.112-.685-.138-.794-.084-.372-.066-.586-.125-.768-.027-.085-.1-.217-.14-.232zm4.464-1.311c-.278-.055-.011.347.116.177.064-.086-.055-.165-.116-.177zm-3.196 1.783c-.073-.026-.283.326-.16.438.166.152.306-.384.16-.438zm-.62.318c-.181-.025-.06.147-.01.334.069.252.136.859.203.863.158.012-.006-1.172-.193-1.197zm6.56-1.784c-.142.014.04.269.13.137.056-.08-.035-.148-.13-.137zM52.53 40.79c-.105-.015-.45.6-.273.622.114.014.47-.593.273-.621zm18.9-8.564c-.193-.035-.098.224.022.189.1-.03.105-.166-.022-.189zM59.1 43.716c-.158-.011-.089.191-.007.201.084.01.158-.189.007-.2zm.291.462c-.032-.003-.161.092-.058.16.09.059.255-.144.058-.16zm-2.315 1.867c-.188-.013.049.24.106.084.026-.07-.063-.08-.106-.084zm2.733-1.235c-.227-.033-.313.39-.173.41.08.011.354-.384.172-.41zm-.897.845c-.233-.03.185.832.326.773.146-.062-.256-.764-.326-.773zm1.304-.41c-.252-.093-.484.815-.36.86.129.047.392-.848.36-.86zm-2.643 1.36c-.072-.011-.226.076-.207.195.047.296.463-.158.207-.195zm3.028-.943c-.186-.068-.167.292-.256.515-.038.094-.385.792-.06.655-.034.014.446-1.122.316-1.17zm.555-.223c-.148-.011-.102.164-.02.173.076.01.171-.162.02-.173zm-.143.558c-.151-.113-.239.817-.294.93-.014.025-.114.06-.123.089-.032.095-.066.485-.03.508.198.125.297-.578.316-.673.067-.339.158-.491.17-.773 0-.01-.03-.076-.038-.082zm.339.573c-.096-.035-.543 1.267-.374 1.328.155.057.215-.396.258-.582.045-.191.215-.71.116-.746zm.29.56c-.117-.085-.132.27-.217.53-.06.184-.184.385-.202.49-.019.117-.01.39.124.339.095-.036.041-.171.063-.293.063-.354.293-.668.27-.983a.278.278 0 00-.038-.082zm.368.418c-.167-.061-.12.29-.19.517-.04.133-.352.706-.13.787.115.042.173-.356.245-.608.052-.176.214-.644.075-.695v-.001zm.214.562c-.183-.066-.34 1.063-.081.962.055-.022.15-.864.146-.893-.008-.055-.04-.06-.065-.07v.001zm.243.744c-.133-.019-.295.535-.04.481.169-.035.164-.463.04-.48zm-.667.973c-.025-.003-.207.111-.072.2.099.063.27-.181.072-.2zm-1.254.643c-.041-.036-.14.012-.135.062.008.126.245.031.135-.063zm.687.68c-.218-.029.005.28.102.15.056-.073-.028-.14-.102-.15zm1.657-.61c-.192-.026.015.327.116.177.062-.091-.05-.169-.115-.177zm-1.162 1.266c.127.12.273-.144.194-.222-.073-.072-.318.103-.194.222zm1.822-.838c-.3-.11.063.352.078.096.002-.057-.058-.09-.078-.096zm-13.224-48.4c-.13.055-.4.39.02.254.174-.056.534-.196.45-.308-.079-.106-.386.017-.47.053zm-4.741 2.73c-.31.018.133.264.244.382.13.14.172.375.284.33.178-.071-.385-.72-.527-.712h-.001zm-.237.21c-.245-.09-.05.388.088.19.05-.071-.017-.164-.088-.19zm.127.336c-.288.198.379.243.187-.022-.008-.012-.117-.027-.187.022zm.275.403c-.116.062-.148-.02-.163.076-.04.252.59.047.604-.05.024-.162-.347-.077-.44-.026zm3.107-1.34c-.312-.116.053.41.078.096.003-.04-.061-.09-.078-.096zm-.007.526c-.143-.053-.14.27-.034.28.17.017.05-.275.035-.28zm2.595-.639c-.169-.061-.184.564-.124.586.127.047.26-.536.124-.586zm-2.711 1.355c-.324.194.505.222.52.055.014-.142-.438-.105-.52-.055zm1.956-.809c-.146-.053-.143.602-.073.627.085.032.225-.57.072-.627zm2.942-1.264c-.194-.072-.4 1.18-.342 1.182.054 0 .464-1.138.342-1.182zm1.1-.477c-.199-.127-.246.354-.006.2.043-.026.067-.16.006-.2zM48.89 6.475c-.617.248.63.203.64.1.011-.12-.513-.15-.64-.1zm2.403-.658c-.093-.035-.045.552-.08.895-.03.293-.185.745.005.724.137-.017.124-.618.143-.76.027-.19.148-.78-.068-.86zm6.789-2.451c-.144-.053-.405.463-.528.64-.095.138-.407.523-.284.528.09.004.854-1.01.877-1.1.012-.047-.056-.065-.065-.069v.001zm1.105.307c.048.005-.23.092-.072.199.105.071.251-.184.072-.199zm-.226.407c-.15-.023-.128.252-.02.242.121-.013.145-.22.02-.241zm-5.918 3.04c-.105-.082-.26.325-.185.382.05.04.297-.296.185-.383zm5.599-2.465c-.135-.05-.201.241-.102.278.111.04.174-.252.102-.278zm-10.47 4.953c-.517.014.187.782.338.372.055-.152-.262-.373-.338-.372zm-.484.386c-.259-.055-.377.335-.213.396.167.062.468-.34.213-.396zm10.464-4.777c-.221-.08-.044.396.088.19.06-.09-.02-.164-.088-.19zm-.536.346c-.61.182.521.276.531.149.014-.151-.483-.164-.53-.15zm-.416.392c-.103.018-.251.004-.18.182.034.083.732.084.737.022.01-.134-.525-.172-.504-.162-.034-.015-.008-.05-.053-.042zm-5.095 2.754c-.177-.065-.158.217-.06.226.115.01.185-.18.06-.226zM50.006 9.72c-.144.063-.342.123-.489.226-.184.128-.295.354-.497.494-.476.33-2.004.83-1.142 1.454.24.172.642.098 1.033-.05.517-.196 1.504-.681 1.745-1.008.09-.122.114-.336.202-.49.165-.291.374-.494.036-.775-.193-.161-.53-.011-.888.148zm.828.077c.142.14-.094.414-.146.398.036.01-.01-.1-.023-.122-.095-.165-.252-.22-.071-.296.054-.023.252.03.24.02zm-.718.73c.198.08.031-.064.177-.116.119-.043.19.127.216-.033.01-.069-.218-.415-.217-.395-.017-.17.227.283.233.288-.324-.211.217.106.148-.035.24.497-1.374 1.231-1.795 1.394-.3.115-1.041.21-1.015-.124.01-.118.19-.015.257-.086.039-.04-.091-.116-.033-.216.034-.058.283-.105.42-.161.138-.058.314-.127.461-.214.118-.07-.053-.158.15-.103.139.038.117.632.32.545.287-.123-.256-.524-.223-.622.044-.133.138-.038.186.045.077.135.155.336.287.263.225-.124-.257-.42-.185-.541.182-.305.283.463.5.296.15-.115-.16-.348-.199-.501.186-.07.139.246.312.317v-.002zm.112-.185c-.07-.363-.306-.283 0 0zm2.374-1.796c-.067-.006-.143.185-.006.202.13.015.162-.188.006-.202zm-.752.71c-.045-.003-.095-.048-.109.05-.046.32.414-.028.109-.05zm.395.118c-.314-.048.084.368.105.083.006-.075-.046-.074-.105-.083z" fill="#81736A"/><path fill-rule="evenodd" clip-rule="evenodd" d="M48.311 11.194c-.07-.022-.154.013-.163.076-.039.282.422.008.163-.076zm4.673-2.002c-.36-.049.177.374.092.055-.014-.054-.057-.05-.092-.055zm-4.288 2.021c-.06-.025-.142.026-.149.036-.145.226.42.08.149-.036zm.392-.113c-.19-.07-.17.256-.006.2.1-.034.103-.165.006-.2zm3.911-1.554c-.21-.026-.07.235.022.189.058-.03.127-.17-.022-.189zm-.683.385c-.134-.02-.157.21-.06.226.1.017.248-.198.06-.226zm1.267-.321c-.243-.039-.032.343.102.15.061-.087-.032-.14-.102-.15zm-.687.515c-.53.203.186.881.52.552.213-.212-.124-.703-.52-.552zm.258.343c.018-.003.092-.082.096-.078.264.388-.679.02-.293-.063.106-.022.127.152.197.14v.001zm-1 .033c-.208.006-.095.337.044.31.125-.024.156-.316-.044-.31zm-3.491 1.953c-.243-.09-.061.355.076.163.017-.024.018-.128-.076-.163zm2.802-1.234c-.196-.025-.091.236.007.228.108-.009.124-.211-.007-.228zm1.26-.455c-.05-.004-.281.086-.285.166-.01.166.366.426.527.283.153-.136-.036-.434-.242-.449zm-2.321 1.175c-.353.15.275.62.413.535.134-.083.017-.459-.118-.54-.042-.025-.286.001-.295.005zm.218.328c-.017.005-.204-.15-.13-.138.06.009.188.118.13.138zm8.548-4.126c-.107.052-.214-.005-.165.143.051.154 1.116-.242.434-.201a.687.687 0 00-.27.058zm-7.437 3.513c-.184-.023-.004.312.103.15.06-.09-.03-.14-.103-.15zm8.821-3.822c-.074.03-.212.013-.205.128.009.15.465-.024.605-.049.136-.024.415-.049.685-.087.122-.017.744-.11.503-.266-.058-.039-.07.034-.257.086-.423.116-.91.014-1.331.188zm-3.369 1.558c-.126-.046-.34.484-.177.544.085.031.367-.475.177-.544zm-5.433 2.582s-.205.11-.072.199c.09.06.27-.184.072-.199zm-2.467 1.182c-.172-.063-.146.269.02.189.092-.044.067-.157-.02-.189zm8.658-3.885c-.283.205.2.033.402.011.318-.034.06-.19-.13-.137a.858.858 0 00-.272.126zm-.21.162c-.025-.004-.338.374-.175.477.144.09.427-.439.175-.477zm.512-.036c-.225-.028-.166.528.098.351.056-.038-.016-.341-.098-.351zm.982-.358c-.364.213.225.1.36.064.936-.252 1.824-.65 2.71-1.059.065-.03.528-.201.358-.298-.087-.05-.666.279-.773.326-.388.17-.911.49-1.359.63-.297.092-.908.11-1.296.337zm-5.115 2.567c-.107-.039-.256.089-.219.168.075.163.419-.095.22-.168zm4.659-2.125c-.078-.012-.156.003-.163.075-.028.293.462-.029.163-.075zm.58-.103c-.433.125.33.296.173.019-.05-.089-.072-.048-.173-.019zm-6.538 3.066c-.243.014.113.339.144.099.014-.105-.074-.103-.144-.099zm7.518-3.385c-.054-.02-.178.007-.19.088-.051.322.455.01.19-.088zm.28-.1c-.226.006.008.26.101.217.126-.058.012-.22-.1-.217zm-5.624 2.74c-.065-.024-.55.425-.378.538.078.051.602-.456.378-.538zm.711-.002c-.343.12.659.4.765.437 1.047.362 2.11.79 2.98 1.16.205.088.457.038.152-.17-.203-.137-.495-.176-.768-.303-.967-.454-2.147-.795-3.06-1.123-.027-.01-.032-.014-.068-.002zm-.128.194c-.193-.07-.678.562-.38.605.153.023.029-.104.127-.223.075-.092.495-.293.252-.381h.001zm-2.318 1.206c-.354.27.613.164.524-.078-.038-.106-.42-.001-.524.078zm2.691-.884c-.102-.067-.687.635-.34.62-.02 0 .509-.507.34-.62zm-2.451 1.268c-.027.021-.132-.004-.084.105.054.12.7-.028.689-.154-.015-.166-.467-.055-.604.05v-.001zm-1.938 1.1c-.223.1-.209-.013-.244.114-.096.348.757-.075.556-.225-.054-.04-.159.044-.312.112zm4.876-2.098c-.212-.078-.402.633-.067.493.106-.044-.002.025.004-.133.004-.104.254-.29.064-.36zm-2.665 1.3c-.05.025-.211-.002-.205.128.006.135.963-.098.945-.24-.019-.156-.598.04-.74.112zm-1.418.725c-.238-.022.15.43.276.664.134.252.215.57.348.895.453 1.106.842 1.9 1.12 2.913.123.454.067.71.167 1.143.018.084.017.273.099.285.286.041-.007-.607-.02-.684-.03-.173-.018-.489-.06-.698-.043-.21-.141-.39-.198-.57-.056-.178-.056-.36-.105-.511-.173-.53-.507-1.099-.741-1.67-.262-.637-.41-1.274-.834-1.726-.03-.032-.013-.038-.052-.042v.001zm-.279.392c-.105-.022-.696.263-.52.372.118.074.775-.321.52-.372zm4.938-2.189c-.181-.066-.305.418-.065.36.112-.027.154-.326.065-.36zm-1.812 1.6c-.033-.035-.67.114-.673.113.028.004-.23-.047-.21-.167-.002.012.596-.227.489-.226.064 0 .722.426.816.48.28.158.511.421.773.598.558.377 1.081.968 1.446 1.41-.037-.045.327.604.456.415.024-.035-.207-.393-.306-.518-.672-.855-1.592-1.593-2.509-2.137-.372-.22-.43-.39-.74-.317-.129.03-.84.052-.811.244.015.108.17.055.198.073.148.098.347.6.615.474.069-.032-.078-.158-.075-.164-.017.037.715-.089.53-.278h.001zm-3.168 1.1c-.016.008-.33.122-.141.263-.014-.01.593-.205.466-.348-.034-.037-.204.025-.325.085zm5.501-2.514c-.255-.01.043.394.155.192.06-.107-.105-.19-.155-.192zm.691.174c-.114.049-.038.186.086.257.029.017.12-.075.096-.078.04.004.512.219.362-.003-.087-.128-.157.005-.32-.05-.176-.058.032-.236-.225-.127v.001zm-6.136 2.846c.003-.002-.049-.017-.067-.003-.135.113.402 1.519.51 1.81.132.36.31.671.45 1.046.048.128.287.617.403.44-.001.002-.16-.409-.187-.474-.291-.711-.424-.904-.701-1.655-.083-.222-.342-.811-.307-.946-.016.06.386-.258.344-.325-.046-.074-.312.01-.445.107zm5.311-2.428c-.368.022.484.341.515.257.035-.097-.513-.257-.515-.257z" fill="#81736A"/><path fill-rule="evenodd" clip-rule="evenodd" d="M54.567 15.093c.051.032.105-.03.23-.073.178-.06.784-.088.796-.204.013-.117-.906-.088-1.062.13-.005.005.007.13.035.148h.001zm-3.924 1.784c.044.003-.173.078-.046.187.103.088.254-.173.046-.187zm4.468-1.705c-.595.31.996.033.955-.146-.02-.09-.846.09-.955.146zm-2.48 1.148c-.02-.003-.198.07-.1.211.07.1.293-.191.1-.211zm-1.687 1.052c-.312-.025.07.295.142.165.05-.092.002-.153-.142-.165zm.526-.086c-.269-.098.489 1.806.26.705-.03-.145-.069-.634-.26-.705zm3.806-1.73c-.025.018-.109-.027-.108.05 0 .236.486-.003.644-.035.238-.047.617.013.593-.143-.013-.082-.407-.078-.4-.078-.231.028-.59.107-.73.206h.001zm-4.394 2.306c-.25.167.437.31.466.08.017-.135-.425-.108-.466-.08zm2.179-.917c-.27-.026.088.327.105.083.006-.078-.048-.078-.105-.083zm7.326-3.332c-.293.09.493.527.527.283.017-.116-.482-.297-.527-.284zm-4.469 2.17c-.365.18.107.1.197.14.254.113.644.73.985 1.127.43.505.69.768 1.014 1.048.074.065.395.3.489.202.145-.15-.227-.24-.3-.29-.503-.345-.982-.928-1.468-1.53-.126-.158-.454-.54-.452-.55.022-.14.299-.03.246-.18-.034-.097-.65.003-.71.032v.001zm-5.042 2.507c-.413.215.671.27.695.073.009-.08-.591-.128-.695-.073zm.174.45c-.613.23.785.291.684.046-.013-.03-.594-.08-.683-.046zm.961.643c-.18-.066-.015.556.043.806.168.714.232 1.025.29 1.548.002.026-.019.362.123.339.124-.02.053-.533.046-.615-.044-.44-.154-.896-.256-1.334-.042-.181-.094-.688-.246-.744zm1.656.287c-.357-.132.126.737.234.716.136-.026-.097-.667-.234-.717zm5-2.221c-.327-.054.15.422.25.61.012.021.139.546.287.263.055-.105-.46-.861-.537-.874zm-3.043 3.595c-.203-.082-.172.262-.047.253.12-.008.195-.193.047-.253zm2.406 4.854s.013.023.013.027c0 .006-.056.415.068.43.27.035.132-.724-.08-.457zm.656 1.114c-.172-.02-.106.254-.008.268.118.017.189-.247.008-.268zm.251.838c-.245-.075.03.396.141.231.064-.095-.084-.215-.14-.232zm.501.958c-.104-.005-.211.17-.061.226.07.025.23-.22.06-.226zm.235.751c-.116.013-.039.29.072.297.142.006.16-.323-.072-.297zm.545.933c-.308-.004.113.36.145.098.01-.096-.076-.098-.145-.098zm1.765 4.298c-.074-.006-.088.195-.006.201.075.005.145-.191.006-.201zm.287.56c-.153-.01-.042.206.032.215.072.008.13-.207-.033-.216zm.385.942c-.194-.123-.051.431.073.23.006-.01.015-.173-.073-.23zm8.635-3.174c.058-.156-.258-.203-.265-.074-.005.088.212.22.266.074zm-8.133 4.197c-.137-.06-.13.18-.046.186.106.008.165-.135.046-.186zm.361.987c-.313-.115.05.417.078.096.004-.057-.059-.089-.078-.096zm.348.898c-.143-.018-.13.316.005.295.114-.018.162-.274-.005-.295zm-4.033 2.95c-.19-.069-.368.647-.263.716.129.084.349-.684.263-.716zm.503.101c-.307.01.362.577.553.767.174.173.312.39.52.551-.908-.7.102.196.199.073.051-.066-.486-.64-.568-.726-.294-.31-.514-.49-.651-.622-.03-.029-.013-.044-.053-.042zm-.176.611c-.259-.093-.076.41.075.164.041-.066-.013-.14-.076-.164zm.444.588c-.285-.01.008.322.084.324.223.008.063-.318-.084-.323zm1.002 1.088c-.178-.066-.188.255-.075.265.135.012.139-.242.075-.265zm-.48 1.212c-.228 0 .234.596.365.788.237.348.469.96.794 1.215.24.189.021-.2-.044-.31-.298-.492-.818-1.389-1.063-1.652-.029-.03-.014-.042-.053-.042zm2.497-.827c-.229-.016.038.305.142.164.065-.087-.093-.162-.142-.164zm-1.945 1.165c-.202.006.027.295.129.138.062-.094-.052-.14-.13-.138zm7.245-2.992c-.175-.015-.001.375.115.178.055-.093-.057-.173-.115-.178zm-4.943 2.32c-.006.001-.214.105-.072.199.127.084.369-.276.073-.199zm2.019-.706c-.134-.021-.365.381-.23.503.13.118.431-.469.23-.502zm-1.535.879c-.162-.06-.468.556-.258.581.084.01.345-.55.258-.581zm-2.345 1.087c-.196-.072-.044.272.063.136.036-.045.01-.11-.063-.136zm6.764-2.842c-.06-.025-.134.016-.148.036-.156.25.43.085.148-.036zm-6.357 3.21c-.048-.006-.138.048-.11.118.074.19.379-.081.11-.118zm2.392-.905c-.033-.013-.425.307-.428.429-.006.376.607-.364.428-.43zm4.01-1.496c-.14.004-.048.196.049.176.105-.022.091-.18-.049-.176zm-6.018 2.814c-.097-.064-.404.288-.318.38.127.134.435-.303.319-.38zm8.478-3.627c-.09-.033-.449.736-.557.72-.083-.012-.023-.192-.115-.177-.176.028-.11.351-.108.48.002.148.042.785.161.42.011-.032.003-.32.025-.375.014-.032.113-.035.136-.063.04-.047.05-.204.117-.317.125-.212.568-.604.341-.687v-.001zm-3.008 1.462c-.173-.022-.403.98-.286 1.023.108.04.438-1.003.286-1.023zm.68-.019c-.186-.02-.132.2-.034.213.096.015.212-.193.033-.213zm-5.496 2.881c-.019-.006-.039-.02-.067-.002-.258.18-.725 1.066-.53 1.137.143.052.142-.276.243-.476.093-.186.489-.61.354-.66v.002zm7.838-3.607c-.306-.127.073.376.09.123.002-.027-.019-.094-.09-.123zm-.121.387c-.113-.041-.512.489-.338.553.095.035.493-.496.338-.553zm-2.159 1.031c-.129-.047-.478.17-.358.298.102.108.517-.24.358-.298zm-5.395 2.537c.005.002-.741 1.127-.532 1.203.154.056.093-.13.184-.316.07-.14.575-.804.348-.887zm7.852-3.577c-.185-.043-.027.247.046.243.107-.006.037-.223-.046-.243zm-.403.783c-.147-.053-.386.339-.268.421.079.055.416-.366.268-.42zm-2.089.974l-.013-.027c-.017.02-.575.295-.374.404.123.068.583-.283.386-.377zm-4.653 2.517c-.146-.054-.872 1.056-.665 1.199.095.065.287-.531.34-.62.084-.139.485-.521.325-.58zm7.496-3.376c-.065-.006-.189.103-.085.171.09.059.279-.153.086-.171zm-2.738 1.434c-.099-.036-.775.328-.643.462.08.083.857-.384.643-.462zm-4.519 2.356c-.086-.067-.736.922-.579 1.029.078.053.548-.824.59-.934.005-.013.013-.076-.01-.095zm7.139-2.718c-.153-.015-.093.352.003.362.113.011.156-.347-.003-.362zm-1.836.922c-.155-.057-.15.17-.073.199.08.029.195-.155.073-.2zm-4.706 2.611c-.1-.037-.776.654-.598.773.091.06.737-.722.599-.773zm4.814-2c-.055-.006-.2.118-.073.199.1.065.27-.18.073-.2zm1.753-.389c-.151-.014-.125.2-.034.214.084.014.196-.197.034-.214zm-1.973 1.151c-.077-.008-.189.126-.073.199.094.058.279-.178.073-.2zm1.571-3.867c-.032-.012-.058-.017-.054.025.096 1.09.05 2.608-.285 3.73-.057.189-.117.383-.164.57-.096.389-.191.829-.422 1.153-.105.148-.63.61-.668.837-.053.325.354-.183.45-.308.45-.574.665-.898.826-1.636.179-.817.49-1.67.492-2.571.001-.467.056-.97-.013-1.381-.026-.159-.126-.407-.162-.42z" fill="#81736A"/><path fill-rule="evenodd" clip-rule="evenodd" d="M70.735 46.736c-.162-.059-.132.667-.157.8-.14.728-.428 1.596-.641 2.177-.04.108-.075.454-.148.465-.004 0-.296-.363-.396-.213-.064.097.188.291.206.301.035.02.179.03.173.02.004.008-.179.564-.205.556-.046-.016-.282-.758-.454-.483-.095.153.08.126.166.286.05.093.066.239.099.284.038.054.107.002.12.044.015.054-.026.4-.106.413-.173.027-.277-.763-.503-.658-.052.024.095.497.233.717.11.176.215.1.153.26-.202.52-.425-.778-.658-.422-.052.08.207.301.206.3.134.21.192.565.386.548.228-.019.528-1.175.59-1.362.16-.489.336-.918.51-1.391.154-.42.18-.826.278-1.251.066-.289.338-.928.25-1.238a.318.318 0 00-.102-.15v-.003zm-4.459 4.974c-.153.042.085.435.202.368.138-.078-.068-.405-.202-.367zm2.255.042c-.245-.02.281.773.408.736.139-.042-.243-.723-.407-.736zm-.443 1.891c-.028-.004-.172.077-.125.157.103.172.36-.124.125-.157zm.39.877c-.048-.035-.741.814-.386.804.05 0 .395-.521.421-.657a.407.407 0 00-.035-.148zm.242 1.835c-.135-.093-.62.631-.354.66.093.01.092-.183.184-.316.062-.09.328-.235.17-.343zm.238 2.432c-.163-.02.068.307.13.138.034-.092-.077-.131-.13-.138zm.082.589c-.15-.055-.101.25.007.228.102-.022.104-.187-.007-.228zm.083.818c-.163-.02-.017.312.102.15.065-.087-.033-.142-.102-.15zm.028.58c-.208-.022-.017.318.103.15.056-.078-.027-.143-.103-.15zm-2.162-35.996c-.111-.072-.215.372-.133.425.117.076.309-.31.133-.425zm2.081-.137c-.048.004-.187.187-.034.28.147.09.275-.301.035-.28zm-.508 1.522c-.087-.013-.197.046-.126.158.096.15.351-.123.126-.158zm.154.423c-.176-.027-.29.402-.133.425.112.017.313-.396.133-.425zm-1.254.809c-.268-.055-.002.391.127.205.066-.096-.085-.197-.127-.205zm.432-.031c-.189-.07-.07.597.105.511.106-.05-.026-.482-.105-.511zm-.404.484c-.235.025.189.427.283.396.21-.066-.174-.408-.283-.396zm-.379 1.755c-.093-.013-.011.795.183.608.101-.096.004-.582-.183-.608zm3.006.132c.028-.019.031-.215.035-.28.005-.12.054-.233-.046-.243-.208-.021-.191.652.01.523zm-3.835 1.775c-.057-.02-.134-.004-.149.036-.08.218.377.048.149-.036zm2.412 1.916c-.108-.04-.388.602-.221.663.121.043.36-.612.22-.663zm-16.545-22.26c-.468.024.032.7.281.464.176-.168-.15-.47-.281-.464zm-2.324 1.372c-.467.11.076.55.27.437.248-.146-.007-.499-.27-.437z" fill="#81736A"/><path fill-rule="evenodd" clip-rule="evenodd" d="M44.45 9.553c-.03-.066-.603-.4-.841-.534-.954-.53-2.026-.946-3.212-1.019-.29-.018-.922-.277-1.161-.154 0 0-.172.149-.18.182-.02.08.123.153.126.272.002.08-.134.131-.115.251.059.36.606.747.87.95.326.25.69.402 1 .592.351.216.706.378 1.03.512a9.388 9.388 0 002.245.643c.107.017 1.118.125 1.17.315.052.2-.263.275-.331.285-.142.021-.323-.075-.4-.078-1.37-.074-3.753-.185-5.59.116-.298.05-1.106.305-1.249.58-.012.022.018.13-.019.173-.11.126-.268.045-.273.194-.003.097.202.135.22.26.025.181-.183.004-.087.24.079.195.818.39.992.43.885.21 1.838.114 3.21-.267.853-.237 1.687-.607 2.568-.795.235-.05.81-.242.68.114-.042.115-.834.055-1.048.09-1.342.212-2.45 1.273-3.993 1.851-.741.277-1.192.168-1.788.202-.11.006-.659.054-.727.139-.169.21.107.124.042.376-.063.247-.255.053-.275.26-.02.188.362.375.456.415 1.237.518 3.057.357 4.724-.276.85-.322 1.852-.896 2.413-1.416.137-.127.636-.649.3-.205-.147.194-.405.456-.54.614-.261.306-.52.624-.748.808-.533.433-.964.673-1.606.877-.79.25-1.57.702-2.058 1.185-.207.205-.474.666-.483.95-.007.205.056.675.15.822.044.069.306.236.34.237-.02 0 .51-.132.473-.12.455-.153.83-.408 1.17-.609.441-.26.932-.327 1.421-.494.297-.101.596-.284.857-.43.207-.116.533-.514.378-.11-.253.664-.427 1.5-.402 2.267.01.29.037.698.173.942.053.095.142.113.235.221.106.124.16.39.31.384.024 0 .12-.075.136-.063.074.052.153.37.298.357.177-.015.319-.797.375-.9.14-.258.433-.492.657-.931.106-.207.275-.62.387-.872.14-.313.223.617.245.81.076.68.11 1.064.136 1.72.01.253.012.701.108.873.053.095.112.061.21.167.058.063.065.22.14.232.151.024.459-.298.479-.32.36-.422.576-1.152.79-1.786.22-.653.43-1.144.51-1.887.098-.902-.144-2.252-.488-3.404-.093-.311-.38-1.082-.314-1.175.008-.01.266-.111.324-.083.103.047.046.709.069.859.046.317.139.664.198.997.164.926.51 1.958.795 2.997.129.467.53.993.733 1.508.14.354.323.72.583 1.116.115.173.427.648.595.714.127.049.243-.098.429 0 .124.064.107.217.235.22.163.005.466-.85.488-1.084.057-.634-.173-1.387-.312-2.165-.072-.406.288.288.363.425.263.485.595 1.145.91 1.394.054.044.288.163.343.17.009.002.27-.028.31-.044.048-.02.29-.25.315-.246.123.02.366.662.51.886.724 1.13 1.503 2.427 2.167 3.748.406.81.843 1.644 1.199 2.514.65 1.586 1.63 3.669 2.357 5.441.606 1.475 1.078 3.038 1.727 4.58 1.025 2.435 2.003 4.833 2.679 7.272.075.272.203.62.254.905.059.328-.19-.18-.26-.275-.597-.825-1.313-1.624-2.023-2.23a14.6 14.6 0 01-1.212-1.188c-.42-.462-.924-.829-1.183-1.2-.544-.783-1.287-1.161-1.871-1.972-.262-.362-.45-.752-.705-1.093-.455-.608-1.008-1.203-1.486-1.852-.472-.642-.841-1.504-1.433-1.812-.026-.013-.401-.169-.48-.107-.072.056-.067.766-.055.95.079 1.163.705 2.245.887 3.549.04.28.065.621.093.913.065.65-.037 1.54.013 2.305.002.023.142.592.062.631-.063.03-.3-.278-.287-.263-.439-.517-.845-1.067-1.226-1.577-.16-.213-.443-.58-.461-.71-.018-.123.245-.512.287-.66.18-.651.109-1.307.088-2.088-.022-.873-.038-1.584-.38-2.53-.136-.373-.098-1.144-.232-1.212-.357-.18-.59.915-.607 1.04-.106.782-.118 2.094.005 3.001.06.447.149.63.132.995-.02.396-.226-.27-.309-.45-.46-1.005-.719-1.933-.986-2.91-.105-.386-.243-.776-.261-1.133-.022-.424.211-.883.255-1.372.075-.838-.144-1.685-.701-2.58-.94-1.507-2.216-2.414-3.585-2.892a4.598 4.598 0 00-.919-.201c-.443-.037-1.29.28-1.816.71-.12.099-.197.325-.283.527a6.06 6.06 0 00-.277.756c-.036.12-.128.235-.129.29 0 .059.085.2.099.285.035.221-.01.47.032.71.263 1.484 1.194 2.734 2.236 3.684.498.453 1.096.9 1.587 1.145.377.19.917.33 1.33.308.149-.008.317-.107.458-.08.25.048.688.532.978.9.757.962 1.154 1.959 1.812 3.053.192.318.535.727.158.555-.237-.11-.325-.198-.566-.366-.202-.14-.63-.356-.777-.465-.429-.319-.619-.575-1.139-.891-.608-.37-2.016-.884-2.797-.98-.1-.013-.242.027-.39.014-.367-.029-.994-.235-1.229-.089-.085.052-.176.278-.146.397.088.35 1.005.966 1.213 1.121 1.224.912 2.49 2.001 4.021 2.195.15.02.34.013.509.029.17.015.347.044.48.04.111-.002.5-.014.605-.05.195-.066.486-.425.706-.327.17.078.457.688.616.903.447.602.819 1.089 1.237 1.67.215.3.492.547.632.796.215.382.268.857.394 1.204.615 1.7 1.675 2.857 2.617 3.936.483.555.951 1.128 1.481 1.557.257.209.547.379.8.587.694.57 1.453 1.107 2.26 1.46.232.1.524.174.796.291.257.11.526.262.768.304.17.029.384-.02.562.003.223.029.428.133.626.14.129.003.313-.042.536-.052.09-.004.473-.066.51-.039.194.14.152.767.173.943.042.33.153.667.201.93.095.52.158 1.117.259 1.696.237 1.363.317 2.267.405 3.508.07.99.192 1.767.08 2.736-.041.363-.21 1.047-.079 1.323.227.48.96.4 1.303-.108.176-.261.11-.507.107-.907-.003-.424.045-.753-.03-1.273-.137-.96-.107-1.977-.22-2.968-.22-1.926-.4-3.578-.731-5.634-.051-.312-.288-1.025-.235-1.146.071-.161.552-.31.763-.42.984-.507 1.708-.996 2.116-1.773.368-.701.661-1.578.846-2.373.157-.67.078-1.398.037-2.128-.027-.46.085-.98-.049-1.529-.128-.525-.41-1.01-.636-1.586-.306-.782-.543-1.56-1.014-2.4-.126-.225-.326-.373-.396-.642-.04-.156.03-.347.028-.508-.017-1.21-.227-2.506-.462-3.846-.042-.233-.15-.592-.1-.713.112-.273.682-.424 1.011-.666.165-.121.679-.806.795-1.062.119-.261.202-.754.232-1.064.015-.156.123-.459.137-.559.033-.233.042-.687.055-.95.012-.234.056-.89-.133-.928-.129-.025-.558 1.056-.624 1.147-.182.252-.428.46-.624.718-.458.606-.754 1.412-.962 2.196-.122.458-.17-.33-.22-.69-.101-.723-.33-1.946-.022-2.466.057-.095.212-.19.318-.312.089-.104.143-.255.237-.34.251-.234.462-.299.608-.613.136-.292.29-1.307.264-1.706-.06-.917-.473-1.994-1.039-2.951-.196-.333-.477-.736-.708-.958-.139-.136-.367-.21-.552-.339-.09-.062-.225-.255-.34-.305-.105-.046-.247.009-.467-.013-.225-.023-.369-.216-.505-.163.01-.004-.198.295-.252.381-.211.34-.442.918-.558 1.216-.327.839-.421 1.516-.435 2.48-.01.677.16 1.706.474 2.518.203.523.6.934.919 1.126.186.112.398.093.529.216.24.223.555.995.682 1.4.076.245-.258-.166-.289-.196-.505-.483-1.232-.816-1.987-1.224-.21-.113-.442-.304-.581-.258-.366.119-.204.581.001.857.327.438.807.606 1.295 1.083.457.446.776 1.1 1.148 1.48.32.329.71.461.863.723.13.22.139.733.182 1.103.071.624.023 1.168.04 1.797.004.132.063.421.05.603-.03.396-.184-.091-.365-.358-.17-.253-.763-1.362-1.006-1.316-.225.043-.376.81-.393 1.073-.03.46.049.877.044 1.234-.012.918-.037 1.587-.044 2.397-.006.76.013 1.565-.204 2.338-.158.567-.44 1.365-.477 2.102-.02.407-.377-.718-.417-.83-.6-1.644-1.223-3.316-1.885-5.132-.948-2.602-2.262-5.18-3.345-7.856-.827-2.045-1.917-4.42-2.864-6.46-.573-1.237-1.25-2.473-2.028-3.879-.398-.718-1.054-1.514-1.26-2.22-.07-.242-.072-.526-.138-.795-.337-1.385-.879-2.97-1.733-4.378-.16-.265-.457-.613-.67-.877-.193-.237-.663-.683-.685-.837.003.026.082-.295.168-.277.063.014.115.203.23.423.41.793 1.03 1.395 1.575 1.975.185.196.396.324.562.499.544.575 1.172 1.366 1.751 1.928.307.298.626.547.913.83.354.35.928.928 1.375 1.046.151.04.604.126.668.087.159-.1-.029-.281.064-.36.075-.064.268.143.401.012.09-.089.068-.405.018-.602-.32-1.265-1.452-2.663-2.204-3.4-.494-.486-1.321-1.037-1.863-1.315-.244-.125-.493-.18-.701-.302-.39-.228-.913-.49-1.344-.763-.032-.02-.59-.352-.616-.474-.013-.065.317-.499.43-.496.124.003.251.32.323.411.058.074.143.178.26.275.749.631 1.653 1.127 2.587 1.738.44.288.9.544 1.344.763.712.35 1.355.529 2.165.613.572.06 1.29-.022 1.934-.17.18-.042.42-.127.49-.227.078-.113-.036-.028-.02-.255.006-.082.102-.154.1-.212-.002-.038-.1-.1-.116-.177-.026-.135.069-.088.02-.174-.059-.1-.339-.333-.51-.457-.229-.166-.533-.286-.803-.453-.258-.157-.544-.278-.819-.412-1.086-.53-2.198-.964-3.348-1.385a15.986 15.986 0 00-2.298-.684c-.058-.013-.555-.073-.586-.124-.044-.075.103-.502.15-.531.078-.05.548.078.747.115.746.14 1.484.09 2.315.082.962-.01 2.505-.474 3.412-.756.709-.22 1.373-.447 1.888-.909.157-.14.393-.312.538-.48.131-.154.364-.68.29-.795-.127-.2-.153.045-.267-.008-.046-.02.012-.105-.049-.175a2.734 2.734 0 00-.343-.171c-.183-.004-.434.154-.608.183-.505.082-.96-.078-1.43-.096-.43-.016-.987.062-1.49.13a8.642 8.642 0 00-3.113 1.047c-.433.244-1.046.602-1.699.82-.365.123-.302-.116-.084-.323.125-.12.291-.168.463-.281 1.427-.934 3.6-1.943 4.332-3.33.202-.382.427-.835.6-1.268.168-.423.393-.906.453-1.299.01-.068.022-.28-.003-.362-.034-.115-.159-.165-.192-.274-.029-.09.083-.201.049-.32-.028-.098-.135-.028-.184-.112-.049-.084.087-.22-.018-.322-.121-.12-.745.009-.886.08-.665.338-1.152 1.236-1.499 1.751-.197.293-.349.618-.55.948-.187.306-.468.589-.749.876-.855.875-1.673 1.582-2.367 2.582-.075.109-.532.88-.656.865-.387-.043.082-.448.192-.584.344-.424.374-.52.617-.946.31-.544.523-.995.745-1.6.338-.924.691-1.821.9-2.826.076-.367.378-1.28.236-1.627-.053-.128-.127-.1-.222-.194-.034-.034-.019-.098-.063-.136-.04-.035-.127-.055-.12-.044-.059-.093.03-.225-.085-.257-.181-.05-.614.355-.794.567-.539.634-.999 1.568-1.205 2.241-.412 1.346-.655 2.374-.955 3.777-.037.174-.135.434-.206.623-.027.072-.152.566-.297.567-.116.002-.058-.334-.058-.336.034-.353.162-.674.18-1.107.025-.589.027-1.027.062-1.647.022-.372.108-.765.1-1.135-.005-.343-.08-.687-.076-1.02.003-.33.094-.661.082-.963-.01-.237-.046-.688-.27-.865-.021-.018-.282-.071-.266-.075-.126.03-.188.267-.248.247-.143-.049.086-.312-.097-.35-.128-.028-.582.415-.616.45-.09.096-.176.24-.265.355-.527.681-.7 1.72-.723 2.711-.017.74-.075 1.336.228 2.27.066.207.15.447.258.772.09.271.41.964.004.79-.103-.044-.195-.528-.211-.595-.073-.318-.112-.563-.177-.81-.122-.46-.23-1.205-.327-1.63-.198-.86-.655-1.768-1.05-2.55-.103-.203-.206-.514-.384-.614-.054-.031-.113.062-.255.019-.068-.02-.113-.145-.17-.153-.035-.004-.152.113-.177.116-.092.007-.142-.187-.279-.103-.117.073-.076.533-.076.762.002.276.046.57.07.792.017.145-.03.376-.003.563.032.228.125.487.18.742.197.937.599 1.907 1.173 2.888.218.372.64.708.615.969.003-.031-.34.417-.493.36-.109-.04-.342-1.204-.453-1.473a3.729 3.729 0 00-.279-.53c-.249-.39-.72-.881-1.184-1.201-.15-.105-.377-.158-.527-.284-.203-.17-.73-.83-.945-1.113-.21-.277-.38-.615-.612-.607-.18.006-.023.116-.152.17-.08.032-.149-.19-.268-.009-.13.199-.14-.124-.32-.05-.13.055-.136.456-.124.586.033.35.15.76.213.958.084.272.19.576.284.825.335.886.918 1.461 1.442 1.972.22.213.49.446.823.707.14.11.816.545.837.668.005.027-.242.483-.443.47-.179-.014-.422-.712-.588-.916-.593-.721-1.226-1.206-2.007-1.908-.517-.464-.984-1.024-1.42-1.354-.225-.17-.644-.445-.725-.423-.1.027-.084.122-.167.209a2.625 2.625 0 01-.193.155c-.111.01-.19-.173-.29-.13-.17.076.118 1.031.255 1.334.474 1.05 2.023 2.101 2.653 2.73.016.017.028.061.038.082l.003.006zm3.602-4.047c.013.04.12.498.256.41.084-.055-.03-.206-.034-.215-.35-1.137-.746-2.195-.763-3.211-.006-.454.098.023.194.274.302.799.566 1.372.758 1.991.023.074-.041.324.099.285.067-.019.058-.15.058-.16.004-.307-.296-.955-.504-1.515-.12-.322-.308-.895-.462-1.138-.081-.129-.244-.455-.032-.283.097.078.204.028.266.075.106.08.405.672.485.831.085.172.178.343.291.559.442.836.753 2.59.898 3.148.082.312.12.334.055.403-.017.018-.857.057-.677.248.096.101.65-.185.727-.14.084.05.063.33.057.337-.076.095-.591-.137-.552.09.02.116.258.073.373.092.26.042.366.106.3.222-.077.14-.57-.104-.63.062-.06.162.363.116.451.12-.584-.027.184-.009.16.058-.049.132-.143.042-.23.074-.36.132-.247.09-.462-.215-.162-.227-.378-.412-.386-.547-.003-.051.134.005.163-.075.044-.123-.329-.97-.474-.738-.043.068.212.412.24.517-.06-.229.04.2-.007.2-.032 0-.416-.692-.496-.858-.296-.608-.58-1.364-.682-1.896-.175-.924-.276-1.721-.194-2.484.02 1.056.354 2.26.755 3.479zm-3.724-1.342c.075-.03.046-.223.102-.278.044-.043.198-.12.245-.114.102.016.13.164.27.37.19.283.648.693.723.919-.007-.023-.033.133-.043.119.071.092.293.17.42.267.144.109.277.272.392.346.287.184.595.224.83.506.397.48.951 1.645 1.034 2.16.006.04.01.41-.119.386-.11-.021-.316-.599-.354-.694-.205-.502-.843-1.65-1.258-1.86-.515-.257.202.374.174.448-.032.086-.192.072-.284.099-.28.083-.36.192-.485.093-.355-.284.616-.206.51-.468-.073-.177-.535.135-.703.194-.324.115-.19.107.018.322.555.572.93 1 1.414 1.556.072.084.327.51.47.375.133-.122-.192-.264-.244-.315-.216-.212-.24-.327-.608-.742-.148-.166-.329-.343-.48-.536-.187-.24-.15-.217.183-.317.107-.031.659-.134.544.177-.03.082-.489-.119-.512.106-.011.112.51.12.547.11.202-.054.25.237.387.48.227.4.81 1.47.174 1.371-.046-.007-.292-.198-.433-.294-.769-.522-1.824-1.403-2.373-2.2-.325-.472-.585-1.241-.727-1.71-.09-.3-.27-1.034-.09-1.047.129-.01.1.242.277.169l-.001.002zm6.77-2.908c-.065.2-.178.95-.24 1.332-.039.242.025.372-.116.318-.061-.023-.54.17-.569.197.027-.025-.212.216-.035.28.134.05.475-.365.68-.315.082.021-.397.396-.032.147-.034.023-.145-.033-.174-.018-.174.091-.615.326-.576.465.07.252.743-.463.718-.3-.022.144-.725.591-.806.539.029.018-.016-.289-.015-.389.002-.582.235-1.341.549-1.805.122-.18.459-.734.65-.665.126.047-.007.131-.034.214zm.858.427c.01.247-.074.604-.081.962-.008.345.091.697.09 1.047-.002.206-.047.434-.06.655-.026.458-.03.902-.08 1.324-.026.237-.002.465-.02.67-.028.37-.144.71-.204 1.052-.023.13-.025.392-.093.439-.08.055-.315-.013-.402-.012-.067 0-.42.057-.444.04-.236-.16-.267-1-.288-1.12-.078-.449-.315-.88-.39-1.337-.05-.311-.036-.65-.026-.912.002-.061-.023-.31-.017-.322.063-.116.771-.49.804-.471-.003-.002-.05.268-.048.253-.009.105-.158.781.018.75.144-.025.063-.383.067-.426.075-.949.213-1.706.438-2.613.028-.111.117-.671.142-.264.044.726.007 1.352.022 1.97.002.095-.021.706.1.713.101.006.078-.427.077-.332.003-.332.013-.47.022-.736.008-.264-.115-2.008.098-1.993.22.015.27.548.275.664zm-9.65 3.814c.967.71 1.99 1.697 2.899 2.55.312.294.678.619.936.953.117.151.535.792.522.913 0 .008-.283.282-.33.285a6.19 6.19 0 00-.368-.225c-.348-.174-.49-.303-.812-.614-.344-.332-.396-.407-.677-.676-.305-.293-.253-.006-.048.252.184.231.381.303.614.54.338.347.407.415.813.614.018.01.378.138.327.278-.059.156-.49.013-.628-.073-.363-.222-.763-.768-1.04-1.035-.418-.402-.844-.704-1.188-1.067-.441-.464-1.025-1.037-1.275-1.752-.057-.163-.213-.59-.062-.631.105-.03.166.162.248.248.27.284.576.553.756.705.204.174.491.462.77.667-.03-.023.267.206.279.101.024-.204-.343-.347-.482-.469-.375-.332-.669-.59-.978-.9-.177-.177-.645-.663-.327-.706.041-.005.02.019.052.042h-.001zM54.908.645c-.108.162-.183.439-.329.714-.325.613-.712 1.33-.81 2.025-.065.458.107.006.18-.181.265-.691.488-1.211.818-1.866.084-.166.243-.656.476-.682.265-.03.235.33.226.489-.026.527-.192 1.02-.311 1.464-.029.109-.01.269-.037.347-.079.233-.222-.14-.282.032-.043.123.168.198.18.246.014.054-.161.652-.253.877-.078.192-.15.225-.37.27-.181.038-.282.064-.238-.087.141-.494.37-1.179.5-1.553.158-.45.41-.956.485-1.445.038-.244-.088-.23-.146-.032-.051.174.003.138-.02.241-.107.44-.626 1.617-.746 2.095-.184.742-.476 1.535-.721 2.216-.048.133-.072.279-.119.385-.011.024-.291.335-.064.36.1.01.06-.216.223-.302.14-.073.053-.004.161-.008.604-.029-.213.271-.209.261-.054.139.22.188.198.14.102.203-.73 1.23-.977 1.31-.09.03-.426-.022-.479-.107-.075-.122.288-1.038.362-1.357.401-1.739.726-3.59 1.622-5.043.175-.282.268-.64.683-.877.025-.014.05-.013.067.002.007.007-.062.055-.07.066zM39.511 8.08c.811.16 1.442.097 2.372.419.576.198 1.343.505 1.89.872.329.221.237.161-.077.333-.135.074-.49.35-.587.371-.203.045-.709-.233-.914-.335-.558-.277.084.256.217.328.129.068.367.123.584.191.202.063.422.155.584.191.123.029.28.018.348.038.24.068.558.38.935.523.083.032.7.232.722.062.018-.141-.618-.23-.716-.262-.473-.154.083-.12.276-.26.073-.052-.013-.13.098-.144.011-.002.294.13.291.129.388.173.2.185.08.458-.119.27-.026.338-.327.218-.276-.11-.598-.104-.906-.174-1.484-.34-2.85-.807-4.13-1.716-.273-.195-.665-.425-.78-.76-.038-.11.073-.05.032-.214-.065-.263-.21-.173-.059-.269.017-.01.052 0 .067.002V8.08zm16.705-2.334c.072-.102.299-.364.35-.458.093-.176-.059-.202-.16-.058-.266.375-.561.788-.919 1.151-.277.282-1.165.933-1.163 1.265.004.334.183.174.277.17.11-.006.504.065.37.158-.32.222-.581.427-.808.606-.291.228-.325.205-.55.023-.308-.248-.175-.29.033-.642.293-.494.634-.939.977-1.31.845-.92 1.692-1.613 2.35-2.476.211-.277.352-.6.563-.922.196-.297.4-.587.615-.879.212-.284.41-.632.762-.848.119-.073.62-.272.703-.194.074.07-.082.314-.131.358.029-.026-.113-.052-.147-.032-.078.047-.258.382-.405.551-.046.054-.478.524-.365.565.1.037.331-.338.4-.417.16-.18.335-.303.429-.43.133-.178 0-.18.177-.114.047.017.101-.079.149-.036.107.096-.062.116.032.282.062.111.18.098.221.194.084.196-.106.602-.17.771-.213.573-.467 1.13-.733 1.693-.31.658-.725 1.003-1.317 1.502-.07.059-.126.17-.234.207-.055.019-.494-.005-.602-.018-.055-.007-.509-.178-.351.097.05.088.716-.028.707.1 0 .008-.273.21-.355.232-.126.033-.592-.122-.72-.129-.171-.009-.02-.102.032-.146.133-.114.41-.353.468-.415.464-.509.873-.877 1.354-1.42-.015.018.3-.23.184-.317-.108-.08-.403.397-.386.377-.79.927-2.16 2.093-3.256 2.73.4-.552 1.21-1.182 1.62-1.773v.002zm-1.976-1.13c.167-.03.293-.18.378-.11-.026-.021-.135.425-.118.386-.083.195-.105.082-.203.06-.116-.024-.233.149-.311.112-.122-.057.095-.472.162-.504-.015.007.074.06.092.056zm-10.035 5.05c.015.013.536.359.523.417-.025.117-.556.29-.692.288.054.001-.217-.066-.21-.1.035-.211.6-.161.52-.373-.045-.118-.885.352-.895.348-.413-.129.39-.334.591-.505.068-.057.029-.12.11-.117.005 0 .05.038.053.042zm-.42 2.44c-.227.023-.764.018-.862.135-.159.188.6.075.721.061.2-.022 1.13-.176.467.08-.536.209-1.038.46-1.682.715-.42.166-.885.184-1.336.322-.482.15-1.187.369-1.64.233-.09-.026-.154-.125-.225-.127-.11-.003-.184.15-.27.059-.064-.07.172-.366 0-.429-.142-.052-.176.374-.293.367-.305-.017.045-.525-.102-.58-.127-.045-.24.41-.295.434-.019.01-.203-.005-.225-.06-.044-.103.343-.382.176-.544-.181-.176-.193.276-.273.193-.101-.105.07-.143.1-.211.062-.143-.014-.21.116-.318.096-.08.261-.135.407-.189.475-.175 1.085-.235 1.59-.274 1.5-.119 3.186-.087 4.485.065-.224.068-.506.032-.86.068zm10.588-6.99c.105.09-.418.552-.576.466-.121-.066.14-.334.116-.318.003 0 .441-.163.46-.147zm-.257.515c.108.052-.057.38-.133.425-.09.054-.336.034-.374-.024-.047-.071.174-.286.141-.264.07-.046.385-.127.366-.136zm-9.033 4.717c-.051.172-.804.23-.795.137.006-.052.314-.11.462-.214.073-.052.027-.094.123-.09-.011 0 .238.072.21.167zm7.12-2.08c.576.147 1.277.348 1.579.984.392.823.161 1.14-.236 1.627-.164.202-.295.48-.515.669-.275.235-.582.248-.857.43-.103.069-.208.217-.317.312-.346.303-.79.577-1.243.808-.15.076-.395.115-.529.212-.127.092-.109.243-.264.354-.08.056-.198.056-.285.098-.197.098-.354.25-.572.332-.178.066-.406.056-.566.13-.285.134-.263.177-.542.185-.344.012-.44-.02-.721-.06-.157-.023-.338.015-.469-.015-.372-.083-.761-.331-.963-.51-.376-.334-.295-.406-.376-.882-.012-.074-.121-.29-.109-.378.007-.054.149-.127.181-.25.045-.17-.05-.288-.015-.388.042-.121.225-.242.293-.366.13-.242.101-.498.247-.676.086-.105.268-.228.399-.35.132-.124.26-.272.386-.378.16-.135.381-.206.532-.345.115-.106.165-.269.278-.327.125-.065.334-.02.485-.093.13-.063.226-.218.356-.297.312-.189.711-.37 1.062-.558.156-.084.325-.132.474-.187 1.035-.386 1.54-.276 2.307-.079v-.002zm3.819-1.375c.087.06.152.016.374.024.068.003.364.016.36.065 0 .009-.33.254-.437.269-.033.004-.044-.037-.131-.071-.119-.046-.363-.067-.467-.08-.364-.051.303-.273.303-.273-.016 0-.024.051-.002.067v-.001zm-17.433 8.314c.794-.022 1.71-.219 2.716-.764.2-.11.73-.534.444-.108-.262.392.294.107.312-.111.014-.165-.134-.007-.035-.149.1-.143.755-.513.858-.496.078.012-.301.564-.26.648.029.058.23.103.305.09.109-.02.269-.155.45-.242.475-.227 1.22-.412 1.394-.481.253-.1.384-.31.47-.053.072.211-.046.295-.187.45-.877.963-2.602 1.775-3.888 1.934-.76.095-1.54.172-2.16.111-.075-.008-.983-.106-1.077-.26-.1-.163.067-.25.024-.374-.048-.14-.28-.034-.103-.15.297-.195.573-.04.738-.046zm16.859-7.915c.007.001 1.096.017.477.175-.115.03-.747-.118-.747-.116.003-.127.288-.112.217-.1.045-.008.02.032.052.042v-.001zm-.397.282c-.036-.005.602-.037.588.058-.004.021-.26.198-.368.204.019-.001-.092-.125-.09-.124-.041-.02-.13-.003-.2-.006-.3-.01-.173-.135.018-.173.004-.001.044.04.052.042zm-11.81 6.202c.176.19.507-.531.51-.534.167-.126.487-.125.728-.14.069-.003.659-.03.67.02.026.123-.377.282-.506.334-.282.114-.67.189-.81.244-.29.113-1.054.527-.948.307.095-.197.322-.696.516-.668.259.038-.3.289-.16.438v-.001zm11.263-4.463c.878-.342 1.807-.999 2.677-1.275.127-.04.302-.044.484-.092.599-.158 1.192-.44 1.73-.538.462-.084.952.066 1.472.043.567-.025 1.08-.036 1.516-.075.203-.019.335-.083.377-.043.142.133-.166.183-.01.335.119.114.282-.122.361-.003.07.105-.266.352-.36.431-.284.239-.598.661-1.057.853-.49.205-1.156.374-1.812.577-.956.295-1.658.5-2.482.556-.194.013-.864.034-.897-.013-.02-.027.32-.59.112-.613-.04-.004-.253.287-.267.421a.609.609 0 00.049.175c.004-.005-.355.054-.39.016-.128-.144.438-.63.156-.732-.113-.041-.136.19-.184.315-.005.014-.13.432-.105.413-.145.121-.739-.068-.869-.093-.144-.029-1.31-.197-.525-.35.055-.011.562-.112.58-.104.105.048-.021.269.125.272.136.003.09-.286.198-.357a3.43 3.43 0 01.243-.046c.1.08-.38.623-.057.589.124-.014.288-.681.329-.715.08-.065.354-.077.471-.12.624-.222 1.228-.494 1.694-.62-.104.028.308.011.271-.126-.012-.045-.113-.032-.146-.031-.542.02-1.393.483-1.936.666-.538.182-1.455.36-1.726.405-.06.01-.076.058-.23.073-.284.028-.18-.106-.158-.125.05-.04.34-.06.364-.07h.002zm-8.35 5.125c.052.15-.188.573-.315.74-.323.421-1.146 1.272-1.493 1.55-.283.227-.354.167-.56.359-.396.37.42-.049.582-.17.377-.286.557-.552.787-.795.416-.438.945-.918 1.125-1.347-.015.034-.007-.268.074-.265.172.005-.02.427.003.362-.233.65-.605 1.148-.974 1.672-.153.218-.261.518-.409.685-.204.232-.6.526-.918.723-.582.36-1.08.416-1.599.609-.544.202-1.129.665-1.672.808.062-.016-.406.063-.363.07-.062-.01-.045-.194-.128-.205-.055-.008-.165.111-.19.088-.01-.01-.123-.49-.105-.512.128-.163.54.456.675.248.1-.154-.605-.442-.628-.502-.072-.187.368-.797.572-.76-.022-.004.081.213.048.176.048.054.72.3.732.156.015-.202-.717-.175-.711-.396.004-.18.049-.014.15-.103.168-.149.162-.038.347.038.219.09.224.045.416-.029.364-.139 1.035-.255 1.558-.557.155-.09.417-.286.601-.41.257-.173-.02.126.301-.206.216-.223.149-.247.102-.279-.087-.058-.203.146-.246.18.114-.09-.928.652-1.256.781-.198.078-.402.215-.622.223-.021 0-.426-.191-.394-.28.011-.03.319-.163.353-.163.031 0 .159.148.17.153.145.07.336.066.362-.003.067-.185-.31-.14-.275-.236-.01.028.376-.143.5-.133.184.014.093.181.278.102.04-.016-.004-.122.046-.186.111-.141.406-.141.501-.2.094-.057.245-.3.372-.337.082-.024.165.058.227-.006.052-.053-.018-.182.009-.268.062-.203.49-.503.72-.796.226-.287.593-.913.724-.93.126-.016.496.265.526.35h-.002zm7.836-3.6c.43.103.938.13 1.32.213.392.085.843.286 1.3.454 1.072.393 2.2.83 3.204 1.286.228.104.39.245.605.38.119.075.339.104.437.16.297.172.637.527.89.71.162.117.401.195.366.292-.021.06-.419.17-.541.185-.636.085-2.055-.257-2.533-.41-.181-.058-.162-.115-.303-.156 0 0-.336-.1-.35.03-.004.035.23.149.316.184.84.341 1.95.556 2.864.553.134 0 .364-.048.468.013.34.201-.367.259-.558.292-.568.101-.924.128-1.342.094-.23-.018-.46.015-.67-.02-.196-.032-.434-.174-.675-.248-.773-.233-1.274-.539-2.007-.983-.588-.356-1.288-.757-1.893-1.235-.186-.146-.614-.409-.615-.473-.003-.099.612-.405.365-.565-.113-.073-.468.466-.51.467-.032 0-.243-.232-.311-.317-.205-.258-.406-.59-.115-.673.044-.013.51.254.595.285.068.025.341.099.504.162.039.015.472.224.494.068.03-.217-.752-.336-.953-.417-.13-.052-.53-.275-.418-.333.018-.01.051-.002.067.002zm-6.812 3.885c.092.118-.001.435-.032.641-.039.259-.017.488-.06.655-.077.299-.233.49-.291.795a4.45 4.45 0 00-.053.883c.003.279.094.63.04.938-.006.032-.071.084-.099.145-.085.191-.076.542-.17.772-.095.234-.254.478-.41.75-.142.25-.386.476-.53.708-.108.174-.199.686-.314.675-.09-.01-.093-.224-.154-.26-.172-.1-.116.102-.254.02-.073-.043.026-.087-.049-.176-.08-.093-.249-.132-.289-.196-.082-.133-.146-.743-.12-.901.153-.936.212-1.643.704-2.538.216-.393.417-.797.65-1.16.243-.377.512-.763.718-1.157.117-.224.196-.654.275-.69.083-.036.395.039.439.094l-.001.002zm-5.638 2.646c.216.27-.409.157-.389.016.015-.105.349-.188.34-.191-.014-.005.033.156.05.175zm11.334-4.099c-.186-.27-.893-1.13-.207-1.158.107-.004.273.22.366.292.138.107.379.17.326.278-.03.063-.32-.011-.299.14.047.323.51-.175.394-.15.07-.015.68.357.791.425.29.177.463.34.762.505.274.15.539.215.805.385.211.135.612.256.819.413.057.043.086.143.168.219.19.18.44.354.6.514.103.1.16.238.27.37.525.63 1.075 1.171 1.48 2.053.104.225.417 1.013.316 1.108-.087.08-.284-.183-.427-.066-.112.091.036.287-.01.334a1.57 1.57 0 01-.468-.013c-.232-.074-.646-.46-.905-.67a7.544 7.544 0 01-.846-.828c-.72-.796-1.594-1.519-2.223-2.303-.007-.007-.006-.02-.013-.027-.562-.568-1.215-1.114-1.7-1.819v-.002zm-5.335 1.45c.132.104-.117.432-.151.598.01-.11-.005-.722.151-.597zm4.14-1.82c.308.308.575.628.83.935.902 1.089 1.66 2.828 2.113 4.202.037.114.11.373.158.554.171.65.277 1.675.162 2.201-.043.201-.225.56-.325.58-.062.013-.097-.137-.17-.152-.156-.035-.297.11-.403.055-.115-.059-.402-.491-.515-.685-.116-.198-.184-.44-.303-.652-.186-.335-.42-.622-.524-.846-.605-1.31-.88-2.801-1.34-4.032-.083-.221-.29-.556-.263-.637.026-.078.17-.013.16-.009.085-.039.482-.235.399-.35-.118-.162-.53.253-.62.156-.184-.193.552-.22.334-.418-.124-.111-.513.304-.536-.016-.013-.18.466-.08.397-.283-.056-.163-.513.097-.562-.004-.056-.112.023-.078.206-.194.271-.173.328-.144.481.04.14.17.453.77.595.715.113-.043-.242-.537-.367-.72-.086-.128-.274-.287-.257-.343.031-.107.215-.131.271-.126.035.003.053.003.08.03h-.001zm-.636 2.473c-.214-.361-.608-.765-.786-1.055-.06-.096-.254-.468-.24-.516.042-.136.372-.204.42-.161.432.372.635 1.624.954 2.198-.213-.066-.21-.234-.348-.466zm-2.494.1c.297.907.589 2.202.602 3.22.013 1.082-.284 1.91-.619 2.795-.07.189-.215.462-.314.674-.081.174-.319.664-.422.658-.076-.005.007-.164-.073-.23-.16-.135-.186.105-.307-.023-.129-.134-.05-.668-.065-.993-.016-.383-.08-.764-.117-1.035-.04-.294-.05-.666-.104-1.008-.105-.67-.069-1.25-.026-1.836.02-.273.05-.564.091-.8.08-.47.245-1.228.447-1.528.014-.02.39-.33.332-.352.133.049.16.983-.04.91-.183-.068.216-.499-.053-.471-.177.018-.196.562-.21.757-.04.542-.086.996-.085 1.525 0 .32-.014.69.024.979.011.085.08.466.231.355.108-.08-.053-.307-.057-.337-.035-.255-.114-1.773.08-1.82.171-.041.052-.12.1-.211.056-.106.249-.18.247-.18.072.026.147.61.166.714.133.743.19 1.47.127 2.054-.01.098-.087.226-.09.305.003-.048-.005.308.1.284.094-.021.17-.818.182-1.173.03-.885-.29-1.808-.417-2.679-.03-.213-.018-.432-.034-.644-.015-.19-.154-.666-.02-.684.155-.02.27.608.325.773l-.001.002zm1.426-1.123c.28.46.724.946 1.067 1.519.468.78.836 1.669 1.067 2.442.36 1.21.738 2.453.66 3.49-.005.07-.138 1.025-.285.594-.078-.23-.116-.11-.22-.262-.183-.267-.378-1.006-.576-1.383-.047-.09-.232-.374-.201-.435.078-.153.578.113.551-.09-.035-.274-.358.009-.586-.126-.078-.046-.217-.198-.165-.286.053-.089.686.218.66-.074-.015-.156-.672-.04-.786-.197a.541.541 0 01-.034-.216c.068-.09.728.255.697.007-.006-.044-.364-.188-.557-.204-.054-.004-.181.043-.216.034-.16-.038-.082-.31-.21-.1-.033.053.146.516.17.581.13.357.549 1.071.768 1.657.073.195.093.388.145.527.082.218.317.492.306.518 0-.002-.277.101-.285.099-.102-.039-.44-.637-.563-.861-.174-.313-.278-.654-.454-.978-.231-.428-.485-.83-.635-1.158-.634-1.375-.953-2.838-1.139-4.092-.006-.044-.083-.87-.012-.952.171-.196.348-.08.376-.042.179.238.493.691.604.875.234.393.528 1.015.872 1.312.325.28-.051-.366-.197-.569-.324-.45-.596-.899-.872-1.312-.15-.223-.48-.69-.156-.62.13.027.125.17.205.3v.002zm-2.17 2.294c-.156-.057.196-.62.31-.54.158.11-.304.543-.31.54zm7.624 3.99c-.013.044-.151.023-.123.09.044.104.212.032.214.033-.003-.002.405.505.433.723.005.036-.094.189-.1.21-.038.156.003.075-.032.214-.09.354-.097.12-.277-.169-.178-.284-.438-.554-.46-.777-.008-.1.122-.745.116-.747.139.043.23.42.229.422zm.772 1.523c-.02.105-.012.538-.122.518-.229-.04-.062-.993.015-.964.2.077.116.396.107.446zm.325.344c.112.188.032.428-.017.602.04-.143-.016.166-.059.16-.034-.006-.141-.214-.153-.26-.015-.064.088-.739.129-.72.017.01.061.152.1.217v.001zm.227 1.414c-.2-.073-.044-.986.015-.964.301.11.004.97-.015.964zm-10.146 4.242c.04-.007.089-.08.124-.09.167-.047.614.043.88.12.329.093.72.305 1.032.445.202.09.413.144.53.216.328.204.2.235.185.542-.005.108.059.306.042.376-.014.06-.214.144-.223.302-.001.02.087.136.048.175-.118.12-.346-.101-.562-.003-.207.093-.145.344-.284.527-.01.014-.112-.025-.16.009-.078.055-.037.125-.046.186-.049.328-.073.077-.325.084-.07.002-.291.043-.366.137-.032.041.05.18.007.227-.086.096-.159-.003-.285.099-.154.125-.002.33-.118.385-.095.046-.279-.173-.316-.183-.071-.02-.232-.031-.295.004-.193.108-.032.339-.106.412-.137.136-.367-.135-.523.012-.191.178.186.32.12.472-.035.082-.245-.116-.347-.037-.02.015-.047.296-.063.293-.06-.011-.52-.941-.518-1.047 0-.037.532-.603.191-.584-.075.004-.13.335-.25.314-.023-.004-.085-.262-.087-.256.002-.008.458-.357.282-.461-.105-.063-.238.213-.313.178-.031-.015-.025-.22-.022-.188-.042-.368.038-.047.22-.168-.052.035.159-.143-.034-.215-.108-.04-.189.157-.192.155-.073-.055-.003-.348-.032-.282.04-.094.178-.014.152-.17-.02-.123-.126-.01-.184-.112-.056-.098.155-.865.23-.503.036.183.34 1.494.545 1.463.216-.032-.01-.41.023-.307-.177-.566-.351-.949-.387-1.405-.047-.585.246.22.35.4.058.101.62.992.739.812.066-.1-.295-.463-.359-.56a14.253 14.253 0 01-.344-.6c-.086-.162-.314-.561-.082-.39.168.124.124.258.262.208.284-.103-.303-.447-.294-.49.02-.104.315-.152.259-.154.02.001.044.123.063.136.201.142.305-.01.385.119.001.002-.163.077-.086.171.12.144.183-.1.217-.1.166-.001.507.38.653.554.1.119.699.888.808.815.119-.08-.223-.52-.343-.667-.33-.407-1.007-.97-1.455-1.074-.31-.072.507-.334.506-.334.04-.01.09.04.146.032h.002zm10.67-4.32c-.003-.024-.096.136-.098.144-.023.129.046.305.028.416-.046.286-.263-.006-.287-.263-.003-.033.075-.107.086-.171.018-.117-.036-.534.069-.494.088.034.197.325.203.368zm.43.856c0-.009-.095.078-.095.078-.019.042-.075.322-.091.372-.067.212-.161-.054-.195-.206-.056-.253.099-.726.042-.977.021.264.327.422.34.733zm.253.543c-.195.029-.09.722-.219.597-.181-.177-.041-.721-.014-.884.038-.226.29.201.34.304.056.12.07.28.121.406.072.175.21.32.294.49.207.428.392.932.588 1.411.49 1.198 1.09 2.49 1.658 3.72.27.582.503 1.27.71 1.816.384 1.014.903 1.932 1.409 3.11.339.788.593 1.39.964 2.292.27.657.767 1.55.735 1.87-.003.027-.106.086-.152.17-.047.083-.13.336-.16.437.063-.21.033.193-.06.16-.034-.012-.201-.354-.186-.475.009-.072.099.005.163-.075.036-.046.024-.236.065-.36.052-.164.229-.297.049-.32-.237-.03-.2.631-.363.498-.062-.05-.172-.6-.257-.838-.551-1.555-1.305-3.197-2.054-4.857-.222-.493-.367-1.071-.557-1.557-.456-1.17-.972-2.325-1.44-3.392-.234-.535-.622-1.45-.903-2.09-.151-.345-.875-1.358-.85-1.619.004-.04.146.005.192-.155.042-.145-.006-.668-.074-.659zm-8.283 4.204c.056.046.208-.062.243-.046.097.042.507.42.544.606.02.097-.192.5-.229.502-.142.008-.164-.276-.32-.479-.063-.08-.285-.1-.377-.386-.065-.197.06-.33.076-.332.01-.002.05.126.063.136v-.001zm2.058 4.294c-.018-.028.125.063.12.043.041.134-.106.98-.214.396-.09-.49-.47-1.136-.69-1.561-.097-.186-.398-.919-.57-.66-.077.114.163.262.151.326-.008.044-.266.104-.261.22.015.367.314-.13.338-.124.024.005.27.397.24.516.003-.013-.216.08-.176.048-.096.079-.212.336-.185.383.179.312.347-.429.4-.417-.058-.012.246.25.23.422.001-.016-.493.175-.4.35.137.254.392-.34.45-.242.12.208-.428.406-.246.61.192.214.16-.364.344-.325.192.04.271.971.266 1-.012.061-.223.36-.265.353-.093-.016-.086-.327-.085-.324-.3-.896-.81-1.444-1.353-2.277-.39-.598-.894-1.012-1.081-1.479-.035-.086-.09-.462-.04-.51.065-.062.322-.04.388.052.01.015-.054.073-.044.12.057.272.15-.01.255-.02 0 0 .565.273.519.552-.006.038-.182.048-.125.156.114.22.187-.06.242-.046.132.035.096.36.29.196.177-.149-.421-.804-.535-.94-.103-.121-.405-.654-.108-.445.346.243 1.081 1.307 1.432 1.878.083.134.182.232.218.328.038.1.225.603.346.532.133-.079-.145-.3-.145-.527 0-.192.203-.284.196-.288.076.042.142.318.2.501.097.308.14.601.062 1.06-.132-.701-.474-.34-.164.143zm-3.257-2.682c.428.424.874 1.068 1.302 1.74.354.556.767 1.07.96 1.502.089.198.162.248.242.45.024.06.163.501-.008.267-.49-.67-.62-1.117-1.113-1.761-.287-.374-.487-.763-.693-1.065-.155-.229-.457-.443-.584-.62-.139-.194-.294-.547-.157-.554.039-.002.023.013.052.042zm-.024.804c.082.062.164.044.212.1.057.066.06.167.126.271.126.207.346.459.528.713.102.142.226.304.335.438.386.474.744.975.99 1.423.05.09.302.554.29.624-.011.06-.22.136-.328.219-.207.157-.392.342-.68.314-.165-.016-.668-.424-.693-.57-.024-.144.348-.425.235-.703-.012-.032-.16-.103-.197-.14-.268-.266-.62-.865-.888-1.204-.167-.212-.295-.47-.489-.698-.043-.051-.796-.8-.468-.938.158-.066.508.513.61.674.035.056.252.574.42.267.053-.095-.85-1.13-.645-1.251.149-.089.387.266.642.46zm-1.06.49c.099.111.349.43.35.466 0 .017-.123.047-.137.063-.03.037-.17.441-.082.534.135.145.167-.14.194-.222.121-.386.34-.056.301.223-.01.081-.068.065-.112.185-.036.099.008.36-.127.224-.324-.326-.672-.91-.902-1.233-.143-.202-.495-.552-.195-.635.084-.024.531.192.711.396zm3.168-1.566c.129-.256-.031.145-.03.146-.225-.031-.018-.773.128-.72.318.117-.068.515-.098.574zm-4.19 1.71c.34.306.848.913 1.206 1.39.598.798 1.04 1.211 1.7 1.885.198.203-.005.175-.111.117-.039-.02-.17-.182-.195-.206-.388-.37-.849-.777-1.144-1.186-.339-.47-.512-.721-.85-1.123-.206-.243-.779-.739-.778-.894 0-.033.102-.011.094-.01.035-.003.054.006.08.029l-.002-.001zm-.333.42c.072.034.194.085.211.1.201.167-.016.254.07.363.079.1.405-.02.435.227.006.043-.101.06-.123.09-.058.081.027.218-.1.211-.061-.003-.704-.877-.746-1.04-.014-.058.042-.018.055-.025.038-.021.127.04.198.073zm4.75-1.642c-.132-.02.036-.687.166-.638.274.103-.044.656-.166.638zm.51-.038c.005.129-.238.408-.24.408-.198-.072.063-.654.152-.599.02.013.087.152.089.19zm18.107-6.646c.05.074.227.407.214.462-.001.004-.213.123-.247.18-.04.07.038.271-.01.335-.086.113-.317.104-.382.242-.12.258-.074.03-.266-.074-.1-.055-.42-.023-.537.051-.031.02-.102.157-.126.158-.146.002-.258-.308-.448-.255-.039.012-.124.15-.191.156-.04.002-.15-.109-.184-.113-.427-.057-.26.438-.458.509-.014.005-.135-.144-.224-.127-.194.038-.171.309-.242.475.02-.895.37-1.736.742-2.457.022-.04.14-.42.139-.13-.001.157-.027 1.127.265 1 .112-.05-.035-.136-.059-.27-.039-.213.017-.51.02-.67.063.121.067.174.113.245.252.394.15-.199.04-.48-.077-.205-.061-.356.101-.212-.131-.117.054.123.088.19.14.273.197 1.109.401.936.105-.09-.28-1.124-.234-1.146.217-.102.588 1.118.758 1.068.242-.073-.21-.808-.269-.866.324.122.724.404.995.793zm-18.078 7.491c-.235-.038.017-.67.112-.612.194.118-.03.626-.112.612zm-4.538 2.17c-.246-.016.014-.491.12-.452.241.09.02.462-.12.453zm1.288-.069c-.036.002-.197-.175-.196-.206.005-.065.13-.008.176-.049.084-.072.046-.342.133-.425-.01.121-.039.676-.113.68zm-.913.522c-.257.013-.157-.539.016-.535.325.007.155.527-.016.535zm1.278-.163c-.276.048-.09-.739-.006-.724.301.055.051.716.006.724zm-.131.787c.221.232.485.453.166.286-.16-.084-.423-.2-.515-.256-.197-.122-.593-.418-.614-.541-.017-.099.155-.283.236-.275.19.02.552.601.727.785zm.428-.43c-.168-.009-.03-.648.032-.642.226.02-.034.642-.032.642zm18.082-6.271c.03.114.028.665.196.635.153-.027.02-.29-.014-.456-.142-.698-.483-1.452-.487-2.117-.003-.568.25.183.25.18.148.434.207.985.33 1.497.034.142.01.296.095.418.062.09.13.066.17.153.07.152.043.37.102.646.015.073.115.653.279.53.107-.08-.105-.208-.03-.349.037-.07.255.049.244-.113-.008-.134-.317-.138-.379-.32.02.058-.013-.159.02-.173.097-.044.14.317.328.21.223-.125-.343-.407-.4-.507-.355-.612.491.126.588.058.071-.051.033-.486-.136-.433-.148.046.027.256-.175.048-.145-.15-.333-.085-.41-.173-.034-.037-.034-.178-.06-.27-.07-.255-.312-.959-.36-1.417-.028-.276.095-.617.18-.61.08.005.352.298.347.465 0 .046-.14.107-.112.184.008.026.288.27.383.186.175-.156-.341-.831-.106-.941.112-.053.384.325.404.374.027.064.003.163.02.255.07.386.253.89.351 1.256.117.433.335 1.268.313 1.67-.005.084-.06.148-.06.226-.002.15.146.743-.093.868-.027.014-.32-.035-.308-.022-.05-.054-.012-.305-.015-.39-.005-.11-.007-.29-.016-.389-.003-.05.026-.83-.206-.73-.027.014.002.567.008.658.02.297.002.594.032.71.014.056.099.112.09.124 0 0-.277.125-.405.122-.42-.01-.872-.594-1.078-1.117-.375-.949-.469-2.139-.365-2.636.045.547.273.899.486 1.69zm-17.757 6.615s-.192-.113-.208-.234c-.002-.01.1-.038.109-.05.072-.117-.054-.354.104-.345.263.016.184.631-.005.63zm20.562-9.533c-.077-.029-.046-.401.105-.346.23.085-.04.369-.105.346zm.027 4.542c-.044-.017.01-.29.008-.268.024-.447-.02-.605-.07-1.288-.02-.288-.038-1.013-.24-.945-.09.03-.05.311-.025.441.054.29.097.53.097.78 0 .368-.016.168-.196.29-.08.053-.23.469-.177.544.114.164.213-.206.207-.195.273-.476.244.272.214.46-.033.203-.093.38-.16.438-.046.04-.364.18-.445.108-.05-.044.049-.317.049-.32.022-.202-.02-.893.03-1.004.032-.072.07.028.148-.036.046-.038.244-.418.214-.462-.2-.3-.354.609-.42.161-.035-.237-.022-.071.113-.184.053-.045.056-.18.102-.278.071-.155.257-.36.037-.347-.066.004-.252.471-.321.446-.026-.01-.13-.398-.108-.446.03-.066.116.054.2.006.04-.022.198-.385.174-.41-.065-.068-.158.012-.23.073-.04.034-.08.214-.14.198-.017-.006-.097-.292-.099-.285.003-.012.158-.031.176-.048.034-.032.26-.506.256-.515-.013-.03-.196-.135-.349.03.007-.007-.049.366-.103.346-.054-.02-.056-.228-.072-.297-.055-.237-.246-.87-.211-1.025.093-.402.404-.168.52.056.154.294.3 1.269.419 1.258.26-.026-.048-.66-.117-1.036-.064-.35.036-.971.295-.433.114.24.133.554.216.824.19.613.27.863.385 1.47.02.098-.037.585.077.592.163.011.031-.446.16-.437.188.014.204-.331.29-.3.032.012.013.426 0 .496-.053.253-.309.754-.418.953-.016.03-.288.661-.486.589zm.348-4.518c.083.044.183.32.161.42.016-.072-.158-.023-.119-.044-.145.078-.193.612-.338.123-.032-.105-.136-.362-.066-.497.048.401.26-.058.362-.003v.001zm.473 1.233c-.027.078-.462.417-.428.43-.185-.069.08-.425.108-.48.285-.563.019-.45-.184-.112-.012.019.009.16-.072.132-.192-.071.302-.747.317-.741.075.027.32.6.259.77zm-18.571 8.775c.038.162.089.394.155.621.094.322.303.685.27.865-.019.096-.144.06-.178.115-.025.04-.008.497-.108.48.023.004-.158-.116-.178-.314-.011-.102.48-.847.116-.747-.022.006-.16.563-.27.555-.117-.01-.137-.2-.206-.301-.137-.195-.3-.274-.097-.351-.044.017.31-.707.088-.734-.112-.014-.158.31-.156.303-.001.007-.048.34-.104.345-.083.009-.309-.391-.375-.453-.12-.114-.271-.056-.006-.228.226-.147.867-.811.88-.804.11.058.144.54.17.648h-.002zm-4.348 2.51c.074.108.026.421.037.578.01.136.135.643-.028.508-.19-.157-.434-.303-.604-.447-.21-.18-.9-.655-.472-.805.209-.072.993.06 1.067.166zm6.278-3.47c.213.96.454 1.579.53 2.493.011.136.037 1.12-.06 1.15-.087.027-.293-.22-.21-.166-.1-.064-.185-.152-.253-.047-.155.238.422.226.536.444.025.048-.023.38-.051.387-.112.03-.235-.403-.409-.24-.11.104.4.425.439.59.027.115-.082.267-.075.265.025-.004-.425-.359-.457-.416-.115-.202-.121-.852-.18-1.17-.077-.422-.147-.749-.14-1.156.008-.384.075-.74.099-1.069.032-.439-.029-.799.125-1.082.022-.039.07-.044.082-.037a.172.172 0 01.025.055v-.002zm16.663-7.627c.057.02.167.66.082.82-.03.057-.101-.021-.175.048-.111.104-.074.424-.185.383-.059-.022-.028-.11-.036-.149-.013-.062-.05-.159-.048-.176.025-.192.552-.533.257-.581-.22-.037.002.146-.246.18.034-.07.262-.558.35-.525zM48.133 38.21c.11.02.9.207.957.283.028.039-.016.184-.008.267.04.412.125.739.22 1.186.048.232.171.738.245.743.172.013-.119-.852-.157-1.048-.022-.114-.056-.402-.078-.525-.027-.153-.188-.588.016-.536.15.04.897.319.94.39.066.108-.025.222.02.255.109.08.062-.085.23-.073.167.011.678.428.682.476.001.014-.117.043-.15.102-.017.029-.162.65-.114.68.18.116.298-.6.3-.634.01-.223.209-.03.238.088.057.227-.527.762-.185.811.215.031.167-.679.342-.686.33-.014-.26.81-.121.947.17.17.288-.664.448-.67.038-.002.183.125.194.206.01.074-.549.672-.191.584.198-.05.202-.47.403-.484.07-.005.355.217.46.281.053.032.489.262.487.27.001 0-.385.25-.436.268-.07.025-.33.056-.497.065-.631.037-1.778-.146-2.452-.447-.518-.231-.612-.44-.771-1.095a5.178 5.178 0 01-.114-.673c-.008-.065.041-.641-.143-.594-.098.025.066 1.046.075 1.088.032.157.245.704.152.755-.067.035-.175-.148-.145-.099-.082-.13-.184-.546-.208-.663-.015-.07-.033-1.167-.248-1.105-.024.007.007.321.004.295.035.3.083.802.131.995.075.302.1.345-.1.212-.214-.145-.185-.322-.276-.598-.046-.138-.064-1.174-.29-1.12-.06.015.036.499.061.699.012.102.158.67.1.712-.025.017-.344-.21-.38-.32 0 0 .084-.116.086-.17.003-.115-.075-.369-.091-.552-.033-.376-.1-.509.03-.575a1.26 1.26 0 01.335.01zm9.849.384c1.22 1.68 2.55 2.952 3.855 4.187.188.177.353.39.544.605.317.353.737.729 1.133 1.091.536.49 1.145 1.105 1.65 1.777.145.195.473.664.447.75-.016.051-.23.134-.302.205-.12.12-.268.46-.376.042-.023-.09.04-.22.132-.357.057-.085.312-.277.198-.356-.107-.075-.237.13-.3.206-.24.277-.143.368-.416.027-.253-.314-.475-.612-.686-.837-.114-.123-.504-.595-.714-.758-.23-.179-.371-.076-.23.073.347.369.596.565 1.014 1.048.808.934 1.453 1.92 2.066 3.103.135.263.277.536.365.787.028.08.03.41.15.393.136-.019.047-.285.036-.347-.025-.15-.035-.22-.135-.432-.145-.31-.675-1.034-.673-1.239 0-.091.156-.183.194-.222-.062.065.209-.16.182-.25-.057-.185-.306.066-.393.15-.353.341-.012-.672.246-.61.15.037.185.508.21.596.192.7.325 1.377.427 1.849.151.696.341 1.455.512 2.171.083.35.069.372-.129.291-.457-.186-.761-.313-1.15-.556-.078-.05-.448-.264-.445-.321 0-.015.569-.357.43-.497-.097-.097-.5.286-.518.307-.013.015-.037.145-.004.134-.16.06-.705-.365-.792-.426-.292-.2-.598-.308-.803-.452-.27-.19-.593-.452-.957-.712-.642-.458-1.21-1.134-1.842-1.622-.35-.27-.686-.469-.956-.711-1.047-.942-2.069-2.196-3.037-3.345-.145-.173-.373-.38-.426-.495-.036-.076-.003-.214-.03-.35a8.267 8.267 0 01-.152-1.678c-.006-1.084-.053-2.124-.344-3.307-.255-1.038-.809-2.11-.65-2.966.022-.116.08-.016.107.017.048.058.913 1.178 1.015 1.476.033.095-.026.189.019.255.032.047.154.034.199.074.146.128.595 1.064.596 1.142 0 .032-.245.372-.225.37.021-.005-.143-.157-.172-.087-.103.25.456.775.71 1.32.034.072.027.22.06.27.062.092.168.079.21.167.056.121-.005.3.03.35.05.074.132-.044.224.127.082.154-.044.187.056.336.012.018.155.07.171.085.006.006.058.05.053.042.671 1.118 1.483 2.145 2.476 3.275.56.638 1.162 1.38 1.747 2.06.233.272.573.568.596.715.023.157-.207.413-.298.567-.055.092-.36.595-.097.573.098-.008.124-.3.158-.37.046-.096.35-.578.392-.578.116.001.03.054.09.123.137.157.687.641.698.865 0 0-.147.276-.198.356-.183.288-.324.387-.436.698-.033.091-.142.37.03.348.095-.012.163-.453.175-.477.056-.11.157-.204.28-.394.037-.058.214-.423.267-.42.083.006.349.434.388.48.141.17.355.315.385.547.013.094-.185.39-.325.58-.032.044-.504.513-.325.58.066.024.31-.317.416-.457.135-.179.267-.495.402-.483.09.008.332.32.321.478-.01.148-.81.649-.504.762.219.081.366-.613.62-.584.165.018.351.715.517.618.104-.06-.061-.345-.172-.514-.566-.865-1.118-1.538-1.675-2.26-.686-.888-1.361-1.62-2.136-2.542-.687-.817-1.406-1.645-2.135-2.542-.215-.263-.669-.694-.71-.891-.024-.108.497-.9.35-.954-.227-.083-.306.788-.505.762-.012-.001-.193-.216-.205-.301-.011-.067.326-.693.356-.726-.007.007.19-.097.192-.155.005-.167-.574-.696-.738-.88-.71-.793-1.072-1.36-1.592-2.364-.459-.886-1.027-1.651-1.34-2.25.618.878 1.51 1.977 2.153 2.864l-.002.001zm8.975-6.34c.177.22.175-.334.292-.366.026-.007.228.116.249.182.038.117-.24.55-.271.554-.036.005-.39-.33-.484-.402-.197-.152-.39-.267-.498-.363-.065-.059-.564-.612-.38-.748-.004.002.467.25.528.283.183.101.448.238.47.376-.039-.242-.265.357.008.227.133-.061.043-.045.06-.225.172.28-.115.308.026.482zm-14.48 5.856c-.133-.12-.144.168-.243.046-.135-.167-.012-.184.035-.28.018-.036.065-.605.159-.37.142.359.489 1.422.67 1.801.219.458.532.993.827 1.498.305.526.704 1.025 1.054 1.492 1.023 1.362 2.222 2.658 3.3 3.915a23.234 23.234 0 003.492 3.33c.187.143.728.56.733.585.003.01-.11.017-.12.023-.142.077.009.187.087.19.155.006.064-.156.166-.142.119.016.317.267.615.473.219.151.613.35.643.461.016.058-.147.12-.033.214.131.109.141-.242.322-.018.115.142-.13.286.07.364.176.069.087-.216.195-.223-.01 0 .159.125.144.098.054.1-.1.38-.12.386a4.716 4.716 0 01-.435-.228c-.663-.41-1.167-.811-1.786-1.218-1.415-.93-2.509-2.183-3.806-3.582-.853-.92-1.677-1.779-2.412-2.71-.808-1.025-1.496-2.096-2.235-3.255-.185-.29-.708-1.111-.788-1.416-.028-.104.04-.136-.007-.228-.068-.132-.297-.224-.31-.384-.005-.055.174-.093.1-.211-.08-.128-.1.075-.228.007-.157-.085-.187-.384-.214-.462.102.196.304.003.125-.157v.001zm16.769-7.18c.11.078-.132.413-.133.424-.013.075.05.177.058.27.017.167-.003.382.01.59.014.224.078.437.102.645.015.14-.04.295-.026.441.031.37.137.802.22 1.186.104.494.033 1.006.106 1.37.05.246.23.573.182.675-.056.12-.221-.043-.178.115.049.18.236.005.25.182.011.15-.321.156-.198.355.053.086.242-.046.242-.046.171.118-.03.364-.093.44-.126.151-.209.26-.216.033-.016-.576-.088-1.3-.132-1.852-.02-.252-.115-.516-.1-.714.007-.085.083-.116.073-.198-.036-.296-.264-.862-.303-1.08-.005-.029.026-.153.008-.268-.079-.51-.368-1.475-.715-2.111-.179-.328-.14-.242.077-.333.03-.012.744-.141.768-.125h-.002zm-1.523 2.124c.224-.022.168-.656.275-.688.196-.06.398.478.543.672.153.207.462.644.363.855.03-.063-.15-.063-.132-.07-.101.044-.052.394-.24.407-.08.006-.356-.345-.362-.425-.004-.054.11-.06.123-.09.054-.119.053-.367.095-.508-.191.647.156-.23.02-.24-.165-.01-.277.733-.369.7-.142-.052.036-.207.063-.294.06-.199.214-.75.076-.76-.09-.008-.113.293-.146.397-.157.499-.138.355-.429 0-.13-.16-.263-.154-.166-.286.112-.15.137-.584.258-.582.44.007-.318.946.027.911l.001.001zm3.32.54c-.02-.002-.056-.388-.22-.26-.166.13.171.366.172.513 0 .004-.114.221-.167.21-.157-.035-.088-.6-.293-.491-.051.027.114.698.06.698-.147 0-.17-.671-.363-.425-.09.113.317.674.114.672-.13 0-.083-.495-.283-.396-.14.07-.009.152.07.364.042.112-.118.453-.24.408-.03-.011.003-.51.001-.496.117-.851.576-1.915 1.081-2.58.168-.22.42-.421.555-.654.047-.082.357-.913.347-.391-.009.448-.067 1.04-.161 1.361-.101.346-.277.55-.431.992-.04.116-.077.497-.242.475zm-16.744 6.311c.101.393-.621-.376-.364-.358.005 0 .341.27.364.358zm-.104.346c.052.302-.305-.16-.142-.165.048-.002.132.107.142.165zm3.156-.738c-.044-.008-.28-.445-.28-.463 0-.018.295-.386.25-.314.016-.025-.014-.023.028-.012.328.085.104.807.002.79v-.001zm11.629-5.457c-.018-.06.143.522.063.565-.04.02-.288-.242-.3-.291-.016-.075.168-.394.186-.383.016.01.045.09.05.109zM57.925 39.61c.004.06-.284.376-.252.382-.204-.04-.144-.692.02-.67.047.006.226.215.232.288zm.143.594c-.057.11-.062.249-.127.224-.223-.081-.013-.683.14-.625.212.08.028.324-.012.4l-.001.001zm.212.529c-.181.477-.215-.666.07-.56.206.076-.035.47-.07.56zm.59-.009c-.008-.073-.087.124-.098.144-.081.146-.003.005-.085.171-.021.043-.168.345-.211.329-.287-.106.03-.93.174-.906.014.003.212.19.22.261v.001zm.401.44c.007.059-.201.326-.225.368-.072.13-.204.393-.252.382a.813.813 0 01-.179-.314c-.036-.197.34-.727.357-.726.046.002.29.21.299.29zm7.941 7.804c-.133-.721-.187-1.407-.112-2.093.069-.633.146-1.266.242-1.828.085-.502.28-1.073.353-1.518.14-.872.061-1.568.074-2.543.007-.5.097-1.036.09-1.658-.008-.649-.092-.96.003-1.487.058-.324.112-.053.117.111.01.317-.018.638.015.884.166 1.299.386 2.318.456 3.617.03.578-.086 1.341-.045 1.968-.006-.1-.042.272.058.27.06-.001.046-.374.036-.28.065-.577.139-1.4.113-2.033-.045-1.126-.397-2.661-.479-3.738-.03-.385-.058-.854.008-1.192.05-.258.332.514.487.765.229.37.54.63.539.806-.002.126-.18.007-.085.172.057.1.197.004.278.102.114.136-.113.105.044.31.04.052.274-.042.303.156.014.093-.3.442-.333.418-.147-.105-.245-.55-.313-.746-.03-.085-.123-.448-.172-.514-.309-.4-.032.546.033.712.388 1.01.948 2.182 1.222 3.062.007.023.026.348.097.352.207.011-.187-1.075-.167-1.144.012-.042.136-.024.148-.035.08-.072.182-.778.384-.739.27.052-.028.523-.1.64-.038.062-.144.177-.195.288-.01.021-.182.314-.01.335.101.013.124-.168.14-.196.051-.095.46-.926.572-.331.027.146-.204.39-.311.54-.104.144-.364.475-.216.53.121.044.205-.208.32-.38.1-.154.424-.693.432-.135.002.101-.337.536-.38.606-.051.084-.47.606-.233.636.116.015.28-.438.323-.513.018-.03.312-.54.35-.525.077.028.084.27.087.256-.003.017-.16.241-.21.329-.077.128-.727 1.006-.405.98.1-.009.14-.296.186-.384.028-.055.48-.726.49-.722.036.013.19.456.213.528.093.32.145.7.25 1.04.239.772.328 1.615.341 2.515.013.864-.038 1.647-.25 2.096-.047.1-.335.38-.254.448.028.022.18-.053.188-.021.018.07-.197.51-.26.648-.25.543-.595 1.181-1.145 1.587-.382.282-1.175.604-1.647.863-.075.04-.202.161-.259.153.015.002-.352-.391-.362-.426-.024-.082.063-.268.075-.266.072.013.32.727.444.388.029-.078-.276-.418-.218-.328-.144-.224-.07-.353-.315-.25-.133.056-.203.493-.138.625.09.185.355.145.352.331-.001.053-.147.123-.165.143-.21.222-.1.105-.25-.182-.127-.244-.308-.736-.306-.947 0-.164.037-.025.07-.132.038-.12-.013-.245.008-.267.092-.094.398-.08.43-.068.115.046.047.137.145.097.1-.04.25-.605.318-.807.6-1.777.898-3.897.87-5.882-.023-1.611-.41-3.424-.877-5.237-.131-.509-.17-.251-.075.266.28 1.512.65 2.81.715 4.388.037.892.076 1.674.006 2.506-.025.304-.041.782-.078.829-.037.044-.185.021-.243.046-.136.058-.886.52-.875.603.03.228.733-.276.882-.376-.172.115.108-.118.15-.102.036.013.018.257.019.255-.074.16-.477.338-.71.462-.181.095-.752.362-.524.506.08.05.288-.18.382-.243.078-.053.657-.462.775-.393.049.028-.102.354-.145.398-.135.133-1.183.53-1.026.706.122.136 1.022-.68.976-.386-.073.476-.298.355-.783.66-.072.045-.3.242-.184.315.106.066.71-.46.816-.378.045.036 0 .23-.063.293-.072.072-1.132.419-.795.634.095.06.535-.436.68-.383.072.027-.049.32-.05.32-.036.036-.686.294-.731.274-.05-.023-.005-.392-.007-.229.011-.957-.042-1.675.088-2.515.018-.124.072-.534.046-.682-.087-.507-.168-.026-.179.182-.052 1.011-.238 1.781-.202 2.768-.184-.447-.282-1.07-.358-1.485h.001zm2.785-11.291c-.012-.121.058.22.047.243-.062.117-.48.256-.437.268-.042-.011-.054-.23-.005-.295-.042.056.117.047.147.032.11-.057.157-.377.25-.314.015.009-.002.056-.001.066zm-5.5 3.937c.183.232.24-.52.335-.486-.009-.004.153.335.161.42.006.066-.08.298-.089.305-.081.06-.123-.054-.161.008-.073.122-.065.526.147.46.09-.028.115-.499.215-.462.018.006.102.256.097.35-.012.223-.237.458-.258.583-.05.287-.201-.11-.298-.358-.057-.146-.46-1.013-.435-1.151.024-.13.129.018.202-.061.044-.047-.028-.101-.006-.227.033-.199.18-.408.213-.396.278.102-.24.867-.124 1.014zm5.556-3.105c-.06.085-.45.193-.434.202-.221-.13.346-.573.405-.55.005 0 .099.25.03.348zm-.382.672c-.136-.05.264-.489.389-.443.177.065-.303.475-.389.443zM59.263 49.617c-.23-.278-.702-.75-.749-.973-.02-.097.36-.8.185-.811-.158-.013-.202.636-.367.632-.093-.002-.248-.267-.258-.343-.012-.09.46-.721.141-.692-.111.01-.153.325-.115.25-.017.032-.13.231-.194.223-.058-.008-.321-.394-.32-.479-.001-.074.096.031.16-.008.039-.024.21-.443.135-.492-.187-.122-.278.467-.348.458-.023-.002-.076-.162-.076-.162-.286-.394-.52-.885-.734-1.442-.068-.175-.264-.649-.066-.497.262.2.433.501.622.701.845.895 1.72 1.833 2.531 2.754.14.159.323.278.39.413.026.054-.03.13.006.229.022.057.165.164.22.26.391.683.785 1.112 1.241 1.538.193.18.655.53.666.582-.012-.057-.177.38-.186.383-.082.024-.34-.275-.418-.333-.731-.544-1.722-1.284-2.468-2.19h.002zm10.904-10.435c-.001-.018.053.734-.022.737-.094.002-.105-.146-.18-.247-.038-.05-.18-.211-.18-.246 0-.138.352-.301.357-.298a.191.191 0 01.025.054zm-.616 1.376c-.048-.14-.165-.269-.06-.27.153-.002.1-.01.193-.155.116-.184.25-.255.307.022.035.172-.478.722-.141.692.053-.004.339-.867.409-.256.027.233-.446.502-.355.66.145.25.412-.549.484-.522.267.098-.435.986-.353 1.088-.305-.54-.347-.858-.485-1.26zm-4.243 2.593c-.025.032-.117.027-.136.063-.017.031-.041.323-.09.305.016.006-.182-.301-.16-.42.005-.035.114.016.175-.047.079-.083.053-.69.219-.596.26.145.063.603-.008.696zm.406.307s-.082.064-.11.118c-.105.2-.119.358-.202.49.487-.766-.058.114-.084.105.015.005-.176-.262-.176-.38 0-.108.056.034.136-.064.08-.096.116-.657.285-.594.031.011.154.217.15.325h.002zm-.312 1.036s.095-.074.097-.078c.127-.26.05-.459.207-.69.074-.109.246.26.231.355-.003.021-.105.017-.163.076-.102.104-.326.798-.089.734.178-.048.123-.686.288-.66.077.01.086.285.16.486.207.562.28.84.42 1.191.047.117.136.232.176.38.117.432.055.888.07 1.289.045 1.262.482 2.855.628 4.131.052.45.218 1.993.844 1.82-.018.005.199-.18.259-.153.166.074.164.823.185.97.06.404.176.768.245 1.24.12.816.191 1.809.304 2.862.047.442.117.876.132 1.424.005.144.085 1.348.053 1.395-.042.063-.496.038-.342.259.111.16.215-.128.296-.072.219.15-.534.551-.41.752.138.222.325-.377.438-.336.036.014.03.287.032.282-.017.048-.642.523-.476.683.087.084.16-.07.232-.14-.044.043.177-.272.249-.248.06.02.015.302-.01.335.022-.03-.093-.037-.188.02-.102.064-.33.415-.308.474.097.258.363-.256.438-.336.151-.159.148.538.116.607-.046.098-.36.274-.37.27-.1-.036.364-.48.311-.54-.123-.138-.513.318-.537.48-.012.083.115.178.116.178 0 .104-.278.236-.05.32.11.04.211-.238.263-.288a3.29 3.29 0 01.247-.18c.4.147-.845.744-.563.921.156.099.507-.583.641-.396.102.142-.562.48-.58.598-.059.402.44-.232.489-.226.13.016-.022.314.022.188-.07.21-.536.454-.706.26-.152-.175-.004-.621.01-.763.02-.227.064-.547.076-.762.055-1.047-.184-2.244-.26-3.477a23.601 23.601 0 00-.296-2.634c-.042-.23-.195-.821-.161-.916.028-.078.029.048.148-.035.074-.053.442-.932.323-.942-.094-.008-.171.282-.24.408-.005.007-.233.434-.267.42.03.012-.086-.292-.07-.363.013-.06.085-.018.15-.103.05-.064.427-.859.348-.887-.08-.03-.225.321-.237.34-.047.072-.23.345-.279.327-.097-.036-.06-.277-.058-.27-.044-.227-.187-.695-.096-.846-.033.054.11.053.147.032.1-.062.375-.65.341-.687-.155-.171-.446.603-.526.574-.069-.026-.098-.567-.127-.701-.266-1.253-.798-2.655-.824-3.842-.01-.403-.185-.88-.272-1.227a65.232 65.232 0 00-.58-2.107c-.062-.208-.236-.575-.168-.715-.018.037.092.093.16.058-.044.023.283-.492.122-.518-.204-.033-.293.349-.334.418.036-.388-.464-1.06-.427-1.418zm-2.2 6.927c.31.202.62.445.906.603.278.154.66.262 1.005.459.13.073.345.221.54.31.152.07.51.248.54.31-.007-.015-.058.718-.061.722-.068.06-.244-.039-.279-.102-.078-.145.212-.57-.009-.59-.158-.014-.053.472-.204.557-.19.107-.394-.24-.243-.382.083-.079.23.067.23-.074 0-.13-.385-.177-.45-.187-.421-.065-.658-.262-1.033-.446-1.236-.608-2.856-1.61-3.564-3.133.73.696 1.777 1.403 2.622 1.953zm2.688-3.952c-.007.063-.241.175-.246.18-.13.135-.167.31-.263.287-.346-.08.052-.87.304-.769.013.005.216.203.205.302zm-3.123 4.583c.01.024-.084.403-.078.4-.289.175-.447-.551-.21-.596.051-.01.26.117.288.196zm.315.68c-.217.062-.284-.527-.13-.567.36-.094.217.542.13.566zm.357.197c-.18-.077-.139-.498-.039-.51.248-.03.33.636.039.51zm1.468-.747c-.18.04-.295-.4-.028-.416.235-.014.19.38.028.416zm.356.198c-.211-.003-.04-.412-.028-.416.312-.108.23.419.028.416zm-1.072.464c.033.085-.14.322-.129.291-.002.007.041.08.038.082-.019.011-.336-.053-.384-.185-.019-.052.068-.049.084-.105.045-.162-.07-.199.087-.238.028-.007.275.084.303.156zm4.29-1.922c.038.038-.097.194-.115.25-.046.147.017.278-.139.197-.13-.066-.326.105-.417.028-.049-.042-.02-.262.05-.32.106-.087.573-.203.62-.156zm-2.689 1.675c-.299.175-.268-.434-.107-.445.226-.015.233.371.107.445zm-1.19.85c-.103.053-.434-.14-.435-.228 0 .048.143-.006.134.004.1-.104-.067-.216.114-.251.252-.05.377.375.187.474zm1.611-.582c-.163.04-.315-.414-.068-.431.258-.018.164.406.068.43zm-.99.426c.037.08-.108.146-.113.184-.04.336-.448-.154-.192-.273.083-.04.275.025.305.089zm1.386-.214c-.196.017-.213-.372-.055-.404.297-.06.195.392.055.404zm.794.358c-.037.049-.51-.134-.555-.27-.032-.093.038-.229.115-.251.175-.052.56.359.44.522zm-.999-.23c.175-.035.047.579-.033.709-.132-.184-.04-.694.033-.709zm.698.436c.068.034.357.072.33.144-.055.15-.79.087-.78.098-.131-.127.052-.411.133-.425.132-.023.208.13.316.184zm219.785 30.454c-.171-.277-.602-.01-.911.307-.32.329-.315.421-.177-.01.074-.234.317-1.069-.214-.89-.007.002-.225.127-.243.123-.108-.03.065-.337-.136-.493-.131-.103-.286-.056-.427.012-.085.042-.352.339-.407.313-.003 0 .131-.516.085-.588-.178-.273-.485-.21-.615-.147-.169.08-.402.45-.526.399-.151-.061.399-1.31-.122-1.377-.204-.026-.682.616-.876.809-.286.282-.322.377-.205-.033.065-.224.325-.831.307-1.01-.008-.084-.103-.264-.171-.289-.244-.088-.739.782-.626.41.084-.28.329-1.273-.175-1.046-.238.107-.252.297-.178-.01.155-.636-.415-.74-.92-.171-.094.106-.137.292-.202.346-.066.054-.29.018-.42.113-.42.304-1.124 1.234-1.417 1.714a13.049 13.049 0 00-.858 1.767c-.099.26.007-.68-.103-.748-.184-.113-.419.172-.622.459-.625.872-1.272 1.96-.538 2.747.08.086.78.547.198.312-.035-.014-.197-.082-.207-.083-.163-.04-.753.087-.829.047-.098-.051.02-.256-.194-.26-.432-.007-.366.895-.253 1.056.213.306.593.359.84.482.272.135.433.303.657.372.453.14.075.208-.199.395-.073.05-.395.187-.437.241-.16.203-.062.536.046.653.356.383 1.081.167 1.488-.004.355-.15.105.284-.086.588-.518.83-1.213 1.641-1.937 2.543-.141.176-.266.495-.429.719-.148.204-.356.399-.512.6-.867 1.11-1.674 2.283-2.277 3.103-.14.19-.649 1.004-.31.254.331-.732.456-1.698.816-2.368.153-.283.364-.492.548-.805.042-.072.421-.614.325-.762-.187-.287-.884.412-1.067.6-1.387 1.423-1.858 3.192-2.542 4.716-.045.102-.049.338-.068.46-.013.086-.063.216-.075.36-.019.228.13.228.056.424-.101.263-.574.7-.862 1.009-.797.856-1.341 1.609-1.971 2.419-.669.859-1.476 1.894-1.794 2.808-.072.206-.191.626-.195.825-.001.1.046.539.12.62.03.033.581.229.595.225.154-.036.379-.571.525-.777 1.003-1.419 2.034-3.125 3.176-4.646.388-.517.859-1.175 1.184-1.441.25-.205.419-.115.568-.177.092-.038.141-.134.239-.172.629-.246 1.246-.27 1.872-.619.409-.227.833-.515 1.257-.765.955-.568 2.149-1.296 3.01-2.713.503-.828-.058-.6-.66-.422-.792.235-1.361.412-2.182.873-.698.393-1.215.769-1.876 1.276-.481.368.06-.307.215-.524 1.525-2.135 3.719-4.242 5.294-6.421.201-.278.826-1.067.806-.727-.022.373-.193.991-.606 1.417-.085.087-.342.153-.33.332.03.406 1.701.013 1.955-.172.111-.08.259-.285.326-.382.035-.05.04-.276.18-.319.071-.021.071.43.115.57.181.576.72.886 1.228 1.332.24.21.272.395.48.362.258-.043.448-.509.432-.67-.01-.103-.312-.49-.424-.644-.162-.223.311-.01.378-.008.526.02.719-.398 1.144-.58.236-.107.75.15.904-.034.249-.296-.48-.996-.837-1.138-.088-.034-.567-.121-.195-.26.838-.314 1.799-.863 2.667-1.496.325-.237.815-.712 1.019-.923.291-.3.602-.808.878-1.137.088-.105.305-.207.332-.282.038-.1-.086-.393-.132-.443-.049-.053-.39-.18-.392-.192-.023-.175.396-.276.292-.505-.099-.217-.864-.02-1.079.07-.173.071.1-.272-.132-.443-.23-.17-.709.355-.815.248-.061-.064.156-.312.238-.55.109-.316.278-1.023.197-1.153l.001-.001zm-.446 1.175c-.07.17-.419.974-.542.905-.027-.016.096-.419.039-.533-.045-.089-.451-.344-.449-.289-.004-.079.471-.584.698-.819.257-.265.371-.35.46-.267.113.105-.107.76-.206 1.003zm.669 1.28c-.015-.223 1.025-.647 1.005-.417-.034.368-.994.562-1.005.416zm-2.754-1.88c-.053.05-.34.232-.363.21-.011-.01.134-.269.133-.264.108-.372-.381-.248-.352-.348.048-.167.663-.465.936-.663.184-.133.192-.24.297-.077.131.206-.384.895-.651 1.143zm.863-.63c.004-.194.372-.04.357.069-.026.196-.36.04-.357-.07zm-2.332-.529c-.084.11-.23.225-.289.177.055.045.707-2.402.089-.16.04-.144.044-.453-.012-.528-.026-.035-.265-.105-.265-.18 0-.023.561-.652.628-.736.067-.084.056.005.077.019.178.115-.094 1.237-.228 1.408zm.999-.137c-.045.205.257.223.021.3-.133.044-.544-.565-.561-.102-.008.209.435.231.429.366-.005.112-.486.477-.543.528-.431.391-.009-.42-.028-.401.173-.165.159.193.324-.055.153-.23-.41-.176-.403-.343.003-.097.854-.851.939-.612.036.096-.142.147-.179.318h.001zm-2.922-2.824c-.014.155.015.507-.226.373-.157-.086-.498.177-.525.072-.011-.045.245-.38.345-.46.219-.175.402-.08.398-.084.028.034.01.062.007.1l.001-.001zm7.122 6.266c-.256 0-.659.22-.904.408-.127.096-.168.207-.236.222-.118.027-.148-.128-.254-.027-.06.057.106.358-.146.441.022-.007-.528-.338-.526-.307-.002-.038.458-.41.62-.509.411-.248.82-.19 1.191-.255.091-.016.566-.18.455.01.015-.024-.203.018-.2.018v-.001zm-6.635-5.425c-.143.103-.267-.222-.381-.043-.093.144.418.382.236.483.011-.007-.247-.1-.207-.082-.533-.236.217-.748.371-.816-.003.002-.022.029-.023.028.033.021.096.363.005.43h-.001zm5.232 4.84c-.079-.105-.194-.11-.187-.16.003-.03.338-.205.386-.235-.11.07.109-.127.171-.09.163.096-.089.282-.126.364-.098.212-.158.638-.402.743.104-.219.335-.386.159-.62l-.001-.001zm-1.795-1.861c.023-.13.58.095.588.125.075.276-.626.088-.588-.125zm-2.834-2.653c-.002.014-.292 1.647-.683 1.397.003.003-.028-.605-.019-.629.093-.271.702-.866.722-.846.034.034-.015.04-.02.078zm6.045 5.628c-.332.478-.835.8-1.224 1.218-.115.123-.184.236-.303.355-.415.41-.952.54-1.253.816-.076.068-.1.238-.23.323-.736.488-1.411.581-2.112.792-.284.084-.553.22-.837.276-.935.18-2.198-.241-3.112-1.242-.33-.36-.659-.739-.961-1.102a4.422 4.422 0 01-.457-.767c-.124-.321-.405-1.552-.174-1.751.116-.1.379.063.535.078.09.01.136-.108.174-.04.085.156-.284.225-.099.388.231.201.425-.462.486-.624.272-.73 1.028-2.097 1.337-2.49.194-.246.841-1 .992-.945.12.042.177.535.129.771-.105.535-.588 1.01-.949 1.547-.397.592-.893 1.47-1.242 2.053-.103.173-.48.614-.494.851-.031.5.308-.086.32-.104.492-.76 1.019-1.71 1.561-2.534.173-.264.396-.738.519-.5.013.026-.417.46-.033.255.128-.069.593-.06.537-.25-.045-.151-.438-.007-.362-.118.074-.107.869-.059.735-.317-.075-.144-.486.02-.601.052-.433.123-.032-.235.128-.314.067-.032.987-.005.918-.207-.065-.19-.922.147-.935-.044-.002-.019.147-.161.313-.204.035-.01.86.131.802-.07-.061-.207-.651-.07-.592-.177.112-.202.307-.054.447-.09.173-.043.107-.26.32-.103.255.189-.346 1.057-.515 1.257-.421.494-1.112 1.484-1.57 2.056-.143.18-.322.278-.276.378.073.158.386-.046.328-.004.201-.143.643-.895 1.009-1.4.256-.352.677-1.04.945-1.27.091-.08.505-.269.59-.203.082.063-.044.594-.13.642-.098.055-.18-.147-.278 0-.072.106.096.215.071.295-.214.677-.705-.061-.892.23-.151.237.352.159.453.34.114.2.385-.006.664-.235.295-.242 1.357-1.03.934-.335a7.501 7.501 0 01-.644.864c-.251.28-.341.456-.571.832-.208.339-.99 1.566-1.174 1.593.019-.003-.034-.124-.034-.124-.132-.131-.863-.361-.706.012.042.1.637.086.649.271.006.083-.275.07-.246.072-.129-.01-.805-.231-.803-.308.003-.091 1.052-1.171 1.284-1.45.084-.102.282-.247.33-.333.229-.418-.084-.21-.269-.23-.165-.015-.49-.364-.534-.078-.031.195.2.13.264.179.085.064.317.206.094.269-.151.042-.471-.472-.538-.13-.048.239.31.117.302.352-.003.098-.66.83-.719.897-.333.38-.784.664-1.104 1.132-.087.127-.484 1.05-.226 1.08.265.03.041-.383.269-.478.206-.087.429.394.687.444.272.053 1.231-1.004 1.564-1.399.837-.992 1.21-2.143 2.067-2.857.139-.116.605-.564.7-.44.034.045-.227.43-.305.683-.141.454-.362 1.153-.598 1.517-.633.976-1.104 1.224-1.815 1.8-.152.124-.909.68-.624.786.061.024.464-.278.65-.435.335-.283.662-.515.905-.737.137-.124.255-.294.33-.331-.03.015 1.167-.03.781-.372-.084-.074-.401.22-.448.09-.08-.219.511-.25.487-.245.131-.026.572-.104.407-.313-.106-.133-.335.18-.427.012-.096-.175.959-.13.88-.38-.064-.204-.622.11-.632-.02-.01-.146.302-.271.26-.251.013-.007.701-.067.705-.012.009.126-.634.8-.695.87-.361.415-.717.843-1.145 1.286-.353.367-1.055.807-1.361 1.053-.245.195-.301.438.021.3.354-.15.896-.579 1.203-.812.751-.57 1.488-1.853 2.075-2.378.084-.075.389-.245.701-.44.141-.089.651-.447.734-.317.048.08-.238.493-.289.556-.333.412-.592.636-1.008 1.073-.338.355-.889.87-.865.959.083.306.287-.132.468-.167.137-.028.518.188.519.207.006.086-.457.35-.526.4-.22.155-.731.609-.272.426.942-.374 1.824-1.536 2.637-2.275.153-.138 1.022-.721 1.097-.525.027.07-.058.218-.106.287l-.002.002zm-2.929-2.217c.042-.004-.055-.104-.084-.12-.133-.07-.547-.134-.348-.297.121-.099.582.16.595.225.004.02.025.171-.163.19v.002zm-5-2.995c-.088.173-.12.544-.258.629-.146.09-.185-.17-.25.021-.048.142.187.112.191.21.004.098-.269.443-.405.693-.175.321-.432.942-.584 1.01-.063.028-1.051-.207-.771.143.055.07.304.025.303.024.273.01.469.105.199.312-.086.066-1.098-.115-.918.206.028.05 1.212-.078.745.212-.147.092-1.147-.16-.818.198.115.126.64-.153.732.012-.015-.028-.025.369-.222.423-.005.002-.149-.157-.111-.142-.149-.063-.45.076-.558-.052-.017-.021-.041-.374.081-.638.231-.5.653-1.162 1.055-1.835.209-.348.604-.908.801-1.155.28-.352.809-.68 1.089-1.004.089-.105.138-.323.166-.14.031.2-.271.485-.468.873h.001zm4.251 3.818c-.14.17-.229.385-.142.113.045-.14.165-.902.41-.97.019-.005.21.177.292.202.044.013.121-.076.127.014.014.197-.475.385-.686.64l-.001.001zm-3.838-4.03c-.015-.204.657.141.689.116-.028.1-.688-.086-.689-.116zm4.387 4.31c-.416.01.516-.604.584-.303.082.36-.466.3-.584.303zm-5.604-4.405c-.238.336-.628 1.02-.907 1.442-.308.468.024-.323.049-.382.111-.265 1.286-1.857 1.367-1.71.081.147-.344.416-.509.65zm1.449.529c.055-.027-.604.332-.606.33.003.003.167-.495.215-.523.1-.06.471.118.464.161-.002.018-.063.028-.073.032zm3.842 4.08c.188-.07.6.02.586.075-.041.154-1.302.189-.586-.076zm1.008 1.426c-.015-.206.668.014.693.165.062.39-.691-.15-.693-.165zm-.306.304c-.012-.163.728.056.715.139-.048.32-.707-.017-.715-.14zm-.423.441c-.022-.323.754-.138.735.062-.034.384-.731-.016-.735-.062zm-7.823-4.412c-.006.113.101.66.076.725-.041.108-.317.05-.186.218.007.01.254.02.254.029.002.076-.152.173-.213.195-.411.144-.369-.171-.524.071-.097.152.225.122.311.124.243.005.427.134.198.31-.052.042-.815-.177-.644.158.125.244.413-.175.612.098.03.04.031.205-.009.228-.053.03-.275-.195-.187-.16.037.015-.247-.008-.375.058-.04.021-.079.114-.093.11-.09-.032-.19-.25-.194-.261-.084-.243.073-.787.322-1.14.161-.228.408-.425.509-.65.039-.086.01-.341.136-.214.031.031.009.066.007.1zm3.047 4.251c-.018-.01-.237-.003-.23-.055.019-.144 1.016.22 1.003.29-.066.4-.688-.19-.773-.235zm4.342 3.658c.025-.024-.344-.05-.28-.051-.605.01-.957.797-1.545.614-.401-.124.422-.382.329-.71-.018-.062-.121.106-.201.018.008.008.043-.105.044-.106-.019-.256-.326.076-.492.195-.279.202-.7.332-.33-.046.192-.198.61-.17.549-.427-.028-.12-.142.045-.2.017-.087-.041-.037-.181-.114-.192-.106-.014-.23.08-.344.13.003 0-.342.182-.34.182.131.026-.218-.055-.191-.21.014-.083.273-.046.323-.054.356-.051.776-.25 1.042-.243.051.002.138.12.21.133.182.034.385-.125.599-.103.233.023.541.206.707.367.094.092.395.325.236.484l-.002.002zm-4.162-2.892c-.075-.003-.243-.228-.348-.297-.214-.139-.41-.103-.392-.192.053-.267.994.203.98.317.007-.056-.109.18-.24.172zm-3.426-2.122c-.04-.004-.524-.636-.524-.636-.007.021.612.106.562.103.05.004 0-.014.027.023.081.112.003.516-.065.51zm2.952 2.19c-.094-.046-.486-.166-.492-.185-.016-.053.072-.155.14-.163-.041.005.055.104.084.118.16.084.364.046.472.262.123.246-.022.056-.204-.033zm1.999 2.6c-.637.318.339-.39.266-.149-.016.055-.118.077-.266.15zm-5.177-3.331c-.143 0-1.291-.532-1.302-.592-.01-.06.504-.257.25-.401-.162-.092-.216.314-.384.286-.084-.015-.288-.473-.142-.594.046-.038.183.055.23.055.183.004.404-.127.598-.103.467.059.752.46 1.078.638.108.059.164-.032.258.078.294.346-.264.632-.586.632zm5.596 3.926c-.112-.02.027-.18.067-.131-.051.046-.021.085-.067.131zm-.873-.226c.051.06.165.08.238.156.084.086.146.278.256.407.288.34.676.621.665.85.003-.084-.078.228-.11.236-.073.017-.911-.728-.936-.75-.316-.32-.503-.928-.543-1.266.008.071-.03-.368.052-.333.197.084.219.51.377.7h.001zm-3.896-3.42c-.24.137.243.336.179.388-.111.092-.736-.245-.729-.34.007-.119.492-.38.66-.285.058.033.164.336.185.489-.096-.15-.142-.338-.295-.252zm2.898 2.851c.022-.014-.179-.06-.181-.06-.237.014-.754.107-.889-.1-.082-.126.077-.215.096-.437.012-.143-.175-.393.018-.456-.009.003.475.22.579.353.05.062.008.164.064.196.089.05.329-.161.438.139.027.074-.014.291-.125.365zm-1.466-1.487c-.01.127-.314.091-.174.041a2.336 2.336 0 00-.533.299c-.191.172-.598 1.164-.674 1.17-.055.003-.217-.467-.141-.216-.117-.386.231-1.079.489-1.658.06-.136.08-.416.195-.446.103-.028.112.107.161.137.024.016.682.616.677.672v.001zm.005.429c-.95 1.162-1.917 2.335-2.675 3.188-.128.144-.154.348-.375.387.065-.011-.006-.148-.011-.151.045.03-.671-.055-.759-.034-.232.051-.024-.281.102-.338.074-.032.003.082.112.142.13.075 1.087-.046.937-.284-.064-.102-.228.059-.424.063-.134.002-.07-.07-.207-.083-.282-.027-.528.231-.239-.156.115-.151.552-.731.652-.764.023-.006.286.232.165.188.061.023.886-.122.653-.385-.01-.012-.736.161-.749.115-.025-.104.127-.192.207-.295.175-.226.705-1.048.834-1.032-.091-.011.129.678.123.67.399.519.625-.223.77-.522.122-.252.175-.46.335-.61.105-.098.535-.294.568-.175.02.077.004.047-.02.078l.001-.002zm-1.812-1.027c-.181-.039-.558-.493-.563-.48.063-.178.871.222.881.326.004.058-.157.189-.318.154zm3.005 2.564c.036-.01-.048-.11-.084-.12-.025-.007-.956.032-.963-.066-.022-.327 1.209-.05 1.207-.056.012.03-.022.2-.159.241h-.001zm-3.928-2.786c.041-.24.756.3.754.313-.043.191-.773-.198-.754-.313zm3.428 3.208c-.034-.001-.096-.105-.162-.137-.14-.07-.723-.161-.441-.189.242-.025 1.002.01.989.09-.004.032-.248.241-.386.236zm-.972.161c-.102-.325.632-.217.601-.053-.014.07-.588.096-.601.053zm-2.861 1.615c-1.486 1.55-3.292 3.785-4.479 5.466-.457.647-.772 1.523-1.163 1.742-.168.095-.253-.11-.374.059-.088.124.103.159.072.296-.045.194-.561.667-.789.978-.268.368-.595 1.089-.874 1.188.027-.01-.502-.251-.161-.137-.088-.029-.378.039-.523.071-.08.018-.529.096-.307.305.153.142.91-.368.925-.107.018.311-.357.21-.464.218-.178.013-.6.173-.767.193-.251.032.232-.569.351-.738.074-.103.2-.22.303-.354.62-.804 1.552-2.202 2.174-2.765.1-.091.191-.06.243-.123.056-.066.048-.198.106-.287.154-.233.45-.506.699-.819.316-.395.696-.816 1.024-1.2.7-.816 1.287-1.923 1.947-2.77.145-.186.366-.506.466-.547.078-.03-.005.078.111.142.129.073.778-.037.771-.143-.018-.252-.798.015-.793-.157 0 .014.117-.172.163-.19-.023.008 1.112.179.894-.18-.022-.039-.691.02-.708-.039.009.036.141-.291.229-.323.036-.014.049.129.138.165.216.086.842-.185.832.002 0 .012-.039.045-.047.055l.001-.001zm1.464 2.522c-.779 1.316-1.804 2.061-2.96 2.707-.95.532-1.805 1.036-2.612 1.214a15.55 15.55 0 01-.548.098c-.01-.074.783-1.053.925-1.191 1.02-1 2.667-2.072 3.829-2.532.338-.134 1.351-.542 1.386-.374a.507.507 0 01-.02.078zm-4.919-1.84c-.086.147-.003.333-.045.432a.585.585 0 01-.38.337c-.461.132-.125-.198.068-.46.123-.168.721-1.073.818-.906.133.229-.422.529-.462.596l.001.001zm-1.067 1.304c-.02-.276.778-.39.783-.321.014.212-.781.365-.783.321zm-.305.683s.071-.273.175-.369c.041-.037.642-.273.711-.29.042-.01.057.097.057.097.137.365-.907.624-.943.563zm-.106.287c.222-.216.774-.173.768-.193.082.27-1.425.839-.768.193zm.428.695c-.066.057-.281.137-.391.185-.08.035-.37.193-.417.163-.102-.065-.031-.304.072-.41.06-.061 1.005-.377 1.007-.366.032.134-.296.449-.272.428h.001zm-1.076.826c-.053-.136.695-.495.944-.562.034-.01.065-.009.053.045-.027.127-.965.6-.997.517zm.592.175c-.056.11-.052.214-.082.26-.084.127-.653.829-.749.823-.121-.008.016-.345.005-.279.021-.125.032-.57.081-.638.05-.071.836-.406.857-.353.057.151-.101.162-.113.187h.001zm-3.361 5.949c-.149.035-.505.237-.637.257-.093.015-.404-.048-.408-.065.01.047.117-.26.229-.324.033-.017.097.083.157.088.19.014 1.006-.416 1.019-.216.013.204-.263.235-.36.259v.001zm-.543.527c-.114.023-.557.193-.664.235-.533.208-.133-.176-.017-.252a1.47 1.47 0 00.227.005c.138-.024.987-.319.991-.239.018.304-.364.215-.536.25l-.001.001zm-.412.591c-.254.06-.386.089-.568.177-.265.127-.231-.155-.044-.274-.039.024.254.049.231.056.197-.048 1.04-.577 1.01-.316-.034.299-.515.331-.629.358v-.001zm-.058.612c-.179.135-.629.074-.674.084-.047.011-.076.068-.12.086-.232.097-.163-.181-.021-.301.043-.036.059.041.177.01.158-.041.914-.46.935-.334.018.11-.287.448-.296.455h-.001zm-.662.613c-.228.066-.41.206-.471.118.015.02.038-.249.129-.315-.041.03.195.034.204.033.292-.056.612-.254.62-.131.019.264-.377.264-.482.294v.001zm-.178.697c-.104.034-.308-.184-.295-.252.04-.201.537-.113.517-.172.024.071-.132.395-.222.424z" fill="#81736A"/><path d="M89.3 100.2c.533 0 .8 1.4.8 4.2 0 2.8-.267 4.2-.8 4.2l-15.2-.6v19.8c0 4.133.333 7.133 1 9s1.933 3.133 3.8 3.8c1.867.667 4.867 1 9 1 .267 0 .4.4.4 1.2 0 .8-.133 1.2-.4 1.2-3.6 0-6.467-.067-8.6-.2l-12.8-.2-15.2.2c-2.667.133-6.267.2-10.8.2-.4 0-.6-.4-.6-1.2 0-.8.2-1.2.6-1.2 6 0 10.2-.267 12.6-.8 2.533-.667 4.2-1.867 5-3.6.8-1.867 1.2-5 1.2-9.4v-20.2c-17.6-.267-34-.4-49.2-.4-.667 0-1.2-.2-1.6-.6-.267-.533-.2-1.067.2-1.6l62.4-87c.267-.267.667-.4 1.2-.4.4 0 .8.133 1.2.4.4.133.6.4.6.8v82l15.2-.6zm-69 1.2c11.067 0 24.067-.133 39-.4V42.6l-40 57.4c-.533.933-.2 1.4 1 1.4zm127.642 45.2c-8.266 0-15.533-2.667-21.8-8-6.266-5.333-11.133-12.933-14.6-22.8-3.333-9.867-5-21.333-5-34.4 0-12.933 1.734-24.267 5.2-34 3.467-9.867 8.334-17.467 14.6-22.8 6.267-5.333 13.6-8 22-8 8.134 0 15.267 2.733 21.4 8.2 6.134 5.333 10.867 12.933 14.2 22.8 3.334 9.867 5 21.333 5 34.4 0 12.933-1.666 24.267-5 34-3.333 9.733-8.133 17.267-14.4 22.6-6.133 5.333-13.333 8-21.6 8zm2.4-3.2c14.4 0 21.6-19.667 21.6-59 0-21.6-2.333-37.733-7-48.4-4.533-10.8-10.8-16.2-18.8-16.2-7.466 0-13.133 5.2-17 15.6-3.733 10.4-5.6 25.267-5.6 44.6 0 20.4 2.267 36.067 6.8 47 4.667 10.933 11.334 16.4 20 16.4zm135.442-43.2c.534 0 .8 1.4.8 4.2 0 2.8-.266 4.2-.8 4.2l-15.2-.6v19.8c0 4.133.334 7.133 1 9 .667 1.867 1.934 3.133 3.8 3.8 1.867.667 4.867 1 9 1 .267 0 .4.4.4 1.2 0 .8-.133 1.2-.4 1.2-3.6 0-6.466-.067-8.6-.2l-12.8-.2-15.2.2c-2.666.133-6.266.2-10.8.2-.4 0-.6-.4-.6-1.2 0-.8.2-1.2.6-1.2 6 0 10.2-.267 12.6-.8 2.534-.667 4.2-1.867 5-3.6.8-1.867 1.2-5 1.2-9.4v-20.2c-17.6-.267-34-.4-49.2-.4-.666 0-1.2-.2-1.6-.6-.266-.533-.2-1.067.2-1.6l62.4-87c.267-.267.667-.4 1.2-.4.4 0 .8.133 1.2.4.4.133.6.4.6.8v82l15.2-.6zm-69 1.2c11.067 0 24.067-.133 39-.4V42.6l-40 57.4c-.533.933-.2 1.4 1 1.4z" fill="#6B452C"/></svg>