<svg width="121" height="108" fill="none" xmlns="http://www.w3.org/2000/svg"><mask id="a" style="mask-type:alpha" maskUnits="userSpaceOnUse" x="0" y="0" width="121" height="108"><rect x=".827" y=".007" width="120" height="107.506" rx="12" fill="#FCFAF7"/></mask><g mask="url(#a)" fill-rule="evenodd" clip-rule="evenodd" fill="#81736A"><path d="M33.274 15.445c.06-.256 1.096.76.812.931-.159.096-.848-.773-.812-.93zm1.809 2.898c.088-.071.5-.31.502-.026.002.2-.711.51-.719.507-.152-.073.128-.408.217-.481zm-6.613 7.004s-.026-.04-.025-.041c.314-.185.361.153.388.16.377.097 1.35-.482 1.954-.645.427-.116.935.127.414.201a5.608 5.608 0 00-1.091.279c-.452.162-1.028.534-1.247.49-.13-.025-.403-.37-.393-.444z"/><path d="M29.887 24.575c.332-.307.33.657-.052.378-.15-.109-.057-.276.052-.378zm6.83-4.263c.866-.44-.298.95-.418.434-.032-.133.21-.327.418-.434zm1.696-1.062c.08-.348 1.182 1.064 1.018 1.262-.146.175-1.05-1.129-1.018-1.262zm-7.547 4.775c.687-.719-.053 1.466-.078.336-.002-.072.034-.29.078-.336zm.971-.377c.589-.501.2.96-.156.672-.065-.053.076-.605.156-.672zM37.087 21c.095-.07.13-.22.259-.047.35.467-.984.578-.259.047zm.475.854c.058-.252.651.082.533.3-.065.117-.566-.156-.533-.3zm-2.249 1.923c.72-.563-.017.831-.238.723-.29-.14.157-.66.237-.723zm-6.615 4.418c.089-.162.364.084.305.211-.059.128-.445.047-.305-.211zm4.745-2.618c.014-.054.548-.139.605.14.061.296-.675.164-.605-.14zm-4.208 2.745c.053-.056.435.06.33.253-.09.168-.562-.009-.33-.253zm.741-.29c.12-.256.413.06.237.196-.137.107-.308-.046-.237-.197zm.779-.318c.396-.638.438.745.04.434-.099-.078-.118-.31-.04-.434zm.738-.284c.309-.503.593.731.223.723-.224-.004-.27-.647-.223-.724zm7.352-4.536c.046-.2.438-.056.404.094-.036.153-.476.22-.404-.094zm-7.587 5.716c.052-.228.27-.06.517-.093.492-.067 1.28-.452 1.406-.42a.877.877 0 01.13.208c.005.197-.607.163-.792.207-.399.095-1.373.58-1.262.097zm8.878-5.028c-.004.007.393-.153.403.094.01.26-.551.192-.403-.094zm1.112.86c-.021-.243.338-.056.227.088-.047.062-.214.057-.227-.088zm-2.685 2.884c-.057-.058.117-.09.125-.078.04.057-.085.115-.125.078zm-7.896 5.219c.136-.324.406.255.114.274-.151.01-.16-.163-.114-.274zm.326-.03c-.005-.118.18-.191.248-.156.345.182-.233.505-.248.156zm1.749-.978c.389-.406.464.877.02.678-.173-.077-.004-.397 0-.46.01-.15-.236.008-.02-.217v-.001zm-.802.558c.189-.364.493.32.192.398-.188.049-.243-.298-.191-.398zm1.777-1.11c.632-.642.212 1.184-.062 1.19-.297.006.033-.466.02-.704-.01-.197-.15-.293.04-.485h.002zm.819-.162c.578-.568.194 1.242-.145 1.24-.145.001.063-1.158.145-1.24zm.786-.496c.053-.064.17-.182.3-.071.05.043-.001.909-.073 1.08-.045.11-.247.297-.279.29-.156-.037.084-.788.068-.905-.04-.302-.187-.186-.016-.394zm1.515-.888c.354-.518.52.88.15.884-.198.002-.197-.817-.15-.884z"/><path d="M31.21 33.415c.031-.13.875-.04.786-.031.371-.037 1.094-.2 1.526-.32 2.083-.585 4.357-2.297 5.679-2.972.06-.03.836-.43.941-.242.14.25-.893.571-1.117.697-.646.364-1.441.957-1.835 1.205-1.222.768-3.145 1.515-4.562 1.814-.263.055-1.507.24-1.417-.15v-.001zm12.52-7.764c.057-.06.41.003.306.212-.072.143-.536.037-.306-.212zm-.578 1.282c.1-.432.611.273.155.248-.108-.006-.183-.129-.155-.248zm1.375-.283c.07-.304.392.01.32.146-.09.17-.368.06-.32-.145zm-1.65 1.316c.09-.08.101-.189.247-.155.346.08.673 1.155.18 1.21-.136.016-.602-.46-.63-.641-.001-.005.145-.363.202-.413v-.001zm.981-.092c.348-.415.753.674.263.699-.284.014-.374-.567-.263-.7zm2.802.261c.106-.212 1.087 1.002.657 1.142-.096.031-.7-1.053-.657-1.142zm-8.125 5.593c.492-.395.145.554-.16.388-.158-.085.034-.286.16-.388zm-.988.905c.245-.226.246.45-.036.31-.228-.116-.06-.223.036-.31zm8.669-3.805c.029-.051.465-.114.47.109.005.218-.617.155-.47-.109zm-8.389 5.354c.588-.303-.199.967-.563.755-.068-.04.439-.691.563-.755zm9.379-4.88c.032-.135.186-.191.3-.073.246.255-.367.362-.3.073zm-.891.788c.077-.162.164-.146.259-.046.247.261-.423.393-.259.047zm2.154-1.059c.304-.382.336.547.005.285-.184-.147-.086-.182-.005-.285zm-5.622 7.019c-.008.027-.389 1.157-.533 1.08-.077-.04.025-.74-.01-.568.258-1.245 1.138-2.598 1.558-3.676.015-.04.132-1.111.434-.961.197.097-.14.802-.247 1.075-.47 1.182-.794 1.782-1.201 3.051zm4.796-6.041c.132-.24.338.063.28.17-.07.13-.406.062-.28-.17zm-8.264 5.276c-.153.105.076-.23.221-.196.208.048-.268.708-.32.776-.098.122-.535.675-.705.44-.11-.153.541-.68.55-.689.124-.148-.03-.136.253-.33zm9.386-5.229c.618-.475.763.936.228 1.008-.45.06-.597-.724-.228-1.008zm.223.264c-.156.343.068-.151 0 0zm-1.52.603c.12-.275.418.014.321.145-.105.14-.413.068-.321-.145zm-2.992 2.389c.341-.323.213.474.18.75-.036.31-.094.756-.304.708-.189-.044.015-1.355.124-1.458z"/><path d="M42.848 38.05c.095-.202.875.04.832.227-.068.294-.959.041-.832-.227zm1.454-.62c.276-.216.201.614.118 1.018-.199.974-.498 1.802-.865 2.668-.179.424-.337.881-.538 1.256-.123.23-.377.48-.462.46-.273-.064.158-.585.183-.631a20.03 20.03 0 001.107-2.648c.162-.501.283-1.43.425-1.99.012-.047-.021-.094.03-.134h.002zm5.812-3.398c.218-.104.48.757.604 1.061.682 1.673 1.777 3.355 2.905 5.202.002.003.495.668.315.782-.246.154-.638-.837-.754-1.024-.491-.79-1.094-1.558-1.794-2.963-.185-.375-.41-.925-.712-1.51-.243-.469-.884-1.394-.564-1.547zm-7.232 4.628c.06-.064.95.19.744.456-.093.12-1.103-.077-.744-.456zm3.572-2.112c.09-.191.914.179.853.444-.042.18-.996-.143-.853-.444z"/><path d="M42.687 39.359c.079-.115.929.097.802.362-.076.153-1.076.036-.802-.362zm-.647 1.267c-.095.193-.097.367-.279.29-.148-.063.128-.996.26-.967.241.056.037.643.02.678zm4.428-3.226c.154-.33.721.281 1.003.407.286.13.146.53.217.9.164.852.477 2.062.573 3.035.06.6.126 1.388.098 2.182-.004.106.024.644-.207.59-.126-.03-.069-.53-.068-.476-.028-1.218-.121-2.525-.334-3.76-.037-.215-.047-.953-.248-1.225.014.018-.773-.485-.811-.47-.098.034.032.517-.192.521-.243.005-.17-1.211.038-1.23.225-.021.072.236.165.357.161.21.706.363.693.373.055-.037.015-.53-.011-.569-.093-.144-1.062-.322-.915-.635h-.001zm-4.035 2.749c.168-.246.882.074.708.305-.042.056-.965.069-.708-.305z"/><path d="M42.04 40.626c.142-.303.717.126.64.29-.091.194-.752-.056-.64-.29zm.054 1.004c.136-.269.456.014.388.16-.078.165-.507.074-.388-.16zm4.574-2.344c.112-.223.78.166.708.305-.1.19-.821-.08-.708-.305zm4.039-2.464c.14-.41.446.309.14.316-.196.003-.171-.226-.14-.316zm-9.753 6.208c.03-.06.143-.166.258-.046.252.26-.42.372-.258.045zm.881-.434c.418-.327.113.513-.13.253-.132-.14.01-.159.13-.253zm5.088-2.26c.003-.006.185-.203.315-.14.443.217-.528.57-.315.14zm-.503.488c.42-.611.406 1.434.124 1.303-.247-.113-.114-1.207-.114-1.194 0-.068-.05-.05-.01-.109z"/><path d="M46.8 40.7c.212-.394.349.401.021.217-.129-.071-.074-.116-.02-.217zm4.24-2.243c.151-.2.409.27.14.316-.196.033-.222-.208-.14-.316zm.295 1.023c.105-.454.83.473.445.527-.032.005-.479-.378-.445-.527zm3.473.128c.05-.213 1.182 1.12.59 1.127-.018.001-.627-.965-.59-1.127zm4.724-2.196c.064-.278.381.083.237.197-.1.08-.288.023-.237-.197zM54.14 42.04c.076-.268.682.489.63.642-.14.42-.665-.517-.63-.641zm6.335-3.668c.094-.41.54.233.155.249-.047.002-.192-.089-.155-.249zm1.095.925c.122-.219.348.207.088.233-.102.01-.131-.153-.087-.233zm-5.228 7.465c.131-.321.454.13.29.28-.132.12-.358-.113-.29-.28zm.422 1.23c.043-.081.09-.186.207-.129.437.215-.425.547-.206.13zm.708 1.228c-.003-.087.187-.234.29-.182.356.185-.277.538-.29.181zm.627.819s.305-.16.294.104c-.01.23-.53.153-.294-.104zm.528.935c.123-.272.837.082.559.342-.15.14-.63-.183-.56-.342zm.339 12.152c.164-.401.447.26.115.274-.208.009-.157-.17-.115-.274zm2.289.063c.072-.314.345.154.532.3.443.348 1.388.738 1.34.947-.04.17-.585-.214-.684-.264-.17-.087-1.285-.566-1.188-.983zm3.897-2.318c.033-.065.407-.155.404.093-.005.21-.574.235-.404-.093zM62.64 65.32c.03-.135.21-.26.315-.14.188.214-.378.409-.315.14zm2.693-.937c.297-.188.363-.352.523-.269.35.18-.296.402-.476.527-.303.21-.56.57-.688.372-.167-.257.356-.45.64-.631h.001zm-1.573 1.442c.047-.1.076-.189.207-.13.355.162-.395.527-.207.13zm2.432-1.172c.027-.008.199-.15.243.021.032.127-.915.82-.931.813-.375-.183.408-.747.688-.832v-.002zM64.48 66.24c.05-.219.376-.215.433-.042.066.197-.493.298-.434.042zm1.019.342c.196-.403.4.381.123.383-.224 0-.171-.284-.123-.383zm.728.521c.088-.198.978-.301.853-.015-.078.18-1.004.358-.853.015zm-.546.512c.06-.267 1.523.544 1.426.719-.037.067-1.512-.349-1.426-.719zm3.723-1.229c.084-.178.984.614 1.401 1.138.163.205.669.978.605 1.06-.104.133-.384-.281-.278-.17-.186-.196-.609-.67-.735-.807-.32-.349-1.122-.949-.993-1.221zm-1.707 1.871c.004-.01.801-.49.946-.418.489.238-1.163.931-.946.418zm19.272-4.501c.058-.25.587.067.549.232-.04.173-.627.107-.549-.232zm.7 1.115c.187-.26.265.305.072.3-.194-.006-.125-.225-.072-.3zm.721 1.159c.192-.365.364.33.047.257-.228-.052-.084-.19-.047-.258zm.595.949c.104-.225.798 0 .616.248-.13.178-.713-.038-.616-.248zm.259.877c.076-.16.976-.12.966.258-.006.24-1.076-.032-.966-.258zm.003.742c.085-.365 1.344.138 1.154.374-.144.176-1.187-.228-1.154-.374zM76.98 76.494c.007-.027.061-.144.14-.145.554-.001-.269.704-.14.145zm.706.937c.135-.268.598.413.191.398-.177-.006-.24-.298-.19-.398zm.857 1.192c.061-.268.57.172.491.326-.095.182-.552-.06-.491-.326zm1.142 1.181c.075-.168.54.187.316.32-.16.096-.42-.083-.316-.32zm.869 1.299c.157-.31.497.303.14.317-.154.005-.18-.235-.14-.317zm1.102 1.212c.117-.24.342.25.113.273-.167.019-.145-.209-.113-.273zm.535 1.047c.002-.24.733-.27.662.046-.036.161-.662.192-.662-.046zM38.214 13.225c.099-.183.373.075.305.213-.064.133-.443.045-.305-.213zm.686-.375c.1-.19.67.718.915 1.096.733 1.136 2.151 3.014 2.709 4.06.204.385.078.633-.249.155-.192-.283-.398-.717-.217-.44-.608-.94-1.306-1.854-2.011-2.942-.163-.253-1.324-1.59-1.147-1.93zm6.317-3.885c.328-.533.3.42.294.564-.01.252.02.587-.264.682-.18.06-.106-.198-.198-.222-.29-.079-.413.315-.625.103-.336-.338.623-.252.713-.33.15-.13-.032-.617.078-.796h.002zm-6.829 4.723c-.001-.212.63.172.423.31-.135.091-.423-.033-.423-.31zm7.548-4.485c.354-.412.283.645.32 1.067.116 1.272.078 2.27.342 3.582.247 1.238.349 2.332.407 3.6 0 .011.224 1.102-.115 1.107-.213.002-.115-.828-.118-1.02-.005-.193-.04-.699-.078-1.044-.256-2.375-.851-4.813-.788-7.157.002-.095-.04-.052.03-.135zm-1.708 1.589c.012-.052 1.062-.433 1.143-.196.078.226-1.216.514-1.143.196zm-5.413 3.953c.2-.193.364.353.285.456-.16.203-.428-.317-.285-.456zm6.326-2.399c.004-.237.2-.68.012-.812-.154-.107-.87.401-.88-.026-.002-.122.776-.259.807-.274.218-.103.224-.26.33-.207.224.115.027 1.288.026 1.423-.01 1.156.153 2.341.366 3.625.007.048.13.655-.047.663-.261.01-.264-.966-.278-1.091-.125-1.132-.353-2.155-.336-3.3zm3.266-2.96c.079-.085.178-.198.3-.072.135.138-.133.43-.133.43-.065.277-.013.902.035 1.53.045.585.194 1.21.212 1.536.006.114-.104.273-.078.336.072.174.3.117.316.32.008.11-.458.84-.683.657-.174-.143.366-.678.358-.626.01-.06-.173-.155-.197-.222-.015-.04.035-.314.036-.31-.157-1.026-.333-2.594-.195-3.445.008-.055-.013-.085.03-.134zm-8.961 5.999c.4-.203.129.832-.222.656-.096-.048.107-.598.222-.656z"/><path d="M45.14 12.345c-.053.222-.968.205-.92 0 .042-.184.997-.334.92 0zm-.883 1.072c0-.147.654-.37.765-.249.288.32-.767.507-.765.249zm-4.333 2.821c.618-.4-.204 1.233-.558 1.04-.023-.013.435-.96.558-1.04zm4.666-2.111c.098-.183.372.075.304.213-.066.133-.443.045-.305-.213zm-4.286 2.906c.765-.383-.445 1.207-.59 1.173-.285-.066.505-1.13.59-1.173zm11.591-6.489c.022-.098 1.482-.289 1.422-.026-.014.06-1.498.362-1.422.026zM44.66 15.35c.026-.044.375-.027.373.227-.002.198-.542.067-.372-.227zm7.26-3.843c.038-.163 1.197-.438 1.308-.3.31.388-1.354.5-1.308.3zm-2.924 2.402c.91-.541-.596 1.33-.699.724-.024-.145.1-.04.248-.155.231-.182.214-.43.45-.57zm3.162-1.746c.084-.36 1.19-.248.932.11-.051.07-.97.06-.932-.11zM44.9 16.754c.06-.262.442.093.374.227-.086.17-.42-.02-.373-.227zm4.278-2.271c.649-.333-.4 1.012-.569.93-.268-.13.307-.796.57-.93zm3.204-1.597c-.007-.26.778-.113.63.181-.055.11-.627-.006-.63-.181zm1.263-.558c.404-.37.059 1.485-.017 1.909-.31 1.73-.58 3.17-1.336 4.86-.103.23-.299.887-.512.837-.25-.059.165-.73.244-.9.926-1.988 1.411-4.592 1.521-6.587.003-.048.056-.08.099-.12v.001zm-8.358 5.504c.153-.293.455.46.125.382-.19-.044-.146-.34-.125-.382zm7.11-4.092c.012-.048.597-.25.595.032 0 .192-.688.37-.595-.031zm-3.647 2.449c.187-.146.395 1.564.061 1.572-.18.004-.134-1.516-.061-1.572zm3.46-2.105c.286-.266.103.117.238.197.111.067.188-.173.233-.087.092.177.033.646-.191.522-.25-.139-.074.29-.191.523.016-.032-.151.283-.263.222-.096-.05.076-1.281.176-1.375l-.001-.002zm-6.524 4.938c.192-.343.24.357-.005.175-.069-.05-.015-.138.005-.175zm12.787-7.524c.375.008-.092.64-.13.714-.277.554-.741 1.354-1.023 2.136-.311.863-.543 1.749-.781 2.156-.017.027-.283.433-.403.367-.143-.079.1-.492.052-.378.695-1.64 1.35-3.272 2.121-4.891a.621.621 0 01.166-.104h-.002zm-3.423 5.761c.068-.145.843-.122.797.078-.047.205-.941.23-.796-.078zm-8.212 5.358c.053-.23.521-.11.486.042-.035.155-.554.259-.486-.042zm8.074-4.755c-.003-.209 1.06-.17.874.202.006-.012-.87.098-.874-.202zm-.268.859c.068-.294.912-.14.781.145-.025.053-.86.202-.781-.145zm2.032-.983c.594-.347-.453 1.272-.642 1.09-.109-.103.45-.978.642-1.09zm-9.315 5.989c.105-.133.401-.019.305.213-.067.163-.534.081-.305-.213zM54.38 19.4c.094-.454.81.513.233.373-.126-.03-.245-.318-.233-.372zm-4.843 3.482c.346-.333.352.164.548.233.15.054.034-.076.207-.13.503-.152.699.734.108.91-.048.015-.328-.257-.511-.083-.066.062.058.778-.136.89-.403.232-.832-.723-.552-.978-.063.058.389-.109.368-.056.12-.282-.372-.46-.032-.786zm-1.369 1.034c.058-.111.338-.145.336.078-.002.192-.487.214-.336-.078zm5.722-3.459c.233-.369.495.469.056.368-.143-.033-.08-.33-.057-.368zm-8.024 5.3c.307-.3.825-.508 1.236-.6.178-.04.404-.15.533-.16.187-.014.383.115.579.099.452-.038.796-.286 1.179-.046.785.494 1.326 1.968 1.286 2.706-.045.844-.582 1.95-1.872 2.434-.447.167-1.633-.076-2.048-.332-.303-.187-.943-.928-1.153-1.293-.429-.745-.294-2.266.26-2.808zm.228.548c-.473.687-.066 2.23.816 3.056.467.438 1.451.522 2.063.264.667-.281 1.206-1.013 1.334-1.639.105-.515-.435-2.586-1.313-2.745-.19-.036-.4.195-.724.222-.212.018-.437-.113-.58-.098-.424.043-.896.381-1.251.666-.248.2-.228.104-.346.274zm12.508-7.411c.038-.073.229-.119.269.062.042.184-.418.233-.269-.062zm-8.35 5.502c.185-.43.56.3.113.275-.11-.005-.155-.177-.113-.274zm7.362-4.601c-.04.08.6-.223.61-.036.014.28-.778.379-.61.036z"/><path d="M47.757 26.012c.457-.444.292.45.024.502-.29.055-.068-.46-.024-.502zm.438-.215c.033-.141.201-.195.3-.072.222.272-.378.411-.3.072zm8.893-5.097c-.002-.063.743-.464.863-.367.35.281-.856.644-.863.367zm-8.32 5.372c.084-.301.287-.132.325-.03.062.162-.4.296-.325.03zm7.746-4.726c-.003-.19 1.213-.491 1.257-.381.05.122-.825.587-1.179.506a.571.571 0 01-.077-.124z"/><path d="M55.847 21.936c-.01-.328 1.572-.671 1.468-.227-.04.179-.47.018-.8.098-.104.025-.66.356-.668.129zm-2.584 3.227c.008.026-.006-.122-.01-.109.022-.067 1.171-.757 1.164-.899-.007-.098-1.138.424-1.148-.088-.006-.28.37-.017.501-.026.374-.025.768-.276 1.04-.362.024-.008.875-.225.838-.408-.038-.19-1.681.528-1.742.341-.098-.3.776-.435 1.07-.495.339-.07.79-.215.87-.083-.011-.017-.011.157.035.15.261-.037 1.095-.778 1.438-1.014.187-.129.865-.768 1.008-.687.207.116-.982 1.092-.284.465-1.218 1.094-3.195 1.996-4.148 2.936-.11.107-.25.407-.31.424.133-.038-.278.008-.321-.145h-.001zm-3.994 1.343c.055-.108.089-.193.206-.129.4.22-.408.525-.206.13zm-1.972 1.632c.192-.318.905.971.739 1.09-.218.158-.86-.893-.74-1.09zm1.956-1.106c.07-.151.783.208.77.497-.014.341-.917-.18-.77-.497zm2.467-1.482c.071-.247.332-.075.336.078.004.128-.416.202-.335-.078zm-3.355 2.269c.206-.168.11.109.284.455.187.372.634.631.6.777-.084.355-.864-.438-.978-.828-.03-.107-.015-.315.094-.404z"/><path d="M49.028 27.407c.102-.342.968.698.801.822-.179.135-.883-.543-.8-.822zm-1.092.739c.249-.24.914 1.059.682 1.184-.21.113-.837-1.034-.682-1.184zm.846-.303c.147-.355.173.099.238.197.212.323.655.268.687.548 0 .003-.132.314-.263.222-.299-.209-.788-.663-.662-.967zm3.012-.612c.14-.272.385.008.32.145-.065.138-.443.09-.32-.145zm7.336-4.181c-.006-.03.966-.63 1.045-.538.256.298-1.014.668-1.044.538zm-1.06 1.064c-.013-.199.445-.149.46 0 .016.145-.444.244-.46 0zm1.507-.536c.043-.19.342-.16.35.011.01.145-.409.242-.35-.01zm.909-.569c.384-.538.594.591.077.585-.226-.003.006-.21.01-.352.002-.046-.188-.093-.087-.233zm.978-.554c.477-.563.235.882-.063.728-.115-.06-.004-.649.063-.728zm.994-.62c.516-.394.04 1.225-.248 1.076-.063-.033.113-.973.248-1.076zm.754-.356c.576-.472.034 1-.124.998-.264-.003-.036-.868.124-.998zm-12.889 8.278c.29-.198.709.285.557.803-.018.063-.213.295-.211.304.03.293.498.565.366.864-.26.594-.892-.116-.863-.554.011-.16.21-.311.201-.413-.029-.373-.506-.692-.051-1.003zm.31.497c.01-.01-.095-.318-.103-.165-.002.04.036.238.103.165zm.098 1.262c.068-.07-.12-.438-.182-.29-.04.097.082.393.182.29zm.362-2.18c.041-.183.411-.159.418.026.007.184-.48.247-.419-.026zm1.318-.651s.293-.163.296.103c0 .233-.528.156-.296-.103zm8.049-4.799c.008-.033.764-.582.88-.433.21.271-.954.756-.88.433zM51.6 29.59c.123-.529.525.44.063.191-.081-.044-.069-.16-.063-.19zm-2.343 1.87c.06-.121.368-.214.378.051.006.187-.521.234-.378-.051zm2.183-1.02c.619-.576.796.875.377.973-.452.105-.631-.736-.378-.973zm.351.472c.028-.034-.027-.473-.113-.275-.05.113.026.379.113.275zm.446-.853c.094-.406.58.236.155.248-.047.002-.192-.088-.155-.248zm-2.753 1.95c.479-.611 1.148.934.444.988-.391.029-.576-.821-.444-.988zm.392.444c-.007.342.003-.157 0 0zm7.654-1.101c.123-.041-.337.95-.596.889-.413-.096.46-.872.46-.92 0-.033-.29-.269-.413-.202-.079.042.07.131.062.191-.003.02-.543.783-.605.782-.307-.007-.061-.326.025-.42.298-.322.418-.797.09-.688-.06.019-.468.902-.668.588-.114-.177.43-.434.305-.708-.108-.236-1.18-.293-1.339-.486-.392-.47.35-.21.398-.191.798.313 2.087.84 2.84 1.046.152.041.732.065.625.356-.049.133-.274-.092-.378-.052.023-.008-.634 1.33-.776.6-.032-.165.535-.422.466-.636-.034-.104-.56-.129-.496-.15zm.726-2.98c.068-.034.31-.288.31.036.002.452-1.367.502-.31-.036zm-2.458 1.59c.034-.075.01-.06.083-.052 1.25.115 3.123.446 4.695.518-.03-.001.583.002.632.18.08.3-.688.068-.585.078-1.172-.122-2.271-.104-3.47-.306-.273-.046-1.518-.064-1.354-.419h-.001zm-3.402 2.472c.07-.313.466.27.704.481.248.221.766.792 1.002.869.056.019.972-.068 1.01-.227.022-.098-.907-.479-1.107-.574-.112-.055-.362-.146-.547-.233-.026-.012-.524-.203-.518-.368.017-.404.752.13.78.145.684.363 1.612.786 2.28 1.164.563.32 1.013.724 1.485 1.086.488.376 1.095.585 1.473.978-.043-.044.505.588.371.688-.165.125-.15-.098-.383-.336-.234-.242-1.009-.693-1.788-1.299-.264-.206-.584-.502-.9-.703-.216-.138-.804-.473-.92-.46-.102.011-.077.219-.088.227-.192.157-.656-.117-.776.14-.15.322.878.166.957.15-.164.036.582-.222.495.15-.06.26-.79.055-.858.19-.219.439.898.131 1.19.062-.133.032.413-.247.418.026.007.295-.94.24-.988.444-.064.28.641.256.506.26.115-.004.948-.41.951-.135.007.348-.602.062-.728.397-.024.064.138.348.299.389.04.01 1.117-.674 1.225-.248.107.418-1.494.043-.63.74.379.306.184.125.407-.083.473-.44 1.292.017.207.33-.608.176 1.172.63.821 1.04-.162.19-.593-.306-.48-.218-.58-.46-1.195-1.012-1.81-1.515-.473-.387-.924-.588-1.468-1.153-.658-.686-1.849-1.283-2.404-2.007-.058-.075-.213-.302-.19-.398h.002zm8.026-4.554c.058-.11 1.402-.16 1.732.01.563.287-.699.178-.817.165-.385-.043-1.03.035-.916-.175zm.104.626c.176-.11.119-.283.316-.139.225.166-.411.894-.642.63-.113-.129.1-.346.325-.49h.001zm1.098.002c.116-.087.168-.372.342-.099.043.069-.394.733-.56.58-.163-.153-.069-.265.218-.482v.001zm1.728-.445c.047-.203.855.077 1.242.145.35.061 1.08.078 1.101.29.023.235-.682-.076-.998-.125-.361-.055-1.416 0-1.345-.31zm-.841.582c.226-.548.44.295.115.274-.201-.013-.205-.052-.115-.274zm.81.011c-.024-.228.491.055.237.197-.154.087-.22-.036-.237-.197zM58.6 31.78c.35-.213.247.669-.083.51-.235-.112-.042-.435.083-.51zm.701.195c.122-.268.508.169.315.32-.194.153-.391-.154-.315-.32zm.644-.345c.006-.026 1.54-.108 1.582.048.099.373-1.65.24-1.582-.047z"/><path d="M60.422 32.02c.211-.26.48.617.108.45-.244-.11-.174-.369-.108-.45zm.726.24c.173-.39.452.423.097.34-.22-.051-.13-.27-.097-.34zm-2.606 4.672c.08-.183.744-.168.605.14-.064.143-.74.172-.605-.14zm-9.976-14.127c.704-.604.661 1.194.202.966-.375-.185-.447-.756-.202-.966zm31.098 28.603c.355-.273-.017.692.05 1.003.022.1.186.234.233.373.117.34.028.802.076 1.045.055.268.276.426.161.533-.208.19-.412-.305-.461-.461-.09-.292.141-.51-.062-.652-.031-.023-.128.285-.134.429a15.75 15.75 0 00.025 1.882c.013.17.238.745-.103.756-.123.003-.25-1.55-.248-1.687.015-.76.07-2.376.363-3.102a.543.543 0 01.099-.12v.001zm-2.32 6.05c.05-.221.597.07.398.27-.131.13-.446-.064-.398-.27zm3.04-1.67c.283-.392.29.414.31.496.14.596.454 1.372.646 1.955.392 1.19.741 1.952 1.116 2.985.371 1.024.592 2.122.93 2.87.36.796 1.015 1.95 1.354 2.72.075.17.695 1.6.104 1.086-.175-.151-.378-.96-.404-1.014-.926-1.954-1.499-3.098-2.104-4.841-.67-1.938-1.685-4.372-1.94-6.149-.011-.066-.052-.055-.012-.108zm-3.239 2.369c.061-.265.742.315.678.44-.154.296-.704-.328-.678-.44zm-.283.925c.065-.278 1.33.34 1.216.565-.125.244-1.225-.521-1.216-.565zM79.696 58c.357-.285.509 1.908.025.962-.145-.284-.148-.865-.025-.962z"/><path d="M81.442 57.943c.067-.132.493-.146.496.15.002.191-.635.124-.496-.15zm-4.385 5.503c.126-.257 1.587.531 1.51.667-.058.1-1.632-.42-1.51-.667zm3.953-2.237c.236-.439.26.302.071.3-.23-.003-.172-.115-.072-.3zm-4.46 2.899l-.026-.042c.343-.17 2.063.458 1.857.853-.094.18-.434.018-.368.057-.076-.045.026-.157-.046-.259-.246-.351-1.514-.188-1.416-.61zm5.953-3.546c-.009-.198.523.188.91.35.386.163.788.367.579.559-.093.086-1.475-.606-1.49-.91h.001zm-5.941 4.114c0-.019.011-.09.056-.093.345-.02 1.91.653 1.94.803.028.144-.151.296-.212.305-.178.028-.13-.224-.154-.248-.402-.396-1.207-.316-1.551-.64a.455.455 0 01-.078-.126zm4.628-2.256c.162-.398.399.212.088.233-.176.011-.13-.126-.088-.233zm1.584-.878c-.01-.312.622.148.925.285.449.202 1.155.364 1.024.625-.134.272-.778-.31-.936-.392-.361-.193-.754-.251-.936-.393a.447.447 0 01-.077-.124v-.001zm-4.736 5.318c.034.03-.354.2-.33.206-.072-.016-.018-.32.02-.243-.113-.237-1.145-.188-.972-.543.049-.098.782.031 1.05.208.06.038.213.266.221.264.07-.019.028-.486.079-.336-.047-.14-.224-.03-.306-.21-.175-.389-.395-.227-.744-.457-.01-.006-.157-.152-.129-.206.122-.238 1.276.303 1.33.379.1.14.13.882.154 1.168.096 1.158.165 2.311.398 3.491.232 1.183.446 2.337.733 3.568.158.68.346 1.623.567 2.291.02.06.442.78.259.875-.183.096-.396-.422-.444-.528-.28-.616-.478-1.359-.589-2.05-.298-1.858-.797-3.507-1.049-5.268-.131-.93-.118-1.638-.221-2.565a.141.141 0 00-.026-.041v-.004zm3.235-3.574c.027-.062.349-.294.49-.135.277.309-.662.51-.49.135zm1.819-.674c.076-.326 2.149.471 1.914.76-.062.077-1.803-.626-1.836-.635-.083-.025-.092-.062-.078-.125z"/><path d="M76.97 66.89c.12-.236 1.091.366.957.612-.104.187-.278-.128-.415-.201-.272-.146-.69-.118-.543-.41zm4.705-2.587c.067-.154.7-.442.776-.14.054.213-.918.468-.776.14zm1.852-.815c-.008-.262.67.168 1.086.357.334.153.958.288.837.512-.063.118-.892-.225-.967-.259-.226-.102-.95-.403-.956-.61zm-6.627 4.31c.067-.29.776.086.683.265-.09.172-.72-.1-.683-.265zm4.635-2.895c.013-.05 1.041-.37 1.102-.17.105.345-1.159.42-1.102.17zm2.452-.495c.06-.265.59.103.884.31.38.27.889.384.713.59-.14.165-1.438-.654-1.562-.75-.07-.053-.044-.112-.036-.15zm-2.077 1.471c.078-.34 1.093-.678 1.09-.28 0 .067-1.153.551-1.09.28zm-4.494 3.211c.14-.27.33.054.28.17-.059.137-.4.063-.28-.17z"/><path d="M84.414 65.004c.124-.258.351.165.44.243.385.343 1.763 1.011 1.561 1.209-.096.095-1.592-.832-1.757-.972-.177-.148-.317-.327-.243-.48zm-5.061 3.222c.041-.148.271-.21.326-.032.052.174-.41.333-.326.032zm2.591-1.56c.055-.243 1.585-.633 1.591-.305.005.258-.281.089-.6.145-.314.057-1.063.465-.992.161v-.001zm-4.492 3.491c.064-.283.542.118.398.269-.114.12-.428-.135-.398-.27zm2.064-1.115c.138-.303.47.31.14.315-.173.002-.182-.224-.14-.315zm3.079-1.519c.026-.117 1.054-.643 1.132-.305.057.242-1.191.562-1.132.305zm2.451-1.417c-.003-.197.733.306 1.148.548.34.199 1.04.59.843.797-.272.287-.172-.051-.347-.185-.47-.365-1.184-.573-1.591-1.076-.012-.014-.052-.066-.052-.083v-.001zm-4.852 4.298c.137-.286.433.311.14.316-.18.003-.187-.218-.14-.316zm7.136-4.228c.115-.173.247-.058.414.202.294.457.917 2.226 1.064 2.9.09.414-.248-.133-.391-.444-.173-.37-.593-1.678-.807-2.027-.126-.207-.426-.409-.28-.632v.001zm-4.581 2.978c.05-.121 1.202-.694 1.328-.544.1.12-1.211.95-1.386.636-.01-.015.049-.076.057-.093zm3.167-1.75c.066-.282 1.279.889 1.231.958-.062.09-1.297-.67-1.23-.958zm-2.856 2.244c-.004-.144 1.445-.985 1.396-.528-.005.049-1.39.763-1.396.528zm-5.163 3.337c.084-.36.322.252.062.192-.084-.02-.064-.178-.062-.192zm2.428-1.458c.169-.38.478.192.18.289-.14.047-.232-.17-.18-.29zm3.156-1.109c.03-.126 1.343-.771 1.35-.326.001.055-1.403.56-1.35.326zm-2.138 1.45c.18-.333.275.295.352.47.568 1.278 1.104 2.364 1.463 3.63.464 1.641 1.112 3.148 1.254 4.68.07.758.06 1.448.056 2.207-.001.083.067.652-.207.59-.154-.035-.09-.805-.092-.977-.006-.306.023-.625.016-.987-.01-.507-.097-1.856-.305-2.053-.281-.267-1.096.148-1.551.278-.12.034-.957.136-.113-.274.346-.168 1.381-.213 1.498-.362.067-.082.047-.41-.065-.475-.243-.137-.876.46-1.298.408.117.015-.303-.072-.28-.17.034-.146 1.28-.239 1.48-.58.024-.042-.105-.527-.093-.516-.142-.135-.567.023-.61.036-.217.058-.56.247-.642.17-.387-.368.97-.422 1.045-.537.125-.194-.057-.463-.159-.532-.11-.075-.772.114-.992.16-.421.086-.51-.095.17-.28.269-.074.614-.133.698-.262.087-.135-.251-1.42-.414-1.584-.095-.094-.413-.139-.538-.123-.138.018-.555.301-.64.17-.233-.352.926-.47.92-.46.13-.22-.694-1.525-.874-2.043-.01-.03-.103-.535-.077-.584h-.002zm-.714.791c.347-.557.597.366.047.258-.216-.042-.082-.201-.047-.258zm6.162-3.849c.11-.224.455.151.398.269-.078.16-.532.002-.398-.27zm-2.947 2.188c.032-.09 1.1-.618 1.117-.238.008.186-.666.151-.782.315.189-.268-.116.261.021.217-.278.088-.41-.143-.357-.295v.001zm.656.68c.062-.267.323-.015.295.104-.029.124-.35.135-.294-.104z"/><path d="M81.217 73.788c.022-.065.695-.45.734-.114.029.249-.841.442-.734.114zm4.358-2.32c.026-.106.132-.172.207-.13.328.183-.294.513-.207.13zm1.757-.403c.046-.502.572.485.192.397-.225-.052-.197-.333-.192-.397zm-2.56 2.056c.068-.293.395.007.32.145-.082.151-.364.041-.32-.145zm-3.215 2.871c-.003-.135 1.346-.717 1.21-.18-.044.174-1.206.39-1.21.18zm4.583-2.515c.046-.05.283-.094.279.17-.002.133-.573.15-.279-.17zm1.555-.742c.149-.319.495.221.18.29-.138.03-.25-.14-.18-.29zm-2.466 1.77c.066-.284.375.008.253.128-.113.113-.282-.007-.253-.128zm-4.655 3.594s.04-.135.1-.119c.056.016.427.761.365.863-.151.253-.812-.408-.465-.744zm6.04-3.312c.195-.447.507.542.073.3-.103-.058-.11-.21-.073-.3zm4.349-1.967c.016-.071.123-.184.18-.172.446.104-.288.636-.18.171zm-4.045 3.564c.04-.14.154-.176.18-.171.423.08-.305.602-.18.17zm4.262-2.205c.183-.175.302.32.03.325-.168.004-.116-.244-.03-.325zm-9.068 6.297c.157-.34 1.79-1.005 1.79-.543 0 .17-.85.217-1.148.373-.248.128-.821.558-.643.17h.001zm4.993-3.06c.028-.122.75.02.791.254.065.377-.86.05-.79-.254zm2.198-1.083c.036-.16.23-.206.314-.14.31.235-.4.51-.314.14zm-6.663 4.615c.053-.228 1.211-.655 1.299-.408.068.197-.321.15-.673.305-.162.072-.726.533-.626.103zm4.33-2.642c0-.218 1.253.206 1.138.44-.085.172-1.138-.153-1.138-.44zm4.356-2.605c.08-.341.476.022.28.17-.138.106-.318-.005-.28-.17zm-4.366 3.416c-.002-.18 1.558.046 1.246.43-.056.07-.81-.13-.915-.176-.055-.023-.33-.217-.33-.253l-.001-.001zm2.856-1.784c.24-.3.264.746.167.818-.007.004-.234-.005-.27-.062-.122-.2.072-.116.12-.362.03-.169-.094-.295-.017-.393v-.001zm-3.121 2.465l-.026-.041c.13-.036 1.442.27 1.475.518.05.371-1.13-.079-1.41-.326-.069-.06-.047-.108-.038-.15zm4.621-2.824c.026-.117 1.058.22 1.048.207.393.557-1.155.252-1.048-.207zm-4.656 3.593c.054-.234.427.148.688.088-.012.002.159-.174.181-.17.32.055.674.515.647.574-.032.067-1.588-.182-1.516-.492zm4.676-2.919c.005-.194 1.276.234 1.04.56-.136.185-1.047-.265-1.04-.56zm-4.703 3.801c.049-.21.324.069.579.098.124.015 1.031.168 1.07.425.054.354-.353.084-.5.026-.275-.107-1.214-.264-1.149-.55zm3.306-1.891c.211-.118.252.556.01.569-.284.014-.104-.516-.01-.57zm1.403-.88c.063-.272.698.278.843.337.107.043.779.207.553.517-.118.164-1.445-.642-1.395-.854h-.001zm-.152.672c.068-.288 1.715.858 1.65.984-.128.242-1.341-.577-1.52-.777-.021-.023-.136-.18-.13-.207zm-1.378 1.667c.29-.267.335.64 0 .46-.197-.107.037-.428.01-.352.017-.05-.065-.058-.01-.108z"/><path d="M80.47 62.467c.16-.213.286.207.34.361.216.616.282 1.56.635 2.767.116.397.227.836.419 1.407.116.348.36 1.338.46 1.381.056.024.291-.194.371-.232.197-.095 1.56-.463 1.463-.052-.043.186-.665.057-.951.134-.188.05-.88.307-.833.232-.091.146.581 1.677.662 1.887 1.266 3.325 2.52 6.293 3.239 9.422.189.824.218 1.738.273 2.648.011.185-.05.738.016.853.075.133.594.355.878.486.086.04.939.319.713.59-.195.236-1.218-.814-1.51-.667-.126.062-.12.469-.134.428.01.024.563.476.822.58.144.059.817.159.661.506-.15.338-1.116-.635-1.4-.677-.18-.027-.256.231-.41.082-.201-.198.084-.669.094-.864.082-1.556-.21-3.256-.66-5.109-.832-3.417-2.641-7.282-3.808-10.793-.616-1.851-.957-3.61-1.332-5.264-.014-.064-.05-.06-.01-.11l.001.004z"/><path d="M85.718 69.48c.194-.233.356.448.517.827.661 1.558 1.375 3.067 1.72 4.504.145.604.355 1.11.584 1.763.28.803.274 1.872.376 2.813.1.92.046 1.906-.027 2.72-.13 1.488-.266 3.088-.772 4.565-.001.007-.15.62-.368.517-.26-.124.128-.772.093-.863-.137-.367-1.167-.759-1.576-1.143-.08-.073-.486-.38-.336-.538.072-.077.912.626 1.007.692.099.07.88.736 1.01.694.094-.03.26-.939.29-1.1.315-1.877.532-3.716.332-5.73-.08-.797-.053-1.664-.268-2.364-.18-.583-.45-1.15-.61-1.805a16.347 16.347 0 00-.516-1.747c-.433-1.183-1.354-2.54-1.488-3.672-.006-.053-.005-.09.032-.134z"/><path d="M86.774 82.684c-.01-.338.487.202.765.212.12.005.14-.125.232-.087.249.103.628.555.605.6-.112.232-1.389-.478-1.525-.6a.456.456 0 01-.078-.124h.001zm4.633-2.434c.097-.424.734.42 1.05.668.216.17.558.276.325.429-.125.083-1.443-.798-1.375-1.097zm-1.78 2.034c.042-.184.593-.25.594.032.001.227-.652.218-.594-.032zm1.583-.414c.08-.345.483.223.129.207-.115-.004-.151-.11-.13-.206zm-1.71 1.126s.521-.22.625-.103c.369.412-.81.49-.626.103zm-3.332 2.77c.109-.218 1.565.7 1.312.904-.132.109-1.403-.728-1.312-.904zm2.948-1.268c.083-.354.305.056.513.083.181.024.244-.129.299-.071.572.586-.919.449-.813-.011zm-.26.508c.089-.18 1.31.292.89.595-.095.067-1.01-.355-.89-.595zm2.027-.806c.171-.417.355.365.073.3-.216-.049-.096-.24-.073-.3zm-1.958 3.583c.505-.421.145.996-.145.78-.22-.163.045-.697.145-.78zm.848 4.13c.063-.072.404.008.305.21-.086.18-.53.046-.305-.21zm.793.71c.093-.175.343.043.28.171-.07.137-.419.09-.28-.171zm.713.593c.325-.471.352.557-.022.243-.093-.079-.043-.149.022-.243zm.281.628c.078-.121 1.236-.303 1.04.1-.133.27-.203-.049-.528-.015-.207.02-.794.357-.511-.084h-.001zm.938 1.14c.076-.332 2.125-.32 1.769.161-.127.171-.628-.14-1-.125-.18.007-.848.302-.77-.036zm1.369 1.273c.05-.22 1.59-.396 1.597-.02 0 .01-1.287.222-1.52.143-.057-.019-.093-.061-.078-.124v.001z"/><path d="M32.079 14.179c-.128-.28.132-.25.352-.45.169-.154-.07-.172.13-.253.515-.21 1.878.485 2.44.776.32.166.662.464 1.008.693.327.216.729.435 1.008.693.53.492.909 1.065 1.484 1.546.418.35-.074-.576-.165-.817-.15-.394-.244-.67-.352-.931-.477-1.151-.732-2.444-.883-3.532-.032-.225-.125-.593-.15-.884-.049-.577-.088-1.238.57-.47.065.079.37.578.469.57.18-.016-.13-.49.032-.595.258-.168.733.584.986.936 1.109 1.534 2.293 2.517 3.387 4.04.57.795 1.232 2.158 1.772 3.207.235.454.89 1.685.843 1.256-.178-1.552-.97-3.562-1.27-5.073-.344-1.716-.357-3.741.08-4.939.147-.405.42-.764.728-1.318.04-.07.579-1.3.942-1.163.335.126-.063.642.139.776.062.04.118-.371.269-.398.047-.008.541.326.584.382.227.293.239.8.418 1.407.09.302.247 1.284.393 1.365.115.064.093-.476.047-.2.073-.436.226-1.415.378-1.79.1-.247.363-.676.522-.729.253-.081.184.131.388.16.096.015.21-.176.29-.18.142-.006.022.134.238.197.245.072.327-.163.501-.026.176.14.322.794.361 1.041.092.57.08 1.456.217 2.28.056.337.143.673.196 1.143.053.475.268 1.776.248.766-.028-1.365-.013-2.77.606-4.003.203-.405 1.292-2.087 2.032-1.443.174.151-.026.54.105.626.1.067.127-.295.386-.3.264-.004.078.26.248.305.267.072.132-.39.414-.258.382.177.513 1.66.527 1.857.13 1.785-.149 3.121-.053 4.98.017.316.58-.953.57-.932.47-.869.775-1.464 1.412-2.434.319-.484.994-1.47 1.366-1.313.089.037.18.225.196.223.242-.046.09-.437.378-.408.217.02.199.484.31.496.247.026.124-.54.46-.46.258.06.67 1.47.678 1.82.006.338-.06.828-.145 1.242-.13.623-.451 1.34-.73 2.238-.224.723-.394 1.233-.734 1.954-.303.641.608-.298.894-.5.358-.254.735-.51.967-.662.532-.347 1.912-1.276 2.214-1.153.333.138.033.351.081.409.084.097.352-.162.414.201.06.358.202-.045.33.254.103.237-.08.308-.108.47-.027.157.053.397.026.502-.062.24-.392.737-.616 1.132-.503.89-.792 1.144-1.831 1.949-.28.216-1.46.97-.796.843.393-.076.916-.481 1.442-.73.223-.104.388-.029.584-.076 1.056-.254 2.661-1 3.227-.636.124.08-.005.162.165.357.107.124.28.093.32.145.07.088-.039.197.032.326.118.216.26.058.305.213.226.78-1.29 2.238-2.043 2.714-.615.39-1.199.773-2.012 1.2-1.066.557-3.263 1.26-4.24 1.497-.84.205-1.977.325-3.062.532.01-.002-1.53.05-.869.543.147.108.297-.085.6-.145.627-.124 1.733-.114 2.849-.227.466-.047.948-.154 1.426-.201.508-.051 1-.184 1.427-.202.286-.01.564.118.822.12.696.005 1.524-.07 2.177.078.746.169 1.497.704 2.15.958.335.13.849-.004.864.554.002.065-.13.239-.104.294.131.275.53.079.543.409.002.052-.213.293-.294.357-.611.477-1.64.577-2.121.75-.12.042-.125.084-.217.02.285.198.7.235 1.11.399.333.132.917.25 1.138.44.073.063.071.236.166.357.128.163.43.19.326.43-.006.012-.177.183-.181.17.014.053.471.259.419.486-.055.235-.697.222-.916.284-.695.2-1.172.529-1.794.72-2.364.723-4.155.036-6.298-.323-.609-.102.045.225.232.373 1.184.927 2.657 2.446 3.744 3.873.347.457.703 1.22.883 1.692.065.173.021.38.066.476.113.229.729.667.099.801-.442.095.36.13.284.456-.038.16-1.118.224-1.36.216-.182-.006-.417-.118-.604-.14-1.505-.174-3.248-1.197-4.602-2.302-1.093-.893-2.382-2.16-3.475-3.352-.56-.61.108.147.274.346 1.895 2.28 3.546 5.08 4.362 7.63.22.682.454 1.873.258 2.254-.04.077-.351.337-.362.342-.167.051-.486-.174-.58-.099-.282.231.715 2.022.957 2.452 2.462 4.373 5.288 9.257 8.29 13.457.426.597.965 1.353 1.447 1.857.502.526 1.207.822 1.706 1.35.72.765 1.479 1.673 2.114 2.648.743 1.143 1.042 2.49 1.814 3.641.848 1.262 2.165 2.95 3.06 4.07.413.518-.092-.915-.154-1.168a14.077 14.077 0 01-.352-2.312c-.048-.761-.137-1.456-.217-2.28-.038-.398.059-.812.037-1.23-.068-1.222-.234-2.512-.295-3.786-.075-1.592.302-3.196.441-4.82.132-1.528.629-3.064 1.046-4.678.199-.768.482-1.49.88-2.276.331-.653.776-1.803 1.443-2.108.989-.452 1.167.928 1.52 1.696.268.584.502 1.016.882 1.69.424.751.69 1.59.956 1.991.09.136.27.251.342.362.906 1.398 1.48 2.858 2.409 4.132.99 1.36 2.395 2.547 3.437 4.122.343.519.587 1.119.924 1.665.602.972 1.153 1.744 1.593 2.917.324.869.573 1.833.85 2.747.829 2.714.948 5.085 1.002 7.772.033 1.64-.204 3.22-.674 4.908-.403 1.452-1.411 3.486-2.85 4.369-.127.08-.827.211-.88.433-.026.118.747.794.854.906 1.885 1.95 4.19 3.63 6.048 5.08.263.205.676.371.859.73.194.378.088 1.46-.219 1.861-.808 1.065-1.508.183-2.393-.517-.954-.753-1.795-1.586-2.766-2.586-.265-.274-.928-.772-1.2-1.092-.76-.9-1.57-1.849-2.46-2.834-.251-.28-.735-.851-.946-.963-.174-.091-.42.005-.594-.032-.515-.106-1.57-.632-2.042-.966-1.152-.817-2.445-2.507-3.52-4.071-.746-1.085-1.453-2.416-2.03-3.62-.258-.535-.385-1.122-.656-1.603-.864-1.527-2.175-2.863-3.299-4.267-.395-.494-.852-1.121-1.343-1.692-.576-.666-1.235-1.524-1.84-1.842-.457-.239-.91-.277-1.417-.61a20.442 20.442 0 00-3.025-1.619c-1.103-.486-2.14-1.193-3.31-1.614-1.19-.43-2.198-1.046-3.292-2.143-1.06-1.063-1.73-1.684-2.622-3.367-.32-.606-1.131-2.627-.01-2.41.251.048.46.28.719.413.701.364 1.75.664 2.668.865.71.155 2.094.23 2.952.4-.073-.015.406.077.419.026.05-.211-1.05-1.625-1.282-1.961-2.223-3.224-4.277-6.137-6.316-9.743-.415-.735-.939-1.604-1.441-2.492-.616-1.09-1.12-2.43-1.628-3.067-.548-.686-1.198-1.258-1.727-2.028-1.094-1.593-2.044-3.183-2.573-4.95-.274-.914-.523-1.708-.657-2.523-.029-.182.062-.831-.145-1.06-.041-.048-.266-.184-.402-.094-.12.08-.167 1.012-.186 1.267-.045.568.078.874.149 1.345.108.721.02 1.454.19 2.239.157.726.372 1.464.569 2.29.159.672.098 1.46.18 2.13.165 1.352-.002 2.7-.404 4.05-.177.592-.435 1.467-.855 1.856-.237.22-.525.325-.672.304-.077-.01-.124-.163-.263-.237-.145-.078-.194.012-.269-.063-.157-.153-.31-.445-.465-.744-.341-.66-.489-1.694-.842-2.637-.101-.273-.297-.516-.382-.797-.258-.863-.272-1.691-.294-2.403-.017-.566.06-1.358.073-2.002.014-.757-.246.265-.326.492a7.366 7.366 0 01-.404.827c-.789 1.379-1.778 3.814-2.96 4.84-.254.22-.769.454-1.022.294-.156-.099-.02-.196-.1-.341-.144-.268-.479-.38-.526-.476-.155-.31-.084-1.112-.063-1.572.114-2.487.728-4.99 1.879-7.212.673-1.301.864-2.461 1.868-3.64.208-.246.8-.658.796-.843-.003-.12-.542-.604-.605-.6-.288.02-.488.929-.533 1.08-.312 1.06-.753 2.064-1.324 3.13-.433.806-1.011 1.52-1.76 2.248-.574.56-.942 1.265-1.706 1.872-.814.645-1.374 1.198-2.136 1.737-.707.5-2.28 1.431-2.58 1.208-.406-.301-.376-1.444-.273-1.727.19-.525.525-.94.734-1.494.473-1.254.734-2.766 1.511-3.934.279-.42.69-.737.983-1.19.122-.189.111-.39.233-.547.182-.235.372-.29.585-.537.036-.043.457-.56.45-.57-.091-.097-1.36.643-1.469.688-1.316.55-3.116.738-4.53.76-1.28.018-2.095.01-3.232-.57-.233-.12-.551-.29-.853-.445-.125-.065-.783-.34-.796-.538-.023-.348.386-.14.44-.217.037-.054-.092-.11-.088-.233.001-.055.179-.563.207-.589.208-.186 1.241-.33 1.733-.449 1.177-.286 2.234-.915 3.506-1.385a45.749 45.749 0 003.125-1.26c.662-.302 1.342-.383 2.006-.564.643-.174 1.313-.423 1.965-.537.315-.055 1.67.114 1.763-.123.186-.463-1.377-.363-1.545-.358-.677.023-1.246-.07-1.733-.01-.956.117-1.716.546-2.669.976-1.253.566-3.217 1.021-4.53 1.22-.894.134-2.204.425-3.258.308-.301-.032-.903-.087-.91-.352-.01-.298.284-.143.403-.367.06-.112-.099-.134-.113-.274-.01-.084.088-.17.088-.227 0-.384-.054-.49.228-.834.374-.455.263-.319-.207-.33-.324-.009-1.731-.145-1.851-.57-.08-.281.297-.284.326-.491.017-.119-.238-.119-.248-.305-.006-.113.297-.519.382-.584.262-.199.728-.256 1.055-.43 1.287-.678 2.533-1.73 4.003-2.154.661-.191 1.519-.268 2.228-.299.78-.034 1.594-.098 2.125-.005 1.016.178 1.76.689 2.793.787.386.037-.322-.508-.651-.858-.276-.292-.577-.7-.812-.931-.251-.245-.673-.453-.875-.662-.38-.396-.766-1.025-1.199-1.552-.421-.511-.96-.918-1.246-1.35-.198-.297-.275-.642-.435-.879-.43-.638-.923-1.273-1.276-2.136-.096-.236-.296-2.027.44-1.138l.007-.012zm11.86 6.741c-.16-.306-.855-1.189-.652-1.319.17-.107.795.96.925 1.205.22.41.506 1.564.89 1.516.146-.019-.006-.615-.021-.678-.33-1.384-1.25-2.822-2.005-4.038-.372-.599-.701-1.525-1.246-2.27-.928-1.271-1.677-2.08-2.626-3.193-.153-.179-.68-.863-.719-.874-.063-.018-.335.318-.32.316-.207.045-.748-.612-.832-.688.04.036.047.727.056.828.066.689.18 1.062.409 1.758.113.345.096.653.149.884.104.449.578 1.644.687 1.93.291.758.619 1.51.992 2.14.112.191.83 1.245.992 1.221.015-.002.13-.338.088-.227.037-.1.229-.713.238-.724.163-.174.252.023.248-.155-.003-.163-.255-.555-.294-.564-.262-.06-.44 1.149-.786.951-.038-.02.135-.534.181-.63.062-.13.322-.556.382-.585.372-.17.551.305.74.631.776 1.34 1.969 2.784 3.08 3.828-.226-.28-.293-.756-.558-1.262h.002zm-9.151-5.903c.247.297.75.678 1.157 1.117.536.575.927 1.057 1.334 1.582-.122-.156.465.412.336.538-.179.175-.955-.869-1.106-1.035-.649-.71-2.869-3.306-3.614-3.207-.543.071-.17.402-.44.678-.096.099-.225-.052-.274.113-.049.165.55 1.723.786 1.81.068.027.694-.482.776-.138.038.16-1.077.544-.389.76.056.018 1.257-.578 1.045-.077-.062.146-.739.136-.797.381-.065.283.154.187.248.305.054.068.136.297.249.305.158.01.517-.459.65-.522.073-.035.17.088.27.062.275-.07.003-.283.264-.223.143.034.575.598.878.946.65.747 1.797 1.81 2.14 2.229-.098-.122.424.48.228.548-.153.053-.18-.19-.461-.46-.3-.288-.65-.502-.832-.688-.435-.447-1.296-1.463-1.69-1.878-.28-.294-.335-.554-.492-.326-.14.206-.823.357-.843.585-.02.226.756.935.812.93.15-.009.004-.066.113-.186.133-.143.467-.548.59-.253.121.292-.633.548-.64.63-.016.155.31.44.391.445.305.02.944-.95 1.014-.403.032.258-.854.606-.844.585 0 0 .09.316.15.423.235.42.753.771 1.117 1.143.69.709 1.333 1.556 2.037 2.064.664.478 1.5.756 2.105 1.16.143.094.646.625.78.605.154-.025.45-.686.42-.895-.039-.272-.492-.8-.595-.952a23.515 23.515 0 00-.936-1.313c-.224-.286-.81-.914-.62-.993.13-.055.997.942 1.364 1.449.2.273.355.617.62.993l.43.595c.652.11-.261-1.062-.305-1.133-.139-.221-.31-.667-.382-.796-.795-1.412-1.538-2.62-2.486-3.796-1.64-2.031-3.426-3.874-5.496-4.563.606.533.612.465.936.854l.002.002zm9.47-5.282a4.87 4.87 0 00-.286.926c-.05.264-.14.865-.155 1.132-.101 1.719.536 4.201 1.048 6.19.245.951.434 1.827.693 2.673.19.627.33 1.558.816 1.216.295-.207.19-1.605.234-1.928.102-.787.24.705.232.832-.017.284-.07.54-.078.797-.02.734.603-.408.667-.59.628-1.777.845-4.43.044-6.929-.071-.22.038-.446.004-.636-.028-.16-.178-.348-.226-.548-.09-.357.006-.731-.026-.962-.073-.502-.324-1.122-.491-1.707-.125-.439-.369-1.596-.574-1.655-.185-.055-.154.26-.388.3-.406.068-.314-.559-.497-.61-.083-.024-.23.2-.222.196-.315.218-.636.939-.797 1.303h.001zm5.217 1.63c.044.42-.003.854.056 1.288.057.425.211.656.243.94.062.58.04 1.158.067 1.857.01.26-.118 1.359-.233.549-.093-.653-.01-1.84-.066-2.316-.034-.286-.218-.642-.258-.874-.093-.542-.042-1.175-.15-1.805-.044-.26-.097-.559-.109-.91-.009-.264-.099-.849-.067-.936.057-.156.275-.112.196-.237-.19-.304-.211.084-.518.093-.092.002-.328-.306-.428-.135-.438.749-.691 2.678-.616 3.434.056.556.265.853.362 1.5.206 1.38.455 2.632.453 3.858 0 .448.1.912.057 1.287-.11.95-.328 1.302-.507 2.043-.13.535.347.23.677-.021.566-.431.772-1.103.983-1.65.644-1.66.86-3.153.582-4.964-.052-.332-.212-.64-.27-.982-.185-1.11-.179-2.247-.511-3.305-.142.413.01.85.056 1.288v-.002zm3.537-2.439c.317-.33-.306-.428-.43-.135-.055.133.23.344.43.135zm.383.796c-.085.163-.394.013-.501.026-.12.013-1.138.193-1.143.196-.225.152-.535 1.28-.59 1.633-.127.84.084 1.84 0 2.761-.019.196-.154.368-.166.563-.032.543.152 1.01.077 1.505-.168 1.113-.366 2.293-.653 3.283-.128.443-.39.794-.414 1.18-.024.376.055.842.259.413a16.752 16.752 0 001.33-4.224c.051-.311.278-.802.33-.208.028.315-.12.845-.165 1.024-.32 1.27-.586 2.017-1.055 3.191-.03.077-.424 1.03-.04.486.105-.149.661-1.376.889-1.246.168.098-.496 1.042-.55 1.148-.371.752.342.344.776-.139.153-.17.346-.471.521-.729a13.76 13.76 0 001.201-2.13c.257-.564.617-1.085.875-1.64-.004.008.068-.163.088-.227.339-1.098.227-2.411.244-3.662.009-.556.084-1.134.042-1.866-.028-.494-.135-1.814-.361-1.96-.184-.117-.184.088-.343.098-.185.013-.222-.057-.31-.036-.103.024-.187.186-.33.207-.225.034-.238-.165-.415-.201-.259-.055-.86.092-.967.202-.81.824 1.685-.253 1.37.351h.001zm-26.91 16.865c-.017.257-.476.229-.486.42-.012.222.622.22.725.238 1.733.296 4.143-.13 5.812-.64 1.39-.424 3.15-.3 4.514-.231 1.01.05 2.188.1 3.315.057.32-.012 1.01.06 1.152-.088.031-.031.077-.35.025-.419-.074-.1-.187.062-.258.046-.278-.056-.02-.193-.28-.171.06-.005-.12.199-.154.212-.24.095-.75-.088-1.04-.098-.415-.014-.762.07-1.07.035-.359-.04-1.044-.306-1.41-.326-.485-.026-1.787.134-2.235.015-.68-.181.7-.309 1.066-.32.234-.006.656-.01.811.011.56.077 1.34.342 1.924.409.326.038 1.941.001 1.453-.16-.467-.153-.74-.205-1.17-.305-.545-.128-.912-.09-1.375-.176-.579-.108-1.021-.261-1.629-.305-.265-.02-1.021-.145-.558-.341.5-.213.267-.544.548-.688.122-.061.296-.032.336.078.073.196-.565.443-.372.692.113.15 1.077-.651.58-.821-.373-.127-2.093-.615-2.426-.384.066-.045-.08.289-.233.549-.159.27-.596.569-.165.563.161-.002.215-.004.247-.155.056-.258.576-.821.58-.821.757-.148-.466.928-.46.92-.134.167-.029.263-.145.32-.196.1-1.606-.082-.942-.217.37-.074.22-.059.362-.341.165-.326.522-.678.377-.869-.034-.046-.664-.084-.744.005.018-.02.072.43.088.233-.013.15-.312.875-.548.688-.212-.168.396-.761.217-.941-.035-.036-.855.1-1.168.154-1.586.28-3.447 1.61-5.027 2.45-.205.11-.44.17-.496.31-.12.306.284.034.259.414v-.002zm14.522-7.23c-.119.292-.266.525-.052.838.328.477.333-.423.563-.755.084-.12.188-.093.181-.171-.029-.31-.45-.457-.46-.46.006 0 .022.043.027.041-.062.022-.198.357-.259.507zm-5.835 7.326c-.336.018-1.825.012-2.038.237-.08.085.085.822-.026.88-.41.21-.193-.837-.573-.736-.15.04.068 1.154-.404.828-.128-.088.092-.604-.046-.719-.02-.016-.644.056-.868.083a16.19 16.19 0 00-1.85.35c-.491.119-1.364.188-1.66.75-.015.026-.04.467.01.569.143.293.24.14.149.424-.13.403.32.188.672.155.497-.046.853.015 1.204-.004.643-.035 1.257-.222 1.919-.336.625-.107 1.338-.106 1.862-.242 1.125-.294 2.792-1.063 3.874-1.442.177-.063.499-.045-.026-.042.008 0-.288.012-.61.036-.419.033-1.43.271-1.878.31-.044.003-.639.162-.579-.099.05-.213.68-.12.776-.139.414-.086.814-.305 1.257-.381.69-.122 1.51.003 1.93-.228-1.119.069-1.903-.32-3.093-.255h-.002zm6.238-5.853c-.01-.023.7.772.775.781.177.023.278-.92.285-.925-.062.057.26-.035.259-.046-.024-.252-.052-.03-.171-.181-.578-.735-.217.748-.563.755-.462.008.168-1.239.16-1.308-.043-.4-.333-.253-.33-.253-.217.082-.549.863-.414 1.18l-.001-.003zm-4.278 3.19c.004-.012-.336.458-.275.573-.004-.008 1.078.284 1.102.29.33.082.921.095 1.443.192.17.032 1.932.482 1.163.02-.558-.333-1.1-.483-1.644-.698-.407-.16-1.604-.63-1.8-.486-.058.043.025.06.011.109zm21.34-12.524c-.06-.008-.333-.362-.341-.362-.261 0-1.093 1.254-1.35 1.706-.166.293-.29.622-.46.92-.184.321-.422.69-.502.947-.023.076.058.243.015.394-.442 1.548-1.736 3.387-2.349 4.803-.07.163-.432 1.276-.326 1.413.103.133.309-.096.322.144.014.277-.387.129-.382.125-.05.046-.158.629-.202.873-.061.332-.13.79-.037.77.176-.039.586-.679.73-.857.606-.754.973-1.448 1.582-2.255.042-.054.21-.461.337-.382.183.114-.348.794-.419.894-.236.334-.42.718-.527.905-.396.688-1.236 1.428-1.578 2.078.263-.28.486-.37.776-.6 3.107-2.449 4.788-5.102 5.69-7.926.063-.2.027-.456.088-.688.21-.797.61-1.505.384-2.425-.078-.316-.283-.773-.316-.78-.154-.035-.18.371-.284.466-.121.109-.127-.138-.275.113-.113.193-.13.826-.196 1.158-.165.838-.25 1.47-.636 2.295-.153.326-.783 1.547-.622.848.104-.454.574-1.206.698-1.644.29-1.017.398-2.312.57-3.232-.112-.013-.184.33-.387.3h-.003zM42.537 21.621c-.077.118-.173.061-.166.104.058.305.269.216.476.393.35.298.902 1.132 1.36.703.391-.366-.551-.993-.801-1.283.133.156-.133-.27-.222-.263-.202.017.002.722-.254.791-.5.134.436-1.468-.114-1.194-.197.098-.116.498-.28.75zm-.186.807c.148.292.49 1.34.895 1.34.258 0 .442-.47.366-.517-.312-.2-1.477-1.361-1.52-1.237-.04.12.172.24.26.414zm7.52-2.97c-.202.54-.391 1.189-.533 1.539-.046.113-.338.425-.207.59-.016-.02.516.027.527.015.088-.08.033-1.085.063-1.19.102-.354.706-1.923.57-1.85-.224.118-.324.64-.42.895zM33.397 34.52c1.01-.122 2.626-.562 3.58-1.085 2.02-1.108 2.418-2.823 4.4-3.726.094-.043.594-.06.657-.238.164-.464-.707-.482-.811-.47-1.075.116-3.041 1.05-4.22 1.714-.247.14-.6.465-.744.465-.03 0-.327-.244-.33-.253-.078-.163.162-.064.118-.362-.022-.149-.171-.14-.155-.248.03-.198.28-.6.487-.419.176.156-.223.865.014.854.127-.006 1.405-.796 1.376-.744.049-.085-.132-.05-.197-.222-.09-.24.274-.62.104-.755-.124-.098-.85.206-.941.243-2.151.886-4.88 2.584-7.102 2.997-.296.055-1.413.091-1.592.305 0 0-.02.492-.015.527.058.438 1.334.181 1.753.228.016.002.522.018.521.191.001.269-.963.075-1.044.078-.446.008-.967.124-1.112.061-.115-.05-.156-.4-.28-.171 1.499 1.088 3.543 1.27 5.534 1.031l-.001-.001zm9.616-9.745c-1.086 1.134-1.35 2.099-1.066 3.542.082.415.393.77.532 1.22.044.14-.012.291.041.434.047.127.196.192.249.306.104.224.024.432.144.6.146.202.27.118.424.31.11.138.083.324.176.465.173.266.96.929 1.225 1.133.856.663 2.087 1.339 3.112.931.224-.089.338-.275.538-.336.255-.076.484.139.755.105.103-.014.297-.136.465-.176.505-.121 1.684-.765 2.147-1.168.38-.331.622-.918.946-1.339.465-.605.756-1.254.843-1.965.164-1.322-.261-2.866-.903-4.209a7.904 7.904 0 00-.578-1.019c-.33-.477-1.185-1.344-1.593-1.536-.115-.055-.871-.229-1.267-.186-.22.023-.437.214-.656.238-.291.03-.561-.143-.756-.104-.528.108-1.11.488-1.753.693-.637.203-1.105.138-1.655.574-.598.473-.856.952-1.37 1.49v-.003zm-4.323 2.47c-.007-.01-.182.022-.124.079.039.037.164-.021.124-.078zm1.556.006c.387.007 1.046.226 1.23.037.069-.071.01-.473-.025-.502-.261-.221-.761.228-1.107.346-.486.167-1.04-.027-1.343.15.335.054.719-.04 1.245-.03zm-2.27 2.627c.077.004.18-.131.331-.207a17.38 17.38 0 012.068-.832c.198-.062 1.53-.181.93-.352-.287-.082-.21-.033-.485-.042-.55-.016-2.572.224-2.818.552-.144.192-.08.877-.026.88v.001zm14-8.342c-.193.22-.773.541-.765.708.007.125.64.583.672.615.275.27.352.298.403.093.113-.446.086-.917.161-1.308.101-.522.524-1.369.321-1.235-.245.16-.461.754-.792 1.127zm1.478 4.024c.145.02.527-.418.818-.626 1.475-1.055 3.158-2.095 4.779-3.215.668-.462 1.483-1.242 1.97-1.632.31-.247.725-.476.94-.704.417-.437.81-1.224 1.04-1.742.582-1.307-.403-.218-.764.248a16.06 16.06 0 01-1.764 1.964c-.15.142-.935.965-1.106.807-.15-.138.37-.504.408-.543 1.139-1.136 2.144-2.106 2.898-3.19.014-.021.377-.52.165-.563-.27-.053-.265.425-.491.595-.94.704-1.83 1.348-2.58 2.129-.13.134-.797.896-.896.962-.538.356-.395.006-.392.015a1.075 1.075 0 01.113-.186c.84-.824 2.127-2.12 3.006-2.74.411-.29.806-.543.848-.76.117-.599-.45-.157-.91.109-1.184.683-1.868 1.218-2.903 1.985-.689.51-1.26 1.46-1.737 2.006-.276.314-.766.855-1.133 1.225-.174.174-1.139.87-.59.713.272-.077 1.427-.259 1.438-.092.017.28-1.066.227-1.117.238-.182.037-.37.183-.506.2-.16.021-.31-.075-.42-.025-.095.043-.365.347-.625.563-.913.755-1.201.864-.677 1.862.151.288.032.376.19.398l-.002-.001zm-12.008 5.085s.812-.153.838-.408c.047-.48-.681-.237-.847-.16-.878.404-1.963 1.561-2.421 2.201.742-.413 1.729-1.3 2.431-1.634zm11.358-6.865c-.051-.039-.176.01-.165.104.014.122.24-.045.165-.104zM39.236 38.985c.499-.497.803-1.22 1.195-1.493.55-.384.958-1.072 1.242-1.697.257-.565.54-1.14.78-1.696.198-.456.237-.981.393-1.396.076-.2.41-.627.404-.828-.006-.19-.255-.585-.362-.579-.225.015-.521.947-.631 1.2-.443 1.02-.665 1.473-1.128 2.43-.154.32-.652 1.16-.859 1.112-.167-.04.04-.303.093-.404.229-.433.538-1.095.704-1.36.402-.646.682-1.52 1.014-2.243.331-.722-.35-.009-.714.33-.675.633-1.053 1.105-1.608 1.752-.301.349-.844 1.05-.932.811-.065-.178.13-.243.27-.398.37-.414.724-.89 1.064-1.24 1.203-1.23 1.641-1.59 2.163-2.156.11-.12.103.099.207-.129.23-.503-.833-.046-1.127.128-1.29.767-2.352 1.43-3.237 2.368-.19.2-1.188 1.333-1.237 1.52.027-.104.38 1.15-.032 1.054-.174-.04.033-.713-.221-.724-.029-.001-.346.42-.352.45-.049.226.502 1.054.237 1.116-.206.05-.34-.406-.377-.512-.14-.393-.406.08-.424.15-.093.372.684 1.186.154 1.168-.215-.007-.12-.594-.346-.647-.12-.027-.229.316-.227.372.002.342.737 1.237.248 1.226-.256-.006-.239-.763-.383-.796.015.003-.169.202-.186.346-.028.224.733 1.615.371 1.608-.254-.004-.265-.85-.553-.977-.096-.043-.09.305-.113.186.016.086.164.054.197.223.014.078-.05.25-.01.351.07.18.645.983.2.968-.233-.009-.398-1.204-.572-.735-.078.209.008.519.113.734.14.289.58.93.15.884-.062-.006-.32-.485-.362-.58-.102-.222-.03-.428-.15-.423-.038 0-.176.468-.176.455.002.112.54 1.062.145 1.06-.335-.002-.095-.623-.306-.672-.081-.019-.417.6-.404.828.01.165.243.502.31.496.128-.01.34-.347.585-.538.951-.743 2.058-1.74 2.819-2.393.063-.054.29-.507.43-.326.11.144-.366.52-.508.662-.862.867-1.878 1.731-2.809 2.502 1.899-1.007 3.578-2.276 4.857-3.551v.003zm15.243-13.72c-.382.291-.93.71-.88.895.11.39.337.02.352.01.07-.042.206-.033.3-.072.846-.355 2.282-.797 2.86-1.038.524-.219 1.038-.511 1.495-.646.066-.02.455-.225.46 0 .003.156-1.543.817-1.691.884-.557.254-1.688.495-2.064.656-.406.176-.661.373-1.029.47-.125.035-.55.06-.45.11.13.062.779-.038.937-.068.21-.04.406-.183.615-.212.698-.096 1.376-.046 2.063-.196 1.82-.396 3.86-.908 5.927-2.206.723-.454 1.757-1.196 2.277-1.881.126-.168.358-.645.279-.75-.005-.008-.186.126-.207.13-.144.023-.247-.33-.316-.321-.154.018-.77.843-1.143 1.116-.416.306-1.02.677-1.448.905-.136.072-.583.397-.641.17-.049-.187.523-.4.76-.532.764-.43 1.26-.78 1.743-1.262.196-.196.791-.734.274-.575-.195.06-.577.087-.723.222-.08.072-.206 1.024-.486.879-.286-.147.475-.889-.073-.76-.763.178-1.722.711-2.461.848.498-.092-.387.142-.336-.078.04-.178.959-.376 1.247-.491.57-.228.995-.427 1.287-.517.426-.132 1.984-.425 1.98-.604-.003-.266-.774-.094-.904-.068-.969.191-1.703.421-2.747.853-1.355.56-2.532.921-3.775 1.782-1.098.762-2.539 1.628-3.48 2.348h-.002zM44.512 35c-.184-.042-.017-.773 0-.92.02-.166.217-.958.124-.998-.15-.065-1.089.882-1.138.941-.668.806-.826 1.7-1.257 2.683-.314.715-.801 1.38-1.02 1.96-.281.75-.353 1.683-.496 2.611-.086.544-.28 1.048-.332 1.588-.055.584-.174 1.176-.17 1.659 0 .182.095.37.093.517-.006.355-.231.748-.068.905.13.125.118-.045.259-.046.66-.007-.026.596.17.641.076.017.554-.367.677-.48.48-.44.863-1.236 1.288-1.898.61-.947 1.009-1.803 1.408-2.72.235-.539.499-1.037.642-1.55.159-.575.138-1.132.17-1.66.047-.75.294-1.49.27-2.239-.025-.805-.21-1.535-.2-2.348-.288.078-.041 1.443-.42 1.355zm9.594-5.82c.1.1 1.234-.155 1.712-.205.547-.058 1.344-.155 1.696-.139.368.017.808.336.895-.041.066-.285 1.104-.582.424-.61-.836-.034-2.481.144-3.216.282-.147.029-.452.258-.585.078-.265-.36.63-.332 1.08-.387.765-.095 1.516-.182 2.173-.207.363-.014.923-.068 1.024.166.181.419-.922.846-.378.869.21.009 1.064-1.002 1.128-.59.02.131-.57.384-.533.62.015.09.476.18.724.24.75.176 1.663.32 2.234.444.216.047.51.247.683.263.455.042 2.056-.212 2.502-.412.253-.114.679-.377.703-.44.072-.175-.508-.045-.64-.289-.11-.2.227-.299.098-.579-.033-.07-.633-.39-.904-.528-1.397-.704-2.807-.762-4.364-.724-1.088.025-2.253.37-3.33.47-.499.046-1.032.072-1.495.185-.245.06-.453.217-.698.263-.335.063-.685-.041-.858.19-.054.073-.165.989-.073 1.08l-.002.002zm-8.695 5.604c-.004.39.12.599.16.992.01.103.022.88.108.45.081-.404.697-2.038.529-2.285-.06-.086-.305-.068-.43-.134-.306-.164-.235-.217-.32-.145-.075.063-.045.908-.047 1.122zm2.898 13.202c.249-1.57.71-3.253.657-4.84-.009-.282.15-.568.162-.848.019-.535-.23-1.086-.383-1.717-.094-.389-.101-.863-.19-1.319-.088-.438-.264-.888-.326-1.35-.043-.32.025-.645 0-.92-.028-.307-.167-.605-.227-1.009-.041-.273.015-.597.04-.946.02-.25.11-.847-.024-.962-.09-.077-1.089.094-1.153.087-.154-.014.93.716.785.89-.207.248-.818-.568-.987-.476-.553.302 1.086 1.092 1.034 1.194-.184.362-1.183-.587-1.313-.445-.264.288 1.22.842.941 1.139-.17.181-.965-.68-1.049-.668-.204.03-.335 1.002-.42 1.355-.358 1.482-.47 2.88-.518 4.234-.033.954-.017 2.077.17 2.943.215.997.686 1.927 1.11 3.16.052.152.21.967.543.868.276-.08-.064-.638-.098-.802-.095-.458-.13-.923-.166-1.277-.102-1.025-.251-1.872-.241-2.782.006-.659.173-.205.237.197.192 1.211.199 1.928.382 3.098.077.488.233 1.508.321 1.064.092-.463.198-.783.238-1.183.014-.138-.02-1.363.176-1.375.216-.015.18.553.165.356.01.125-.02.322-.026.42-.045 1.046-.233 2.03-.528 2.745.226-.195.654-.622.688-.833v.002zm5.33-17.248c.07.155 1.577.972 1.768 1.08 1.459.83 2.616.872 4.215 1.222 1.58.348 3.17.437 4.799-.236.28-.116 1.7-.537 1.66-.75-.033-.184-.398-.05-.377-.052-.439.042-.687.047-1.178.047-.29 0-.624.041-.786.03-.239-.017-1.2-.19-1.126-.33.127-.243 1.307.051 1.297.052.788.023 1.51-.173 1.982-.145.1.006.433.15.47.11-.083.09-.124-.492-.16-.534-.076-.087-.639-.336-.987-.476-.514-.207-1.197-.247-1.747-.404-.575-.165-1.138-.257-1.79-.378-1.3-.24-2.855-.733-3.997-.782-.868-.038-1.948.187-2.88.361-.285.053-.72 0-.9.217-.05.06-.319.83-.26.967h-.003zm-.63.74c.069.163.403.06.578.097.233.05.712.2.968.259.645.15-.98-.789-1.22-.848-.068-.017-.13.08-.124.077-.082.05-.29.21-.203.414zm-3.637 2.558c.089 1.177.618 3.902 1.513 5.554.163.3.356.71.543.87.049.04 1.123.142.838.511-.038.05-.523-.19-.553-.056-.012.048.243.471.335.537.18.128 1.475-.113 1.072.424.036-.048-1.47-.234-.617.212.21.109.822-.133 1.07-.036.122.048.44.171.342.362-.03.06-1.182-.244-1.246.031-.033.142.08.007.228.088.418.23.53.158 1.09.182.15.005.899.082.651.398-.114.147-.439-.105-.47-.11-.24-.03-.998.03-1.003.052-.01.042.306.486.377.511.16.059-.032-.16.238-.263.128-.048.703.112.889.134.029.004.962.078.677.44-.106.135-.42-.133-.564-.165-.08-.017-1.049-.058-1.054-.032-.074.318.778.403.827.404.138.005.594-.06.894-.04.217.012.897.132.585.382.08-.063-2.352-.23-1.411.134.413.161 1.118.047 1.514.031.07-.002 1.113-.054.77.497-.106.17-.915.072-1.045.077-.949.032.511.657.605.6.077-.047.013-.396.15-.498.243-.178.728.066.776-.139.05-.216-.522-1.358-.578-1.479-.182-.379-1.028-1.736-.703-1.862.2-.078.708 1.328.274.346.333.756 1.03 2.13 1.297 2.814.05.128.084.733.372.227.215-.374-.173-1.238-.34-1.743-.735-2.214-2.172-4.788-3.742-6.635-.853-1.003-1.762-2.45-2.492-3.16-.278-.27-.931-.533-.947-.042-.01.28 1.35 1.33 1.783 1.935.469.652 1.076 1.37 1.38 1.84.057.089.444.77.233.833-.19.056-.33-.438-.43-.595-.54-.864-1.777-2.36-2.455-3.01-.069-.066-.884-.907-.92-.92-.256-.096-.767.25-.765.247-.005.008.009.098.01.109l.002.003zm2.41-1.39c-.271.184-.533.155-.278.29.581.309 1.195 1.151 1.685 1.592.15.137.354.201.49.327 1.491 1.366 2.619 2.986 4.199 4.05.435.293 1.07.603 1.639.875.576.275 1.235.645 1.669.74.137.03 1.868.163 1.06-.144-.708-.27-1.377-.81-2.116-1.268-.296-.184-.789-.678-.14-.316.574.32 1.806 1.214 2.223 1.257.196.02.27-.096.45-.109.061-.005.324.132.326-.031 0 .043-.242-.1-.28-.172-.05-.096.051-.299.026-.419-.093-.442-.538-1.044-.848-1.54-.632-1.013-1.4-1.936-2.13-2.582-.226-.2-.526-.322-.729-.522-.06-.06-.029-.163-.087-.232-.602-.728-1.72-1.301-2.43-1.589-.318-.128-.614-.366-.854-.444-.41-.135-.988-.183-1.561-.29-.505-.096-1.332-.352-1.618-.197-.04.02-.05.089-.057.094-.147.098-.309.405-.641.63h.002zm4.185 12.226c-.227.009-.614-.098-.76.072.223.005.618.078.76-.072zm-.558 1.5c.766 1.448 1.444 2.458 2.175 3.76.476.848 1.182 2.5 1.57 2.7.064.032.188-.163.291-.18.047-.01 1.102.363 1.142.263.011-.027-.202-.556-.346-.646-.028-.017-.167.117-.274.114-.25-.01-1.046-.377-1.029-.45.108-.467 1.432.6.983-.27-.686-1.328-1.743-3.285-2.511-4.759-.044-.083-.193-.464-.229-.548-.103-.243-.177-.752-.366-.404-.323.595-1.854-.697-1.877-.61-.03.11.37.842.47 1.029zm4.123 6.972c.063.107.414.914.724 1.158.225.177 1.877.53 1.117-.238-.098-.099-1.54-.39-1.5-.558.08-.342 1.123.256 1.19.062-.003.01-.245-.504-.269-.521-.028-.023-.145.06-.258.047-.41-.05-1.175-.524-1.236-.321-.016.055.161.249.233.372v-.001zm2.12 2.011c1.352.348-1.091-.87-1.07-.424.01.239.927.388 1.07.424zm-.186.807c.176.097 1.086.162 1.106.114.012-.027-.126-.328-.284-.455-.283-.227-1.343-.342-1.344-.31-.011.176.44.606.522.651zm.397.729c.064.057 1.315.285 1.334.202.086-.375-1.558-.744-1.566-.574-.003.045.146.296.232.372zm.533.76c.137.123.798.245.992.3 1.195.341-1.17-1.188-1.2-.632-.002.036.14.27.207.331l.001.001zm-2.562 6.95c.037.014.163-.12.207-.13.344-.08.556.1.289-.18a17.06 17.06 0 01-1.138-1.362c-.275-.38-.925-1.48-1.179-1.794-.13-.163-.225-.26-.15.035.127.498.793 2.21 1.2 2.472.197.128-.013-.097.206-.129.117-.018.834.278.487.502-.188.122-.164-.07-.471-.108.255.21.244.582.548.692v.001zm3.316-5.926c.42.62.927 1.487 1.422 2.276.755 1.205 1.249 1.357 2.181 1.744.512.212.35.02.052-.378-.151-.201-.513-.666-.703-.94-.33-.48-.804-1.34-1.04-1.48-.149-.09-1.003.057-.924-.284.095-.414.615.205.718-.046.077-.187-.267-.414-.356-.295-.126.165-1.172-.242-1.072-.424.065-.117.584.11.647.114.411.028.434-.345.004-.636-.146-.1-.092.097-.298.072-.213-.026-1.018-.528-1.035-.274-.007.109.31.416.403.554v-.003zm-1.977 5.952c.424.343.863.766 1.19.983.306.203.625.26 1.012.517.387.256 1.409 1.087.43.594-.337-.168-1.046-.727-1.345-.77-.109-.014-.11.12-.248.156-.394.1-1.344-.349-.496.31.91.707 2.033 1.028 2.828 1.396.496.23 1.01.567 1.572.86.594.31 1.289.47 1.846.745.424.208.803.52 1.16.658.194.075.415.063.603.139.535.217.822.714 1.407.963.075.03 1.131.156.735-.115-.688-.467-1.34-.583-2-.993-.242-.15-.545-.428-.823-.579-.127-.069-.818-.308-.822-.58-.005-.27.47-.245.714-.33-.045.015.632-.284.63-.28.014-.078-.553-.41-.727-.522-.29-.185-.589-.43-.802-.362.029-.01.036.152.036.15-.041.18-1.045.47-1.05.253-.002-.184.886-.39.895-.501.006-.067-.332-.233-.21-.155-.892-.57-1.959-.776-2.736-1.34-.18-.13-1.264-.954-.59-.667.68.289 1.236.68 1.8.946 1.658.783 3.308 1.548 4.921 2.908.236.2.529.506.791.714.048.038.667.677.838.512.124-.12-.19-.646-.336-.998-.288-.691-.517-1.344-.998-1.966-.95-1.227-1.983-2.292-3.05-3.041-1.4-.981-3.037-1.946-4.658-2.21-.828-.134-2.142-.245-2.508-.332-.57-.135-1.159-.383-1.717-.538.057.016-.266-.073-.27-.061-.029.131-.153-.091.44.243.789.445 1.635.873 2.43 1.128.684.219 1.04.098 1.681.388.45.205.882.279 1.288.404 1.074.332 2.445 1.365 3.345 2.224.491.47.272.49-.155.213-.828-.538-1.3-1.006-2.068-1.47-.204-.12-.706-.524-.837-.51.04-.004-.255.36-.13.253-.182.153-1.432.762-1.478.579-.072-.288 1.245-.718 1.272-.91.01-.062-.335-.196-.563-.166-.193.025-1.498.813-1.572.522-.064-.246.986-.437 1.008-.688.008-.089-.379-.243-.44-.243-.406 0-1.213.738-1.21.18.003-.189.865-.187.538-.335-.288-.131-1.179.273-1.26.098-.08-.164.081-.1.158-.388-.216-.138-.159.283-.424.15-.177-.09.082-.216.012-.352-.129-.243-.947-.266-1.205-.456.288.15.857.817.336.539-.635-.34-1.58-1.078-2-1.454.767 1.32 1.732 2.714 2.817 3.59l-.005-.003zm24.599-1.503c.114.183.902 1.54.656 1.604-.057.015-.129-.11-.17-.182-.421-.717-1.264-2.094-1.794-2.963-.153-.25-.496-.864-.687-1.01-.062-.045-.188.03-.284.006-.115-.029-1.473-.817-1.298-.973.16-.141 1.116.78 1.247.43.009-.023-.246-.663-.424-.77-.059-.035-.164.23-.198.237-.145.03-.952-.603-.816-.755.084-.094.64.245.683.264.399.178.063-.235-.067-.475-.856-1.59-1.807-3.176-2.274-5.023-.158-.623-.479-1.93-.438-2.544.03-.464-.51.309-.653.522-.93 1.405-1.393 2.574-1.785 4.048a58.404 58.404 0 00-.761 3.295c-.163.794-.112.823.708 1.226.151.074.911.252.594.491-.277.21-1.491-1.053-1.474-.517.013.359-.293 1.089-.134 1.35.194.317.868.337 1.298.512.243.1.684.476.646.114-.034-.32-.02-.507-.243-.482-.156.019-1.497-.636-1.354-.878.037-.062.149-.008.176.005.266.123 1.154.648 1.298.512.048-.046-.063-.518-.073-.76-.045-1.23.207-2.523.11-3.692-.096-1.154-.03-1.751.26-2.809.036-.133.306-1.325.495-1.23.23.114-.019.858-.026.879-.227.779-.46 1.104-.518 1.934-.04.568.158 1.184.108 1.83-.134 1.733-.214 3.776.174 5.528.194.871.514 1.593.786 2.73.145.607.277 1.336.454 2.016.042.162.219.606.062.652-.071.022-.222-.17-.237-.197-.266-.434-.06-.282-.176-.925-.176-.99-.382-1.648-.656-2.524-.115-.365-.213-1.154-.408-1.297-.027-.02-.1.12-.098.119-.192.133-.758-.345-1.123-.507-.111-.049-1.042-.306-.837-.512.136-.137.803.24 1.019.342.448.213 1.499.728.816-.166-.333-.435-1.4-.55-1.83-.813-.348-.214-.31 1.077-.32 1.236-.046.584-.148 1.064-.136 1.349.019.427.176.847.233 1.293.075.59.082 1.25.134 1.872.131 1.551.255 3.059.542 4.55.189.985.173 2.093.424 3.072.087.344.115.79.2.966.19.394.715.72 1.024 1.087.497.588.863 1.148 1.344 1.691 1.26 1.419 2.653 2.828 3.84 4.216.82.957 1.484 2.003 2.44 3.078.328.368.658.676 1.245 1.349.27.31 1.053 1.36 1.271 1.391.21.031.196-.13.523-.268.424-.178.406-.117.797-.382-.032.02.325-.089.33-.207.012-.203-1.34-.01-1.137-.44.168-.356 1.277.455 1.472.058.104-.209-1.173-.438-1.137-.44 0 0-.24.145-.3.073-.224-.261.185-.418.046-.662-.143-.253-.845-.177-.946-.503-.013-.042.293-.474.326-.49.097-.045.494.007.595.031-.057-.014.606.022.314.321-.1.102-.907-.162-.893.04.003.065.39.19.413.202.481.256.375.179.45-.107.084-.321.826-2 .673-2.147.065.062-1.26.086-1.06-.314.13-.26.558.108.781.145-.04-.007.399-.025.35.01.1-.072.201-1.271.25-1.536.1-.546.145-1.354.155-1.593.045-.958.191-2.254.135-3.19-.075-1.277-.644-3.549-1.053-5.094-.04-.154-.678-1.649-.382-1.718.124-.027.129.073.32.606.405 1.121.489 1.71.801 2.663.57 1.74.646 3.8.547 5.296-.05.753-.017 1.818-.12 2.663-.02.175-.227.784-.134.89-.086-.097.307-.134.294.103-.013.234-.356.251-.388.3-.1.149-.059.562-.135.89-.043.182-.28.528-.222.656.009.021.769.252.677.44-.184.376-.83-.414-.843.123-.006.224 1.217.286.848.622-.17.155-.828-.448-1.014-.059-.164.347 1.365.2.957.611-.11.111-.43-.037-.553-.056.058.009-.493-.143-.553-.058-.105.149 1.212.428 1.154.373.021.02.102.276.113.274.146-.015.38-.638.471-.812.77-1.463 1.308-2.833 1.542-4.53.15-1.074.085-2.3-.056-3.588-.13-1.196-.093-2.437-.324-3.65a15.164 15.164 0 00-.486-1.883c-.218-.664-.528-1.298-.78-1.986-.48-1.31-.898-2.735-1.56-3.972-.952-1.777-2.106-3.268-3.287-4.618-.378-.432-.86-.815-1.195-1.268-1.066-1.444-1.898-3.067-2.786-4.643-.882-1.567-1.82-3.078-2.476-4.607.19 3.591 3.103 7.808 5.49 11.641v-.002zM61.28 65.076c.044-.193-1.187-.267-1.184-.238.038.385 1.175.27 1.184.238zm-.078.796c-.04-.005.026-.126.031-.134.069-.13.76.079.786-.031.067-.29-1.224-.247-1.225-.212-.003.051.264.36.408.377zm7.511 3.188c-.107-.06.26.201.414.201.3 0 1.095-.45 1.096-.455.01-.045-.368-.351-.45-.352-.034.002-.084.166-.156.213-.345.23-1.039.137-1.039.362 0-.038.129.027.135.032v-.001zm1.412.786c.138-.005.875-.416.88-.435.045-.196-.643-.382-.584-.383.046.001-.096.128-.14.145-.251.096-.722.082-.74.29-.005.06.363.39.585.383zm1.474.057c.013-.057-.359-.256-.33-.254-.059-.005-.754.333-.755.356-.017.376 1.013.209 1.085-.102zm-.192.522c.043.05.92.67.983.651.605-.174-.755-1.483-.941-.677a.32.32 0 01-.042.026zm1.623.48c.041.154-.115.403-.383.584-.162.11-.517.093-.547.227-.018.073.923.925.92.921 1.913 2.158 3.435 4.268 5.101 6.42.822 1.059 2.126 2.223 3.106 3.408.92 1.107 1.723 1.854 2.539 2.958.34.46.988 1.36 1.189 1.443.041.017.175-.059.191-.062.064-.017.816-.01.858-.192.085-.373-1.456-.171-1.256-.538.065-.121.748.134.786-.031.086-.37-.637-.262-.683-.265-.194-.005-.735.03-.632-.18.156-.313.76.082.818-.165.014-.063-.413-.583-.497-.613.021.008-.239.171-.29.182-.146.03-.739-.05-.656-.222.142-.297.668.022.708-.156.013-.055-.221-.375-.325-.429-.002-.001-1.281.216-1.091-.181.074-.153.742.005.76-.072.026-.11-.488-.714-.703-.943-1.058-1.123-2.322-2.74-3.463-4.164-1.986-2.476-4.122-4.924-5.882-7.483-.264-.384-.418-.884-.672-.616-.095.1.078.07.104.166v.004zm5.805 9.661c.381 1.05.984 1.947 1.602 3.026 1.016 1.774 2.523 3.377 3.887 4.474.422.338 1.016.808 1.499 1.02 1.148.5.079-.433-.206-.792-.252-.315-.438-.766-.704-.941-.05-.033-.287.04-.326.03-.683-.17-1.763-1.932-2.418-2.86-.132-.185-.471-.477-.523-.652-.037-.128.086-.207.036-.31-.208-.437-.863-.984-1.376-1.557-.466-.523-1.45-1.613-1.483-1.547-.026.053-.015.04.01.109h.002zm5.712 6.382c-.595-.795-1.197-1.561-1.83-2.191.44.863 1.162 1.805 1.83 2.191zm.889.596c.05.02.108-.125.099-.12.014-.009 1.48-.06.812-.45-.04-.022-1.26.082-1.262.098-.002.043.335.465.351.472zm.548.692c.182.066.23-.169.331-.206.004-.003.655.003.692-.088.186-.446-.478-.312-.748-.28-.543.065-.105.042-.585.077-.035.003-.037-.046-.042.026-.005.075.328.462.352.47v.001zm.874 1.123c.25.295.86.779 1.303 1.256.227.245.59.907.77.957.181.05.215-.36.409-.082.071.102-.192.212-.161.387.04.218.884.761 1.287 1.324.114.159.148.28.232.373.102.11.963.899 1.03.91-.028-.005.431-.35.196-.24.057-.027.503-.06.76-.072.173-.007.767.044.559.342-.194.277-1.91-.433-1.071.496.143.157.679.686.832.688-.102 0 .256-.266.197-.237.089-.043.411-.04.786-.031.043 0 .837-.001.6.315-.122.162-.44-.077-.688-.088-.029-.001-.793.057-.817.166-.047.204.252.216.383.336.331.3.768.941 1.138.9-.109.011.036-.198.129-.254.03-.02.997-.19 1.034-.186.066.005.43.13.399.268-.032.137-.62.13-.776.14-.034.001-.781.01-.802.098-.014.065.403.309.424.31.033.003.149-.123.249-.155.3-.094 1.084-.095 1.023.166-.05.22-.893.034-.925.176-.044.193.688.39.652.4.413-.102.718-1.104.61-1.417-.111-.323-.564-.564-.816-.755-.91-.69-1.693-1.44-2.626-2.271-1.435-1.276-2.521-2.052-3.868-3.336-.292-.278-.705-.893-.878-.946-.017-.005-1.516.37-1.118-.222.12-.18.7.156.734-.114.051-.386-.383-.089-.444-.067-.238.083-.93.09-.932-.109.001-.246.445-.126.534-.16-.004.003.318-.332.33-.206-.034-.324-1.37-.12-1.38 0-.007.077.588.805.703.942l-.001-.002zm3.976-2.197c.06.033.177.245.154.247.113-.013.202-.318.187-.346.046.088-1.397-.384-1.443-.192-.06.264.955.213 1.1.29h.002z"/></g></svg>