<svg width="79" height="72" fill="none" xmlns="http://www.w3.org/2000/svg"><path d="M19.755 0l6.934 5.136c-1.883 2.397-3.852 5.822-5.907 10.273-2.054 4.452-3.68 9.332-4.88 14.64-1.198 5.307-1.54 10.615-1.027 15.922 1.199-.513 2.312-.856 3.339-1.027a9.695 9.695 0 013.082-.514c3.424 0 6.25 1.199 8.475 3.596 2.226 2.397 3.339 5.393 3.339 8.989 0 4.794-1.37 8.475-4.11 11.043-2.739 2.568-6.078 3.852-10.016 3.852-5.82 0-10.358-2.225-13.611-6.677C2.29 60.61.75 55.046.75 48.539c0-4.451.77-9.673 2.311-15.666A122.995 122.995 0 019.74 14.64C12.649 8.646 15.989 3.767 19.755 0zm45.2 0l6.935 5.136c-1.883 2.397-3.852 5.822-5.907 10.273-2.055 4.452-3.681 9.332-4.88 14.64-1.198 5.307-1.54 10.615-1.027 15.922 1.199-.513 2.312-.856 3.339-1.027a9.696 9.696 0 013.082-.514c3.424 0 6.249 1.199 8.475 3.596 2.226 2.397 3.339 5.393 3.339 8.989 0 4.794-1.37 8.475-4.11 11.043-2.74 2.568-6.078 3.852-10.016 3.852-5.821 0-10.358-2.225-13.611-6.677-3.082-4.623-4.623-10.187-4.623-16.694 0-4.451.77-9.673 2.311-15.666A122.983 122.983 0 0154.94 14.64C57.85 8.646 61.189 3.767 64.956 0z" fill="#DCB971"/></svg>